%TF.GenerationSoftware,KiCad,Pcbnew,7.0.6*%
%TF.CreationDate,2023-09-20T23:26:58+02:00*%
%TF.ProjectId,epi_ESP32 (2023_01_16 13_30_41 UTC),6570695f-4553-4503-9332-202832303233,1_1*%
%TF.SameCoordinates,Original*%
%TF.FileFunction,Paste,Top*%
%TF.FilePolarity,Positive*%
%FSLAX46Y46*%
G04 Gerber Fmt 4.6, Leading zero omitted, Abs format (unit mm)*
G04 Created by KiCad (PCBNEW 7.0.6) date 2023-09-20 23:26:58*
%MOMM*%
%LPD*%
G01*
G04 APERTURE LIST*
G04 Aperture macros list*
%AMRoundRect*
0 Rectangle with rounded corners*
0 $1 Rounding radius*
0 $2 $3 $4 $5 $6 $7 $8 $9 X,Y pos of 4 corners*
0 Add a 4 corners polygon primitive as box body*
4,1,4,$2,$3,$4,$5,$6,$7,$8,$9,$2,$3,0*
0 Add four circle primitives for the rounded corners*
1,1,$1+$1,$2,$3*
1,1,$1+$1,$4,$5*
1,1,$1+$1,$6,$7*
1,1,$1+$1,$8,$9*
0 Add four rect primitives between the rounded corners*
20,1,$1+$1,$2,$3,$4,$5,0*
20,1,$1+$1,$4,$5,$6,$7,0*
20,1,$1+$1,$6,$7,$8,$9,0*
20,1,$1+$1,$8,$9,$2,$3,0*%
%AMRotRect*
0 Rectangle, with rotation*
0 The origin of the aperture is its center*
0 $1 length*
0 $2 width*
0 $3 Rotation angle, in degrees counterclockwise*
0 Add horizontal line*
21,1,$1,$2,0,0,$3*%
%AMFreePoly0*
4,1,6,0.130000,-0.275000,0.020000,-0.275000,-0.130000,-0.115000,-0.130000,0.115000,0.130000,0.115000,0.130000,-0.275000,0.130000,-0.275000,$1*%
%AMFreePoly1*
4,1,6,0.130000,-0.115000,-0.020000,-0.275000,-0.130000,-0.275000,-0.130000,0.115000,0.130000,0.115000,0.130000,-0.115000,0.130000,-0.115000,$1*%
G04 Aperture macros list end*
%ADD10R,0.800000X0.900000*%
%ADD11FreePoly0,270.000000*%
%ADD12FreePoly1,270.000000*%
%ADD13FreePoly0,90.000000*%
%ADD14FreePoly1,90.000000*%
%ADD15RotRect,0.520000X0.520000X135.000000*%
%ADD16RoundRect,0.062500X0.062500X-0.375000X0.062500X0.375000X-0.062500X0.375000X-0.062500X-0.375000X0*%
%ADD17RoundRect,0.062500X0.375000X-0.062500X0.375000X0.062500X-0.375000X0.062500X-0.375000X-0.062500X0*%
%ADD18RoundRect,0.500000X0.500000X-0.500000X0.500000X0.500000X-0.500000X0.500000X-0.500000X-0.500000X0*%
%ADD19RoundRect,0.140000X-0.170000X0.140000X-0.170000X-0.140000X0.170000X-0.140000X0.170000X0.140000X0*%
%ADD20RoundRect,0.135000X-0.135000X-0.185000X0.135000X-0.185000X0.135000X0.185000X-0.135000X0.185000X0*%
%ADD21RoundRect,0.135000X0.135000X0.185000X-0.135000X0.185000X-0.135000X-0.185000X0.135000X-0.185000X0*%
%ADD22RoundRect,0.140000X0.140000X0.170000X-0.140000X0.170000X-0.140000X-0.170000X0.140000X-0.170000X0*%
%ADD23RoundRect,0.140000X0.170000X-0.140000X0.170000X0.140000X-0.170000X0.140000X-0.170000X-0.140000X0*%
%ADD24RoundRect,0.147500X-0.147500X-0.172500X0.147500X-0.172500X0.147500X0.172500X-0.147500X0.172500X0*%
%ADD25R,0.615500X1.000000*%
%ADD26R,0.307750X1.000000*%
%ADD27R,0.307750X0.500000*%
%ADD28R,0.307750X1.000860*%
%ADD29RoundRect,0.135000X0.185000X-0.135000X0.185000X0.135000X-0.185000X0.135000X-0.185000X-0.135000X0*%
%ADD30RoundRect,0.225000X0.225000X0.250000X-0.225000X0.250000X-0.225000X-0.250000X0.225000X-0.250000X0*%
%ADD31RoundRect,0.135000X-0.185000X0.135000X-0.185000X-0.135000X0.185000X-0.135000X0.185000X0.135000X0*%
%ADD32RoundRect,0.140000X-0.140000X-0.170000X0.140000X-0.170000X0.140000X0.170000X-0.140000X0.170000X0*%
%ADD33RoundRect,0.147500X-0.172500X0.147500X-0.172500X-0.147500X0.172500X-0.147500X0.172500X0.147500X0*%
%ADD34R,0.600000X0.450000*%
G04 APERTURE END LIST*
%TO.C,SW2*%
G36*
X107500000Y-68450000D02*
G01*
X107050000Y-68450000D01*
X107050000Y-68900000D01*
X107500000Y-68900000D01*
X107500000Y-68450000D01*
G37*
G36*
X106750000Y-68450000D02*
G01*
X106300000Y-68450000D01*
X106300000Y-68900000D01*
X106750000Y-68900000D01*
X106750000Y-68450000D01*
G37*
G36*
X107500000Y-71100000D02*
G01*
X107050000Y-71100000D01*
X107050000Y-71550000D01*
X107500000Y-71550000D01*
X107500000Y-71100000D01*
G37*
G36*
X106750000Y-71100000D02*
G01*
X106300000Y-71100000D01*
X106300000Y-71550000D01*
X106750000Y-71550000D01*
X106750000Y-71100000D01*
G37*
%TO.C,SW1*%
G36*
X109200000Y-68450000D02*
G01*
X108750000Y-68450000D01*
X108750000Y-68900000D01*
X109200000Y-68900000D01*
X109200000Y-68450000D01*
G37*
G36*
X108450000Y-68450000D02*
G01*
X108000000Y-68450000D01*
X108000000Y-68900000D01*
X108450000Y-68900000D01*
X108450000Y-68450000D01*
G37*
G36*
X109200000Y-71100000D02*
G01*
X108750000Y-71100000D01*
X108750000Y-71550000D01*
X109200000Y-71550000D01*
X109200000Y-71100000D01*
G37*
G36*
X108450000Y-71100000D02*
G01*
X108000000Y-71100000D01*
X108000000Y-71550000D01*
X108450000Y-71550000D01*
X108450000Y-71100000D01*
G37*
%TO.C,AE1*%
G36*
X100420036Y-72000000D02*
G01*
X99870036Y-72000000D01*
X99870036Y-71200000D01*
X100420036Y-71200000D01*
X100420036Y-72000000D01*
G37*
G36*
X98770036Y-72000000D02*
G01*
X98220036Y-72000000D01*
X98220036Y-71200000D01*
X98770036Y-71200000D01*
X98770036Y-72000000D01*
G37*
%TD*%
D10*
%TO.C,Y1*%
X101170036Y-63500000D03*
X101170036Y-62100000D03*
X100070036Y-62100000D03*
X100070036Y-63500000D03*
%TD*%
D11*
%TO.C,U3*%
X101520036Y-59600000D03*
D12*
X101520036Y-58950000D03*
D13*
X100550036Y-58950000D03*
D14*
X100550036Y-59600000D03*
D15*
X101035036Y-59275000D03*
%TD*%
D16*
%TO.C,U1*%
X103470036Y-65737500D03*
X103970036Y-65737500D03*
X104470036Y-65737500D03*
X104970036Y-65737500D03*
X105470036Y-65737500D03*
X105970036Y-65737500D03*
X106470036Y-65737500D03*
X106970036Y-65737500D03*
D17*
X107657536Y-65050000D03*
X107657536Y-64550000D03*
X107657536Y-64050000D03*
X107657536Y-63550000D03*
X107657536Y-63050000D03*
X107657536Y-62550000D03*
X107657536Y-62050000D03*
X107657536Y-61550000D03*
D16*
X106970036Y-60862500D03*
X106470036Y-60862500D03*
X105970036Y-60862500D03*
X105470036Y-60862500D03*
X104970036Y-60862500D03*
X104470036Y-60862500D03*
X103970036Y-60862500D03*
X103470036Y-60862500D03*
D17*
X102782536Y-61550000D03*
X102782536Y-62050000D03*
X102782536Y-62550000D03*
X102782536Y-63050000D03*
X102782536Y-63550000D03*
X102782536Y-64050000D03*
X102782536Y-64550000D03*
X102782536Y-65050000D03*
D18*
X105220036Y-63300000D03*
%TD*%
D19*
%TO.C,C13*%
X108820036Y-60620000D03*
X108820036Y-61580000D03*
%TD*%
D20*
%TO.C,RV2*%
X100810036Y-58000000D03*
X101830036Y-58000000D03*
%TD*%
D21*
%TO.C,R5*%
X105780036Y-56900000D03*
X104760036Y-56900000D03*
%TD*%
D22*
%TO.C,C2*%
X108100036Y-59700000D03*
X107140036Y-59700000D03*
%TD*%
D23*
%TO.C,C7*%
X108820036Y-65380000D03*
X108820036Y-64420000D03*
%TD*%
D20*
%TO.C,RV1*%
X106610036Y-56900000D03*
X107630036Y-56900000D03*
%TD*%
D23*
%TO.C,C4*%
X99700000Y-65660000D03*
X99700000Y-64700000D03*
%TD*%
D21*
%TO.C,L1*%
X102830036Y-70170000D03*
X101810036Y-70170000D03*
%TD*%
D19*
%TO.C,C1*%
X102095036Y-66895000D03*
X102095036Y-67855000D03*
%TD*%
D24*
%TO.C,FB2*%
X100635036Y-65800000D03*
X101605036Y-65800000D03*
%TD*%
D22*
%TO.C,C11*%
X108800036Y-66900000D03*
X107840036Y-66900000D03*
%TD*%
D25*
%TO.C,J3*%
X107440000Y-55855000D03*
X101040000Y-55855000D03*
X106640000Y-55855000D03*
D26*
X105490923Y-55855000D03*
D27*
X104489970Y-56105000D03*
D28*
X103991169Y-55855430D03*
D25*
X101840000Y-55860000D03*
D26*
X102487811Y-55860000D03*
X103490692Y-55855860D03*
X104990447Y-55855000D03*
%TD*%
D29*
%TO.C,R1*%
X108820036Y-63510000D03*
X108820036Y-62490000D03*
%TD*%
D30*
%TO.C,C14*%
X104195036Y-59400000D03*
X102645036Y-59400000D03*
%TD*%
D21*
%TO.C,R4*%
X101830036Y-57000000D03*
X100810036Y-57000000D03*
%TD*%
D22*
%TO.C,C3*%
X100700036Y-60925000D03*
X99740036Y-60925000D03*
%TD*%
%TO.C,C8*%
X106500036Y-67900000D03*
X105540036Y-67900000D03*
%TD*%
D21*
%TO.C,R6*%
X108830036Y-67900000D03*
X107810036Y-67900000D03*
%TD*%
D31*
%TO.C,R8*%
X99720036Y-56990000D03*
X99720036Y-58010000D03*
%TD*%
D32*
%TO.C,C6*%
X103040036Y-68800000D03*
X104000036Y-68800000D03*
%TD*%
D33*
%TO.C,F1*%
X108520036Y-57815000D03*
X108520036Y-58785000D03*
%TD*%
%TO.C,FB1*%
X108520036Y-56003500D03*
X108520036Y-56973500D03*
%TD*%
D34*
%TO.C,D1*%
X105370036Y-58297500D03*
X107470036Y-58297500D03*
%TD*%
D29*
%TO.C,RV3*%
X103620036Y-58010000D03*
X103620036Y-56990000D03*
%TD*%
D20*
%TO.C,L2*%
X100610036Y-64700000D03*
X101630036Y-64700000D03*
%TD*%
D22*
%TO.C,C5*%
X106100036Y-66900000D03*
X105140036Y-66900000D03*
%TD*%
D23*
%TO.C,C9*%
X99720036Y-59830000D03*
X99720036Y-58870000D03*
%TD*%
D22*
%TO.C,C12*%
X106300036Y-59700000D03*
X105340036Y-59700000D03*
%TD*%
M02*
