%TF.GenerationSoftware,KiCad,Pcbnew,7.0.6*%
%TF.CreationDate,2023-09-20T23:26:58+02:00*%
%TF.ProjectId,epi_ESP32 (2023_01_16 13_30_41 UTC),6570695f-4553-4503-9332-202832303233,1_1*%
%TF.SameCoordinates,Original*%
%TF.FileFunction,Copper,L2,Inr*%
%TF.FilePolarity,Positive*%
%FSLAX46Y46*%
G04 Gerber Fmt 4.6, Leading zero omitted, Abs format (unit mm)*
G04 Created by KiCad (PCBNEW 7.0.6) date 2023-09-20 23:26:58*
%MOMM*%
%LPD*%
G01*
G04 APERTURE LIST*
G04 Aperture macros list*
%AMRoundRect*
0 Rectangle with rounded corners*
0 $1 Rounding radius*
0 $2 $3 $4 $5 $6 $7 $8 $9 X,Y pos of 4 corners*
0 Add a 4 corners polygon primitive as box body*
4,1,4,$2,$3,$4,$5,$6,$7,$8,$9,$2,$3,0*
0 Add four circle primitives for the rounded corners*
1,1,$1+$1,$2,$3*
1,1,$1+$1,$4,$5*
1,1,$1+$1,$6,$7*
1,1,$1+$1,$8,$9*
0 Add four rect primitives between the rounded corners*
20,1,$1+$1,$2,$3,$4,$5,0*
20,1,$1+$1,$4,$5,$6,$7,0*
20,1,$1+$1,$6,$7,$8,$9,0*
20,1,$1+$1,$8,$9,$2,$3,0*%
G04 Aperture macros list end*
%TA.AperFunction,ComponentPad*%
%ADD10O,1.200000X2.000000*%
%TD*%
%TA.AperFunction,ComponentPad*%
%ADD11O,1.200000X2.300000*%
%TD*%
%TA.AperFunction,ComponentPad*%
%ADD12RoundRect,0.250000X-0.500000X-0.250000X0.500000X-0.250000X0.500000X0.250000X-0.500000X0.250000X0*%
%TD*%
%TA.AperFunction,ViaPad*%
%ADD13C,0.600000*%
%TD*%
%TA.AperFunction,Conductor*%
%ADD14C,0.250000*%
%TD*%
G04 APERTURE END LIST*
D10*
%TO.N,unconnected-(J3-SHIELD-PadS1)*%
%TO.C,J3*%
X109840000Y-55105000D03*
D11*
X109840000Y-51105000D03*
D10*
X98640000Y-55105000D03*
D11*
X98640000Y-51105000D03*
%TD*%
D12*
%TO.N,+3.3V*%
%TO.C,J2*%
X110592518Y-57150000D03*
%TO.N,GND*%
X110592518Y-58420000D03*
%TO.N,VCC*%
X110592518Y-59690000D03*
%TO.N,EN*%
X110592518Y-60960000D03*
%TO.N,BOOT*%
X110592518Y-62230000D03*
%TO.N,IO8*%
X110592518Y-63500000D03*
%TO.N,IO7*%
X110592518Y-64770000D03*
%TO.N,IO6*%
X110592518Y-66040000D03*
%TD*%
%TO.N,U0TXD*%
%TO.C,J1*%
X97892518Y-57150000D03*
%TO.N,U0RXD*%
X97892518Y-58420000D03*
%TO.N,IO0*%
X97892518Y-59690000D03*
%TO.N,IO1*%
X97892518Y-60960000D03*
%TO.N,IO2*%
X97892518Y-62230000D03*
%TO.N,IO3*%
X97892518Y-63500000D03*
%TO.N,IO4*%
X97892518Y-64770000D03*
%TO.N,IO5*%
X97892518Y-66040000D03*
%TD*%
D13*
%TO.N,BOOT*%
X108600000Y-69500000D03*
%TO.N,GND*%
X105220036Y-63300000D03*
X109000000Y-71700000D03*
X109800000Y-71700000D03*
X106600000Y-71700000D03*
X108200000Y-71700000D03*
X107400000Y-71700000D03*
%TO.N,IO0*%
X104305281Y-64731900D03*
%TO.N,IO1*%
X105054574Y-64749607D03*
%TO.N,IO2*%
X105804067Y-64745775D03*
%TO.N,+5V*%
X109420036Y-56600000D03*
X106640000Y-55855000D03*
X101820036Y-55900000D03*
%TO.N,GND*%
X103520036Y-70800000D03*
X103120036Y-68000000D03*
X104195036Y-59400000D03*
X105020036Y-71700000D03*
X104720036Y-62800000D03*
X104120036Y-66617081D03*
X98920036Y-66700000D03*
X99220036Y-63500000D03*
X104320036Y-67300000D03*
X104220036Y-71700000D03*
X101320036Y-71200000D03*
X101320036Y-68300000D03*
X102820036Y-67300000D03*
X102620036Y-71700000D03*
X105820036Y-71700000D03*
X104620036Y-69600000D03*
X104220036Y-70400000D03*
X104720036Y-68000000D03*
X102300000Y-69400000D03*
X107420036Y-56500000D03*
X99720036Y-66700000D03*
X105720036Y-63800000D03*
X104820036Y-68800000D03*
X101232134Y-62037902D03*
X105720036Y-62800000D03*
X101820036Y-71700000D03*
X102820036Y-66500000D03*
X101320036Y-66710000D03*
X108985500Y-66900000D03*
X104720036Y-63800000D03*
X100520036Y-66700000D03*
X100020036Y-56100000D03*
X101320036Y-67500000D03*
X106920036Y-67000000D03*
X103420036Y-71700000D03*
X101320036Y-69100000D03*
%TO.N,+3.3V*%
X102405536Y-59400000D03*
X105540036Y-67900000D03*
X109620036Y-67900000D03*
X107720036Y-59000000D03*
X100635036Y-65800000D03*
%TO.N,IO3*%
X107220036Y-65666775D03*
%TO.N,D+*%
X102720036Y-57000000D03*
X103642889Y-62251013D03*
%TO.N,D-*%
X104232169Y-61787867D03*
X103620036Y-57000000D03*
%TO.N,IO4*%
X108223832Y-66040684D03*
%TO.N,IO8*%
X106562914Y-62029500D03*
%TO.N,IO5*%
X106694275Y-64312553D03*
%TO.N,EN*%
X106501815Y-65036924D03*
%TO.N,BOOT*%
X105851172Y-61779520D03*
%TO.N,U0RXD*%
X102370036Y-60725000D03*
%TO.N,IO7*%
X106669536Y-62808045D03*
%TO.N,IO6*%
X106669536Y-63557548D03*
%TO.N,VCC*%
X106400000Y-58300000D03*
X99720036Y-58934500D03*
%TD*%
D14*
%TO.N,GND*%
X109565036Y-58420000D02*
X110075036Y-58420000D01*
%TD*%
%TA.AperFunction,Conductor*%
%TO.N,GND*%
G36*
X109059530Y-55183674D02*
G01*
X109087890Y-55223612D01*
X109089500Y-55237877D01*
X109089500Y-55548709D01*
X109091332Y-55564382D01*
X109104758Y-55679252D01*
X109164763Y-55844117D01*
X109164763Y-55844118D01*
X109261170Y-55990697D01*
X109330748Y-56056340D01*
X109350802Y-56101031D01*
X109333381Y-56146811D01*
X109304859Y-56164300D01*
X109230967Y-56185996D01*
X109230965Y-56185996D01*
X109121987Y-56256032D01*
X109121985Y-56256034D01*
X109037154Y-56353936D01*
X109037152Y-56353939D01*
X108983339Y-56471771D01*
X108964903Y-56600000D01*
X108983339Y-56728228D01*
X109037152Y-56846060D01*
X109037154Y-56846063D01*
X109121987Y-56943967D01*
X109230967Y-57014004D01*
X109355264Y-57050500D01*
X109355265Y-57050500D01*
X109484806Y-57050500D01*
X109484808Y-57050500D01*
X109609105Y-57014004D01*
X109609107Y-57014002D01*
X109609987Y-57013744D01*
X109658690Y-57018981D01*
X109689426Y-57057121D01*
X109692018Y-57075152D01*
X109692018Y-57431516D01*
X109695025Y-57450500D01*
X109706872Y-57525304D01*
X109764468Y-57638342D01*
X109854176Y-57728050D01*
X109875642Y-57738987D01*
X109907454Y-57776234D01*
X109903612Y-57825067D01*
X109874697Y-57853509D01*
X109868655Y-57856462D01*
X109778980Y-57946137D01*
X109723280Y-58060073D01*
X109723278Y-58060078D01*
X109712518Y-58133938D01*
X109712518Y-58706054D01*
X109723280Y-58779927D01*
X109778980Y-58893862D01*
X109868655Y-58983537D01*
X109874692Y-58986488D01*
X109907118Y-59023203D01*
X109904086Y-59072092D01*
X109875644Y-59101011D01*
X109854177Y-59111949D01*
X109764466Y-59201660D01*
X109764465Y-59201662D01*
X109706874Y-59314690D01*
X109706871Y-59314697D01*
X109692018Y-59408483D01*
X109692018Y-59971516D01*
X109706871Y-60065300D01*
X109706872Y-60065304D01*
X109764468Y-60178342D01*
X109854176Y-60268050D01*
X109854181Y-60268052D01*
X109858254Y-60271013D01*
X109857504Y-60272043D01*
X109885842Y-60305225D01*
X109881998Y-60354057D01*
X109857754Y-60378300D01*
X109858254Y-60378987D01*
X109854178Y-60381948D01*
X109764466Y-60471660D01*
X109764465Y-60471662D01*
X109706874Y-60584690D01*
X109706871Y-60584697D01*
X109692018Y-60678483D01*
X109692018Y-61241516D01*
X109706871Y-61335300D01*
X109706874Y-61335308D01*
X109762204Y-61443900D01*
X109764468Y-61448342D01*
X109854176Y-61538050D01*
X109854181Y-61538052D01*
X109858254Y-61541013D01*
X109857504Y-61542043D01*
X109885842Y-61575225D01*
X109881998Y-61624057D01*
X109857754Y-61648300D01*
X109858254Y-61648987D01*
X109854178Y-61651948D01*
X109764466Y-61741660D01*
X109764465Y-61741662D01*
X109706874Y-61854690D01*
X109706871Y-61854697D01*
X109692018Y-61948483D01*
X109692018Y-62511516D01*
X109705237Y-62594980D01*
X109706872Y-62605304D01*
X109764468Y-62718342D01*
X109854176Y-62808050D01*
X109854181Y-62808052D01*
X109858254Y-62811013D01*
X109857503Y-62812046D01*
X109885839Y-62845212D01*
X109882003Y-62894046D01*
X109857755Y-62918301D01*
X109858254Y-62918987D01*
X109854178Y-62921948D01*
X109764466Y-63011660D01*
X109764465Y-63011662D01*
X109706874Y-63124690D01*
X109706871Y-63124697D01*
X109692018Y-63218483D01*
X109692018Y-63781516D01*
X109706871Y-63875300D01*
X109706874Y-63875308D01*
X109754401Y-63968586D01*
X109764468Y-63988342D01*
X109854176Y-64078050D01*
X109854181Y-64078052D01*
X109858254Y-64081013D01*
X109857504Y-64082043D01*
X109885842Y-64115225D01*
X109881998Y-64164057D01*
X109857754Y-64188300D01*
X109858254Y-64188987D01*
X109854178Y-64191948D01*
X109764466Y-64281660D01*
X109764465Y-64281662D01*
X109706874Y-64394690D01*
X109706871Y-64394697D01*
X109699241Y-64442874D01*
X109692437Y-64485839D01*
X109692018Y-64488483D01*
X109692018Y-65051516D01*
X109706871Y-65145300D01*
X109706874Y-65145308D01*
X109762985Y-65255433D01*
X109764468Y-65258342D01*
X109854176Y-65348050D01*
X109854181Y-65348052D01*
X109858254Y-65351013D01*
X109857504Y-65352043D01*
X109885842Y-65385225D01*
X109881998Y-65434057D01*
X109857754Y-65458300D01*
X109858254Y-65458987D01*
X109854178Y-65461948D01*
X109764466Y-65551660D01*
X109764465Y-65551662D01*
X109706874Y-65664690D01*
X109706871Y-65664697D01*
X109692018Y-65758483D01*
X109692018Y-66321516D01*
X109702017Y-66384649D01*
X109706872Y-66415304D01*
X109764468Y-66528342D01*
X109854176Y-66618050D01*
X109967214Y-66675646D01*
X110060999Y-66690500D01*
X110346473Y-66690499D01*
X110391728Y-66709244D01*
X110410473Y-66754392D01*
X110419095Y-71935393D01*
X110400425Y-71980679D01*
X110355202Y-71999500D01*
X101084036Y-71999500D01*
X101038781Y-71980755D01*
X101020036Y-71935500D01*
X101020036Y-69500000D01*
X108144867Y-69500000D01*
X108163303Y-69628228D01*
X108217116Y-69746060D01*
X108217118Y-69746063D01*
X108301951Y-69843967D01*
X108410931Y-69914004D01*
X108535228Y-69950500D01*
X108535229Y-69950500D01*
X108664771Y-69950500D01*
X108664772Y-69950500D01*
X108789069Y-69914004D01*
X108898049Y-69843967D01*
X108982882Y-69746063D01*
X109036697Y-69628226D01*
X109055133Y-69500000D01*
X109036697Y-69371774D01*
X108982882Y-69253937D01*
X108898049Y-69156033D01*
X108898048Y-69156032D01*
X108789069Y-69085996D01*
X108664772Y-69049500D01*
X108535228Y-69049500D01*
X108410931Y-69085996D01*
X108410929Y-69085996D01*
X108301951Y-69156032D01*
X108301949Y-69156034D01*
X108217118Y-69253936D01*
X108217116Y-69253939D01*
X108163303Y-69371771D01*
X108144867Y-69500000D01*
X101020036Y-69500000D01*
X101020036Y-67900000D01*
X105084903Y-67900000D01*
X105103339Y-68028228D01*
X105157152Y-68146060D01*
X105157154Y-68146063D01*
X105241987Y-68243967D01*
X105350967Y-68314004D01*
X105475264Y-68350500D01*
X105475265Y-68350500D01*
X105604807Y-68350500D01*
X105604808Y-68350500D01*
X105729105Y-68314004D01*
X105838085Y-68243967D01*
X105922918Y-68146063D01*
X105976733Y-68028226D01*
X105995169Y-67900000D01*
X109164903Y-67900000D01*
X109183339Y-68028228D01*
X109237152Y-68146060D01*
X109237154Y-68146063D01*
X109321987Y-68243967D01*
X109430967Y-68314004D01*
X109555264Y-68350500D01*
X109555265Y-68350500D01*
X109684807Y-68350500D01*
X109684808Y-68350500D01*
X109809105Y-68314004D01*
X109918085Y-68243967D01*
X110002918Y-68146063D01*
X110056733Y-68028226D01*
X110075169Y-67900000D01*
X110056733Y-67771774D01*
X110002918Y-67653937D01*
X109918085Y-67556033D01*
X109918084Y-67556032D01*
X109809105Y-67485996D01*
X109684808Y-67449500D01*
X109555264Y-67449500D01*
X109430967Y-67485996D01*
X109430965Y-67485996D01*
X109321987Y-67556032D01*
X109321985Y-67556034D01*
X109237154Y-67653936D01*
X109237152Y-67653939D01*
X109183339Y-67771771D01*
X109164903Y-67900000D01*
X105995169Y-67900000D01*
X105976733Y-67771774D01*
X105922918Y-67653937D01*
X105838085Y-67556033D01*
X105838084Y-67556032D01*
X105729105Y-67485996D01*
X105604808Y-67449500D01*
X105475264Y-67449500D01*
X105350967Y-67485996D01*
X105350965Y-67485996D01*
X105241987Y-67556032D01*
X105241985Y-67556034D01*
X105157154Y-67653936D01*
X105157152Y-67653939D01*
X105103339Y-67771771D01*
X105084903Y-67900000D01*
X101020036Y-67900000D01*
X101020036Y-67000000D01*
X98158067Y-67000000D01*
X98112812Y-66981255D01*
X98094067Y-66936018D01*
X98094016Y-66754517D01*
X98112748Y-66709257D01*
X98157998Y-66690499D01*
X98424035Y-66690499D01*
X98424036Y-66690499D01*
X98517822Y-66675646D01*
X98630856Y-66618052D01*
X98630857Y-66618052D01*
X98630857Y-66618051D01*
X98630860Y-66618050D01*
X98720568Y-66528342D01*
X98778164Y-66415304D01*
X98793018Y-66321519D01*
X98793017Y-65800000D01*
X100179903Y-65800000D01*
X100198339Y-65928228D01*
X100252152Y-66046060D01*
X100252154Y-66046063D01*
X100313858Y-66117275D01*
X100336987Y-66143967D01*
X100445967Y-66214004D01*
X100570264Y-66250500D01*
X100570265Y-66250500D01*
X100699807Y-66250500D01*
X100699808Y-66250500D01*
X100824105Y-66214004D01*
X100933085Y-66143967D01*
X101017918Y-66046063D01*
X101071733Y-65928226D01*
X101090169Y-65800000D01*
X101071733Y-65671774D01*
X101068498Y-65664691D01*
X101017919Y-65553939D01*
X101017917Y-65553936D01*
X100933086Y-65456034D01*
X100933084Y-65456032D01*
X100824105Y-65385996D01*
X100821479Y-65385225D01*
X100699808Y-65349500D01*
X100570264Y-65349500D01*
X100445967Y-65385996D01*
X100445965Y-65385996D01*
X100336987Y-65456032D01*
X100336985Y-65456034D01*
X100252154Y-65553936D01*
X100252152Y-65553939D01*
X100198339Y-65671771D01*
X100179903Y-65800000D01*
X98793017Y-65800000D01*
X98793017Y-65758482D01*
X98778164Y-65664696D01*
X98720568Y-65551658D01*
X98630860Y-65461950D01*
X98630855Y-65461947D01*
X98626782Y-65458987D01*
X98627531Y-65457955D01*
X98599195Y-65424781D01*
X98603035Y-65375948D01*
X98627281Y-65351701D01*
X98626782Y-65351013D01*
X98630857Y-65348052D01*
X98630857Y-65348051D01*
X98630860Y-65348050D01*
X98720568Y-65258342D01*
X98778164Y-65145304D01*
X98793018Y-65051519D01*
X98793017Y-64731899D01*
X103850148Y-64731899D01*
X103868584Y-64860128D01*
X103922397Y-64977960D01*
X103922399Y-64977963D01*
X103992585Y-65058964D01*
X104007232Y-65075867D01*
X104116212Y-65145904D01*
X104240509Y-65182400D01*
X104240510Y-65182400D01*
X104370052Y-65182400D01*
X104370053Y-65182400D01*
X104494350Y-65145904D01*
X104603330Y-65075867D01*
X104623887Y-65052141D01*
X104667689Y-65030215D01*
X104714166Y-65045683D01*
X104720623Y-65052140D01*
X104756525Y-65093574D01*
X104865505Y-65163611D01*
X104989802Y-65200107D01*
X104989803Y-65200107D01*
X105119345Y-65200107D01*
X105119346Y-65200107D01*
X105243643Y-65163611D01*
X105352623Y-65093574D01*
X105382612Y-65058963D01*
X105426413Y-65037037D01*
X105472890Y-65052505D01*
X105479348Y-65058963D01*
X105506016Y-65089740D01*
X105506022Y-65089745D01*
X105549811Y-65117886D01*
X105614998Y-65159779D01*
X105739295Y-65196275D01*
X105739296Y-65196275D01*
X105868838Y-65196275D01*
X105868839Y-65196275D01*
X105993136Y-65159779D01*
X105993136Y-65159778D01*
X105997529Y-65158489D01*
X105997943Y-65159900D01*
X106041386Y-65158337D01*
X106077245Y-65191706D01*
X106077252Y-65191721D01*
X106118931Y-65282984D01*
X106118933Y-65282987D01*
X106175309Y-65348050D01*
X106203766Y-65380891D01*
X106312746Y-65450928D01*
X106437043Y-65487424D01*
X106437044Y-65487424D01*
X106566586Y-65487424D01*
X106566587Y-65487424D01*
X106690884Y-65450928D01*
X106695020Y-65448269D01*
X106743224Y-65439571D01*
X106783461Y-65467506D01*
X106792160Y-65515711D01*
X106787839Y-65528694D01*
X106783339Y-65538546D01*
X106764903Y-65666774D01*
X106783339Y-65795003D01*
X106837152Y-65912835D01*
X106837154Y-65912838D01*
X106921987Y-66010742D01*
X107030967Y-66080779D01*
X107155264Y-66117275D01*
X107155265Y-66117275D01*
X107284807Y-66117275D01*
X107284808Y-66117275D01*
X107409105Y-66080779D01*
X107471494Y-66040684D01*
X107768699Y-66040684D01*
X107774464Y-66080778D01*
X107787135Y-66168912D01*
X107840948Y-66286744D01*
X107840950Y-66286747D01*
X107925783Y-66384651D01*
X108034763Y-66454688D01*
X108159060Y-66491184D01*
X108159061Y-66491184D01*
X108288603Y-66491184D01*
X108288604Y-66491184D01*
X108412901Y-66454688D01*
X108521881Y-66384651D01*
X108606714Y-66286747D01*
X108660529Y-66168910D01*
X108678965Y-66040684D01*
X108660529Y-65912458D01*
X108606888Y-65795003D01*
X108606715Y-65794623D01*
X108606713Y-65794620D01*
X108521882Y-65696718D01*
X108521880Y-65696716D01*
X108412901Y-65626680D01*
X108288604Y-65590184D01*
X108159060Y-65590184D01*
X108034763Y-65626680D01*
X108034761Y-65626680D01*
X107925783Y-65696716D01*
X107925781Y-65696718D01*
X107840950Y-65794620D01*
X107840948Y-65794623D01*
X107787135Y-65912455D01*
X107773004Y-66010740D01*
X107768699Y-66040684D01*
X107471494Y-66040684D01*
X107518085Y-66010742D01*
X107602918Y-65912838D01*
X107656733Y-65795001D01*
X107675169Y-65666775D01*
X107656733Y-65538549D01*
X107652232Y-65528694D01*
X107602919Y-65420714D01*
X107602917Y-65420711D01*
X107518086Y-65322809D01*
X107518084Y-65322807D01*
X107409105Y-65252771D01*
X107352613Y-65236184D01*
X107284808Y-65216275D01*
X107155264Y-65216275D01*
X107087459Y-65236184D01*
X107030967Y-65252771D01*
X107030963Y-65252773D01*
X107026823Y-65255433D01*
X106978617Y-65264125D01*
X106938384Y-65236184D01*
X106929692Y-65187978D01*
X106934010Y-65175007D01*
X106938512Y-65165150D01*
X106956948Y-65036924D01*
X106938512Y-64908698D01*
X106884724Y-64790920D01*
X106882975Y-64741968D01*
X106908337Y-64710494D01*
X106992324Y-64656520D01*
X107077157Y-64558616D01*
X107130972Y-64440779D01*
X107149408Y-64312553D01*
X107130972Y-64184327D01*
X107077157Y-64066490D01*
X107041425Y-64025253D01*
X106989327Y-63965127D01*
X106990622Y-63964004D01*
X106971441Y-63925693D01*
X106986906Y-63879216D01*
X107052418Y-63803611D01*
X107106233Y-63685774D01*
X107124669Y-63557548D01*
X107106233Y-63429322D01*
X107052418Y-63311485D01*
X106977226Y-63224707D01*
X106961757Y-63178230D01*
X106977226Y-63140885D01*
X106991259Y-63124690D01*
X107052418Y-63054108D01*
X107106233Y-62936271D01*
X107124669Y-62808045D01*
X107106233Y-62679819D01*
X107052418Y-62561982D01*
X106997324Y-62498399D01*
X106967586Y-62464079D01*
X106967584Y-62464077D01*
X106910803Y-62427586D01*
X106882867Y-62387350D01*
X106891564Y-62339145D01*
X106897031Y-62331841D01*
X106945796Y-62275563D01*
X106999611Y-62157726D01*
X107018047Y-62029500D01*
X106999611Y-61901274D01*
X106978339Y-61854696D01*
X106945797Y-61783439D01*
X106945795Y-61783436D01*
X106860964Y-61685534D01*
X106860962Y-61685532D01*
X106751983Y-61615496D01*
X106749507Y-61614769D01*
X106627686Y-61579000D01*
X106498142Y-61579000D01*
X106373845Y-61615496D01*
X106373843Y-61615496D01*
X106373843Y-61615497D01*
X106356871Y-61626404D01*
X106308665Y-61635100D01*
X106268430Y-61607163D01*
X106264059Y-61599158D01*
X106234054Y-61533457D01*
X106160298Y-61448337D01*
X106149222Y-61435554D01*
X106149220Y-61435552D01*
X106040241Y-61365516D01*
X105915944Y-61329020D01*
X105786400Y-61329020D01*
X105662103Y-61365516D01*
X105662101Y-61365516D01*
X105553123Y-61435552D01*
X105553121Y-61435554D01*
X105468290Y-61533456D01*
X105468288Y-61533459D01*
X105414475Y-61651291D01*
X105396039Y-61779520D01*
X105414475Y-61907748D01*
X105468288Y-62025580D01*
X105468290Y-62025583D01*
X105553123Y-62123487D01*
X105662103Y-62193524D01*
X105786400Y-62230020D01*
X105786401Y-62230020D01*
X105915943Y-62230020D01*
X105915944Y-62230020D01*
X106040241Y-62193524D01*
X106057213Y-62182616D01*
X106105416Y-62173918D01*
X106145653Y-62201853D01*
X106150030Y-62209869D01*
X106180030Y-62275560D01*
X106180032Y-62275563D01*
X106264863Y-62373465D01*
X106264865Y-62373467D01*
X106321646Y-62409958D01*
X106349582Y-62450194D01*
X106340885Y-62498399D01*
X106335414Y-62505708D01*
X106286654Y-62561981D01*
X106286652Y-62561984D01*
X106232839Y-62679816D01*
X106214403Y-62808044D01*
X106232839Y-62936273D01*
X106286652Y-63054105D01*
X106286654Y-63054108D01*
X106361845Y-63140885D01*
X106377314Y-63187362D01*
X106361846Y-63224706D01*
X106286654Y-63311484D01*
X106286652Y-63311487D01*
X106232839Y-63429319D01*
X106214403Y-63557547D01*
X106232839Y-63685776D01*
X106286652Y-63803608D01*
X106286654Y-63803611D01*
X106374484Y-63904974D01*
X106373190Y-63906095D01*
X106392368Y-63944418D01*
X106376900Y-63990888D01*
X106311393Y-64066489D01*
X106311391Y-64066492D01*
X106257578Y-64184324D01*
X106239142Y-64312553D01*
X106250768Y-64393415D01*
X106238653Y-64440877D01*
X106196527Y-64465872D01*
X106149065Y-64453757D01*
X106139051Y-64444434D01*
X106102117Y-64401809D01*
X106102115Y-64401807D01*
X105993136Y-64331771D01*
X105945881Y-64317896D01*
X105868839Y-64295275D01*
X105739295Y-64295275D01*
X105614998Y-64331771D01*
X105614996Y-64331771D01*
X105506022Y-64401804D01*
X105506019Y-64401806D01*
X105476027Y-64436419D01*
X105432225Y-64458344D01*
X105385748Y-64442874D01*
X105379292Y-64436418D01*
X105352624Y-64405641D01*
X105352618Y-64405636D01*
X105243643Y-64335603D01*
X105183337Y-64317896D01*
X105119346Y-64299107D01*
X104989802Y-64299107D01*
X104865505Y-64335603D01*
X104865503Y-64335603D01*
X104756529Y-64405636D01*
X104756525Y-64405639D01*
X104735964Y-64429367D01*
X104692161Y-64451291D01*
X104645685Y-64435820D01*
X104639229Y-64429364D01*
X104615351Y-64401807D01*
X104603330Y-64387933D01*
X104603329Y-64387932D01*
X104494350Y-64317896D01*
X104476153Y-64312553D01*
X104370053Y-64281400D01*
X104240509Y-64281400D01*
X104116212Y-64317896D01*
X104116210Y-64317896D01*
X104007232Y-64387932D01*
X104007230Y-64387934D01*
X103922399Y-64485836D01*
X103922397Y-64485839D01*
X103868584Y-64603671D01*
X103850148Y-64731899D01*
X98793017Y-64731899D01*
X98793017Y-64488482D01*
X98778164Y-64394696D01*
X98720568Y-64281658D01*
X98630860Y-64191950D01*
X98630855Y-64191947D01*
X98626782Y-64188987D01*
X98627530Y-64187957D01*
X98599191Y-64154769D01*
X98603040Y-64105937D01*
X98627283Y-64081702D01*
X98626782Y-64081013D01*
X98630857Y-64078052D01*
X98630857Y-64078051D01*
X98630860Y-64078050D01*
X98720568Y-63988342D01*
X98778164Y-63875304D01*
X98793018Y-63781519D01*
X98793017Y-63218482D01*
X98778164Y-63124696D01*
X98720568Y-63011658D01*
X98630860Y-62921950D01*
X98630855Y-62921947D01*
X98626782Y-62918987D01*
X98627531Y-62917955D01*
X98599195Y-62884781D01*
X98603035Y-62835948D01*
X98627281Y-62811701D01*
X98626782Y-62811013D01*
X98630857Y-62808052D01*
X98630857Y-62808051D01*
X98630860Y-62808050D01*
X98720568Y-62718342D01*
X98778164Y-62605304D01*
X98793018Y-62511519D01*
X98793018Y-62251013D01*
X103187756Y-62251013D01*
X103206192Y-62379241D01*
X103260005Y-62497073D01*
X103260007Y-62497076D01*
X103316247Y-62561982D01*
X103344840Y-62594980D01*
X103453820Y-62665017D01*
X103578117Y-62701513D01*
X103578118Y-62701513D01*
X103707660Y-62701513D01*
X103707661Y-62701513D01*
X103831958Y-62665017D01*
X103940938Y-62594980D01*
X104025771Y-62497076D01*
X104079586Y-62379239D01*
X104092100Y-62292195D01*
X104117094Y-62250073D01*
X104162820Y-62238401D01*
X104162820Y-62238367D01*
X104162954Y-62238367D01*
X104164556Y-62237958D01*
X104164557Y-62237959D01*
X104167395Y-62238367D01*
X104167397Y-62238367D01*
X104296940Y-62238367D01*
X104296941Y-62238367D01*
X104421238Y-62201871D01*
X104530218Y-62131834D01*
X104615051Y-62033930D01*
X104668866Y-61916093D01*
X104687302Y-61787867D01*
X104668866Y-61659641D01*
X104664000Y-61648987D01*
X104615052Y-61541806D01*
X104615050Y-61541803D01*
X104614962Y-61541702D01*
X104534067Y-61448342D01*
X104530219Y-61443901D01*
X104530217Y-61443899D01*
X104421238Y-61373863D01*
X104392810Y-61365516D01*
X104296941Y-61337367D01*
X104167397Y-61337367D01*
X104043100Y-61373863D01*
X104043098Y-61373863D01*
X103934120Y-61443899D01*
X103934118Y-61443901D01*
X103849287Y-61541803D01*
X103849285Y-61541806D01*
X103795472Y-61659638D01*
X103791749Y-61685532D01*
X103783680Y-61741661D01*
X103782958Y-61746680D01*
X103757963Y-61788807D01*
X103712238Y-61800480D01*
X103712238Y-61800513D01*
X103712110Y-61800513D01*
X103710508Y-61800922D01*
X103707661Y-61800513D01*
X103578117Y-61800513D01*
X103453820Y-61837009D01*
X103453818Y-61837009D01*
X103344840Y-61907045D01*
X103344838Y-61907047D01*
X103260007Y-62004949D01*
X103260005Y-62004952D01*
X103206192Y-62122784D01*
X103187756Y-62251013D01*
X98793018Y-62251013D01*
X98793017Y-61948482D01*
X98778164Y-61854696D01*
X98720568Y-61741658D01*
X98630860Y-61651950D01*
X98630855Y-61651947D01*
X98626782Y-61648987D01*
X98627530Y-61647957D01*
X98599191Y-61614769D01*
X98603040Y-61565937D01*
X98627283Y-61541702D01*
X98626782Y-61541013D01*
X98630857Y-61538052D01*
X98630857Y-61538051D01*
X98630860Y-61538050D01*
X98720568Y-61448342D01*
X98778164Y-61335304D01*
X98793018Y-61241519D01*
X98793017Y-60724999D01*
X101914903Y-60724999D01*
X101933339Y-60853228D01*
X101987152Y-60971060D01*
X101987154Y-60971063D01*
X102071987Y-61068967D01*
X102180967Y-61139004D01*
X102305264Y-61175500D01*
X102305265Y-61175500D01*
X102434807Y-61175500D01*
X102434808Y-61175500D01*
X102559105Y-61139004D01*
X102668085Y-61068967D01*
X102752918Y-60971063D01*
X102806733Y-60853226D01*
X102825169Y-60725000D01*
X102806733Y-60596774D01*
X102801218Y-60584699D01*
X102752919Y-60478939D01*
X102752917Y-60478936D01*
X102746612Y-60471660D01*
X102668085Y-60381033D01*
X102668084Y-60381032D01*
X102559105Y-60310996D01*
X102507855Y-60295948D01*
X102434808Y-60274500D01*
X102305264Y-60274500D01*
X102180967Y-60310996D01*
X102180965Y-60310996D01*
X102071987Y-60381032D01*
X102071985Y-60381034D01*
X101987154Y-60478936D01*
X101987152Y-60478939D01*
X101933339Y-60596771D01*
X101914903Y-60724999D01*
X98793017Y-60724999D01*
X98793017Y-60678482D01*
X98778164Y-60584696D01*
X98720568Y-60471658D01*
X98630860Y-60381950D01*
X98630855Y-60381947D01*
X98626782Y-60378987D01*
X98627531Y-60377955D01*
X98599195Y-60344781D01*
X98603035Y-60295948D01*
X98627281Y-60271701D01*
X98626782Y-60271013D01*
X98630857Y-60268052D01*
X98630857Y-60268051D01*
X98630860Y-60268050D01*
X98720568Y-60178342D01*
X98778164Y-60065304D01*
X98793018Y-59971519D01*
X98793017Y-59408482D01*
X98791674Y-59400000D01*
X101950403Y-59400000D01*
X101968839Y-59528228D01*
X102022652Y-59646060D01*
X102022654Y-59646063D01*
X102107487Y-59743967D01*
X102216467Y-59814004D01*
X102340764Y-59850500D01*
X102340765Y-59850500D01*
X102470307Y-59850500D01*
X102470308Y-59850500D01*
X102594605Y-59814004D01*
X102703585Y-59743967D01*
X102788418Y-59646063D01*
X102842233Y-59528226D01*
X102860669Y-59400000D01*
X102842233Y-59271774D01*
X102800576Y-59180560D01*
X102788419Y-59153939D01*
X102788417Y-59153936D01*
X102703586Y-59056034D01*
X102703584Y-59056032D01*
X102616396Y-59000000D01*
X107264903Y-59000000D01*
X107283339Y-59128228D01*
X107337152Y-59246060D01*
X107337154Y-59246063D01*
X107396626Y-59314699D01*
X107421987Y-59343967D01*
X107530967Y-59414004D01*
X107655264Y-59450500D01*
X107655265Y-59450500D01*
X107784807Y-59450500D01*
X107784808Y-59450500D01*
X107909105Y-59414004D01*
X108018085Y-59343967D01*
X108102918Y-59246063D01*
X108156733Y-59128226D01*
X108175169Y-59000000D01*
X108156733Y-58871774D01*
X108126818Y-58806271D01*
X108102919Y-58753939D01*
X108102917Y-58753936D01*
X108068315Y-58714003D01*
X108018085Y-58656033D01*
X108018084Y-58656032D01*
X107909105Y-58585996D01*
X107905737Y-58585007D01*
X107784808Y-58549500D01*
X107655264Y-58549500D01*
X107530967Y-58585996D01*
X107530965Y-58585996D01*
X107421987Y-58656032D01*
X107421985Y-58656034D01*
X107337154Y-58753936D01*
X107337152Y-58753939D01*
X107283339Y-58871771D01*
X107264903Y-59000000D01*
X102616396Y-59000000D01*
X102594605Y-58985996D01*
X102586230Y-58983537D01*
X102470308Y-58949500D01*
X102340764Y-58949500D01*
X102216467Y-58985996D01*
X102216465Y-58985996D01*
X102107487Y-59056032D01*
X102107485Y-59056034D01*
X102022654Y-59153936D01*
X102022652Y-59153939D01*
X101968839Y-59271771D01*
X101950403Y-59400000D01*
X98791674Y-59400000D01*
X98778164Y-59314696D01*
X98720568Y-59201658D01*
X98630860Y-59111950D01*
X98630855Y-59111947D01*
X98626782Y-59108987D01*
X98627530Y-59107957D01*
X98599191Y-59074769D01*
X98603040Y-59025937D01*
X98627283Y-59001702D01*
X98626782Y-59001013D01*
X98630857Y-58998052D01*
X98630857Y-58998051D01*
X98630860Y-58998050D01*
X98694410Y-58934500D01*
X99264903Y-58934500D01*
X99283339Y-59062728D01*
X99337152Y-59180560D01*
X99337154Y-59180563D01*
X99416187Y-59271774D01*
X99421987Y-59278467D01*
X99530967Y-59348504D01*
X99655264Y-59385000D01*
X99655265Y-59385000D01*
X99784807Y-59385000D01*
X99784808Y-59385000D01*
X99909105Y-59348504D01*
X100018085Y-59278467D01*
X100102918Y-59180563D01*
X100156733Y-59062726D01*
X100175169Y-58934500D01*
X100156733Y-58806274D01*
X100151725Y-58795309D01*
X100102919Y-58688439D01*
X100102917Y-58688436D01*
X100018086Y-58590534D01*
X100018084Y-58590532D01*
X99909105Y-58520496D01*
X99909104Y-58520496D01*
X99784808Y-58484000D01*
X99655264Y-58484000D01*
X99530967Y-58520496D01*
X99530965Y-58520496D01*
X99421987Y-58590532D01*
X99421985Y-58590534D01*
X99337154Y-58688436D01*
X99337152Y-58688439D01*
X99283339Y-58806271D01*
X99264903Y-58934500D01*
X98694410Y-58934500D01*
X98720568Y-58908342D01*
X98778164Y-58795304D01*
X98793018Y-58701519D01*
X98793017Y-58300000D01*
X105944867Y-58300000D01*
X105963303Y-58428228D01*
X106017116Y-58546060D01*
X106017118Y-58546063D01*
X106101951Y-58643967D01*
X106210931Y-58714004D01*
X106335228Y-58750500D01*
X106335229Y-58750500D01*
X106464771Y-58750500D01*
X106464772Y-58750500D01*
X106589069Y-58714004D01*
X106698049Y-58643967D01*
X106782882Y-58546063D01*
X106836697Y-58428226D01*
X106855133Y-58300000D01*
X106836697Y-58171774D01*
X106821493Y-58138483D01*
X106782883Y-58053939D01*
X106782881Y-58053936D01*
X106698050Y-57956034D01*
X106698048Y-57956032D01*
X106589069Y-57885996D01*
X106464772Y-57849500D01*
X106335228Y-57849500D01*
X106210931Y-57885996D01*
X106210929Y-57885996D01*
X106101951Y-57956032D01*
X106101949Y-57956034D01*
X106017118Y-58053936D01*
X106017116Y-58053939D01*
X105963303Y-58171771D01*
X105944867Y-58300000D01*
X98793017Y-58300000D01*
X98793017Y-58138482D01*
X98778164Y-58044696D01*
X98720568Y-57931658D01*
X98630860Y-57841950D01*
X98630855Y-57841947D01*
X98626782Y-57838987D01*
X98627531Y-57837955D01*
X98599195Y-57804781D01*
X98603035Y-57755948D01*
X98627281Y-57731701D01*
X98626782Y-57731013D01*
X98630857Y-57728052D01*
X98630857Y-57728051D01*
X98630860Y-57728050D01*
X98720568Y-57638342D01*
X98778164Y-57525304D01*
X98793018Y-57431519D01*
X98793017Y-57000000D01*
X102264903Y-57000000D01*
X102283339Y-57128228D01*
X102337152Y-57246060D01*
X102337154Y-57246063D01*
X102421987Y-57343967D01*
X102530967Y-57414004D01*
X102655264Y-57450500D01*
X102655265Y-57450500D01*
X102784807Y-57450500D01*
X102784808Y-57450500D01*
X102909105Y-57414004D01*
X103018085Y-57343967D01*
X103102918Y-57246063D01*
X103111819Y-57226571D01*
X103147671Y-57193193D01*
X103196623Y-57194942D01*
X103228252Y-57226571D01*
X103237152Y-57246060D01*
X103237154Y-57246063D01*
X103321987Y-57343967D01*
X103430967Y-57414004D01*
X103555264Y-57450500D01*
X103555265Y-57450500D01*
X103684807Y-57450500D01*
X103684808Y-57450500D01*
X103809105Y-57414004D01*
X103918085Y-57343967D01*
X104002918Y-57246063D01*
X104056733Y-57128226D01*
X104075169Y-57000000D01*
X104056733Y-56871774D01*
X104012398Y-56774696D01*
X104002919Y-56753939D01*
X104002917Y-56753936D01*
X103918086Y-56656034D01*
X103918084Y-56656032D01*
X103809105Y-56585996D01*
X103684808Y-56549500D01*
X103555264Y-56549500D01*
X103430967Y-56585996D01*
X103430965Y-56585996D01*
X103321987Y-56656032D01*
X103321985Y-56656034D01*
X103237154Y-56753936D01*
X103237154Y-56753937D01*
X103228252Y-56773429D01*
X103192400Y-56806806D01*
X103143448Y-56805057D01*
X103111820Y-56773429D01*
X103110366Y-56770246D01*
X103102918Y-56753937D01*
X103060501Y-56704984D01*
X103018086Y-56656034D01*
X103018084Y-56656032D01*
X102909105Y-56585996D01*
X102784808Y-56549500D01*
X102655264Y-56549500D01*
X102530967Y-56585996D01*
X102530965Y-56585996D01*
X102421987Y-56656032D01*
X102421985Y-56656034D01*
X102337154Y-56753936D01*
X102337152Y-56753939D01*
X102283339Y-56871771D01*
X102264903Y-57000000D01*
X98793017Y-57000000D01*
X98793017Y-56868482D01*
X98778164Y-56774696D01*
X98720568Y-56661658D01*
X98630860Y-56571950D01*
X98630855Y-56571947D01*
X98517827Y-56514356D01*
X98517820Y-56514353D01*
X98462503Y-56505592D01*
X98424037Y-56499500D01*
X98424034Y-56499500D01*
X98155137Y-56499500D01*
X98109882Y-56480755D01*
X98091137Y-56435518D01*
X98091103Y-56314003D01*
X98091061Y-56165539D01*
X98109793Y-56120282D01*
X98155043Y-56101524D01*
X98187061Y-56110098D01*
X98188780Y-56111090D01*
X98188782Y-56111092D01*
X98340719Y-56198812D01*
X98508790Y-56249130D01*
X98683935Y-56259331D01*
X98856711Y-56228865D01*
X99017804Y-56159377D01*
X99158530Y-56054610D01*
X99271302Y-55920214D01*
X99350040Y-55763433D01*
X99390500Y-55592721D01*
X99390500Y-55267339D01*
X99409245Y-55222084D01*
X99454500Y-55203339D01*
X99499755Y-55222084D01*
X99508514Y-55233011D01*
X99525335Y-55259483D01*
X99541315Y-55284632D01*
X99665388Y-55415587D01*
X99673954Y-55424628D01*
X99830912Y-55536688D01*
X100006397Y-55616675D01*
X100193938Y-55661639D01*
X100193937Y-55661639D01*
X100201563Y-55661966D01*
X100386615Y-55669921D01*
X100577322Y-55641216D01*
X100759024Y-55576583D01*
X100765602Y-55572700D01*
X100779700Y-55564382D01*
X100812226Y-55555500D01*
X101383208Y-55555500D01*
X101428463Y-55574245D01*
X101447208Y-55619500D01*
X101438406Y-55649477D01*
X101439055Y-55649774D01*
X101383339Y-55771771D01*
X101364903Y-55900000D01*
X101383339Y-56028228D01*
X101437152Y-56146060D01*
X101437154Y-56146063D01*
X101482860Y-56198812D01*
X101521987Y-56243967D01*
X101630967Y-56314004D01*
X101755264Y-56350500D01*
X101755265Y-56350500D01*
X101884807Y-56350500D01*
X101884808Y-56350500D01*
X102009105Y-56314004D01*
X102118085Y-56243967D01*
X102202918Y-56146063D01*
X102256733Y-56028226D01*
X102275169Y-55900000D01*
X102256733Y-55771774D01*
X102252922Y-55763430D01*
X102201017Y-55649774D01*
X102202148Y-55649257D01*
X102194328Y-55605890D01*
X102222268Y-55565657D01*
X102256864Y-55555500D01*
X106181936Y-55555500D01*
X106227191Y-55574245D01*
X106245936Y-55619500D01*
X106240152Y-55646087D01*
X106203303Y-55726771D01*
X106184867Y-55855000D01*
X106203303Y-55983228D01*
X106257116Y-56101060D01*
X106257118Y-56101063D01*
X106341817Y-56198813D01*
X106341951Y-56198967D01*
X106450931Y-56269004D01*
X106575228Y-56305500D01*
X106575229Y-56305500D01*
X106704771Y-56305500D01*
X106704772Y-56305500D01*
X106829069Y-56269004D01*
X106938049Y-56198967D01*
X107022882Y-56101063D01*
X107076697Y-55983226D01*
X107095133Y-55855000D01*
X107076697Y-55726774D01*
X107046950Y-55661639D01*
X107039848Y-55646087D01*
X107038099Y-55597135D01*
X107071477Y-55561284D01*
X107098064Y-55555500D01*
X107669568Y-55555500D01*
X107701408Y-55563982D01*
X107722923Y-55576322D01*
X107903438Y-55638116D01*
X108092412Y-55664436D01*
X108282943Y-55654321D01*
X108468069Y-55608141D01*
X108641027Y-55527582D01*
X108795499Y-55415588D01*
X108925841Y-55276250D01*
X108971297Y-55203846D01*
X109011235Y-55175487D01*
X109059530Y-55183674D01*
G37*
%TD.AperFunction*%
%TD*%
M02*
