%TF.GenerationSoftware,KiCad,Pcbnew,7.0.6*%
%TF.CreationDate,2023-09-20T23:26:58+02:00*%
%TF.ProjectId,epi_ESP32 (2023_01_16 13_30_41 UTC),6570695f-4553-4503-9332-202832303233,1_1*%
%TF.SameCoordinates,Original*%
%TF.FileFunction,Copper,L1,Top*%
%TF.FilePolarity,Positive*%
%FSLAX46Y46*%
G04 Gerber Fmt 4.6, Leading zero omitted, Abs format (unit mm)*
G04 Created by KiCad (PCBNEW 7.0.6) date 2023-09-20 23:26:58*
%MOMM*%
%LPD*%
G01*
G04 APERTURE LIST*
G04 Aperture macros list*
%AMRoundRect*
0 Rectangle with rounded corners*
0 $1 Rounding radius*
0 $2 $3 $4 $5 $6 $7 $8 $9 X,Y pos of 4 corners*
0 Add a 4 corners polygon primitive as box body*
4,1,4,$2,$3,$4,$5,$6,$7,$8,$9,$2,$3,0*
0 Add four circle primitives for the rounded corners*
1,1,$1+$1,$2,$3*
1,1,$1+$1,$4,$5*
1,1,$1+$1,$6,$7*
1,1,$1+$1,$8,$9*
0 Add four rect primitives between the rounded corners*
20,1,$1+$1,$2,$3,$4,$5,0*
20,1,$1+$1,$4,$5,$6,$7,0*
20,1,$1+$1,$6,$7,$8,$9,0*
20,1,$1+$1,$8,$9,$2,$3,0*%
%AMRotRect*
0 Rectangle, with rotation*
0 The origin of the aperture is its center*
0 $1 length*
0 $2 width*
0 $3 Rotation angle, in degrees counterclockwise*
0 Add horizontal line*
21,1,$1,$2,0,0,$3*%
%AMFreePoly0*
4,1,6,0.130000,-0.275000,0.020000,-0.275000,-0.130000,-0.115000,-0.130000,0.115000,0.130000,0.115000,0.130000,-0.275000,0.130000,-0.275000,$1*%
%AMFreePoly1*
4,1,6,0.130000,-0.115000,-0.020000,-0.275000,-0.130000,-0.275000,-0.130000,0.115000,0.130000,0.115000,0.130000,-0.115000,0.130000,-0.115000,$1*%
G04 Aperture macros list end*
%TA.AperFunction,SMDPad,CuDef*%
%ADD10R,0.800000X0.900000*%
%TD*%
%TA.AperFunction,SMDPad,CuDef*%
%ADD11FreePoly0,270.000000*%
%TD*%
%TA.AperFunction,SMDPad,CuDef*%
%ADD12FreePoly1,270.000000*%
%TD*%
%TA.AperFunction,SMDPad,CuDef*%
%ADD13FreePoly0,90.000000*%
%TD*%
%TA.AperFunction,SMDPad,CuDef*%
%ADD14FreePoly1,90.000000*%
%TD*%
%TA.AperFunction,SMDPad,CuDef*%
%ADD15RotRect,0.520000X0.520000X135.000000*%
%TD*%
%TA.AperFunction,SMDPad,CuDef*%
%ADD16RoundRect,0.062500X0.062500X-0.375000X0.062500X0.375000X-0.062500X0.375000X-0.062500X-0.375000X0*%
%TD*%
%TA.AperFunction,SMDPad,CuDef*%
%ADD17RoundRect,0.062500X0.375000X-0.062500X0.375000X0.062500X-0.375000X0.062500X-0.375000X-0.062500X0*%
%TD*%
%TA.AperFunction,SMDPad,CuDef*%
%ADD18RoundRect,0.500000X0.500000X-0.500000X0.500000X0.500000X-0.500000X0.500000X-0.500000X-0.500000X0*%
%TD*%
%TA.AperFunction,SMDPad,CuDef*%
%ADD19RoundRect,0.140000X-0.170000X0.140000X-0.170000X-0.140000X0.170000X-0.140000X0.170000X0.140000X0*%
%TD*%
%TA.AperFunction,SMDPad,CuDef*%
%ADD20RoundRect,0.135000X-0.135000X-0.185000X0.135000X-0.185000X0.135000X0.185000X-0.135000X0.185000X0*%
%TD*%
%TA.AperFunction,SMDPad,CuDef*%
%ADD21RoundRect,0.135000X0.135000X0.185000X-0.135000X0.185000X-0.135000X-0.185000X0.135000X-0.185000X0*%
%TD*%
%TA.AperFunction,SMDPad,CuDef*%
%ADD22RoundRect,0.140000X0.140000X0.170000X-0.140000X0.170000X-0.140000X-0.170000X0.140000X-0.170000X0*%
%TD*%
%TA.AperFunction,SMDPad,CuDef*%
%ADD23RoundRect,0.140000X0.170000X-0.140000X0.170000X0.140000X-0.170000X0.140000X-0.170000X-0.140000X0*%
%TD*%
%TA.AperFunction,SMDPad,CuDef*%
%ADD24R,1.300000X0.550000*%
%TD*%
%TA.AperFunction,SMDPad,CuDef*%
%ADD25RoundRect,0.147500X-0.147500X-0.172500X0.147500X-0.172500X0.147500X0.172500X-0.147500X0.172500X0*%
%TD*%
%TA.AperFunction,SMDPad,CuDef*%
%ADD26R,0.615500X1.000000*%
%TD*%
%TA.AperFunction,SMDPad,CuDef*%
%ADD27R,0.307750X1.000000*%
%TD*%
%TA.AperFunction,SMDPad,CuDef*%
%ADD28R,0.307750X0.500000*%
%TD*%
%TA.AperFunction,SMDPad,CuDef*%
%ADD29R,0.307750X1.000860*%
%TD*%
%TA.AperFunction,SMDPad,CuDef*%
%ADD30R,0.607750X0.300000*%
%TD*%
%TA.AperFunction,ComponentPad*%
%ADD31O,1.200000X2.000000*%
%TD*%
%TA.AperFunction,ComponentPad*%
%ADD32O,1.200000X2.300000*%
%TD*%
%TA.AperFunction,SMDPad,CuDef*%
%ADD33RoundRect,0.135000X0.185000X-0.135000X0.185000X0.135000X-0.185000X0.135000X-0.185000X-0.135000X0*%
%TD*%
%TA.AperFunction,SMDPad,CuDef*%
%ADD34RoundRect,0.225000X0.225000X0.250000X-0.225000X0.250000X-0.225000X-0.250000X0.225000X-0.250000X0*%
%TD*%
%TA.AperFunction,SMDPad,CuDef*%
%ADD35RoundRect,0.135000X-0.185000X0.135000X-0.185000X-0.135000X0.185000X-0.135000X0.185000X0.135000X0*%
%TD*%
%TA.AperFunction,SMDPad,CuDef*%
%ADD36RoundRect,0.140000X-0.140000X-0.170000X0.140000X-0.170000X0.140000X0.170000X-0.140000X0.170000X0*%
%TD*%
%TA.AperFunction,SMDPad,CuDef*%
%ADD37RoundRect,0.147500X-0.172500X0.147500X-0.172500X-0.147500X0.172500X-0.147500X0.172500X0.147500X0*%
%TD*%
%TA.AperFunction,SMDPad,CuDef*%
%ADD38R,0.600000X0.450000*%
%TD*%
%TA.AperFunction,ComponentPad*%
%ADD39RoundRect,0.250000X-0.500000X-0.250000X0.500000X-0.250000X0.500000X0.250000X-0.500000X0.250000X0*%
%TD*%
%TA.AperFunction,SMDPad,CuDef*%
%ADD40R,0.400000X0.800000*%
%TD*%
%TA.AperFunction,ViaPad*%
%ADD41C,0.600000*%
%TD*%
%TA.AperFunction,Conductor*%
%ADD42C,0.130000*%
%TD*%
%TA.AperFunction,Conductor*%
%ADD43C,0.250000*%
%TD*%
%TA.AperFunction,Conductor*%
%ADD44C,0.200000*%
%TD*%
%TA.AperFunction,Conductor*%
%ADD45C,0.243000*%
%TD*%
G04 APERTURE END LIST*
%TO.C,AE1*%
G36*
X100620036Y-68000000D02*
G01*
X98620036Y-68000000D01*
X98620036Y-67500000D01*
X100620036Y-67500000D01*
X100620036Y-68000000D01*
G37*
G36*
X100120036Y-69000000D02*
G01*
X100620036Y-69000000D01*
X100620036Y-68000000D01*
X100120036Y-68000000D01*
X100120036Y-69000000D01*
G37*
G36*
X98620036Y-71200000D02*
G01*
X98120036Y-71200000D01*
X98120036Y-67500000D01*
X98620036Y-67500000D01*
X98620036Y-71200000D01*
G37*
G36*
X100720036Y-72000000D02*
G01*
X99870036Y-72000000D01*
X99870036Y-69770000D01*
X100720036Y-69770000D01*
X100720036Y-72000000D01*
G37*
G36*
X98770036Y-72000000D02*
G01*
X98120036Y-72000000D01*
X98120036Y-71200000D01*
X98770036Y-71200000D01*
X98770036Y-72000000D01*
G37*
%TD*%
D10*
%TO.P,Y1,1,1*%
%TO.N,Net-(C4-Pad2)*%
X101170036Y-63500000D03*
%TO.P,Y1,2,2*%
%TO.N,GND*%
X101170036Y-62100000D03*
%TO.P,Y1,3,3*%
%TO.N,Net-(U1-XTAL_N)*%
X100070036Y-62100000D03*
%TO.P,Y1,4,4*%
%TO.N,GND*%
X100070036Y-63500000D03*
%TD*%
D11*
%TO.P,U3,1,OUT*%
%TO.N,+3.3V*%
X101520036Y-59600000D03*
D12*
%TO.P,U3,2,GND*%
%TO.N,GND*%
X101520036Y-58950000D03*
D13*
%TO.P,U3,3,EN*%
%TO.N,VCC*%
X100550036Y-58950000D03*
D14*
%TO.P,U3,4,IN*%
X100550036Y-59600000D03*
D15*
%TO.P,U3,5,GND*%
%TO.N,GND*%
X101035036Y-59275000D03*
%TD*%
D16*
%TO.P,U1,1,LNA_IN*%
%TO.N,Net-(U1-LNA_IN)*%
X103470036Y-65737500D03*
%TO.P,U1,2,VDD3P3*%
%TO.N,+3.3V*%
X103970036Y-65737500D03*
%TO.P,U1,3,VDD3P3*%
X104470036Y-65737500D03*
%TO.P,U1,4,XTAL_32K_P/ADC1_CH0*%
%TO.N,IO0*%
X104970036Y-65737500D03*
%TO.P,U1,5,XTAL_32K_N/ADC1_CH1*%
%TO.N,IO1*%
X105470036Y-65737500D03*
%TO.P,U1,6,GPIO2/ADC1_CH2*%
%TO.N,IO2*%
X105970036Y-65737500D03*
%TO.P,U1,7,CHIP_EN*%
%TO.N,EN*%
X106470036Y-65737500D03*
%TO.P,U1,8,GPIO3/ADC1_CH3*%
%TO.N,IO3*%
X106970036Y-65737500D03*
D17*
%TO.P,U1,9,MTMS/GPIO4/ADC1_CH4*%
%TO.N,IO4*%
X107657536Y-65050000D03*
%TO.P,U1,10,MTDI/GPIO5/ADC2_CH0*%
%TO.N,IO5*%
X107657536Y-64550000D03*
%TO.P,U1,11,VDD3P3_RTC*%
%TO.N,+3.3V*%
X107657536Y-64050000D03*
%TO.P,U1,12,MTCK/GPIO6*%
%TO.N,IO6*%
X107657536Y-63550000D03*
%TO.P,U1,13,MTDO/GPIO7*%
%TO.N,IO7*%
X107657536Y-63050000D03*
%TO.P,U1,14,GPIO8*%
%TO.N,IO8*%
X107657536Y-62550000D03*
%TO.P,U1,15,GPIO9/BOOT*%
%TO.N,BOOT*%
X107657536Y-62050000D03*
%TO.P,U1,16,GPIO10*%
%TO.N,Net-(U1-GPIO10)*%
X107657536Y-61550000D03*
D16*
%TO.P,U1,17,VDD3P3_CPU*%
%TO.N,+3.3V*%
X106970036Y-60862500D03*
%TO.P,U1,18,VDD_SPI/GPIO11*%
%TO.N,Net-(U1-VDD_SPI{slash}GPIO11)*%
X106470036Y-60862500D03*
%TO.P,U1,19,SPIHD/GPIO12*%
%TO.N,unconnected-(U1-SPIHD{slash}GPIO12-Pad19)*%
X105970036Y-60862500D03*
%TO.P,U1,20,SPIWP/GPIO13*%
%TO.N,unconnected-(U1-SPIWP{slash}GPIO13-Pad20)*%
X105470036Y-60862500D03*
%TO.P,U1,21,SPICS0/GPIO14*%
%TO.N,unconnected-(U1-SPICS0{slash}GPIO14-Pad21)*%
X104970036Y-60862500D03*
%TO.P,U1,22,SPICLK/GPIO15*%
%TO.N,unconnected-(U1-SPICLK{slash}GPIO15-Pad22)*%
X104470036Y-60862500D03*
%TO.P,U1,23,SPID/GPIO16*%
%TO.N,unconnected-(U1-SPID{slash}GPIO16-Pad23)*%
X103970036Y-60862500D03*
%TO.P,U1,24,SPIQ/GPIO17*%
%TO.N,unconnected-(U1-SPIQ{slash}GPIO17-Pad24)*%
X103470036Y-60862500D03*
D17*
%TO.P,U1,25,GPIO18/USB_D-*%
%TO.N,D-*%
X102782536Y-61550000D03*
%TO.P,U1,26,GPIO19/USB_D+*%
%TO.N,D+*%
X102782536Y-62050000D03*
%TO.P,U1,27,U0RXD/GPIO20*%
%TO.N,U0RXD*%
X102782536Y-62550000D03*
%TO.P,U1,28,U0TXD/GPIO21*%
%TO.N,Net-(U1-U0TXD{slash}GPIO21)*%
X102782536Y-63050000D03*
%TO.P,U1,29,XTAL_N*%
%TO.N,Net-(U1-XTAL_N)*%
X102782536Y-63550000D03*
%TO.P,U1,30,XTAL_P*%
%TO.N,Net-(U1-XTAL_P)*%
X102782536Y-64050000D03*
%TO.P,U1,31,VDDA*%
%TO.N,Net-(C1-Pad1)*%
X102782536Y-64550000D03*
%TO.P,U1,32,VDDA*%
X102782536Y-65050000D03*
D18*
%TO.P,U1,33,GND*%
%TO.N,GND*%
X105220036Y-63300000D03*
%TD*%
D19*
%TO.P,C13,1*%
%TO.N,GND*%
X108820036Y-60620000D03*
%TO.P,C13,2*%
%TO.N,+3.3V*%
X108820036Y-61580000D03*
%TD*%
D20*
%TO.P,RV2,1*%
%TO.N,GND*%
X100810036Y-58000000D03*
%TO.P,RV2,2*%
%TO.N,D+*%
X101830036Y-58000000D03*
%TD*%
D21*
%TO.P,R5,1*%
%TO.N,Net-(J3-CC1)*%
X105780036Y-56900000D03*
%TO.P,R5,2*%
%TO.N,GND*%
X104760036Y-56900000D03*
%TD*%
D22*
%TO.P,C2,1*%
%TO.N,GND*%
X108100036Y-59700000D03*
%TO.P,C2,2*%
%TO.N,+3.3V*%
X107140036Y-59700000D03*
%TD*%
D23*
%TO.P,C7,1*%
%TO.N,GND*%
X108820036Y-65380000D03*
%TO.P,C7,2*%
%TO.N,+3.3V*%
X108820036Y-64420000D03*
%TD*%
D24*
%TO.P,SW2,1,A*%
%TO.N,EN*%
X106900000Y-68675000D03*
%TO.P,SW2,3,B*%
%TO.N,GND*%
X106900000Y-71325000D03*
%TD*%
D20*
%TO.P,RV1,1*%
%TO.N,+5V*%
X106610036Y-56900000D03*
%TO.P,RV1,2*%
%TO.N,GND*%
X107630036Y-56900000D03*
%TD*%
D23*
%TO.P,C4,1*%
%TO.N,GND*%
X99700000Y-65660000D03*
%TO.P,C4,2*%
%TO.N,Net-(C4-Pad2)*%
X99700000Y-64700000D03*
%TD*%
D21*
%TO.P,L1,1*%
%TO.N,Net-(U1-LNA_IN)*%
X102830036Y-70170000D03*
%TO.P,L1,2*%
%TO.N,Net-(AE1-A)*%
X101810036Y-70170000D03*
%TD*%
D19*
%TO.P,C1,1*%
%TO.N,Net-(C1-Pad1)*%
X102095036Y-66895000D03*
%TO.P,C1,2*%
%TO.N,GND*%
X102095036Y-67855000D03*
%TD*%
D25*
%TO.P,FB2,1*%
%TO.N,+3.3V*%
X100635036Y-65800000D03*
%TO.P,FB2,2*%
%TO.N,Net-(C1-Pad1)*%
X101605036Y-65800000D03*
%TD*%
D22*
%TO.P,C11,1*%
%TO.N,GND*%
X108800036Y-66900000D03*
%TO.P,C11,2*%
%TO.N,EN*%
X107840036Y-66900000D03*
%TD*%
D24*
%TO.P,SW1,1,A*%
%TO.N,BOOT*%
X108600000Y-68675000D03*
%TO.P,SW1,3,B*%
%TO.N,GND*%
X108600000Y-71325000D03*
%TD*%
D26*
%TO.P,J3,A1,GND*%
%TO.N,GND*%
X107440000Y-55855000D03*
X101040000Y-55855000D03*
%TO.P,J3,A4,VBUS*%
%TO.N,+5V*%
X106640000Y-55855000D03*
D27*
%TO.P,J3,A5,CC1*%
%TO.N,Net-(J3-CC1)*%
X105490923Y-55855000D03*
D28*
%TO.P,J3,A6,D+*%
%TO.N,D+*%
X104489970Y-56105000D03*
D29*
%TO.P,J3,A7,D-*%
%TO.N,D-*%
X103991169Y-55855430D03*
D26*
%TO.P,J3,A9,VBUS*%
%TO.N,+5V*%
X101840000Y-55860000D03*
D27*
%TO.P,J3,B5,CC2*%
%TO.N,Net-(J3-CC2)*%
X102487811Y-55860000D03*
%TO.P,J3,B6,D+*%
%TO.N,D+*%
X103490692Y-55855860D03*
%TO.P,J3,B7,D-*%
%TO.N,D-*%
X104990447Y-55855000D03*
D30*
%TO.P,J3,B12,GND*%
%TO.N,GND*%
X107440000Y-56255000D03*
X101040000Y-56255000D03*
D31*
%TO.P,J3,S1,SHIELD*%
%TO.N,unconnected-(J3-SHIELD-PadS1)*%
X109840000Y-55105000D03*
D32*
X109840000Y-51105000D03*
D31*
X98640000Y-55105000D03*
D32*
X98640000Y-51105000D03*
%TD*%
D33*
%TO.P,R1,1*%
%TO.N,+3.3V*%
X108820036Y-63510000D03*
%TO.P,R1,2*%
%TO.N,Net-(U1-GPIO10)*%
X108820036Y-62490000D03*
%TD*%
D34*
%TO.P,C14,1*%
%TO.N,GND*%
X104195036Y-59400000D03*
%TO.P,C14,2*%
%TO.N,+3.3V*%
X102645036Y-59400000D03*
%TD*%
D21*
%TO.P,R4,1*%
%TO.N,Net-(J3-CC2)*%
X101830036Y-57000000D03*
%TO.P,R4,2*%
%TO.N,GND*%
X100810036Y-57000000D03*
%TD*%
D22*
%TO.P,C3,1*%
%TO.N,GND*%
X100700036Y-60925000D03*
%TO.P,C3,2*%
%TO.N,Net-(U1-XTAL_N)*%
X99740036Y-60925000D03*
%TD*%
%TO.P,C8,1*%
%TO.N,GND*%
X106500036Y-67900000D03*
%TO.P,C8,2*%
%TO.N,+3.3V*%
X105540036Y-67900000D03*
%TD*%
D21*
%TO.P,R6,1*%
%TO.N,+3.3V*%
X108830036Y-67900000D03*
%TO.P,R6,2*%
%TO.N,EN*%
X107810036Y-67900000D03*
%TD*%
D35*
%TO.P,R8,1*%
%TO.N,U0TXD*%
X99720036Y-56990000D03*
%TO.P,R8,2*%
%TO.N,Net-(U1-U0TXD{slash}GPIO21)*%
X99720036Y-58010000D03*
%TD*%
D36*
%TO.P,C6,1*%
%TO.N,GND*%
X103040036Y-68800000D03*
%TO.P,C6,2*%
%TO.N,Net-(U1-LNA_IN)*%
X104000036Y-68800000D03*
%TD*%
D37*
%TO.P,F1,1*%
%TO.N,Net-(F1-Pad1)*%
X108520036Y-57815000D03*
%TO.P,F1,2*%
%TO.N,Net-(D1-A)*%
X108520036Y-58785000D03*
%TD*%
%TO.P,FB1,1*%
%TO.N,+5V*%
X108520036Y-56003500D03*
%TO.P,FB1,2*%
%TO.N,Net-(F1-Pad1)*%
X108520036Y-56973500D03*
%TD*%
D38*
%TO.P,D1,1,K*%
%TO.N,VCC*%
X105370036Y-58297500D03*
%TO.P,D1,2,A*%
%TO.N,Net-(D1-A)*%
X107470036Y-58297500D03*
%TD*%
D39*
%TO.P,J2,1,Pin_1*%
%TO.N,+3.3V*%
X110592518Y-57150000D03*
%TO.P,J2,2,Pin_2*%
%TO.N,GND*%
X110592518Y-58420000D03*
%TO.P,J2,3,Pin_3*%
%TO.N,VCC*%
X110592518Y-59690000D03*
%TO.P,J2,4,Pin_4*%
%TO.N,EN*%
X110592518Y-60960000D03*
%TO.P,J2,5,Pin_5*%
%TO.N,BOOT*%
X110592518Y-62230000D03*
%TO.P,J2,6,Pin_6*%
%TO.N,IO8*%
X110592518Y-63500000D03*
%TO.P,J2,7,Pin_7*%
%TO.N,IO7*%
X110592518Y-64770000D03*
%TO.P,J2,8,Pin_8*%
%TO.N,IO6*%
X110592518Y-66040000D03*
%TD*%
D33*
%TO.P,RV3,1*%
%TO.N,GND*%
X103620036Y-58010000D03*
%TO.P,RV3,2*%
%TO.N,D-*%
X103620036Y-56990000D03*
%TD*%
D20*
%TO.P,L2,1*%
%TO.N,Net-(C4-Pad2)*%
X100610036Y-64700000D03*
%TO.P,L2,2*%
%TO.N,Net-(U1-XTAL_P)*%
X101630036Y-64700000D03*
%TD*%
D22*
%TO.P,C5,1*%
%TO.N,GND*%
X106100036Y-66900000D03*
%TO.P,C5,2*%
%TO.N,+3.3V*%
X105140036Y-66900000D03*
%TD*%
D40*
%TO.P,AE1,1,A*%
%TO.N,Net-(AE1-A)*%
X100920036Y-70170000D03*
%TD*%
D23*
%TO.P,C9,1*%
%TO.N,GND*%
X99720036Y-59830000D03*
%TO.P,C9,2*%
%TO.N,VCC*%
X99720036Y-58870000D03*
%TD*%
D22*
%TO.P,C12,1*%
%TO.N,Net-(U1-VDD_SPI{slash}GPIO11)*%
X106300036Y-59700000D03*
%TO.P,C12,2*%
%TO.N,GND*%
X105340036Y-59700000D03*
%TD*%
D39*
%TO.P,J1,1,Pin_1*%
%TO.N,U0TXD*%
X97892518Y-57150000D03*
%TO.P,J1,2,Pin_2*%
%TO.N,U0RXD*%
X97892518Y-58420000D03*
%TO.P,J1,3,Pin_3*%
%TO.N,IO0*%
X97892518Y-59690000D03*
%TO.P,J1,4,Pin_4*%
%TO.N,IO1*%
X97892518Y-60960000D03*
%TO.P,J1,5,Pin_5*%
%TO.N,IO2*%
X97892518Y-62230000D03*
%TO.P,J1,6,Pin_6*%
%TO.N,IO3*%
X97892518Y-63500000D03*
%TO.P,J1,7,Pin_7*%
%TO.N,IO4*%
X97892518Y-64770000D03*
%TO.P,J1,8,Pin_8*%
%TO.N,IO5*%
X97892518Y-66040000D03*
%TD*%
D41*
%TO.N,BOOT*%
X108600000Y-69500000D03*
%TO.N,GND*%
X105220036Y-63300000D03*
X109000000Y-71700000D03*
X109800000Y-71700000D03*
X106600000Y-71700000D03*
X108200000Y-71700000D03*
X107400000Y-71700000D03*
%TO.N,IO0*%
X104305281Y-64731900D03*
%TO.N,IO1*%
X105054574Y-64749607D03*
%TO.N,IO2*%
X105804067Y-64745775D03*
%TO.N,+5V*%
X109420036Y-56600000D03*
X106640000Y-55855000D03*
X101820036Y-55900000D03*
%TO.N,GND*%
X103520036Y-70800000D03*
X103120036Y-68000000D03*
X104195036Y-59400000D03*
X105020036Y-71700000D03*
X104720036Y-62800000D03*
X104120036Y-66617081D03*
X98920036Y-66700000D03*
X99220036Y-63500000D03*
X104320036Y-67300000D03*
X104220036Y-71700000D03*
X101320036Y-71200000D03*
X101320036Y-68300000D03*
X102820036Y-67300000D03*
X102620036Y-71700000D03*
X105820036Y-71700000D03*
X104620036Y-69600000D03*
X104220036Y-70400000D03*
X104720036Y-68000000D03*
X102300000Y-69400000D03*
X107420036Y-56500000D03*
X99720036Y-66700000D03*
X105720036Y-63800000D03*
X104820036Y-68800000D03*
X101232134Y-62037902D03*
X105720036Y-62800000D03*
X101820036Y-71700000D03*
X102820036Y-66500000D03*
X101320036Y-66710000D03*
X108985500Y-66900000D03*
X104720036Y-63800000D03*
X100520036Y-66700000D03*
X100020036Y-56100000D03*
X101320036Y-67500000D03*
X106920036Y-67000000D03*
X103420036Y-71700000D03*
X101320036Y-69100000D03*
%TO.N,+3.3V*%
X102405536Y-59400000D03*
X105540036Y-67900000D03*
X109620036Y-67900000D03*
X107720036Y-59000000D03*
X100635036Y-65800000D03*
%TO.N,IO3*%
X107220036Y-65666775D03*
%TO.N,D+*%
X102720036Y-57000000D03*
X103642889Y-62251013D03*
%TO.N,D-*%
X104232169Y-61787867D03*
X103620036Y-57000000D03*
%TO.N,IO4*%
X108223832Y-66040684D03*
%TO.N,IO8*%
X106562914Y-62029500D03*
%TO.N,IO5*%
X106694275Y-64312553D03*
%TO.N,EN*%
X106501815Y-65036924D03*
%TO.N,BOOT*%
X105851172Y-61779520D03*
%TO.N,U0RXD*%
X102370036Y-60725000D03*
%TO.N,IO7*%
X106669536Y-62808045D03*
%TO.N,IO6*%
X106669536Y-63557548D03*
%TO.N,VCC*%
X106400000Y-58300000D03*
X99720036Y-58934500D03*
%TD*%
D42*
%TO.N,Net-(C4-Pad2)*%
X99700000Y-64700000D02*
X100610036Y-64700000D01*
%TO.N,+3.3V*%
X109405036Y-63510000D02*
X109415036Y-63500000D01*
D43*
X109415036Y-63500000D02*
X109415036Y-63825000D01*
D42*
X108820036Y-63510000D02*
X109405036Y-63510000D01*
D43*
X109415036Y-62175000D02*
X109415036Y-63500000D01*
X109567518Y-65167482D02*
X109567518Y-67847482D01*
X108820036Y-64420000D02*
X109567518Y-65167482D01*
X109567518Y-67847482D02*
X109620036Y-67900000D01*
D42*
%TO.N,BOOT*%
X108600000Y-68675000D02*
X108600000Y-69500000D01*
D43*
%TO.N,+3.3V*%
X109415036Y-63825000D02*
X108820036Y-64420000D01*
X108820036Y-61580000D02*
X109415036Y-62175000D01*
D42*
%TO.N,BOOT*%
X110338446Y-62346463D02*
X110338446Y-62230423D01*
D43*
%TO.N,VCC*%
X106400000Y-58300000D02*
X105456036Y-58300000D01*
X99735536Y-58950000D02*
X100550036Y-58950000D01*
X99720036Y-58934500D02*
X99735536Y-58950000D01*
D42*
%TO.N,IO8*%
X106618069Y-62029500D02*
X107138569Y-62550000D01*
X107138569Y-62550000D02*
X107657536Y-62550000D01*
X106562914Y-62029500D02*
X106618069Y-62029500D01*
%TO.N,BOOT*%
X106777592Y-61500000D02*
X107327592Y-62050000D01*
X106662480Y-61500000D02*
X106777592Y-61500000D01*
X107327592Y-62050000D02*
X107657536Y-62050000D01*
X106130692Y-61500000D02*
X106277592Y-61500000D01*
X106277592Y-61500000D02*
X106292592Y-61515000D01*
X106292592Y-61515000D02*
X106647480Y-61515000D01*
X106647480Y-61515000D02*
X106662480Y-61500000D01*
X105851172Y-61779520D02*
X106130692Y-61500000D01*
D43*
%TO.N,+3.3V*%
X105540036Y-67246899D02*
X105545036Y-67241899D01*
X105545036Y-67241899D02*
X105545036Y-67227297D01*
X105545036Y-67227297D02*
X104470036Y-66152297D01*
X104470036Y-66152297D02*
X104470036Y-65737500D01*
X105540036Y-67900000D02*
X105540036Y-67246899D01*
D42*
%TO.N,Net-(U1-XTAL_N)*%
X102435036Y-63550000D02*
X102782536Y-63550000D01*
X100185036Y-62765000D02*
X101650036Y-62765000D01*
X100070036Y-62650000D02*
X100185036Y-62765000D01*
X99720036Y-61000000D02*
X100070036Y-61350000D01*
X100070036Y-61350000D02*
X100070036Y-62650000D01*
X101650036Y-62765000D02*
X102435036Y-63550000D01*
%TO.N,EN*%
X106470036Y-65068703D02*
X106470036Y-65737500D01*
X106501815Y-65036924D02*
X106470036Y-65068703D01*
%TO.N,IO5*%
X106931722Y-64550000D02*
X107657536Y-64550000D01*
X106694275Y-64312553D02*
X106931722Y-64550000D01*
%TO.N,IO0*%
X104970036Y-65393389D02*
X104970036Y-65737500D01*
X104308547Y-64731900D02*
X104970036Y-65393389D01*
X104305281Y-64731900D02*
X104308547Y-64731900D01*
%TO.N,IO1*%
X105470036Y-65165069D02*
X105054574Y-64749607D01*
X105470036Y-65737500D02*
X105470036Y-65165069D01*
%TO.N,IO2*%
X105955190Y-65722654D02*
X105955190Y-64896898D01*
X105955190Y-64896898D02*
X105804067Y-64745775D01*
X105970036Y-65737500D02*
X105955190Y-65722654D01*
D43*
%TO.N,+3.3V*%
X108102536Y-60862500D02*
X106970036Y-60862500D01*
X108820036Y-61580000D02*
X108102536Y-60862500D01*
%TO.N,+5V*%
X108823536Y-56003500D02*
X108520036Y-56003500D01*
X106640000Y-56770036D02*
X106640000Y-55855000D01*
X101840000Y-55880036D02*
X101820036Y-55900000D01*
X109420036Y-56600000D02*
X108823536Y-56003500D01*
X106510036Y-56900000D02*
X106640000Y-56770036D01*
X101840000Y-55860000D02*
X101840000Y-55880036D01*
%TO.N,GND*%
X101035036Y-59275000D02*
X101360036Y-58950000D01*
X101520036Y-58950000D02*
X101520036Y-58600000D01*
X109565036Y-58420000D02*
X110075036Y-58420000D01*
%TO.N,+3.3V*%
X102405536Y-59400000D02*
X102645036Y-59400000D01*
X107140036Y-59580000D02*
X107140036Y-60180000D01*
X107720036Y-59000000D02*
X107140036Y-59580000D01*
X102405536Y-59400000D02*
X102205536Y-59600000D01*
X106970036Y-60350000D02*
X106970036Y-60862500D01*
X103970036Y-65737500D02*
X104470036Y-65737500D01*
X102205536Y-59600000D02*
X101520036Y-59600000D01*
X107140036Y-60180000D02*
X106970036Y-60350000D01*
X108450036Y-64050000D02*
X108820036Y-64420000D01*
X107657536Y-64050000D02*
X108450036Y-64050000D01*
D42*
X108830036Y-67900000D02*
X109620036Y-67900000D01*
%TO.N,IO3*%
X107149311Y-65737500D02*
X106970036Y-65737500D01*
X107220036Y-65666775D02*
X107149311Y-65737500D01*
%TO.N,D+*%
X103290061Y-56505000D02*
X102795061Y-57000000D01*
X103235036Y-57515000D02*
X103910011Y-57515000D01*
X102720036Y-57000000D02*
X102720036Y-57075025D01*
X103325036Y-56505000D02*
X103290061Y-56505000D01*
X103490692Y-56339344D02*
X103325036Y-56505000D01*
D44*
X103441876Y-62050000D02*
X102782536Y-62050000D01*
D42*
X102795061Y-57000000D02*
X102720036Y-57000000D01*
X103910011Y-57515000D02*
X104275036Y-57149975D01*
X103490692Y-55855860D02*
X103490692Y-56339344D01*
D44*
X103642889Y-62251013D02*
X103441876Y-62050000D01*
D42*
X104275036Y-57149975D02*
X104275036Y-56570860D01*
X104489970Y-56355926D02*
X104275036Y-56570860D01*
X102720036Y-57075025D02*
X101830036Y-57965025D01*
X104489970Y-56105000D02*
X104489970Y-56355926D01*
X101830036Y-57965025D02*
X101830036Y-58000000D01*
X102720036Y-57000000D02*
X103235036Y-57515000D01*
%TO.N,D-*%
X103991169Y-55855430D02*
X104226599Y-55620000D01*
X103720036Y-56890000D02*
X103620036Y-57000000D01*
X104755447Y-55620000D02*
X104990447Y-55855000D01*
X103991169Y-56618867D02*
X103991169Y-55855430D01*
D44*
X104232169Y-61787867D02*
X103994302Y-61550000D01*
D42*
X103620036Y-57000000D02*
X103991169Y-56618867D01*
D44*
X103994302Y-61550000D02*
X102782536Y-61550000D01*
D42*
X104226599Y-55620000D02*
X104755447Y-55620000D01*
%TO.N,IO4*%
X108223832Y-65616296D02*
X108223832Y-66040684D01*
X107657536Y-65050000D02*
X108223832Y-65616296D01*
%TO.N,EN*%
X106470036Y-66067444D02*
X106802592Y-66400000D01*
X106802592Y-66400000D02*
X107340036Y-66400000D01*
X106470036Y-65737500D02*
X106470036Y-66067444D01*
X107840036Y-66900000D02*
X107840036Y-67870000D01*
X107340036Y-66400000D02*
X107840036Y-66900000D01*
X107840036Y-67870000D02*
X107810036Y-67900000D01*
X107120036Y-68675000D02*
X107120036Y-68590000D01*
X107120036Y-68590000D02*
X107810036Y-67900000D01*
%TO.N,U0TXD*%
X99720036Y-56990000D02*
X98155792Y-56990000D01*
X98155792Y-56990000D02*
X98155837Y-57149927D01*
%TO.N,U0RXD*%
X102120036Y-62217444D02*
X102120036Y-61025000D01*
X102782536Y-62550000D02*
X102452592Y-62550000D01*
X102452592Y-62550000D02*
X102120036Y-62217444D01*
X102370036Y-60775000D02*
X102370036Y-60725000D01*
X102120036Y-61025000D02*
X102370036Y-60775000D01*
%TO.N,IO7*%
X106669536Y-62808045D02*
X106872488Y-62808045D01*
X107114443Y-63050000D02*
X107657536Y-63050000D01*
X106872488Y-62808045D02*
X107114443Y-63050000D01*
%TO.N,IO6*%
X106669536Y-63557548D02*
X106677084Y-63550000D01*
X106677084Y-63550000D02*
X107657536Y-63550000D01*
D45*
%TO.N,Net-(U1-LNA_IN)*%
X103756432Y-69863604D02*
X103713640Y-69906396D01*
X103077244Y-70170000D02*
X102830036Y-70170000D01*
X103733640Y-67613604D02*
X103756432Y-67636396D01*
X104020036Y-68272792D02*
X104020036Y-69227208D01*
X103470036Y-65737500D02*
X103470036Y-66977208D01*
X103756436Y-69863608D02*
G75*
G03*
X104020036Y-69227208I-636436J636408D01*
G01*
X103470020Y-66977208D02*
G75*
G03*
X103733640Y-67613604I899980J8D01*
G01*
X103077244Y-70170030D02*
G75*
G03*
X103713639Y-69906395I-44J900030D01*
G01*
X104020030Y-68272792D02*
G75*
G03*
X103756431Y-67636397I-900030J-8D01*
G01*
D43*
%TO.N,VCC*%
X100550036Y-58950000D02*
X100392340Y-59107696D01*
X100392340Y-59442304D02*
X100550036Y-59600000D01*
X100392340Y-59107696D02*
X100392340Y-59442304D01*
%TO.N,Net-(U1-VDD_SPI{slash}GPIO11)*%
X106470036Y-59870000D02*
X106470036Y-60862500D01*
X106300036Y-59700000D02*
X106470036Y-59870000D01*
%TO.N,Net-(D1-A)*%
X107470036Y-58297500D02*
X108085031Y-58297500D01*
X108520036Y-58732505D02*
X108520036Y-58785000D01*
X108085031Y-58297500D02*
X108520036Y-58732505D01*
D42*
%TO.N,Net-(J3-CC1)*%
X105630036Y-55994113D02*
X105490923Y-55855000D01*
X105630036Y-56900000D02*
X105630036Y-55994113D01*
%TO.N,Net-(J3-CC2)*%
X102487811Y-56332225D02*
X101930036Y-56890000D01*
X102487811Y-55860000D02*
X102487811Y-56332225D01*
X101930036Y-56890000D02*
X101820036Y-56890000D01*
%TO.N,Net-(U1-GPIO10)*%
X108310036Y-61872556D02*
X107987480Y-61550000D01*
X108820036Y-62490000D02*
X108310036Y-61980000D01*
X107987480Y-61550000D02*
X107657536Y-61550000D01*
X108310036Y-61980000D02*
X108310036Y-61872556D01*
%TO.N,Net-(U1-XTAL_P)*%
X101630036Y-64690000D02*
X102270036Y-64050000D01*
X102270036Y-64050000D02*
X102782536Y-64050000D01*
D43*
%TO.N,Net-(C1-Pad1)*%
X102095036Y-66895000D02*
X102095036Y-66290000D01*
X102095036Y-66290000D02*
X101605036Y-65800000D01*
X102355036Y-65050000D02*
X102782536Y-65050000D01*
X101605036Y-65800000D02*
X102355036Y-65050000D01*
X102782536Y-65050000D02*
X102782536Y-64550000D01*
D42*
%TO.N,Net-(C4-Pad2)*%
X101170036Y-63500000D02*
X101170036Y-64140000D01*
X101170036Y-64140000D02*
X100610036Y-64700000D01*
D43*
%TO.N,Net-(F1-Pad1)*%
X108520036Y-57815000D02*
X108520036Y-56973500D01*
D42*
%TO.N,Net-(U1-U0TXD{slash}GPIO21)*%
X99195036Y-60117046D02*
X99195036Y-58535000D01*
X101785036Y-62382444D02*
X101785036Y-60890850D01*
X101785036Y-60890850D02*
X101219186Y-60325000D01*
X99195036Y-58535000D02*
X99720036Y-58010000D01*
X101219186Y-60325000D02*
X99402990Y-60325000D01*
X102782536Y-63050000D02*
X102452592Y-63050000D01*
X102452592Y-63050000D02*
X101785036Y-62382444D01*
X99402990Y-60325000D02*
X99195036Y-60117046D01*
D45*
%TO.N,Net-(AE1-A)*%
X101810036Y-70170000D02*
X101141536Y-70170000D01*
%TD*%
%TA.AperFunction,Conductor*%
%TO.N,GND*%
G36*
X99499755Y-55222084D02*
G01*
X99508514Y-55233011D01*
X99525335Y-55259483D01*
X99541315Y-55284632D01*
X99665388Y-55415587D01*
X99673954Y-55424628D01*
X99830912Y-55536688D01*
X100006397Y-55616675D01*
X100193938Y-55661639D01*
X100193937Y-55661639D01*
X100201563Y-55661966D01*
X100386615Y-55669921D01*
X100462524Y-55658495D01*
X100528724Y-55648531D01*
X100576265Y-55660331D01*
X100601537Y-55702292D01*
X100602250Y-55711818D01*
X100602250Y-55755000D01*
X101076000Y-55755000D01*
X101121255Y-55773745D01*
X101140000Y-55819000D01*
X101140000Y-55891000D01*
X101121255Y-55936255D01*
X101076000Y-55955000D01*
X100602250Y-55955000D01*
X100602250Y-56155000D01*
X101076000Y-56155000D01*
X101121255Y-56173745D01*
X101140000Y-56219000D01*
X101140000Y-56291000D01*
X101121255Y-56336255D01*
X101076000Y-56355000D01*
X100602250Y-56355000D01*
X100602250Y-56367804D01*
X100604895Y-56381098D01*
X100606125Y-56393587D01*
X100606125Y-56417805D01*
X100613668Y-56455723D01*
X100613669Y-56455725D01*
X100620194Y-56465491D01*
X100629750Y-56513533D01*
X100602536Y-56554261D01*
X100579467Y-56563817D01*
X100571640Y-56565373D01*
X100571637Y-56565375D01*
X100483982Y-56623943D01*
X100483979Y-56623946D01*
X100425411Y-56711601D01*
X100425409Y-56711604D01*
X100410036Y-56788895D01*
X100410036Y-56900000D01*
X101210036Y-56900000D01*
X101210036Y-56788895D01*
X101194662Y-56711604D01*
X101194660Y-56711601D01*
X101143181Y-56634556D01*
X101133625Y-56586514D01*
X101160839Y-56545786D01*
X101196395Y-56535000D01*
X101356680Y-56535000D01*
X101394598Y-56527456D01*
X101409495Y-56517503D01*
X101457538Y-56507946D01*
X101498266Y-56535158D01*
X101507823Y-56583201D01*
X101490308Y-56615970D01*
X101455422Y-56650855D01*
X101455420Y-56650858D01*
X101455420Y-56650859D01*
X101445916Y-56672383D01*
X101412306Y-56748501D01*
X101409536Y-56772376D01*
X101409536Y-57227616D01*
X101409537Y-57227625D01*
X101410318Y-57234357D01*
X101412306Y-57251498D01*
X101455420Y-57349141D01*
X101530895Y-57424616D01*
X101546320Y-57431427D01*
X101569028Y-57441454D01*
X101602855Y-57476881D01*
X101601722Y-57525852D01*
X101569028Y-57558546D01*
X101530898Y-57575382D01*
X101530895Y-57575384D01*
X101455420Y-57650859D01*
X101442830Y-57679372D01*
X101412306Y-57748501D01*
X101409536Y-57772376D01*
X101409536Y-58227616D01*
X101409537Y-58227622D01*
X101412306Y-58251498D01*
X101455420Y-58349141D01*
X101530895Y-58424616D01*
X101628538Y-58467730D01*
X101652413Y-58470500D01*
X102007658Y-58470499D01*
X102031534Y-58467730D01*
X102129177Y-58424616D01*
X102204652Y-58349141D01*
X102247766Y-58251498D01*
X102250536Y-58227623D01*
X102250536Y-58110000D01*
X103170036Y-58110000D01*
X103170036Y-58171104D01*
X103185409Y-58248395D01*
X103185411Y-58248398D01*
X103243979Y-58336053D01*
X103243982Y-58336056D01*
X103331637Y-58394624D01*
X103331640Y-58394626D01*
X103408931Y-58410000D01*
X103520036Y-58410000D01*
X103520036Y-58110000D01*
X103720036Y-58110000D01*
X103720036Y-58410000D01*
X103831141Y-58410000D01*
X103908431Y-58394626D01*
X103908434Y-58394624D01*
X103996089Y-58336056D01*
X103996092Y-58336053D01*
X104054660Y-58248398D01*
X104054662Y-58248395D01*
X104070036Y-58171104D01*
X104070036Y-58110000D01*
X103720036Y-58110000D01*
X103520036Y-58110000D01*
X103170036Y-58110000D01*
X102250536Y-58110000D01*
X102250535Y-57875796D01*
X102269279Y-57830543D01*
X102630578Y-57469244D01*
X102675833Y-57450500D01*
X102784808Y-57450500D01*
X102810959Y-57442821D01*
X102859662Y-57448056D01*
X102874246Y-57458973D01*
X103078074Y-57662801D01*
X103079227Y-57664016D01*
X103105537Y-57693237D01*
X103105538Y-57693237D01*
X103105539Y-57693238D01*
X103127290Y-57702922D01*
X103136113Y-57707713D01*
X103154648Y-57719749D01*
X103182394Y-57760117D01*
X103182564Y-57785910D01*
X103170036Y-57848898D01*
X103170035Y-57909999D01*
X103170036Y-57910000D01*
X104070035Y-57910000D01*
X104070036Y-57848895D01*
X104054662Y-57771604D01*
X104045969Y-57758595D01*
X104036413Y-57710553D01*
X104061568Y-57671259D01*
X104073732Y-57662422D01*
X104073732Y-57662421D01*
X104073736Y-57662419D01*
X104078239Y-57654618D01*
X104088406Y-57641366D01*
X104408674Y-57321098D01*
X104453928Y-57302354D01*
X104489485Y-57313140D01*
X104521640Y-57334626D01*
X104598931Y-57350000D01*
X104660036Y-57350000D01*
X104660036Y-57000000D01*
X104860036Y-57000000D01*
X104860036Y-57350000D01*
X104921141Y-57350000D01*
X104998431Y-57334626D01*
X104998434Y-57334624D01*
X105086089Y-57276056D01*
X105086092Y-57276053D01*
X105144660Y-57188398D01*
X105144662Y-57188395D01*
X105160036Y-57111104D01*
X105160036Y-57000000D01*
X104860036Y-57000000D01*
X104660036Y-57000000D01*
X104660036Y-56864000D01*
X104678781Y-56818745D01*
X104724036Y-56800000D01*
X105160036Y-56800000D01*
X105160036Y-56688895D01*
X105144662Y-56611604D01*
X105136995Y-56600130D01*
X105127439Y-56552087D01*
X105154652Y-56511359D01*
X105177720Y-56501804D01*
X105203044Y-56496767D01*
X105205125Y-56495376D01*
X105207581Y-56494887D01*
X105208872Y-56494353D01*
X105208978Y-56494609D01*
X105253167Y-56485817D01*
X105276244Y-56495376D01*
X105278323Y-56496765D01*
X105278326Y-56496767D01*
X105313494Y-56503762D01*
X105322227Y-56505500D01*
X105322228Y-56505500D01*
X105327228Y-56505500D01*
X105372483Y-56524245D01*
X105391228Y-56569500D01*
X105385775Y-56595349D01*
X105376670Y-56615970D01*
X105362306Y-56648501D01*
X105359536Y-56672376D01*
X105359536Y-57127616D01*
X105359537Y-57127622D01*
X105362306Y-57151498D01*
X105405420Y-57249141D01*
X105480895Y-57324616D01*
X105578538Y-57367730D01*
X105602413Y-57370500D01*
X105957658Y-57370499D01*
X105981534Y-57367730D01*
X106079177Y-57324616D01*
X106149784Y-57254008D01*
X106195036Y-57235265D01*
X106240287Y-57254008D01*
X106310895Y-57324616D01*
X106408538Y-57367730D01*
X106432413Y-57370500D01*
X106787658Y-57370499D01*
X106811534Y-57367730D01*
X106909177Y-57324616D01*
X106984652Y-57249141D01*
X107027766Y-57151498D01*
X107030536Y-57127623D01*
X107030536Y-57000000D01*
X107230036Y-57000000D01*
X107230036Y-57111104D01*
X107245409Y-57188395D01*
X107245411Y-57188398D01*
X107303979Y-57276053D01*
X107303982Y-57276056D01*
X107391637Y-57334624D01*
X107391640Y-57334626D01*
X107468931Y-57350000D01*
X107530036Y-57350000D01*
X107530036Y-57000000D01*
X107230036Y-57000000D01*
X107030536Y-57000000D01*
X107030535Y-56672378D01*
X107027766Y-56648502D01*
X107013359Y-56615875D01*
X107012229Y-56566907D01*
X107046056Y-56531479D01*
X107084395Y-56527256D01*
X107123321Y-56535000D01*
X107182663Y-56535000D01*
X107227918Y-56553745D01*
X107246663Y-56599000D01*
X107245433Y-56611485D01*
X107230036Y-56688894D01*
X107230036Y-56800000D01*
X107666036Y-56800000D01*
X107711291Y-56818745D01*
X107730036Y-56864000D01*
X107730036Y-57350000D01*
X107791141Y-57350000D01*
X107868431Y-57334626D01*
X107868434Y-57334624D01*
X107956089Y-57276056D01*
X107956091Y-57276054D01*
X107972152Y-57252017D01*
X108012880Y-57224802D01*
X108060922Y-57234357D01*
X108083913Y-57261720D01*
X108097428Y-57292328D01*
X108154095Y-57348995D01*
X108172841Y-57394248D01*
X108154096Y-57439503D01*
X108097430Y-57496169D01*
X108097428Y-57496172D01*
X108052425Y-57598094D01*
X108049537Y-57622991D01*
X108049536Y-57623005D01*
X108049536Y-57623009D01*
X108049536Y-57808502D01*
X108049537Y-57958000D01*
X108030792Y-58003255D01*
X107985537Y-58022000D01*
X107951506Y-58022000D01*
X107906251Y-58003255D01*
X107898292Y-57993557D01*
X107892701Y-57985190D01*
X107878540Y-57963996D01*
X107878539Y-57963995D01*
X107878538Y-57963994D01*
X107828760Y-57930734D01*
X107828758Y-57930733D01*
X107784857Y-57922000D01*
X107784856Y-57922000D01*
X107155216Y-57922000D01*
X107155215Y-57922000D01*
X107111313Y-57930733D01*
X107111311Y-57930734D01*
X107061533Y-57963994D01*
X107061530Y-57963997D01*
X107028270Y-58013775D01*
X107028269Y-58013777D01*
X107019536Y-58057678D01*
X107019536Y-58537321D01*
X107028269Y-58581222D01*
X107028270Y-58581224D01*
X107061530Y-58631002D01*
X107061533Y-58631005D01*
X107092388Y-58651621D01*
X107111314Y-58664267D01*
X107146482Y-58671262D01*
X107155215Y-58673000D01*
X107155216Y-58673000D01*
X107274531Y-58673000D01*
X107319786Y-58691745D01*
X107338531Y-58737000D01*
X107332747Y-58763587D01*
X107283339Y-58871771D01*
X107264903Y-59000000D01*
X107268579Y-59025572D01*
X107256464Y-59073033D01*
X107250485Y-59079933D01*
X107109663Y-59220755D01*
X107064409Y-59239500D01*
X106956669Y-59239500D01*
X106956660Y-59239501D01*
X106932373Y-59242318D01*
X106932374Y-59242318D01*
X106833020Y-59286187D01*
X106765289Y-59353917D01*
X106720036Y-59372662D01*
X106674782Y-59353917D01*
X106607052Y-59286187D01*
X106507698Y-59242318D01*
X106483409Y-59239500D01*
X106483407Y-59239500D01*
X106116669Y-59239500D01*
X106116660Y-59239501D01*
X106092374Y-59242318D01*
X105993020Y-59286187D01*
X105916223Y-59362984D01*
X105872352Y-59462341D01*
X105871201Y-59472268D01*
X105847364Y-59515060D01*
X105800250Y-59528463D01*
X105757458Y-59504626D01*
X105744858Y-59477375D01*
X105734372Y-59424655D01*
X105734371Y-59424652D01*
X105674694Y-59335340D01*
X105585384Y-59275664D01*
X105585382Y-59275663D01*
X105506634Y-59260000D01*
X105440036Y-59260000D01*
X105440036Y-60139999D01*
X105506632Y-60139999D01*
X105506633Y-60139998D01*
X105585380Y-60124336D01*
X105585383Y-60124335D01*
X105674695Y-60064658D01*
X105734371Y-59975348D01*
X105734372Y-59975345D01*
X105744859Y-59922625D01*
X105772072Y-59881896D01*
X105820114Y-59872340D01*
X105860843Y-59899553D01*
X105871202Y-59927735D01*
X105872354Y-59937662D01*
X105916223Y-60037016D01*
X105993020Y-60113813D01*
X106079400Y-60151953D01*
X106113227Y-60187381D01*
X106112096Y-60236351D01*
X106076668Y-60270178D01*
X106053549Y-60274500D01*
X105886552Y-60274500D01*
X105824430Y-60286856D01*
X105824426Y-60286858D01*
X105755592Y-60332851D01*
X105707550Y-60342407D01*
X105684480Y-60332851D01*
X105615645Y-60286858D01*
X105615641Y-60286856D01*
X105553520Y-60274500D01*
X105553516Y-60274500D01*
X105386556Y-60274500D01*
X105386552Y-60274500D01*
X105324430Y-60286856D01*
X105324426Y-60286858D01*
X105255592Y-60332851D01*
X105207550Y-60342407D01*
X105184480Y-60332851D01*
X105115645Y-60286858D01*
X105115641Y-60286856D01*
X105053520Y-60274500D01*
X105053516Y-60274500D01*
X104886556Y-60274500D01*
X104886552Y-60274500D01*
X104824430Y-60286856D01*
X104824426Y-60286858D01*
X104755592Y-60332851D01*
X104707550Y-60342407D01*
X104684480Y-60332851D01*
X104615645Y-60286858D01*
X104615641Y-60286856D01*
X104553520Y-60274500D01*
X104553516Y-60274500D01*
X104386556Y-60274500D01*
X104386552Y-60274500D01*
X104324430Y-60286856D01*
X104324426Y-60286858D01*
X104255592Y-60332851D01*
X104207550Y-60342407D01*
X104184480Y-60332851D01*
X104115645Y-60286858D01*
X104115641Y-60286856D01*
X104053520Y-60274500D01*
X104053516Y-60274500D01*
X103886556Y-60274500D01*
X103886552Y-60274500D01*
X103824430Y-60286856D01*
X103824426Y-60286858D01*
X103755592Y-60332851D01*
X103707550Y-60342407D01*
X103684480Y-60332851D01*
X103615645Y-60286858D01*
X103615641Y-60286856D01*
X103553520Y-60274500D01*
X103553516Y-60274500D01*
X103386556Y-60274500D01*
X103386552Y-60274500D01*
X103324430Y-60286856D01*
X103324426Y-60286858D01*
X103253972Y-60333933D01*
X103253969Y-60333936D01*
X103206894Y-60404390D01*
X103206892Y-60404394D01*
X103194536Y-60466516D01*
X103194536Y-61210500D01*
X103175791Y-61255755D01*
X103130536Y-61274500D01*
X102542777Y-61274500D01*
X102497522Y-61255755D01*
X102478777Y-61210500D01*
X102497522Y-61165245D01*
X102524746Y-61149092D01*
X102559105Y-61139004D01*
X102668085Y-61068967D01*
X102752918Y-60971063D01*
X102806733Y-60853226D01*
X102825169Y-60725000D01*
X102806733Y-60596774D01*
X102806731Y-60596770D01*
X102752919Y-60478939D01*
X102752917Y-60478936D01*
X102746612Y-60471660D01*
X102676277Y-60390487D01*
X102668086Y-60381034D01*
X102668084Y-60381032D01*
X102559105Y-60310996D01*
X102485850Y-60289487D01*
X102434808Y-60274500D01*
X102305264Y-60274500D01*
X102180967Y-60310996D01*
X102180965Y-60310996D01*
X102071987Y-60381032D01*
X102071985Y-60381034D01*
X101987154Y-60478936D01*
X101987152Y-60478939D01*
X101933340Y-60596770D01*
X101932493Y-60599656D01*
X101901758Y-60637797D01*
X101853055Y-60643034D01*
X101825830Y-60626881D01*
X101376146Y-60177197D01*
X101374993Y-60175982D01*
X101372977Y-60173743D01*
X101348683Y-60146762D01*
X101348680Y-60146761D01*
X101348680Y-60146760D01*
X101348681Y-60146760D01*
X101326927Y-60137074D01*
X101318105Y-60132284D01*
X101298137Y-60119318D01*
X101298139Y-60119318D01*
X101289237Y-60117908D01*
X101273224Y-60113165D01*
X101271162Y-60112247D01*
X101264992Y-60109500D01*
X101264991Y-60109500D01*
X101241180Y-60109500D01*
X101231169Y-60108712D01*
X101225772Y-60107857D01*
X101207656Y-60104988D01*
X101207655Y-60104988D01*
X101198956Y-60107319D01*
X101182392Y-60109500D01*
X100215562Y-60109500D01*
X100170307Y-60090755D01*
X100151562Y-60045500D01*
X100152792Y-60033014D01*
X100160035Y-59996597D01*
X100160036Y-59930000D01*
X99684036Y-59930000D01*
X99638781Y-59911255D01*
X99620036Y-59866000D01*
X99620036Y-59794000D01*
X99638781Y-59748745D01*
X99684036Y-59730000D01*
X100160035Y-59730000D01*
X100176755Y-59713280D01*
X100222009Y-59694534D01*
X100267264Y-59713279D01*
X100284780Y-59746047D01*
X100293269Y-59788722D01*
X100293270Y-59788724D01*
X100326530Y-59838502D01*
X100326531Y-59838503D01*
X100326532Y-59838504D01*
X100376314Y-59871767D01*
X100423353Y-59881124D01*
X100435035Y-59883448D01*
X100435036Y-59883448D01*
X100825037Y-59883448D01*
X100834779Y-59881509D01*
X100883758Y-59871767D01*
X100933540Y-59838504D01*
X100958999Y-59800401D01*
X100999726Y-59773187D01*
X101024699Y-59773187D01*
X101035035Y-59775243D01*
X101035036Y-59775243D01*
X101045371Y-59773187D01*
X101093413Y-59782742D01*
X101111072Y-59800401D01*
X101136530Y-59838502D01*
X101136531Y-59838503D01*
X101136532Y-59838504D01*
X101186314Y-59871767D01*
X101233353Y-59881124D01*
X101245035Y-59883448D01*
X101245036Y-59883448D01*
X101635037Y-59883448D01*
X101656509Y-59879176D01*
X101668809Y-59876729D01*
X101681295Y-59875500D01*
X102087989Y-59875500D01*
X102133244Y-59894245D01*
X102198825Y-59959826D01*
X102311411Y-60014866D01*
X102360070Y-60021955D01*
X102384399Y-60025500D01*
X102384400Y-60025500D01*
X102905673Y-60025500D01*
X102923919Y-60022841D01*
X102978661Y-60014866D01*
X103091247Y-59959826D01*
X103179862Y-59871211D01*
X103234902Y-59758625D01*
X103245536Y-59685636D01*
X103245536Y-59500000D01*
X103615036Y-59500000D01*
X103615036Y-59683695D01*
X103625087Y-59752688D01*
X103625089Y-59752694D01*
X103677125Y-59859135D01*
X103760900Y-59942910D01*
X103867341Y-59994946D01*
X103867347Y-59994948D01*
X103936341Y-60005000D01*
X104095036Y-60005000D01*
X104095036Y-59500000D01*
X104295036Y-59500000D01*
X104295036Y-60005000D01*
X104453730Y-60005000D01*
X104522724Y-59994948D01*
X104522730Y-59994946D01*
X104629171Y-59942910D01*
X104712946Y-59859135D01*
X104741855Y-59800000D01*
X104930037Y-59800000D01*
X104930037Y-59896597D01*
X104945699Y-59975344D01*
X104945700Y-59975347D01*
X105005377Y-60064659D01*
X105094687Y-60124335D01*
X105094689Y-60124336D01*
X105173438Y-60139999D01*
X105240036Y-60139999D01*
X105240036Y-59800000D01*
X104930037Y-59800000D01*
X104741855Y-59800000D01*
X104764982Y-59752694D01*
X104764984Y-59752688D01*
X104775036Y-59683695D01*
X104775036Y-59600000D01*
X104930036Y-59600000D01*
X105240036Y-59600000D01*
X105240036Y-59260000D01*
X105173438Y-59260000D01*
X105173437Y-59260001D01*
X105094691Y-59275663D01*
X105094688Y-59275664D01*
X105005376Y-59335341D01*
X104945700Y-59424651D01*
X104945699Y-59424653D01*
X104930036Y-59503402D01*
X104930036Y-59600000D01*
X104775036Y-59600000D01*
X104775036Y-59500000D01*
X104295036Y-59500000D01*
X104095036Y-59500000D01*
X103615036Y-59500000D01*
X103245536Y-59500000D01*
X103245536Y-59300000D01*
X103615036Y-59300000D01*
X104095036Y-59300000D01*
X104095036Y-58795000D01*
X104295036Y-58795000D01*
X104295036Y-59300000D01*
X104775036Y-59300000D01*
X104775036Y-59116304D01*
X104764984Y-59047311D01*
X104764982Y-59047305D01*
X104712946Y-58940864D01*
X104629171Y-58857089D01*
X104522730Y-58805053D01*
X104522724Y-58805051D01*
X104453732Y-58795000D01*
X104295036Y-58795000D01*
X104095036Y-58795000D01*
X103936340Y-58795000D01*
X103867347Y-58805051D01*
X103867341Y-58805053D01*
X103760900Y-58857089D01*
X103677125Y-58940864D01*
X103625089Y-59047305D01*
X103625087Y-59047311D01*
X103615036Y-59116304D01*
X103615036Y-59300000D01*
X103245536Y-59300000D01*
X103245536Y-59114364D01*
X103234902Y-59041375D01*
X103179862Y-58928789D01*
X103091247Y-58840174D01*
X102978661Y-58785134D01*
X102978659Y-58785133D01*
X102978658Y-58785133D01*
X102905673Y-58774500D01*
X102905672Y-58774500D01*
X102384400Y-58774500D01*
X102384399Y-58774500D01*
X102311413Y-58785133D01*
X102198824Y-58840174D01*
X102110210Y-58928788D01*
X102055169Y-59041377D01*
X102044727Y-59113046D01*
X102029767Y-59145727D01*
X102022654Y-59153936D01*
X102022652Y-59153939D01*
X101968839Y-59271772D01*
X101967550Y-59276164D01*
X101965600Y-59275591D01*
X101944157Y-59311734D01*
X101905802Y-59324500D01*
X101712871Y-59324500D01*
X101667616Y-59305755D01*
X101648871Y-59260500D01*
X101667616Y-59215245D01*
X101680826Y-59206418D01*
X101680519Y-59205959D01*
X101728758Y-59173726D01*
X101728762Y-59173722D01*
X101757491Y-59130725D01*
X101757492Y-59130724D01*
X101767583Y-59080001D01*
X101767583Y-58819998D01*
X101757492Y-58769275D01*
X101757491Y-58769274D01*
X101728762Y-58726277D01*
X101728758Y-58726273D01*
X101685761Y-58697544D01*
X101685760Y-58697543D01*
X101635037Y-58687453D01*
X101245035Y-58687453D01*
X101194311Y-58697543D01*
X101194310Y-58697544D01*
X101151313Y-58726273D01*
X101151310Y-58726276D01*
X101132834Y-58753928D01*
X101092105Y-58781141D01*
X101067135Y-58781141D01*
X101035039Y-58774757D01*
X101035035Y-58774757D01*
X101024699Y-58776813D01*
X100976657Y-58767257D01*
X100959000Y-58749600D01*
X100933540Y-58711496D01*
X100933538Y-58711494D01*
X100883760Y-58678234D01*
X100883758Y-58678233D01*
X100825037Y-58666552D01*
X100825036Y-58666552D01*
X100435036Y-58666552D01*
X100435035Y-58666552D01*
X100413562Y-58670823D01*
X100401262Y-58673270D01*
X100388777Y-58674500D01*
X100224790Y-58674500D01*
X100179535Y-58655755D01*
X100166244Y-58636353D01*
X100133849Y-58562984D01*
X100108186Y-58537321D01*
X104919536Y-58537321D01*
X104928269Y-58581222D01*
X104928270Y-58581224D01*
X104961530Y-58631002D01*
X104961533Y-58631005D01*
X104992388Y-58651621D01*
X105011314Y-58664267D01*
X105046482Y-58671262D01*
X105055215Y-58673000D01*
X105055216Y-58673000D01*
X105684857Y-58673000D01*
X105692140Y-58671550D01*
X105728758Y-58664267D01*
X105778540Y-58631004D01*
X105796620Y-58603944D01*
X105837349Y-58576730D01*
X105849835Y-58575500D01*
X106013397Y-58575500D01*
X106058652Y-58594245D01*
X106061765Y-58597589D01*
X106090719Y-58631005D01*
X106101951Y-58643967D01*
X106210931Y-58714004D01*
X106335228Y-58750500D01*
X106335229Y-58750500D01*
X106464771Y-58750500D01*
X106464772Y-58750500D01*
X106589069Y-58714004D01*
X106698049Y-58643967D01*
X106782882Y-58546063D01*
X106836697Y-58428226D01*
X106855133Y-58300000D01*
X106836697Y-58171774D01*
X106821493Y-58138483D01*
X106782883Y-58053939D01*
X106782881Y-58053936D01*
X106698050Y-57956034D01*
X106698048Y-57956032D01*
X106589069Y-57885996D01*
X106464772Y-57849500D01*
X106335228Y-57849500D01*
X106210931Y-57885996D01*
X106210929Y-57885996D01*
X106101951Y-57956032D01*
X106101949Y-57956034D01*
X106061765Y-58002411D01*
X106017963Y-58024337D01*
X106013397Y-58024500D01*
X105853176Y-58024500D01*
X105807921Y-58005755D01*
X105799962Y-57996056D01*
X105778541Y-57963997D01*
X105778538Y-57963994D01*
X105728760Y-57930734D01*
X105728758Y-57930733D01*
X105684857Y-57922000D01*
X105684856Y-57922000D01*
X105055216Y-57922000D01*
X105055215Y-57922000D01*
X105011313Y-57930733D01*
X105011311Y-57930734D01*
X104961533Y-57963994D01*
X104961530Y-57963997D01*
X104928270Y-58013775D01*
X104928269Y-58013777D01*
X104919536Y-58057678D01*
X104919536Y-58537321D01*
X100108186Y-58537321D01*
X100057052Y-58486187D01*
X100057050Y-58486186D01*
X100056199Y-58485335D01*
X100037454Y-58440080D01*
X100056199Y-58394825D01*
X100065290Y-58387277D01*
X100069168Y-58384619D01*
X100069177Y-58384616D01*
X100144652Y-58309141D01*
X100187766Y-58211498D01*
X100190536Y-58187623D01*
X100190536Y-58100000D01*
X100410036Y-58100000D01*
X100410036Y-58211104D01*
X100425409Y-58288395D01*
X100425411Y-58288398D01*
X100483979Y-58376053D01*
X100483982Y-58376056D01*
X100571637Y-58434624D01*
X100571640Y-58434626D01*
X100648931Y-58450000D01*
X100710036Y-58450000D01*
X100710036Y-58100000D01*
X100910036Y-58100000D01*
X100910036Y-58450000D01*
X100971141Y-58450000D01*
X101048431Y-58434626D01*
X101048434Y-58434624D01*
X101136089Y-58376056D01*
X101136092Y-58376053D01*
X101194660Y-58288398D01*
X101194662Y-58288395D01*
X101210036Y-58211104D01*
X101210036Y-58100000D01*
X100910036Y-58100000D01*
X100710036Y-58100000D01*
X100410036Y-58100000D01*
X100190536Y-58100000D01*
X100190535Y-57832378D01*
X100187766Y-57808502D01*
X100144652Y-57710859D01*
X100069177Y-57635384D01*
X99971534Y-57592270D01*
X99947659Y-57589500D01*
X99947658Y-57589500D01*
X99492419Y-57589500D01*
X99492410Y-57589501D01*
X99468538Y-57592270D01*
X99370895Y-57635384D01*
X99295420Y-57710859D01*
X99283000Y-57738987D01*
X99252306Y-57808501D01*
X99249536Y-57832376D01*
X99249536Y-58149226D01*
X99230791Y-58194481D01*
X99047223Y-58378048D01*
X99046008Y-58379201D01*
X99016799Y-58405501D01*
X99007113Y-58427254D01*
X99002323Y-58436074D01*
X98989355Y-58456044D01*
X98989355Y-58456045D01*
X98987943Y-58464953D01*
X98983202Y-58480957D01*
X98979536Y-58489193D01*
X98979536Y-58513005D01*
X98978748Y-58523016D01*
X98975098Y-58546060D01*
X98975024Y-58546530D01*
X98977355Y-58555230D01*
X98979536Y-58571793D01*
X98979536Y-60110572D01*
X98979492Y-60112242D01*
X98978559Y-60130027D01*
X98977434Y-60151508D01*
X98977435Y-60151516D01*
X98985967Y-60173743D01*
X98988819Y-60183371D01*
X98993767Y-60206652D01*
X98993768Y-60206654D01*
X98993769Y-60206656D01*
X98999064Y-60213945D01*
X99007034Y-60228623D01*
X99010264Y-60237037D01*
X99027103Y-60253876D01*
X99033625Y-60261513D01*
X99047615Y-60280769D01*
X99047618Y-60280772D01*
X99055413Y-60285272D01*
X99068671Y-60295444D01*
X99246028Y-60472802D01*
X99247182Y-60474017D01*
X99273492Y-60503237D01*
X99273493Y-60503238D01*
X99295242Y-60512921D01*
X99304060Y-60517708D01*
X99323016Y-60530019D01*
X99350759Y-60570388D01*
X99346704Y-60609542D01*
X99317385Y-60675943D01*
X99312354Y-60687338D01*
X99309536Y-60711627D01*
X99309536Y-61138366D01*
X99309537Y-61138375D01*
X99311021Y-61151165D01*
X99312354Y-61162662D01*
X99356223Y-61262016D01*
X99433020Y-61338813D01*
X99532374Y-61382682D01*
X99556663Y-61385500D01*
X99585869Y-61385499D01*
X99631122Y-61404243D01*
X99649869Y-61449497D01*
X99631125Y-61494752D01*
X99616443Y-61504564D01*
X99616555Y-61504731D01*
X99561533Y-61541494D01*
X99561530Y-61541497D01*
X99528270Y-61591275D01*
X99528269Y-61591277D01*
X99519536Y-61635178D01*
X99519536Y-62564821D01*
X99528269Y-62608722D01*
X99528270Y-62608724D01*
X99561530Y-62658502D01*
X99561532Y-62658504D01*
X99611314Y-62691767D01*
X99646482Y-62698762D01*
X99655215Y-62700500D01*
X99655216Y-62700500D01*
X99809794Y-62700500D01*
X99855049Y-62719245D01*
X99868261Y-62738468D01*
X99868768Y-62739608D01*
X99868769Y-62739610D01*
X99874064Y-62746899D01*
X99882034Y-62761577D01*
X99885264Y-62769991D01*
X99902103Y-62786830D01*
X99908625Y-62794467D01*
X99926000Y-62818382D01*
X99937435Y-62866012D01*
X99911841Y-62907777D01*
X99874223Y-62920000D01*
X99657231Y-62920000D01*
X99619312Y-62927543D01*
X99619310Y-62927544D01*
X99576313Y-62956273D01*
X99576309Y-62956277D01*
X99547580Y-62999274D01*
X99547579Y-62999276D01*
X99540036Y-63037194D01*
X99540036Y-63400000D01*
X100106036Y-63400000D01*
X100151291Y-63418745D01*
X100170036Y-63464000D01*
X100170036Y-64080000D01*
X100482841Y-64080000D01*
X100520759Y-64072456D01*
X100520761Y-64072455D01*
X100569002Y-64040223D01*
X100570451Y-64042392D01*
X100606546Y-64027432D01*
X100651806Y-64046166D01*
X100659774Y-64055873D01*
X100660991Y-64057694D01*
X100661533Y-64058505D01*
X100696761Y-64082043D01*
X100711314Y-64091767D01*
X100755216Y-64100500D01*
X100755221Y-64100500D01*
X100756683Y-64100644D01*
X100757124Y-64100880D01*
X100758301Y-64101114D01*
X100758230Y-64101470D01*
X100799888Y-64123725D01*
X100814117Y-64170596D01*
X100795698Y-64209572D01*
X100794536Y-64210735D01*
X100749290Y-64229500D01*
X100432419Y-64229500D01*
X100432410Y-64229501D01*
X100408538Y-64232270D01*
X100310895Y-64275384D01*
X100235420Y-64350859D01*
X100235419Y-64350861D01*
X100222857Y-64379310D01*
X100187429Y-64413136D01*
X100138458Y-64412003D01*
X100119188Y-64395995D01*
X100118006Y-64397178D01*
X100113813Y-64392985D01*
X100113813Y-64392984D01*
X100037016Y-64316187D01*
X99937662Y-64272318D01*
X99913373Y-64269500D01*
X99913371Y-64269500D01*
X99486633Y-64269500D01*
X99486624Y-64269501D01*
X99462338Y-64272318D01*
X99362984Y-64316187D01*
X99286187Y-64392984D01*
X99242318Y-64492338D01*
X99239500Y-64516627D01*
X99239500Y-64883366D01*
X99239501Y-64883372D01*
X99242318Y-64907662D01*
X99286187Y-65007016D01*
X99362984Y-65083813D01*
X99462338Y-65127682D01*
X99472265Y-65128833D01*
X99515057Y-65152667D01*
X99528464Y-65199781D01*
X99504630Y-65242574D01*
X99477376Y-65255177D01*
X99424654Y-65265663D01*
X99424652Y-65265664D01*
X99335340Y-65325341D01*
X99275664Y-65414651D01*
X99275663Y-65414653D01*
X99260000Y-65493402D01*
X99260000Y-65560000D01*
X99736000Y-65560000D01*
X99781255Y-65578745D01*
X99800000Y-65624000D01*
X99800000Y-66069999D01*
X99896596Y-66069999D01*
X99896597Y-66069998D01*
X99975344Y-66054336D01*
X99975347Y-66054335D01*
X100064659Y-65994658D01*
X100064660Y-65994657D01*
X100072321Y-65983192D01*
X100113048Y-65955976D01*
X100161090Y-65965531D01*
X100188306Y-66006258D01*
X100189231Y-66015161D01*
X100189286Y-66015158D01*
X100189324Y-66015154D01*
X100189324Y-66015156D01*
X100189431Y-66015150D01*
X100189537Y-66016994D01*
X100192427Y-66041908D01*
X100192428Y-66041912D01*
X100208582Y-66078498D01*
X100237428Y-66143828D01*
X100316208Y-66222608D01*
X100418127Y-66267609D01*
X100418129Y-66267609D01*
X100418131Y-66267610D01*
X100418130Y-66267610D01*
X100443027Y-66270498D01*
X100443028Y-66270498D01*
X100443045Y-66270500D01*
X100827026Y-66270499D01*
X100851945Y-66267609D01*
X100953864Y-66222608D01*
X101032644Y-66143828D01*
X101061490Y-66078497D01*
X101096915Y-66044671D01*
X101145885Y-66045802D01*
X101178582Y-66078498D01*
X101187479Y-66098648D01*
X101207428Y-66143828D01*
X101286208Y-66222608D01*
X101388127Y-66267609D01*
X101388129Y-66267609D01*
X101388131Y-66267610D01*
X101388130Y-66267610D01*
X101413027Y-66270498D01*
X101413028Y-66270498D01*
X101413045Y-66270500D01*
X101659409Y-66270499D01*
X101704664Y-66289244D01*
X101800791Y-66385370D01*
X101819536Y-66430625D01*
X101819536Y-66442322D01*
X101800791Y-66487577D01*
X101781389Y-66500868D01*
X101758022Y-66511186D01*
X101758020Y-66511187D01*
X101681223Y-66587984D01*
X101637354Y-66687338D01*
X101634536Y-66711627D01*
X101634536Y-67078366D01*
X101634537Y-67078375D01*
X101636508Y-67095369D01*
X101637354Y-67102662D01*
X101681223Y-67202016D01*
X101758020Y-67278813D01*
X101857374Y-67322682D01*
X101867301Y-67323833D01*
X101910093Y-67347667D01*
X101923500Y-67394781D01*
X101899666Y-67437574D01*
X101872412Y-67450177D01*
X101819690Y-67460663D01*
X101819688Y-67460664D01*
X101730376Y-67520341D01*
X101670700Y-67609651D01*
X101670699Y-67609653D01*
X101655036Y-67688402D01*
X101655036Y-67755000D01*
X102535035Y-67755000D01*
X102535035Y-67688403D01*
X102535034Y-67688402D01*
X102519372Y-67609655D01*
X102519371Y-67609652D01*
X102459694Y-67520340D01*
X102370384Y-67460664D01*
X102370381Y-67460663D01*
X102317660Y-67450176D01*
X102276932Y-67422962D01*
X102267376Y-67374920D01*
X102294590Y-67334192D01*
X102322773Y-67323833D01*
X102332698Y-67322682D01*
X102432052Y-67278813D01*
X102508849Y-67202016D01*
X102552718Y-67102662D01*
X102555536Y-67078373D01*
X102555535Y-66711628D01*
X102552718Y-66687338D01*
X102508849Y-66587984D01*
X102432052Y-66511187D01*
X102423533Y-66507425D01*
X102408683Y-66500868D01*
X102374857Y-66465440D01*
X102370536Y-66442322D01*
X102370536Y-66323435D01*
X102371766Y-66310949D01*
X102375933Y-66290000D01*
X102375933Y-66289997D01*
X102354553Y-66182509D01*
X102354553Y-66182508D01*
X102354552Y-66182506D01*
X102309030Y-66114378D01*
X102309028Y-66114376D01*
X102293660Y-66091376D01*
X102293658Y-66091373D01*
X102275899Y-66079507D01*
X102266201Y-66071549D01*
X102069279Y-65874627D01*
X102050535Y-65829374D01*
X102050535Y-65770623D01*
X102069278Y-65725372D01*
X102450406Y-65344245D01*
X102495662Y-65325500D01*
X102749101Y-65325500D01*
X102761587Y-65326730D01*
X102782535Y-65330897D01*
X102782536Y-65330897D01*
X102782537Y-65330897D01*
X102803485Y-65326730D01*
X102815971Y-65325500D01*
X103130536Y-65325500D01*
X103175791Y-65344245D01*
X103194536Y-65389500D01*
X103194536Y-66133481D01*
X103196806Y-66144892D01*
X103198036Y-66157379D01*
X103198036Y-66950684D01*
X103198020Y-66950724D01*
X103198020Y-67069446D01*
X103208826Y-67137661D01*
X103225066Y-67240189D01*
X103226884Y-67251662D01*
X103283889Y-67427098D01*
X103283891Y-67427102D01*
X103283893Y-67427108D01*
X103367649Y-67591478D01*
X103476088Y-67740722D01*
X103502718Y-67767350D01*
X103535350Y-67799981D01*
X103562976Y-67827606D01*
X103565087Y-67829935D01*
X103638195Y-67919022D01*
X103645165Y-67929453D01*
X103697254Y-68026908D01*
X103702055Y-68038499D01*
X103734131Y-68144242D01*
X103736579Y-68156546D01*
X103747882Y-68271291D01*
X103748036Y-68274430D01*
X103748036Y-68320192D01*
X103729291Y-68365447D01*
X103709889Y-68378738D01*
X103693022Y-68386186D01*
X103693020Y-68386187D01*
X103616223Y-68462984D01*
X103572352Y-68562341D01*
X103571201Y-68572268D01*
X103547364Y-68615060D01*
X103500250Y-68628463D01*
X103457458Y-68604626D01*
X103444858Y-68577375D01*
X103434372Y-68524655D01*
X103434371Y-68524652D01*
X103374694Y-68435340D01*
X103285384Y-68375664D01*
X103285382Y-68375663D01*
X103206634Y-68360000D01*
X103140036Y-68360000D01*
X103140036Y-69239999D01*
X103206632Y-69239999D01*
X103206633Y-69239998D01*
X103285380Y-69224336D01*
X103285383Y-69224335D01*
X103374695Y-69164658D01*
X103434371Y-69075348D01*
X103434372Y-69075345D01*
X103444859Y-69022625D01*
X103472072Y-68981896D01*
X103520114Y-68972340D01*
X103560843Y-68999553D01*
X103571202Y-69027735D01*
X103572354Y-69037662D01*
X103616223Y-69137016D01*
X103693020Y-69213813D01*
X103693022Y-69213814D01*
X103693021Y-69213814D01*
X103704621Y-69218935D01*
X103738450Y-69254360D01*
X103742465Y-69283757D01*
X103736585Y-69343453D01*
X103734137Y-69355757D01*
X103702060Y-69461503D01*
X103697259Y-69473094D01*
X103645169Y-69570550D01*
X103638199Y-69580981D01*
X103565128Y-69670021D01*
X103563018Y-69672350D01*
X103557447Y-69677921D01*
X103522418Y-69712951D01*
X103520090Y-69715061D01*
X103431007Y-69788175D01*
X103420576Y-69795146D01*
X103323119Y-69847243D01*
X103311529Y-69852043D01*
X103283654Y-69860501D01*
X103234906Y-69855701D01*
X103206527Y-69825106D01*
X103204652Y-69820859D01*
X103129177Y-69745384D01*
X103031534Y-69702270D01*
X103007659Y-69699500D01*
X103007658Y-69699500D01*
X102652419Y-69699500D01*
X102652410Y-69699501D01*
X102628538Y-69702270D01*
X102530895Y-69745384D01*
X102455420Y-69820859D01*
X102441650Y-69852045D01*
X102412306Y-69918501D01*
X102409536Y-69942376D01*
X102409536Y-70397616D01*
X102409537Y-70397622D01*
X102412306Y-70421498D01*
X102455420Y-70519141D01*
X102530895Y-70594616D01*
X102628538Y-70637730D01*
X102652413Y-70640500D01*
X103007658Y-70640499D01*
X103031534Y-70637730D01*
X103129177Y-70594616D01*
X103204652Y-70519141D01*
X103229820Y-70462138D01*
X103265246Y-70428311D01*
X103278343Y-70424779D01*
X103351702Y-70413158D01*
X103527149Y-70356144D01*
X103691516Y-70272386D01*
X103840758Y-70163947D01*
X103865767Y-70138935D01*
X103890777Y-70113926D01*
X103905851Y-70098851D01*
X103905853Y-70098849D01*
X103914855Y-70089847D01*
X103914856Y-70089847D01*
X103931875Y-70072826D01*
X103931886Y-70072822D01*
X103948772Y-70055935D01*
X103948773Y-70055936D01*
X104013993Y-69990713D01*
X104122423Y-69841468D01*
X104206171Y-69677098D01*
X104263177Y-69501652D01*
X104292035Y-69319448D01*
X104292035Y-69255336D01*
X104310778Y-69210086D01*
X104383849Y-69137016D01*
X104427718Y-69037662D01*
X104430536Y-69013373D01*
X104430535Y-68586628D01*
X104427718Y-68562338D01*
X104383849Y-68462984D01*
X104310781Y-68389916D01*
X104292036Y-68344661D01*
X104292036Y-68244334D01*
X104292029Y-68244204D01*
X104292029Y-68180554D01*
X104291204Y-68175347D01*
X104265925Y-68015736D01*
X104263172Y-67998355D01*
X104263171Y-67998354D01*
X104263171Y-67998349D01*
X104206166Y-67822904D01*
X104122418Y-67658535D01*
X104013989Y-67509291D01*
X103980362Y-67475663D01*
X103969083Y-67464383D01*
X103969067Y-67464365D01*
X103965150Y-67460448D01*
X103965149Y-67460446D01*
X103959881Y-67455178D01*
X103959881Y-67455177D01*
X103933567Y-67428864D01*
X103927071Y-67422369D01*
X103924962Y-67420042D01*
X103851862Y-67330973D01*
X103844892Y-67320542D01*
X103792799Y-67223090D01*
X103787997Y-67211498D01*
X103785120Y-67202016D01*
X103755918Y-67105754D01*
X103753470Y-67093449D01*
X103751311Y-67071535D01*
X103742190Y-66978930D01*
X103742036Y-66975791D01*
X103742036Y-66675643D01*
X103742036Y-66374735D01*
X103760780Y-66329483D01*
X103806035Y-66310738D01*
X103818520Y-66311968D01*
X103886552Y-66325500D01*
X103886556Y-66325500D01*
X104053519Y-66325500D01*
X104115641Y-66313143D01*
X104115642Y-66313143D01*
X104115642Y-66313142D01*
X104115645Y-66313142D01*
X104152669Y-66288403D01*
X104200708Y-66278848D01*
X104241437Y-66306061D01*
X104241438Y-66306063D01*
X104246168Y-66313143D01*
X104266951Y-66344245D01*
X104271412Y-66350921D01*
X104287091Y-66361397D01*
X104289168Y-66362785D01*
X104298867Y-66370744D01*
X104690791Y-66762668D01*
X104709536Y-66807923D01*
X104709536Y-67113366D01*
X104709537Y-67113372D01*
X104712354Y-67137662D01*
X104756223Y-67237016D01*
X104833020Y-67313813D01*
X104932374Y-67357682D01*
X104956663Y-67360500D01*
X105200536Y-67360499D01*
X105245791Y-67379244D01*
X105264536Y-67424499D01*
X105264536Y-67430863D01*
X105245791Y-67476118D01*
X105236707Y-67483661D01*
X105233023Y-67486184D01*
X105156223Y-67562984D01*
X105112352Y-67662341D01*
X105109537Y-67686609D01*
X105109536Y-67686628D01*
X105109536Y-67744282D01*
X105104518Y-67767350D01*
X105104628Y-67767383D01*
X105104178Y-67768915D01*
X105103754Y-67770865D01*
X105103339Y-67771772D01*
X105095151Y-67828725D01*
X105084903Y-67900000D01*
X105103339Y-68028226D01*
X105103340Y-68028228D01*
X105103754Y-68029135D01*
X105104178Y-68031088D01*
X105104629Y-68032622D01*
X105104519Y-68032654D01*
X105109536Y-68055718D01*
X105109536Y-68113367D01*
X105109537Y-68113372D01*
X105112354Y-68137662D01*
X105156223Y-68237016D01*
X105233020Y-68313813D01*
X105332374Y-68357682D01*
X105356663Y-68360500D01*
X105723408Y-68360499D01*
X105747698Y-68357682D01*
X105847052Y-68313813D01*
X105923849Y-68237016D01*
X105967718Y-68137662D01*
X105968869Y-68127734D01*
X105992703Y-68084942D01*
X106039816Y-68071535D01*
X106082610Y-68095369D01*
X106095213Y-68122624D01*
X106105699Y-68175344D01*
X106105700Y-68175347D01*
X106138644Y-68224650D01*
X106148200Y-68272692D01*
X106138645Y-68295763D01*
X106108233Y-68341278D01*
X106099500Y-68385178D01*
X106099500Y-68964821D01*
X106108233Y-69008722D01*
X106108234Y-69008724D01*
X106141494Y-69058502D01*
X106141497Y-69058505D01*
X106166705Y-69075348D01*
X106191278Y-69091767D01*
X106226445Y-69098762D01*
X106235179Y-69100500D01*
X106235180Y-69100500D01*
X107564821Y-69100500D01*
X107572104Y-69099050D01*
X107608722Y-69091767D01*
X107658504Y-69058504D01*
X107691767Y-69008722D01*
X107691766Y-69008722D01*
X107695269Y-69003481D01*
X107697070Y-69004684D01*
X107725505Y-68976247D01*
X107774488Y-68976244D01*
X107802930Y-69004683D01*
X107804731Y-69003481D01*
X107841494Y-69058502D01*
X107841497Y-69058505D01*
X107866705Y-69075348D01*
X107891278Y-69091767D01*
X107926445Y-69098762D01*
X107935179Y-69100500D01*
X107935180Y-69100500D01*
X108209931Y-69100500D01*
X108255186Y-69119245D01*
X108273931Y-69164500D01*
X108258299Y-69206411D01*
X108217118Y-69253936D01*
X108217116Y-69253939D01*
X108163303Y-69371771D01*
X108144867Y-69500000D01*
X108163303Y-69628228D01*
X108217116Y-69746060D01*
X108217118Y-69746063D01*
X108299786Y-69841469D01*
X108301951Y-69843967D01*
X108410931Y-69914004D01*
X108535228Y-69950500D01*
X108535229Y-69950500D01*
X108664771Y-69950500D01*
X108664772Y-69950500D01*
X108789069Y-69914004D01*
X108898049Y-69843967D01*
X108982882Y-69746063D01*
X109036697Y-69628226D01*
X109055133Y-69500000D01*
X109036697Y-69371774D01*
X109029382Y-69355757D01*
X108982883Y-69253939D01*
X108982881Y-69253936D01*
X108941701Y-69206411D01*
X108926232Y-69159934D01*
X108948158Y-69116132D01*
X108990069Y-69100500D01*
X109264821Y-69100500D01*
X109272104Y-69099050D01*
X109308722Y-69091767D01*
X109358504Y-69058504D01*
X109391767Y-69008722D01*
X109400500Y-68964820D01*
X109400499Y-68390550D01*
X109419245Y-68345296D01*
X109464500Y-68326551D01*
X109482523Y-68329141D01*
X109555264Y-68350500D01*
X109555266Y-68350500D01*
X109684807Y-68350500D01*
X109684808Y-68350500D01*
X109809105Y-68314004D01*
X109918085Y-68243967D01*
X110002918Y-68146063D01*
X110056733Y-68028226D01*
X110075169Y-67900000D01*
X110056733Y-67771774D01*
X110055427Y-67768915D01*
X110002919Y-67653939D01*
X110002917Y-67653936D01*
X109998208Y-67648502D01*
X109948797Y-67591477D01*
X109918086Y-67556034D01*
X109918085Y-67556033D01*
X109872416Y-67526683D01*
X109844480Y-67486446D01*
X109843018Y-67472843D01*
X109843018Y-66716803D01*
X109861763Y-66671548D01*
X109907018Y-66652803D01*
X109936072Y-66659778D01*
X109967214Y-66675646D01*
X110060999Y-66690500D01*
X110346473Y-66690499D01*
X110391728Y-66709244D01*
X110410473Y-66754392D01*
X110419095Y-71935393D01*
X110400425Y-71980679D01*
X110355202Y-71999500D01*
X109800000Y-71999500D01*
X109800000Y-70700000D01*
X105700000Y-70700000D01*
X105700000Y-71999500D01*
X101084036Y-71999500D01*
X101038781Y-71980755D01*
X101020036Y-71935500D01*
X101020036Y-70784500D01*
X101038781Y-70739245D01*
X101084036Y-70720500D01*
X101134857Y-70720500D01*
X101142140Y-70719050D01*
X101178758Y-70711767D01*
X101228540Y-70678504D01*
X101261803Y-70628722D01*
X101270536Y-70584820D01*
X101270536Y-70505999D01*
X101289281Y-70460745D01*
X101334536Y-70442000D01*
X101359657Y-70442000D01*
X101404912Y-70460745D01*
X101418202Y-70480146D01*
X101435420Y-70519141D01*
X101510895Y-70594616D01*
X101608538Y-70637730D01*
X101632413Y-70640500D01*
X101987658Y-70640499D01*
X102011534Y-70637730D01*
X102109177Y-70594616D01*
X102184652Y-70519141D01*
X102227766Y-70421498D01*
X102230536Y-70397623D01*
X102230535Y-69942378D01*
X102227766Y-69918502D01*
X102184652Y-69820859D01*
X102109177Y-69745384D01*
X102011534Y-69702270D01*
X101987659Y-69699500D01*
X101987658Y-69699500D01*
X101632419Y-69699500D01*
X101632410Y-69699501D01*
X101608538Y-69702270D01*
X101510895Y-69745384D01*
X101435420Y-69820859D01*
X101418202Y-69859852D01*
X101382776Y-69893678D01*
X101359657Y-69898000D01*
X101334536Y-69898000D01*
X101289281Y-69879255D01*
X101270536Y-69834000D01*
X101270536Y-69755178D01*
X101267637Y-69740610D01*
X101261803Y-69711278D01*
X101253933Y-69699500D01*
X101228541Y-69661497D01*
X101228538Y-69661494D01*
X101178760Y-69628234D01*
X101178758Y-69628233D01*
X101134857Y-69619500D01*
X101134856Y-69619500D01*
X101084036Y-69619500D01*
X101038781Y-69600755D01*
X101020036Y-69555500D01*
X101020036Y-68900000D01*
X102630037Y-68900000D01*
X102630037Y-68996597D01*
X102645699Y-69075344D01*
X102645700Y-69075347D01*
X102705377Y-69164659D01*
X102794687Y-69224335D01*
X102794689Y-69224336D01*
X102873438Y-69239999D01*
X102940036Y-69239999D01*
X102940036Y-68900000D01*
X102630037Y-68900000D01*
X101020036Y-68900000D01*
X101020036Y-68700000D01*
X102630036Y-68700000D01*
X102940036Y-68700000D01*
X102940036Y-68360000D01*
X102873438Y-68360000D01*
X102873437Y-68360001D01*
X102794691Y-68375663D01*
X102794688Y-68375664D01*
X102705376Y-68435341D01*
X102645700Y-68524651D01*
X102645699Y-68524653D01*
X102630036Y-68603402D01*
X102630036Y-68700000D01*
X101020036Y-68700000D01*
X101020036Y-67955000D01*
X101655037Y-67955000D01*
X101655037Y-68021597D01*
X101670699Y-68100344D01*
X101670700Y-68100347D01*
X101730377Y-68189659D01*
X101819687Y-68249335D01*
X101819689Y-68249336D01*
X101898438Y-68264999D01*
X101995036Y-68264999D01*
X101995036Y-67955000D01*
X102195036Y-67955000D01*
X102195036Y-68264999D01*
X102291632Y-68264999D01*
X102291633Y-68264998D01*
X102370380Y-68249336D01*
X102370383Y-68249335D01*
X102459695Y-68189658D01*
X102519371Y-68100348D01*
X102519372Y-68100346D01*
X102535036Y-68021597D01*
X102535036Y-67955000D01*
X102195036Y-67955000D01*
X101995036Y-67955000D01*
X101655037Y-67955000D01*
X101020036Y-67955000D01*
X101020036Y-67000000D01*
X98158067Y-67000000D01*
X98112812Y-66981255D01*
X98094067Y-66936018D01*
X98094016Y-66754517D01*
X98112748Y-66709257D01*
X98157998Y-66690499D01*
X98424035Y-66690499D01*
X98424036Y-66690499D01*
X98517822Y-66675646D01*
X98630856Y-66618052D01*
X98630857Y-66618052D01*
X98630857Y-66618051D01*
X98630860Y-66618050D01*
X98720568Y-66528342D01*
X98778164Y-66415304D01*
X98793018Y-66321519D01*
X98793017Y-65760000D01*
X99260001Y-65760000D01*
X99260001Y-65826597D01*
X99275663Y-65905344D01*
X99275664Y-65905347D01*
X99335341Y-65994659D01*
X99424651Y-66054335D01*
X99424653Y-66054336D01*
X99503402Y-66069999D01*
X99600000Y-66069999D01*
X99600000Y-65760000D01*
X99260001Y-65760000D01*
X98793017Y-65760000D01*
X98793017Y-65758482D01*
X98778164Y-65664696D01*
X98720568Y-65551658D01*
X98630860Y-65461950D01*
X98630855Y-65461947D01*
X98626782Y-65458987D01*
X98627531Y-65457955D01*
X98599195Y-65424781D01*
X98603035Y-65375948D01*
X98627281Y-65351701D01*
X98626782Y-65351013D01*
X98630857Y-65348052D01*
X98630857Y-65348051D01*
X98630860Y-65348050D01*
X98720568Y-65258342D01*
X98778164Y-65145304D01*
X98793018Y-65051519D01*
X98793017Y-64488482D01*
X98778164Y-64394696D01*
X98720568Y-64281658D01*
X98630860Y-64191950D01*
X98630855Y-64191947D01*
X98626782Y-64188987D01*
X98627530Y-64187957D01*
X98599191Y-64154769D01*
X98603040Y-64105937D01*
X98627283Y-64081702D01*
X98626782Y-64081013D01*
X98630857Y-64078052D01*
X98630857Y-64078051D01*
X98630860Y-64078050D01*
X98720568Y-63988342D01*
X98778164Y-63875304D01*
X98793018Y-63781519D01*
X98793018Y-63600000D01*
X99540036Y-63600000D01*
X99540036Y-63962805D01*
X99547579Y-64000723D01*
X99547580Y-64000725D01*
X99576309Y-64043722D01*
X99576313Y-64043726D01*
X99619310Y-64072455D01*
X99619312Y-64072456D01*
X99657231Y-64080000D01*
X99970036Y-64080000D01*
X99970036Y-63600000D01*
X99540036Y-63600000D01*
X98793018Y-63600000D01*
X98793017Y-63218482D01*
X98778164Y-63124696D01*
X98720568Y-63011658D01*
X98630860Y-62921950D01*
X98630855Y-62921947D01*
X98626782Y-62918987D01*
X98627531Y-62917955D01*
X98599195Y-62884781D01*
X98603035Y-62835948D01*
X98627281Y-62811701D01*
X98626782Y-62811013D01*
X98630857Y-62808052D01*
X98630857Y-62808051D01*
X98630860Y-62808050D01*
X98720568Y-62718342D01*
X98778164Y-62605304D01*
X98793018Y-62511519D01*
X98793017Y-61948482D01*
X98778164Y-61854696D01*
X98720568Y-61741658D01*
X98630860Y-61651950D01*
X98630855Y-61651947D01*
X98626782Y-61648987D01*
X98627530Y-61647957D01*
X98599191Y-61614769D01*
X98603040Y-61565937D01*
X98627283Y-61541702D01*
X98626782Y-61541013D01*
X98630857Y-61538052D01*
X98630857Y-61538051D01*
X98630860Y-61538050D01*
X98720568Y-61448342D01*
X98778164Y-61335304D01*
X98793018Y-61241519D01*
X98793017Y-60678482D01*
X98778164Y-60584696D01*
X98720568Y-60471658D01*
X98630860Y-60381950D01*
X98630855Y-60381947D01*
X98626782Y-60378987D01*
X98627531Y-60377955D01*
X98599195Y-60344781D01*
X98603035Y-60295948D01*
X98627281Y-60271701D01*
X98626782Y-60271013D01*
X98630857Y-60268052D01*
X98630857Y-60268051D01*
X98630860Y-60268050D01*
X98720568Y-60178342D01*
X98778164Y-60065304D01*
X98793018Y-59971519D01*
X98793017Y-59408482D01*
X98778164Y-59314696D01*
X98720568Y-59201658D01*
X98630860Y-59111950D01*
X98630855Y-59111947D01*
X98626782Y-59108987D01*
X98627530Y-59107957D01*
X98599191Y-59074769D01*
X98603040Y-59025937D01*
X98627283Y-59001702D01*
X98626782Y-59001013D01*
X98630857Y-58998052D01*
X98630857Y-58998051D01*
X98630860Y-58998050D01*
X98720568Y-58908342D01*
X98778164Y-58795304D01*
X98793018Y-58701519D01*
X98793017Y-58138482D01*
X98778164Y-58044696D01*
X98720568Y-57931658D01*
X98630860Y-57841950D01*
X98630855Y-57841947D01*
X98626782Y-57838987D01*
X98627531Y-57837955D01*
X98599195Y-57804781D01*
X98603035Y-57755948D01*
X98627281Y-57731701D01*
X98626782Y-57731013D01*
X98630857Y-57728052D01*
X98630857Y-57728051D01*
X98630860Y-57728050D01*
X98720568Y-57638342D01*
X98778164Y-57525304D01*
X98793018Y-57431519D01*
X98793018Y-57269499D01*
X98811763Y-57224245D01*
X98857018Y-57205500D01*
X99216787Y-57205500D01*
X99262042Y-57224245D01*
X99275332Y-57243646D01*
X99295420Y-57289141D01*
X99370895Y-57364616D01*
X99468538Y-57407730D01*
X99492413Y-57410500D01*
X99947658Y-57410499D01*
X99971534Y-57407730D01*
X100069177Y-57364616D01*
X100144652Y-57289141D01*
X100187766Y-57191498D01*
X100190536Y-57167623D01*
X100190536Y-57100000D01*
X100410036Y-57100000D01*
X100410036Y-57211104D01*
X100425409Y-57288395D01*
X100425411Y-57288398D01*
X100483979Y-57376053D01*
X100483982Y-57376056D01*
X100571637Y-57434624D01*
X100571640Y-57434626D01*
X100584731Y-57437230D01*
X100625459Y-57464443D01*
X100635015Y-57512486D01*
X100607802Y-57553214D01*
X100584731Y-57562770D01*
X100571640Y-57565373D01*
X100571637Y-57565375D01*
X100483982Y-57623943D01*
X100483979Y-57623946D01*
X100425411Y-57711601D01*
X100425409Y-57711604D01*
X100410036Y-57788895D01*
X100410036Y-57900000D01*
X101210036Y-57900000D01*
X101210036Y-57788895D01*
X101194662Y-57711604D01*
X101194660Y-57711601D01*
X101136092Y-57623946D01*
X101136089Y-57623943D01*
X101048434Y-57565375D01*
X101048430Y-57565373D01*
X101035341Y-57562770D01*
X100994612Y-57535557D01*
X100985056Y-57487515D01*
X101012269Y-57446786D01*
X101035341Y-57437230D01*
X101048430Y-57434626D01*
X101048434Y-57434624D01*
X101136089Y-57376056D01*
X101136092Y-57376053D01*
X101194660Y-57288398D01*
X101194662Y-57288395D01*
X101210036Y-57211104D01*
X101210036Y-57100000D01*
X100410036Y-57100000D01*
X100190536Y-57100000D01*
X100190535Y-56812378D01*
X100187766Y-56788502D01*
X100144652Y-56690859D01*
X100069177Y-56615384D01*
X99971534Y-56572270D01*
X99947659Y-56569500D01*
X99947658Y-56569500D01*
X99492419Y-56569500D01*
X99492410Y-56569501D01*
X99471323Y-56571947D01*
X99468538Y-56572270D01*
X99370895Y-56615384D01*
X99295420Y-56690859D01*
X99275332Y-56736352D01*
X99239907Y-56770178D01*
X99216787Y-56774500D01*
X98817283Y-56774500D01*
X98772028Y-56755755D01*
X98760259Y-56739555D01*
X98720570Y-56661662D01*
X98720570Y-56661661D01*
X98720569Y-56661660D01*
X98720568Y-56661658D01*
X98630860Y-56571950D01*
X98630855Y-56571947D01*
X98517827Y-56514356D01*
X98517820Y-56514353D01*
X98461920Y-56505500D01*
X98424037Y-56499500D01*
X98424034Y-56499500D01*
X98155137Y-56499500D01*
X98109882Y-56480755D01*
X98091137Y-56435518D01*
X98091136Y-56432270D01*
X98091061Y-56165539D01*
X98109793Y-56120282D01*
X98155043Y-56101524D01*
X98187061Y-56110098D01*
X98188780Y-56111090D01*
X98188782Y-56111092D01*
X98340719Y-56198812D01*
X98508790Y-56249130D01*
X98683935Y-56259331D01*
X98856711Y-56228865D01*
X99017804Y-56159377D01*
X99158530Y-56054610D01*
X99271302Y-55920214D01*
X99350040Y-55763433D01*
X99390500Y-55592721D01*
X99390500Y-55267339D01*
X99409245Y-55222084D01*
X99454500Y-55203339D01*
X99499755Y-55222084D01*
G37*
%TD.AperFunction*%
%TA.AperFunction,Conductor*%
G36*
X106255591Y-66267147D02*
G01*
X106265557Y-66273806D01*
X106324426Y-66313142D01*
X106324430Y-66313143D01*
X106386552Y-66325500D01*
X106386556Y-66325500D01*
X106396819Y-66325500D01*
X106442074Y-66344245D01*
X106645630Y-66547802D01*
X106646784Y-66549017D01*
X106673094Y-66578237D01*
X106673095Y-66578238D01*
X106694844Y-66587921D01*
X106703667Y-66592711D01*
X106723638Y-66605681D01*
X106732538Y-66607090D01*
X106748555Y-66611835D01*
X106756786Y-66615500D01*
X106780598Y-66615500D01*
X106790609Y-66616288D01*
X106814122Y-66620012D01*
X106821623Y-66618002D01*
X106822822Y-66617681D01*
X106839386Y-66615500D01*
X107224263Y-66615500D01*
X107269518Y-66634245D01*
X107390791Y-66755518D01*
X107409536Y-66800773D01*
X107409536Y-67113366D01*
X107409537Y-67113372D01*
X107412354Y-67137662D01*
X107456223Y-67237016D01*
X107533020Y-67313813D01*
X107572324Y-67331167D01*
X107606150Y-67366593D01*
X107605019Y-67415564D01*
X107572324Y-67448259D01*
X107510898Y-67475382D01*
X107510897Y-67475383D01*
X107510895Y-67475384D01*
X107435420Y-67550859D01*
X107417864Y-67590619D01*
X107392306Y-67648501D01*
X107389536Y-67672376D01*
X107389536Y-67989226D01*
X107370791Y-68034481D01*
X107174518Y-68230755D01*
X107129263Y-68249500D01*
X106957606Y-68249500D01*
X106912351Y-68230755D01*
X106893606Y-68185500D01*
X106894836Y-68173014D01*
X106910036Y-68096597D01*
X106910036Y-68000000D01*
X106464036Y-68000000D01*
X106418781Y-67981255D01*
X106400036Y-67936000D01*
X106400036Y-67460000D01*
X106600036Y-67460000D01*
X106600036Y-67800000D01*
X106910035Y-67800000D01*
X106910035Y-67703403D01*
X106910034Y-67703402D01*
X106894372Y-67624655D01*
X106894371Y-67624652D01*
X106834694Y-67535340D01*
X106745384Y-67475664D01*
X106745382Y-67475663D01*
X106666634Y-67460000D01*
X106600036Y-67460000D01*
X106400036Y-67460000D01*
X106333438Y-67460000D01*
X106333437Y-67460001D01*
X106254691Y-67475663D01*
X106254688Y-67475664D01*
X106165376Y-67535341D01*
X106105700Y-67624651D01*
X106105699Y-67624653D01*
X106095212Y-67677376D01*
X106067998Y-67718104D01*
X106019955Y-67727659D01*
X105979227Y-67700445D01*
X105968869Y-67672262D01*
X105967718Y-67662338D01*
X105923849Y-67562984D01*
X105847052Y-67486187D01*
X105847050Y-67486186D01*
X105847048Y-67486184D01*
X105843365Y-67483661D01*
X105816625Y-67442620D01*
X105815536Y-67430863D01*
X105815536Y-67394531D01*
X105834281Y-67349276D01*
X105879536Y-67330531D01*
X105892023Y-67331761D01*
X105933439Y-67339999D01*
X106000036Y-67339999D01*
X106000036Y-67000000D01*
X106200036Y-67000000D01*
X106200036Y-67339999D01*
X106266632Y-67339999D01*
X106266633Y-67339998D01*
X106345380Y-67324336D01*
X106345383Y-67324335D01*
X106434695Y-67264658D01*
X106494371Y-67175348D01*
X106494372Y-67175346D01*
X106510036Y-67096597D01*
X106510036Y-67000000D01*
X106200036Y-67000000D01*
X106000036Y-67000000D01*
X106000035Y-66460000D01*
X106200036Y-66460000D01*
X106200036Y-66800000D01*
X106510035Y-66800000D01*
X106510035Y-66703403D01*
X106510034Y-66703402D01*
X106494372Y-66624655D01*
X106494371Y-66624652D01*
X106434694Y-66535340D01*
X106345384Y-66475664D01*
X106345382Y-66475663D01*
X106266634Y-66460000D01*
X106200036Y-66460000D01*
X106000035Y-66460000D01*
X105933438Y-66460000D01*
X105933437Y-66460001D01*
X105854691Y-66475663D01*
X105854688Y-66475664D01*
X105765376Y-66535341D01*
X105705700Y-66624651D01*
X105705699Y-66624653D01*
X105695212Y-66677376D01*
X105667998Y-66718104D01*
X105619955Y-66727659D01*
X105579227Y-66700445D01*
X105568869Y-66672262D01*
X105567718Y-66662338D01*
X105523849Y-66562984D01*
X105447052Y-66486187D01*
X105360671Y-66448046D01*
X105342934Y-66429469D01*
X105309866Y-66439500D01*
X105173365Y-66439500D01*
X105128110Y-66420755D01*
X105113751Y-66406396D01*
X105095006Y-66361141D01*
X105113751Y-66315886D01*
X105123445Y-66307929D01*
X105184481Y-66267147D01*
X105232520Y-66257592D01*
X105255591Y-66267148D01*
X105260608Y-66270500D01*
X105324427Y-66313142D01*
X105324429Y-66313142D01*
X105330254Y-66315556D01*
X105329457Y-66317477D01*
X105357034Y-66335903D01*
X105363404Y-66329822D01*
X105386523Y-66325500D01*
X105553519Y-66325500D01*
X105615641Y-66313143D01*
X105615645Y-66313142D01*
X105623450Y-66307927D01*
X105684480Y-66267147D01*
X105732522Y-66257592D01*
X105755591Y-66267147D01*
X105765557Y-66273806D01*
X105824426Y-66313142D01*
X105824430Y-66313143D01*
X105886552Y-66325500D01*
X105886556Y-66325500D01*
X106053519Y-66325500D01*
X106115641Y-66313143D01*
X106115645Y-66313142D01*
X106123450Y-66307927D01*
X106184480Y-66267147D01*
X106232522Y-66257592D01*
X106255591Y-66267147D01*
G37*
%TD.AperFunction*%
%TA.AperFunction,Conductor*%
G36*
X108901291Y-65298745D02*
G01*
X108920036Y-65344000D01*
X108920036Y-65789999D01*
X109016632Y-65789999D01*
X109016633Y-65789998D01*
X109095380Y-65774336D01*
X109095383Y-65774335D01*
X109189936Y-65711157D01*
X109191224Y-65713085D01*
X109228018Y-65697846D01*
X109273273Y-65716591D01*
X109292018Y-65761846D01*
X109292018Y-66559811D01*
X109273273Y-66605066D01*
X109228018Y-66623811D01*
X109182763Y-66605066D01*
X109174804Y-66595368D01*
X109134694Y-66535340D01*
X109045384Y-66475664D01*
X109045382Y-66475663D01*
X108966634Y-66460000D01*
X108900036Y-66460000D01*
X108900036Y-66936000D01*
X108881291Y-66981255D01*
X108836036Y-67000000D01*
X108764036Y-67000000D01*
X108718781Y-66981255D01*
X108700036Y-66936000D01*
X108700036Y-66460000D01*
X108633442Y-66460000D01*
X108602882Y-66466079D01*
X108554840Y-66456521D01*
X108527627Y-66415792D01*
X108537185Y-66367750D01*
X108542030Y-66361397D01*
X108542252Y-66361141D01*
X108606714Y-66286747D01*
X108660529Y-66168910D01*
X108678965Y-66040684D01*
X108660529Y-65912458D01*
X108645972Y-65880585D01*
X108644224Y-65831635D01*
X108677601Y-65795783D01*
X108704189Y-65789999D01*
X108720036Y-65789999D01*
X108720036Y-65344000D01*
X108738781Y-65298745D01*
X108784036Y-65280000D01*
X108856036Y-65280000D01*
X108901291Y-65298745D01*
G37*
%TD.AperFunction*%
%TA.AperFunction,Conductor*%
G36*
X105255592Y-61392148D02*
G01*
X105324426Y-61438142D01*
X105324430Y-61438143D01*
X105386552Y-61450500D01*
X105386556Y-61450500D01*
X105406589Y-61450500D01*
X105451844Y-61469245D01*
X105470589Y-61514500D01*
X105464805Y-61541087D01*
X105414475Y-61651291D01*
X105396039Y-61779520D01*
X105414475Y-61907748D01*
X105468288Y-62025580D01*
X105468290Y-62025583D01*
X105501655Y-62064089D01*
X105517124Y-62110566D01*
X105495198Y-62154368D01*
X105453287Y-62170000D01*
X105320036Y-62170000D01*
X105320036Y-63336000D01*
X105301291Y-63381255D01*
X105256036Y-63400000D01*
X104090036Y-63400000D01*
X104090036Y-63863615D01*
X104092847Y-63899336D01*
X104092847Y-63899339D01*
X104137256Y-64052194D01*
X104218278Y-64189194D01*
X104218282Y-64189200D01*
X104218326Y-64189244D01*
X104218337Y-64189270D01*
X104220749Y-64192380D01*
X104219898Y-64193039D01*
X104237071Y-64234499D01*
X104218326Y-64279754D01*
X104191102Y-64295906D01*
X104180203Y-64299107D01*
X104116210Y-64317896D01*
X104007232Y-64387932D01*
X104007230Y-64387934D01*
X103922399Y-64485836D01*
X103922397Y-64485839D01*
X103868584Y-64603671D01*
X103850148Y-64731899D01*
X103868584Y-64860128D01*
X103922397Y-64977960D01*
X103922399Y-64977963D01*
X103979263Y-65043589D01*
X103994732Y-65090066D01*
X103972806Y-65133868D01*
X103930895Y-65149500D01*
X103886552Y-65149500D01*
X103824430Y-65161856D01*
X103824426Y-65161858D01*
X103755592Y-65207851D01*
X103707550Y-65217407D01*
X103684480Y-65207851D01*
X103615645Y-65161858D01*
X103615641Y-65161856D01*
X103553520Y-65149500D01*
X103553516Y-65149500D01*
X103434536Y-65149500D01*
X103389281Y-65130755D01*
X103370536Y-65085500D01*
X103370536Y-64966516D01*
X103358179Y-64904394D01*
X103358178Y-64904390D01*
X103312184Y-64835556D01*
X103302628Y-64787514D01*
X103312184Y-64764444D01*
X103358178Y-64695609D01*
X103358179Y-64695605D01*
X103370536Y-64633483D01*
X103370536Y-64466516D01*
X103358179Y-64404394D01*
X103358178Y-64404392D01*
X103358178Y-64404391D01*
X103322411Y-64350861D01*
X103312184Y-64335555D01*
X103302628Y-64287513D01*
X103312181Y-64264447D01*
X103358178Y-64195609D01*
X103358689Y-64193039D01*
X103370536Y-64133483D01*
X103370536Y-63966516D01*
X103358179Y-63904394D01*
X103358178Y-63904390D01*
X103312184Y-63835556D01*
X103302628Y-63787514D01*
X103312184Y-63764444D01*
X103358178Y-63695609D01*
X103358179Y-63695605D01*
X103370536Y-63633483D01*
X103370536Y-63466516D01*
X103358179Y-63404394D01*
X103358178Y-63404390D01*
X103312184Y-63335556D01*
X103302628Y-63287514D01*
X103312184Y-63264444D01*
X103358178Y-63195609D01*
X103358179Y-63195605D01*
X103370536Y-63133483D01*
X103370536Y-62966516D01*
X103358179Y-62904394D01*
X103358178Y-62904390D01*
X103312184Y-62835556D01*
X103302628Y-62787514D01*
X103312184Y-62764444D01*
X103314100Y-62761577D01*
X103358178Y-62695609D01*
X103358179Y-62695603D01*
X103358986Y-62693657D01*
X103360482Y-62692160D01*
X103361680Y-62690368D01*
X103362036Y-62690606D01*
X103393621Y-62659020D01*
X103442605Y-62659018D01*
X103452715Y-62664306D01*
X103453820Y-62665017D01*
X103578117Y-62701513D01*
X103578118Y-62701513D01*
X103707660Y-62701513D01*
X103707661Y-62701513D01*
X103831958Y-62665017D01*
X103940938Y-62594980D01*
X104024317Y-62498753D01*
X104045139Y-62488330D01*
X104048849Y-62446542D01*
X104050237Y-62443504D01*
X104079586Y-62379239D01*
X104092100Y-62292195D01*
X104117094Y-62250073D01*
X104162820Y-62238401D01*
X104162820Y-62238367D01*
X104162954Y-62238367D01*
X104164556Y-62237958D01*
X104164557Y-62237959D01*
X104167395Y-62238367D01*
X104236205Y-62238367D01*
X104281460Y-62257112D01*
X104300205Y-62302367D01*
X104281460Y-62347622D01*
X104218282Y-62410799D01*
X104218278Y-62410805D01*
X104162152Y-62505708D01*
X104132465Y-62527996D01*
X104136521Y-62536098D01*
X104134143Y-62558520D01*
X104092847Y-62700660D01*
X104092847Y-62700663D01*
X104090036Y-62736385D01*
X104090036Y-63200000D01*
X105120036Y-63200000D01*
X105120036Y-62170000D01*
X104656419Y-62170000D01*
X104641089Y-62171206D01*
X104594503Y-62156067D01*
X104572267Y-62112422D01*
X104587406Y-62065836D01*
X104587589Y-62065623D01*
X104615051Y-62033930D01*
X104668866Y-61916093D01*
X104687302Y-61787867D01*
X104668866Y-61659641D01*
X104664866Y-61650883D01*
X104615052Y-61541806D01*
X104615050Y-61541803D01*
X104605885Y-61531226D01*
X104590417Y-61484750D01*
X104612343Y-61440948D01*
X104618698Y-61436102D01*
X104684480Y-61392148D01*
X104732522Y-61382592D01*
X104755592Y-61392148D01*
X104824426Y-61438142D01*
X104824430Y-61438143D01*
X104886552Y-61450500D01*
X104886556Y-61450500D01*
X105053519Y-61450500D01*
X105115641Y-61438143D01*
X105115645Y-61438142D01*
X105184480Y-61392148D01*
X105232522Y-61382592D01*
X105255592Y-61392148D01*
G37*
%TD.AperFunction*%
%TA.AperFunction,Conductor*%
G36*
X101197927Y-60610243D02*
G01*
X101207625Y-60618202D01*
X101550791Y-60961367D01*
X101569536Y-61006622D01*
X101569536Y-61456000D01*
X101550791Y-61501255D01*
X101505536Y-61520000D01*
X101270036Y-61520000D01*
X101270036Y-62136000D01*
X101251291Y-62181255D01*
X101206036Y-62200000D01*
X101134036Y-62200000D01*
X101088781Y-62181255D01*
X101070036Y-62136000D01*
X101070036Y-61520000D01*
X100757231Y-61520000D01*
X100719312Y-61527543D01*
X100719310Y-61527544D01*
X100671070Y-61559777D01*
X100669623Y-61557611D01*
X100633493Y-61572567D01*
X100588243Y-61553811D01*
X100580295Y-61544123D01*
X100578540Y-61541496D01*
X100578538Y-61541495D01*
X100578538Y-61541494D01*
X100528760Y-61508234D01*
X100528758Y-61508233D01*
X100484857Y-61499500D01*
X100484856Y-61499500D01*
X100349536Y-61499500D01*
X100304281Y-61480755D01*
X100285536Y-61435500D01*
X100285536Y-61356484D01*
X100285579Y-61354818D01*
X100285687Y-61352758D01*
X100306762Y-61308540D01*
X100352931Y-61292176D01*
X100385157Y-61302875D01*
X100454687Y-61349335D01*
X100454689Y-61349336D01*
X100533438Y-61364999D01*
X100600036Y-61364999D01*
X100600036Y-61025000D01*
X100800036Y-61025000D01*
X100800036Y-61364999D01*
X100866632Y-61364999D01*
X100866633Y-61364998D01*
X100945380Y-61349336D01*
X100945383Y-61349335D01*
X101034695Y-61289658D01*
X101094371Y-61200348D01*
X101094372Y-61200346D01*
X101110036Y-61121597D01*
X101110036Y-61025000D01*
X100800036Y-61025000D01*
X100600036Y-61025000D01*
X100600036Y-60889000D01*
X100618781Y-60843745D01*
X100664036Y-60825000D01*
X101110035Y-60825000D01*
X101110035Y-60728404D01*
X101099600Y-60675943D01*
X101109156Y-60627900D01*
X101149884Y-60600687D01*
X101197927Y-60610243D01*
G37*
%TD.AperFunction*%
%TA.AperFunction,Conductor*%
G36*
X109099790Y-56918599D02*
G01*
X109102903Y-56921943D01*
X109121987Y-56943967D01*
X109230967Y-57014004D01*
X109355264Y-57050500D01*
X109355265Y-57050500D01*
X109484806Y-57050500D01*
X109484808Y-57050500D01*
X109609105Y-57014004D01*
X109609107Y-57014002D01*
X109609987Y-57013744D01*
X109658690Y-57018981D01*
X109689426Y-57057121D01*
X109692018Y-57075152D01*
X109692018Y-57431516D01*
X109706871Y-57525300D01*
X109706874Y-57525308D01*
X109762960Y-57635384D01*
X109764468Y-57638342D01*
X109854176Y-57728050D01*
X109875642Y-57738987D01*
X109907454Y-57776234D01*
X109903612Y-57825067D01*
X109874697Y-57853509D01*
X109868655Y-57856462D01*
X109778980Y-57946137D01*
X109723280Y-58060073D01*
X109723278Y-58060078D01*
X109712518Y-58133938D01*
X109712518Y-58706054D01*
X109723280Y-58779927D01*
X109778980Y-58893862D01*
X109868655Y-58983537D01*
X109874692Y-58986488D01*
X109907118Y-59023203D01*
X109904086Y-59072092D01*
X109875644Y-59101011D01*
X109854177Y-59111949D01*
X109764466Y-59201660D01*
X109764465Y-59201662D01*
X109706874Y-59314690D01*
X109706871Y-59314697D01*
X109692018Y-59408483D01*
X109692018Y-59971516D01*
X109706871Y-60065300D01*
X109706874Y-60065308D01*
X109763884Y-60177197D01*
X109764468Y-60178342D01*
X109854176Y-60268050D01*
X109854181Y-60268052D01*
X109858254Y-60271013D01*
X109857504Y-60272043D01*
X109885842Y-60305225D01*
X109881998Y-60354057D01*
X109857754Y-60378300D01*
X109858254Y-60378987D01*
X109854178Y-60381948D01*
X109764466Y-60471660D01*
X109764465Y-60471662D01*
X109706874Y-60584690D01*
X109706871Y-60584697D01*
X109692018Y-60678483D01*
X109692018Y-61241516D01*
X109706871Y-61335300D01*
X109706874Y-61335308D01*
X109763540Y-61446522D01*
X109764468Y-61448342D01*
X109854176Y-61538050D01*
X109854181Y-61538052D01*
X109858254Y-61541013D01*
X109857504Y-61542043D01*
X109885842Y-61575225D01*
X109881998Y-61624057D01*
X109857754Y-61648300D01*
X109858254Y-61648987D01*
X109854178Y-61651948D01*
X109764466Y-61741660D01*
X109764465Y-61741662D01*
X109706874Y-61854690D01*
X109706871Y-61854697D01*
X109696164Y-61922305D01*
X109670570Y-61964070D01*
X109622940Y-61975505D01*
X109597410Y-61965517D01*
X109595914Y-61964518D01*
X109586201Y-61956549D01*
X109299280Y-61669628D01*
X109280535Y-61624373D01*
X109280535Y-61396633D01*
X109280535Y-61396628D01*
X109277718Y-61372338D01*
X109233849Y-61272984D01*
X109157052Y-61196187D01*
X109057698Y-61152318D01*
X109057697Y-61152317D01*
X109057693Y-61152316D01*
X109057694Y-61152316D01*
X109047768Y-61151165D01*
X109004975Y-61127329D01*
X108991572Y-61080215D01*
X109015408Y-61037422D01*
X109042661Y-61024821D01*
X109095384Y-61014334D01*
X109184695Y-60954658D01*
X109244371Y-60865348D01*
X109244372Y-60865346D01*
X109260035Y-60786597D01*
X109260036Y-60720000D01*
X108376162Y-60720000D01*
X108330907Y-60701255D01*
X108320983Y-60691331D01*
X108313024Y-60681632D01*
X108301159Y-60663875D01*
X108278160Y-60648507D01*
X108246361Y-60627260D01*
X108245794Y-60626881D01*
X108210031Y-60602985D01*
X108210028Y-60602984D01*
X108210028Y-60602983D01*
X108127729Y-60586613D01*
X108127707Y-60586610D01*
X108102537Y-60581603D01*
X108102535Y-60581603D01*
X108081587Y-60585770D01*
X108069101Y-60587000D01*
X107309536Y-60587000D01*
X107264281Y-60568255D01*
X107245536Y-60523000D01*
X107245536Y-60490625D01*
X107260954Y-60453402D01*
X108380035Y-60453402D01*
X108380036Y-60520000D01*
X108720036Y-60520000D01*
X108720036Y-60210000D01*
X108920036Y-60210000D01*
X108920036Y-60520000D01*
X109260035Y-60520000D01*
X109260035Y-60453403D01*
X109260034Y-60453402D01*
X109244372Y-60374655D01*
X109244371Y-60374652D01*
X109184694Y-60285340D01*
X109095384Y-60225664D01*
X109095382Y-60225663D01*
X109016634Y-60210000D01*
X108920036Y-60210000D01*
X108720036Y-60210000D01*
X108623439Y-60210000D01*
X108623438Y-60210001D01*
X108544691Y-60225663D01*
X108544688Y-60225664D01*
X108455376Y-60285341D01*
X108395700Y-60374651D01*
X108395699Y-60374653D01*
X108380035Y-60453402D01*
X107260954Y-60453402D01*
X107264281Y-60445371D01*
X107311202Y-60398449D01*
X107320900Y-60390490D01*
X107338660Y-60378624D01*
X107367039Y-60336153D01*
X107399551Y-60287495D01*
X107399980Y-60285341D01*
X107408500Y-60242505D01*
X107414182Y-60213940D01*
X107415536Y-60207133D01*
X107415536Y-60207132D01*
X107415632Y-60206652D01*
X107416148Y-60204056D01*
X107416148Y-60204054D01*
X107420933Y-60180000D01*
X107420718Y-60178919D01*
X107420933Y-60177838D01*
X107420933Y-60173697D01*
X107421757Y-60173697D01*
X107430271Y-60130877D01*
X107442926Y-60118075D01*
X107442858Y-60118007D01*
X107455877Y-60104988D01*
X107523849Y-60037016D01*
X107567718Y-59937662D01*
X107568869Y-59927734D01*
X107592703Y-59884942D01*
X107639816Y-59871535D01*
X107682610Y-59895369D01*
X107695213Y-59922624D01*
X107705699Y-59975344D01*
X107705700Y-59975347D01*
X107765377Y-60064659D01*
X107854687Y-60124335D01*
X107854689Y-60124336D01*
X107933438Y-60139999D01*
X108000036Y-60139999D01*
X108000036Y-59800000D01*
X108200036Y-59800000D01*
X108200036Y-60139999D01*
X108266632Y-60139999D01*
X108266633Y-60139998D01*
X108345380Y-60124336D01*
X108345383Y-60124335D01*
X108434695Y-60064658D01*
X108494371Y-59975348D01*
X108494372Y-59975346D01*
X108510036Y-59896597D01*
X108510036Y-59800000D01*
X108200036Y-59800000D01*
X108000036Y-59800000D01*
X108000036Y-59664000D01*
X108018781Y-59618745D01*
X108064036Y-59600000D01*
X108510035Y-59600000D01*
X108510035Y-59503403D01*
X108510034Y-59503402D01*
X108494372Y-59424655D01*
X108494371Y-59424652D01*
X108431193Y-59330100D01*
X108434260Y-59328050D01*
X108420363Y-59294499D01*
X108439108Y-59249244D01*
X108484361Y-59230499D01*
X108737026Y-59230499D01*
X108761945Y-59227609D01*
X108863864Y-59182608D01*
X108942644Y-59103828D01*
X108987645Y-59001909D01*
X108987645Y-59001906D01*
X108987646Y-59001905D01*
X108990534Y-58977008D01*
X108990533Y-58977008D01*
X108990536Y-58976991D01*
X108990535Y-58593010D01*
X108987645Y-58568091D01*
X108942644Y-58466172D01*
X108863864Y-58387392D01*
X108798532Y-58358545D01*
X108764707Y-58323120D01*
X108765838Y-58274149D01*
X108798532Y-58241454D01*
X108863864Y-58212608D01*
X108942644Y-58133828D01*
X108987645Y-58031909D01*
X108987645Y-58031906D01*
X108987646Y-58031905D01*
X108990534Y-58007008D01*
X108990533Y-58007008D01*
X108990536Y-58006991D01*
X108990535Y-57623010D01*
X108987645Y-57598091D01*
X108942644Y-57496172D01*
X108885975Y-57439503D01*
X108867231Y-57394250D01*
X108885975Y-57348996D01*
X108942644Y-57292328D01*
X108987645Y-57190409D01*
X108987645Y-57190406D01*
X108987646Y-57190405D01*
X108990534Y-57165508D01*
X108990533Y-57165508D01*
X108990536Y-57165491D01*
X108990535Y-56963852D01*
X109009280Y-56918599D01*
X109054535Y-56899854D01*
X109099790Y-56918599D01*
G37*
%TD.AperFunction*%
%TA.AperFunction,Conductor*%
G36*
X107950569Y-55644680D02*
G01*
X108021444Y-55654551D01*
X108021597Y-55654573D01*
X108063833Y-55679382D01*
X108076156Y-55726790D01*
X108071315Y-55743811D01*
X108052426Y-55786592D01*
X108052425Y-55786594D01*
X108049537Y-55811491D01*
X108049536Y-55811509D01*
X108049536Y-56195486D01*
X108049537Y-56195494D01*
X108052427Y-56220408D01*
X108052428Y-56220412D01*
X108064750Y-56248319D01*
X108097428Y-56322328D01*
X108176208Y-56401108D01*
X108241537Y-56429953D01*
X108275364Y-56465379D01*
X108274233Y-56514349D01*
X108241538Y-56547045D01*
X108176211Y-56575890D01*
X108176205Y-56575894D01*
X108119245Y-56632854D01*
X108073990Y-56651599D01*
X108028736Y-56632853D01*
X108014861Y-56612087D01*
X108014658Y-56611598D01*
X107956092Y-56523946D01*
X107956089Y-56523943D01*
X107900441Y-56486761D01*
X107873227Y-56446033D01*
X107873228Y-56421055D01*
X107873875Y-56417804D01*
X107873875Y-56393587D01*
X107875105Y-56381098D01*
X107877750Y-56367804D01*
X107877750Y-56355000D01*
X107404000Y-56355000D01*
X107358745Y-56336255D01*
X107340000Y-56291000D01*
X107340000Y-56219000D01*
X107358745Y-56173745D01*
X107404000Y-56155000D01*
X107877750Y-56155000D01*
X107877750Y-55955000D01*
X107404000Y-55955000D01*
X107358745Y-55936255D01*
X107340000Y-55891000D01*
X107340000Y-55819000D01*
X107358745Y-55773745D01*
X107404000Y-55755000D01*
X107877749Y-55755000D01*
X107877749Y-55708070D01*
X107896494Y-55662815D01*
X107941748Y-55644069D01*
X107950569Y-55644680D01*
G37*
%TD.AperFunction*%
%TD*%
%TA.AperFunction,Conductor*%
%TO.N,GND*%
G36*
X109800000Y-71999500D02*
G01*
X105700000Y-71999500D01*
X105700000Y-70700000D01*
X109800000Y-70700000D01*
X109800000Y-71999500D01*
G37*
%TD.AperFunction*%
%TD*%
M02*
