%TF.GenerationSoftware,KiCad,Pcbnew,7.0.6*%
%TF.CreationDate,2023-09-20T23:26:58+02:00*%
%TF.ProjectId,epi_ESP32 (2023_01_16 13_30_41 UTC),6570695f-4553-4503-9332-202832303233,1_1*%
%TF.SameCoordinates,Original*%
%TF.FileFunction,Legend,Top*%
%TF.FilePolarity,Positive*%
%FSLAX46Y46*%
G04 Gerber Fmt 4.6, Leading zero omitted, Abs format (unit mm)*
G04 Created by KiCad (PCBNEW 7.0.6) date 2023-09-20 23:26:58*
%MOMM*%
%LPD*%
G01*
G04 APERTURE LIST*
%ADD10C,0.125000*%
%ADD11C,0.150000*%
%ADD12C,0.120000*%
%ADD13C,0.250000*%
G04 APERTURE END LIST*
D10*
X105570404Y-71317169D02*
X105570404Y-71150502D01*
X105832309Y-71079074D02*
X105832309Y-71317169D01*
X105832309Y-71317169D02*
X105332309Y-71317169D01*
X105332309Y-71317169D02*
X105332309Y-71079074D01*
X105832309Y-70864788D02*
X105332309Y-70864788D01*
X105332309Y-70864788D02*
X105832309Y-70579074D01*
X105832309Y-70579074D02*
X105332309Y-70579074D01*
X105689452Y-70364787D02*
X105689452Y-70126692D01*
X105832309Y-70412406D02*
X105332309Y-70245740D01*
X105332309Y-70245740D02*
X105832309Y-70079073D01*
X105570404Y-69745740D02*
X105594214Y-69674312D01*
X105594214Y-69674312D02*
X105618023Y-69650502D01*
X105618023Y-69650502D02*
X105665642Y-69626693D01*
X105665642Y-69626693D02*
X105737071Y-69626693D01*
X105737071Y-69626693D02*
X105784690Y-69650502D01*
X105784690Y-69650502D02*
X105808500Y-69674312D01*
X105808500Y-69674312D02*
X105832309Y-69721931D01*
X105832309Y-69721931D02*
X105832309Y-69912407D01*
X105832309Y-69912407D02*
X105332309Y-69912407D01*
X105332309Y-69912407D02*
X105332309Y-69745740D01*
X105332309Y-69745740D02*
X105356119Y-69698121D01*
X105356119Y-69698121D02*
X105379928Y-69674312D01*
X105379928Y-69674312D02*
X105427547Y-69650502D01*
X105427547Y-69650502D02*
X105475166Y-69650502D01*
X105475166Y-69650502D02*
X105522785Y-69674312D01*
X105522785Y-69674312D02*
X105546595Y-69698121D01*
X105546595Y-69698121D02*
X105570404Y-69745740D01*
X105570404Y-69745740D02*
X105570404Y-69912407D01*
X105832309Y-69174312D02*
X105832309Y-69412407D01*
X105832309Y-69412407D02*
X105332309Y-69412407D01*
X105570404Y-69007645D02*
X105570404Y-68840978D01*
X105832309Y-68769550D02*
X105832309Y-69007645D01*
X105832309Y-69007645D02*
X105332309Y-69007645D01*
X105332309Y-69007645D02*
X105332309Y-68769550D01*
X109870404Y-70733835D02*
X109894214Y-70662407D01*
X109894214Y-70662407D02*
X109918023Y-70638597D01*
X109918023Y-70638597D02*
X109965642Y-70614788D01*
X109965642Y-70614788D02*
X110037071Y-70614788D01*
X110037071Y-70614788D02*
X110084690Y-70638597D01*
X110084690Y-70638597D02*
X110108500Y-70662407D01*
X110108500Y-70662407D02*
X110132309Y-70710026D01*
X110132309Y-70710026D02*
X110132309Y-70900502D01*
X110132309Y-70900502D02*
X109632309Y-70900502D01*
X109632309Y-70900502D02*
X109632309Y-70733835D01*
X109632309Y-70733835D02*
X109656119Y-70686216D01*
X109656119Y-70686216D02*
X109679928Y-70662407D01*
X109679928Y-70662407D02*
X109727547Y-70638597D01*
X109727547Y-70638597D02*
X109775166Y-70638597D01*
X109775166Y-70638597D02*
X109822785Y-70662407D01*
X109822785Y-70662407D02*
X109846595Y-70686216D01*
X109846595Y-70686216D02*
X109870404Y-70733835D01*
X109870404Y-70733835D02*
X109870404Y-70900502D01*
X109632309Y-70305264D02*
X109632309Y-70210026D01*
X109632309Y-70210026D02*
X109656119Y-70162407D01*
X109656119Y-70162407D02*
X109703738Y-70114788D01*
X109703738Y-70114788D02*
X109798976Y-70090978D01*
X109798976Y-70090978D02*
X109965642Y-70090978D01*
X109965642Y-70090978D02*
X110060880Y-70114788D01*
X110060880Y-70114788D02*
X110108500Y-70162407D01*
X110108500Y-70162407D02*
X110132309Y-70210026D01*
X110132309Y-70210026D02*
X110132309Y-70305264D01*
X110132309Y-70305264D02*
X110108500Y-70352883D01*
X110108500Y-70352883D02*
X110060880Y-70400502D01*
X110060880Y-70400502D02*
X109965642Y-70424311D01*
X109965642Y-70424311D02*
X109798976Y-70424311D01*
X109798976Y-70424311D02*
X109703738Y-70400502D01*
X109703738Y-70400502D02*
X109656119Y-70352883D01*
X109656119Y-70352883D02*
X109632309Y-70305264D01*
X109632309Y-69781454D02*
X109632309Y-69686216D01*
X109632309Y-69686216D02*
X109656119Y-69638597D01*
X109656119Y-69638597D02*
X109703738Y-69590978D01*
X109703738Y-69590978D02*
X109798976Y-69567168D01*
X109798976Y-69567168D02*
X109965642Y-69567168D01*
X109965642Y-69567168D02*
X110060880Y-69590978D01*
X110060880Y-69590978D02*
X110108500Y-69638597D01*
X110108500Y-69638597D02*
X110132309Y-69686216D01*
X110132309Y-69686216D02*
X110132309Y-69781454D01*
X110132309Y-69781454D02*
X110108500Y-69829073D01*
X110108500Y-69829073D02*
X110060880Y-69876692D01*
X110060880Y-69876692D02*
X109965642Y-69900501D01*
X109965642Y-69900501D02*
X109798976Y-69900501D01*
X109798976Y-69900501D02*
X109703738Y-69876692D01*
X109703738Y-69876692D02*
X109656119Y-69829073D01*
X109656119Y-69829073D02*
X109632309Y-69781454D01*
X109632309Y-69424310D02*
X109632309Y-69138596D01*
X110132309Y-69281453D02*
X109632309Y-69281453D01*
%TO.C,U3*%
D11*
X101860036Y-59875000D02*
G75*
G03*
X101860036Y-59875000I-75000J0D01*
G01*
D12*
%TO.C,U1*%
X107830036Y-65910000D02*
X107355036Y-65910000D01*
X107830036Y-65435000D02*
X107830036Y-65910000D01*
X102610036Y-61165000D02*
X102610036Y-60690000D01*
X107830036Y-61165000D02*
X107830036Y-60690000D01*
X102610036Y-60690000D02*
X103085036Y-60690000D01*
X107830036Y-60690000D02*
X107355036Y-60690000D01*
D13*
X102845036Y-65800000D02*
G75*
G03*
X102845036Y-65800000I-125000J0D01*
G01*
D12*
%TO.C,C13*%
X109180036Y-60992164D02*
X109180036Y-61207836D01*
X108460036Y-60992164D02*
X108460036Y-61207836D01*
%TO.C,RV2*%
X101166395Y-57620000D02*
X101473677Y-57620000D01*
X101166395Y-58380000D02*
X101473677Y-58380000D01*
%TO.C,R5*%
X105423677Y-57280000D02*
X105116395Y-57280000D01*
X105423677Y-56520000D02*
X105116395Y-56520000D01*
%TO.C,C2*%
X107727872Y-60060000D02*
X107512200Y-60060000D01*
X107727872Y-59340000D02*
X107512200Y-59340000D01*
%TO.C,C7*%
X108460036Y-65007836D02*
X108460036Y-64792164D01*
X109180036Y-65007836D02*
X109180036Y-64792164D01*
%TO.C,RV1*%
X106966395Y-56520000D02*
X107273677Y-56520000D01*
X106966395Y-57280000D02*
X107273677Y-57280000D01*
%TO.C,C4*%
X99340000Y-65287836D02*
X99340000Y-65072164D01*
X100060000Y-65287836D02*
X100060000Y-65072164D01*
%TO.C,L1*%
X102473677Y-70550000D02*
X102166395Y-70550000D01*
X102473677Y-69790000D02*
X102166395Y-69790000D01*
%TO.C,C1*%
X102455036Y-67267164D02*
X102455036Y-67482836D01*
X101735036Y-67267164D02*
X101735036Y-67482836D01*
%TO.C,C11*%
X108427872Y-67260000D02*
X108212200Y-67260000D01*
X108427872Y-66540000D02*
X108212200Y-66540000D01*
%TO.C,R1*%
X108440036Y-63153641D02*
X108440036Y-62846359D01*
X109200036Y-63153641D02*
X109200036Y-62846359D01*
%TO.C,C14*%
X103560616Y-59910000D02*
X103279456Y-59910000D01*
X103560616Y-58890000D02*
X103279456Y-58890000D01*
%TO.C,R4*%
X101473677Y-57380000D02*
X101166395Y-57380000D01*
X101473677Y-56620000D02*
X101166395Y-56620000D01*
%TO.C,C3*%
X100327872Y-61285000D02*
X100112200Y-61285000D01*
X100327872Y-60565000D02*
X100112200Y-60565000D01*
%TO.C,C8*%
X106127872Y-68260000D02*
X105912200Y-68260000D01*
X106127872Y-67540000D02*
X105912200Y-67540000D01*
%TO.C,R6*%
X108473677Y-68280000D02*
X108166395Y-68280000D01*
X108473677Y-67520000D02*
X108166395Y-67520000D01*
%TO.C,R8*%
X100100036Y-57346359D02*
X100100036Y-57653641D01*
X99340036Y-57346359D02*
X99340036Y-57653641D01*
%TO.C,C6*%
X103412200Y-68440000D02*
X103627872Y-68440000D01*
X103412200Y-69160000D02*
X103627872Y-69160000D01*
%TO.C,D1*%
X105870036Y-57697500D02*
X105870036Y-58947500D01*
X105870036Y-58322500D02*
X106670036Y-57800000D01*
X106670036Y-57800000D02*
X106670036Y-58800000D01*
X106670036Y-58800000D02*
X105870036Y-58322500D01*
%TO.C,RV3*%
X103240036Y-57653641D02*
X103240036Y-57346359D01*
X104000036Y-57653641D02*
X104000036Y-57346359D01*
%TO.C,L2*%
X100966395Y-64320000D02*
X101273677Y-64320000D01*
X100966395Y-65080000D02*
X101273677Y-65080000D01*
%TO.C,C5*%
X105727872Y-67260000D02*
X105512200Y-67260000D01*
X105727872Y-66540000D02*
X105512200Y-66540000D01*
%TO.C,AE1*%
G36*
X100940036Y-71750000D02*
G01*
X100640036Y-71750000D01*
X100640036Y-71450000D01*
X100940036Y-71450000D01*
X100940036Y-71750000D01*
G37*
%TO.C,C9*%
X99360036Y-59457836D02*
X99360036Y-59242164D01*
X100080036Y-59457836D02*
X100080036Y-59242164D01*
%TO.C,C12*%
X105927872Y-60060000D02*
X105712200Y-60060000D01*
X105927872Y-59340000D02*
X105712200Y-59340000D01*
%TD*%
M02*
