%TF.GenerationSoftware,KiCad,Pcbnew,7.0.6*%
%TF.CreationDate,2023-09-20T23:26:55+02:00*%
%TF.ProjectId,epi_ESP32 (2023_01_16 13_30_41 UTC),6570695f-4553-4503-9332-202832303233,1_1*%
%TF.SameCoordinates,Original*%
%TF.FileFunction,Drillmap*%
%TF.FilePolarity,Positive*%
%FSLAX45Y45*%
G04 Gerber Fmt 4.5, Leading zero omitted, Abs format (unit mm)*
G04 Created by KiCad (PCBNEW 7.0.6) date 2023-09-20 23:26:55*
%MOMM*%
%LPD*%
G01*
G04 APERTURE LIST*
%ADD10C,0.100000*%
%ADD11C,0.050000*%
%ADD12C,0.200000*%
G04 APERTURE END LIST*
D10*
X9789000Y-4991850D02*
X9789000Y-5215000D01*
D11*
X9789504Y-7220000D02*
X11062004Y-7220000D01*
D10*
X11059000Y-5215000D02*
G75*
G03*
X11059000Y-5415000I0J-100000D01*
G01*
X9789000Y-5415000D02*
G75*
G03*
X9789000Y-5215000I0J100000D01*
G01*
X10879504Y-4991850D02*
X11059000Y-4991850D01*
X11059000Y-5215000D02*
X11059000Y-4991850D01*
X9789000Y-4991850D02*
X9966835Y-4991525D01*
X11062004Y-7220000D02*
X11059000Y-5415000D01*
X9789000Y-5415000D02*
X9789504Y-7220000D01*
D12*
X10044777Y-7536484D02*
X10044777Y-7336484D01*
X10044777Y-7336484D02*
X10092396Y-7336484D01*
X10092396Y-7336484D02*
X10120967Y-7346008D01*
X10120967Y-7346008D02*
X10140015Y-7365055D01*
X10140015Y-7365055D02*
X10149539Y-7384103D01*
X10149539Y-7384103D02*
X10159063Y-7422198D01*
X10159063Y-7422198D02*
X10159063Y-7450769D01*
X10159063Y-7450769D02*
X10149539Y-7488865D01*
X10149539Y-7488865D02*
X10140015Y-7507912D01*
X10140015Y-7507912D02*
X10120967Y-7526960D01*
X10120967Y-7526960D02*
X10092396Y-7536484D01*
X10092396Y-7536484D02*
X10044777Y-7536484D01*
X10244777Y-7536484D02*
X10244777Y-7403150D01*
X10244777Y-7441246D02*
X10254301Y-7422198D01*
X10254301Y-7422198D02*
X10263824Y-7412674D01*
X10263824Y-7412674D02*
X10282872Y-7403150D01*
X10282872Y-7403150D02*
X10301920Y-7403150D01*
X10368586Y-7536484D02*
X10368586Y-7403150D01*
X10368586Y-7336484D02*
X10359063Y-7346008D01*
X10359063Y-7346008D02*
X10368586Y-7355531D01*
X10368586Y-7355531D02*
X10378110Y-7346008D01*
X10378110Y-7346008D02*
X10368586Y-7336484D01*
X10368586Y-7336484D02*
X10368586Y-7355531D01*
X10492396Y-7536484D02*
X10473348Y-7526960D01*
X10473348Y-7526960D02*
X10463824Y-7507912D01*
X10463824Y-7507912D02*
X10463824Y-7336484D01*
X10597158Y-7536484D02*
X10578110Y-7526960D01*
X10578110Y-7526960D02*
X10568586Y-7507912D01*
X10568586Y-7507912D02*
X10568586Y-7336484D01*
X10825729Y-7536484D02*
X10825729Y-7336484D01*
X10825729Y-7336484D02*
X10892396Y-7479341D01*
X10892396Y-7479341D02*
X10959063Y-7336484D01*
X10959063Y-7336484D02*
X10959063Y-7536484D01*
X11140015Y-7536484D02*
X11140015Y-7431722D01*
X11140015Y-7431722D02*
X11130491Y-7412674D01*
X11130491Y-7412674D02*
X11111444Y-7403150D01*
X11111444Y-7403150D02*
X11073348Y-7403150D01*
X11073348Y-7403150D02*
X11054301Y-7412674D01*
X11140015Y-7526960D02*
X11120967Y-7536484D01*
X11120967Y-7536484D02*
X11073348Y-7536484D01*
X11073348Y-7536484D02*
X11054301Y-7526960D01*
X11054301Y-7526960D02*
X11044777Y-7507912D01*
X11044777Y-7507912D02*
X11044777Y-7488865D01*
X11044777Y-7488865D02*
X11054301Y-7469817D01*
X11054301Y-7469817D02*
X11073348Y-7460293D01*
X11073348Y-7460293D02*
X11120967Y-7460293D01*
X11120967Y-7460293D02*
X11140015Y-7450769D01*
X11235253Y-7403150D02*
X11235253Y-7603150D01*
X11235253Y-7412674D02*
X11254301Y-7403150D01*
X11254301Y-7403150D02*
X11292396Y-7403150D01*
X11292396Y-7403150D02*
X11311443Y-7412674D01*
X11311443Y-7412674D02*
X11320967Y-7422198D01*
X11320967Y-7422198D02*
X11330491Y-7441246D01*
X11330491Y-7441246D02*
X11330491Y-7498388D01*
X11330491Y-7498388D02*
X11320967Y-7517436D01*
X11320967Y-7517436D02*
X11311443Y-7526960D01*
X11311443Y-7526960D02*
X11292396Y-7536484D01*
X11292396Y-7536484D02*
X11254301Y-7536484D01*
X11254301Y-7536484D02*
X11235253Y-7526960D01*
X11416205Y-7517436D02*
X11425729Y-7526960D01*
X11425729Y-7526960D02*
X11416205Y-7536484D01*
X11416205Y-7536484D02*
X11406682Y-7526960D01*
X11406682Y-7526960D02*
X11416205Y-7517436D01*
X11416205Y-7517436D02*
X11416205Y-7536484D01*
X11416205Y-7412674D02*
X11425729Y-7422198D01*
X11425729Y-7422198D02*
X11416205Y-7431722D01*
X11416205Y-7431722D02*
X11406682Y-7422198D01*
X11406682Y-7422198D02*
X11416205Y-7412674D01*
X11416205Y-7412674D02*
X11416205Y-7431722D01*
M02*
