%TF.GenerationSoftware,KiCad,Pcbnew,7.0.6*%
%TF.CreationDate,2023-09-20T23:26:58+02:00*%
%TF.ProjectId,epi_ESP32 (2023_01_16 13_30_41 UTC),6570695f-4553-4503-9332-202832303233,1_1*%
%TF.SameCoordinates,Original*%
%TF.FileFunction,Copper,L3,Inr*%
%TF.FilePolarity,Positive*%
%FSLAX46Y46*%
G04 Gerber Fmt 4.6, Leading zero omitted, Abs format (unit mm)*
G04 Created by KiCad (PCBNEW 7.0.6) date 2023-09-20 23:26:58*
%MOMM*%
%LPD*%
G01*
G04 APERTURE LIST*
G04 Aperture macros list*
%AMRoundRect*
0 Rectangle with rounded corners*
0 $1 Rounding radius*
0 $2 $3 $4 $5 $6 $7 $8 $9 X,Y pos of 4 corners*
0 Add a 4 corners polygon primitive as box body*
4,1,4,$2,$3,$4,$5,$6,$7,$8,$9,$2,$3,0*
0 Add four circle primitives for the rounded corners*
1,1,$1+$1,$2,$3*
1,1,$1+$1,$4,$5*
1,1,$1+$1,$6,$7*
1,1,$1+$1,$8,$9*
0 Add four rect primitives between the rounded corners*
20,1,$1+$1,$2,$3,$4,$5,0*
20,1,$1+$1,$4,$5,$6,$7,0*
20,1,$1+$1,$6,$7,$8,$9,0*
20,1,$1+$1,$8,$9,$2,$3,0*%
G04 Aperture macros list end*
%TA.AperFunction,ComponentPad*%
%ADD10O,1.200000X2.000000*%
%TD*%
%TA.AperFunction,ComponentPad*%
%ADD11O,1.200000X2.300000*%
%TD*%
%TA.AperFunction,ComponentPad*%
%ADD12RoundRect,0.250000X-0.500000X-0.250000X0.500000X-0.250000X0.500000X0.250000X-0.500000X0.250000X0*%
%TD*%
%TA.AperFunction,ViaPad*%
%ADD13C,0.600000*%
%TD*%
%TA.AperFunction,Conductor*%
%ADD14C,0.130000*%
%TD*%
%TA.AperFunction,Conductor*%
%ADD15C,0.250000*%
%TD*%
G04 APERTURE END LIST*
D10*
%TO.N,unconnected-(J3-SHIELD-PadS1)*%
%TO.C,J3*%
X109840000Y-55105000D03*
D11*
X109840000Y-51105000D03*
D10*
X98640000Y-55105000D03*
D11*
X98640000Y-51105000D03*
%TD*%
D12*
%TO.N,+3.3V*%
%TO.C,J2*%
X110592518Y-57150000D03*
%TO.N,GND*%
X110592518Y-58420000D03*
%TO.N,VCC*%
X110592518Y-59690000D03*
%TO.N,EN*%
X110592518Y-60960000D03*
%TO.N,BOOT*%
X110592518Y-62230000D03*
%TO.N,IO8*%
X110592518Y-63500000D03*
%TO.N,IO7*%
X110592518Y-64770000D03*
%TO.N,IO6*%
X110592518Y-66040000D03*
%TD*%
%TO.N,U0TXD*%
%TO.C,J1*%
X97892518Y-57150000D03*
%TO.N,U0RXD*%
X97892518Y-58420000D03*
%TO.N,IO0*%
X97892518Y-59690000D03*
%TO.N,IO1*%
X97892518Y-60960000D03*
%TO.N,IO2*%
X97892518Y-62230000D03*
%TO.N,IO3*%
X97892518Y-63500000D03*
%TO.N,IO4*%
X97892518Y-64770000D03*
%TO.N,IO5*%
X97892518Y-66040000D03*
%TD*%
D13*
%TO.N,BOOT*%
X108600000Y-69500000D03*
%TO.N,GND*%
X105220036Y-63300000D03*
X109000000Y-71700000D03*
X109800000Y-71700000D03*
X106600000Y-71700000D03*
X108200000Y-71700000D03*
X107400000Y-71700000D03*
%TO.N,IO0*%
X104305281Y-64731900D03*
%TO.N,IO1*%
X105054574Y-64749607D03*
%TO.N,IO2*%
X105804067Y-64745775D03*
%TO.N,+5V*%
X109420036Y-56600000D03*
X106640000Y-55855000D03*
X101820036Y-55900000D03*
%TO.N,GND*%
X103520036Y-70800000D03*
X103120036Y-68000000D03*
X104195036Y-59400000D03*
X105020036Y-71700000D03*
X104720036Y-62800000D03*
X104120036Y-66617081D03*
X98920036Y-66700000D03*
X99220036Y-63500000D03*
X104320036Y-67300000D03*
X104220036Y-71700000D03*
X101320036Y-71200000D03*
X101320036Y-68300000D03*
X102820036Y-67300000D03*
X102620036Y-71700000D03*
X105820036Y-71700000D03*
X104620036Y-69600000D03*
X104220036Y-70400000D03*
X104720036Y-68000000D03*
X102300000Y-69400000D03*
X107420036Y-56500000D03*
X99720036Y-66700000D03*
X105720036Y-63800000D03*
X104820036Y-68800000D03*
X101232134Y-62037902D03*
X105720036Y-62800000D03*
X101820036Y-71700000D03*
X102820036Y-66500000D03*
X101320036Y-66710000D03*
X108985500Y-66900000D03*
X104720036Y-63800000D03*
X100520036Y-66700000D03*
X100020036Y-56100000D03*
X101320036Y-67500000D03*
X106920036Y-67000000D03*
X103420036Y-71700000D03*
X101320036Y-69100000D03*
%TO.N,+3.3V*%
X102405536Y-59400000D03*
X105540036Y-67900000D03*
X109620036Y-67900000D03*
X107720036Y-59000000D03*
X100635036Y-65800000D03*
%TO.N,IO3*%
X107220036Y-65666775D03*
%TO.N,D+*%
X102720036Y-57000000D03*
X103642889Y-62251013D03*
%TO.N,D-*%
X104232169Y-61787867D03*
X103620036Y-57000000D03*
%TO.N,IO4*%
X108223832Y-66040684D03*
%TO.N,IO8*%
X106562914Y-62029500D03*
%TO.N,IO5*%
X106694275Y-64312553D03*
%TO.N,EN*%
X106501815Y-65036924D03*
%TO.N,BOOT*%
X105851172Y-61779520D03*
%TO.N,U0RXD*%
X102370036Y-60725000D03*
%TO.N,IO7*%
X106669536Y-62808045D03*
%TO.N,IO6*%
X106669536Y-63557548D03*
%TO.N,VCC*%
X106400000Y-58300000D03*
X99720036Y-58934500D03*
%TD*%
D14*
%TO.N,IO3*%
X98920036Y-64100000D02*
X98319962Y-63499926D01*
X102945061Y-64100000D02*
X98920036Y-64100000D01*
X104109668Y-65264607D02*
X102945061Y-64100000D01*
X106403346Y-65666775D02*
X106001178Y-65264607D01*
X107220036Y-65666775D02*
X106403346Y-65666775D01*
X106001178Y-65264607D02*
X104109668Y-65264607D01*
%TO.N,BOOT*%
X109500000Y-63068869D02*
X110338445Y-62230424D01*
X108470500Y-66629500D02*
X109500000Y-65600000D01*
X108470500Y-67113320D02*
X108470500Y-66629500D01*
X108600000Y-69500000D02*
X108600000Y-67242820D01*
X108600000Y-67242820D02*
X108470500Y-67113320D01*
X109500000Y-65600000D02*
X109500000Y-63068869D01*
D15*
%TO.N,VCC*%
X101720036Y-58300000D02*
X101085536Y-58934500D01*
X101085536Y-58934500D02*
X99720036Y-58934500D01*
X106400000Y-58300000D02*
X101720036Y-58300000D01*
D14*
%TO.N,IO4*%
X103600000Y-65700000D02*
X102669926Y-64769926D01*
X106302071Y-66181775D02*
X105820296Y-65700000D01*
X102669926Y-64769926D02*
X98157963Y-64769926D01*
X108082741Y-66181775D02*
X106302071Y-66181775D01*
X108223832Y-66040684D02*
X108082741Y-66181775D01*
X105820296Y-65700000D02*
X103600000Y-65700000D01*
%TO.N,EN*%
X110336332Y-61078577D02*
X110336332Y-60960426D01*
X109627518Y-62172482D02*
X109627518Y-61787391D01*
X109627518Y-61787391D02*
X110336332Y-61078577D01*
X106763076Y-65036924D02*
X109627518Y-62172482D01*
X106501815Y-65036924D02*
X106763076Y-65036924D01*
D15*
%TO.N,+3.3V*%
X109567518Y-57853011D02*
X110269992Y-57150537D01*
%TD*%
%TA.AperFunction,Conductor*%
%TO.N,+3.3V*%
G36*
X102599408Y-65004171D02*
G01*
X103443038Y-65847802D01*
X103444191Y-65849016D01*
X103470503Y-65878238D01*
X103479570Y-65882275D01*
X103492252Y-65887921D01*
X103501075Y-65892711D01*
X103521046Y-65905681D01*
X103529946Y-65907090D01*
X103545963Y-65911835D01*
X103554194Y-65915500D01*
X103578006Y-65915500D01*
X103588017Y-65916288D01*
X103611530Y-65920012D01*
X103619031Y-65918002D01*
X103620230Y-65917681D01*
X103636794Y-65915500D01*
X105704523Y-65915500D01*
X105749778Y-65934245D01*
X106145109Y-66329576D01*
X106146262Y-66330791D01*
X106172572Y-66360012D01*
X106194325Y-66369697D01*
X106203150Y-66374488D01*
X106223118Y-66387456D01*
X106227015Y-66388073D01*
X106232013Y-66388865D01*
X106248033Y-66393610D01*
X106256265Y-66397275D01*
X106280077Y-66397275D01*
X106290088Y-66398063D01*
X106313601Y-66401787D01*
X106322307Y-66399454D01*
X106338865Y-66397275D01*
X107926634Y-66397275D01*
X107961235Y-66407435D01*
X107992594Y-66427588D01*
X108034763Y-66454688D01*
X108159060Y-66491184D01*
X108159062Y-66491184D01*
X108197637Y-66491184D01*
X108242892Y-66509929D01*
X108261637Y-66555184D01*
X108256104Y-66581215D01*
X108255000Y-66583694D01*
X108255000Y-66607505D01*
X108254212Y-66617516D01*
X108250488Y-66641029D01*
X108250488Y-66641030D01*
X108252819Y-66649730D01*
X108255000Y-66666293D01*
X108255000Y-67106846D01*
X108254956Y-67108521D01*
X108252898Y-67147782D01*
X108252899Y-67147790D01*
X108261431Y-67170017D01*
X108264283Y-67179645D01*
X108269231Y-67202926D01*
X108269232Y-67202928D01*
X108269233Y-67202930D01*
X108274528Y-67210219D01*
X108282498Y-67224897D01*
X108285728Y-67233311D01*
X108302567Y-67250150D01*
X108309089Y-67257787D01*
X108323079Y-67277043D01*
X108323082Y-67277046D01*
X108330877Y-67281546D01*
X108344135Y-67291718D01*
X108365755Y-67313338D01*
X108384500Y-67358593D01*
X108384500Y-69068035D01*
X108365755Y-69113290D01*
X108355101Y-69121875D01*
X108301951Y-69156032D01*
X108301949Y-69156034D01*
X108217118Y-69253936D01*
X108217116Y-69253939D01*
X108163303Y-69371771D01*
X108144867Y-69500000D01*
X108163303Y-69628228D01*
X108217116Y-69746060D01*
X108217118Y-69746063D01*
X108301951Y-69843967D01*
X108410931Y-69914004D01*
X108535228Y-69950500D01*
X108535229Y-69950500D01*
X108664771Y-69950500D01*
X108664772Y-69950500D01*
X108789069Y-69914004D01*
X108898049Y-69843967D01*
X108982882Y-69746063D01*
X109036697Y-69628226D01*
X109055133Y-69500000D01*
X109036697Y-69371774D01*
X108982882Y-69253937D01*
X108898049Y-69156033D01*
X108898048Y-69156032D01*
X108844899Y-69121875D01*
X108816962Y-69081639D01*
X108815500Y-69068035D01*
X108815500Y-67405096D01*
X108834245Y-67359841D01*
X108879500Y-67341096D01*
X108897531Y-67343689D01*
X108920727Y-67350500D01*
X108920728Y-67350500D01*
X109050271Y-67350500D01*
X109050272Y-67350500D01*
X109174569Y-67314004D01*
X109283549Y-67243967D01*
X109368382Y-67146063D01*
X109422197Y-67028226D01*
X109440633Y-66900000D01*
X109422197Y-66771774D01*
X109393985Y-66710000D01*
X109368383Y-66653939D01*
X109368381Y-66653936D01*
X109336823Y-66617516D01*
X109283549Y-66556033D01*
X109283548Y-66556032D01*
X109174570Y-66485996D01*
X109080325Y-66458324D01*
X109042185Y-66427588D01*
X109036948Y-66378885D01*
X109053099Y-66351663D01*
X109582764Y-65821997D01*
X109628018Y-65803253D01*
X109673273Y-65821998D01*
X109692018Y-65867253D01*
X109692018Y-66321516D01*
X109706871Y-66415300D01*
X109706874Y-66415308D01*
X109745654Y-66491419D01*
X109764468Y-66528342D01*
X109854176Y-66618050D01*
X109854180Y-66618052D01*
X109928719Y-66656032D01*
X109967214Y-66675646D01*
X110060999Y-66690500D01*
X110346473Y-66690499D01*
X110391728Y-66709244D01*
X110410473Y-66754392D01*
X110419095Y-71935393D01*
X110400425Y-71980679D01*
X110355202Y-71999500D01*
X110258064Y-71999500D01*
X110212809Y-71980755D01*
X110194064Y-71935500D01*
X110199848Y-71908913D01*
X110236696Y-71828228D01*
X110236695Y-71828228D01*
X110236697Y-71828226D01*
X110255133Y-71700000D01*
X110236697Y-71571774D01*
X110222969Y-71541715D01*
X110182883Y-71453939D01*
X110182881Y-71453936D01*
X110098050Y-71356034D01*
X110098048Y-71356032D01*
X109989069Y-71285996D01*
X109978000Y-71282746D01*
X109864772Y-71249500D01*
X109735228Y-71249500D01*
X109610931Y-71285996D01*
X109610929Y-71285996D01*
X109501951Y-71356032D01*
X109501949Y-71356034D01*
X109448368Y-71417872D01*
X109404566Y-71439798D01*
X109358089Y-71424329D01*
X109351632Y-71417872D01*
X109298050Y-71356034D01*
X109298048Y-71356032D01*
X109189069Y-71285996D01*
X109178000Y-71282746D01*
X109064772Y-71249500D01*
X108935228Y-71249500D01*
X108810931Y-71285996D01*
X108810929Y-71285996D01*
X108701951Y-71356032D01*
X108701949Y-71356034D01*
X108648368Y-71417872D01*
X108604566Y-71439798D01*
X108558089Y-71424329D01*
X108551632Y-71417872D01*
X108498050Y-71356034D01*
X108498048Y-71356032D01*
X108389069Y-71285996D01*
X108378000Y-71282746D01*
X108264772Y-71249500D01*
X108135228Y-71249500D01*
X108010931Y-71285996D01*
X108010929Y-71285996D01*
X107901951Y-71356032D01*
X107901949Y-71356034D01*
X107848368Y-71417872D01*
X107804566Y-71439798D01*
X107758089Y-71424329D01*
X107751632Y-71417872D01*
X107698050Y-71356034D01*
X107698048Y-71356032D01*
X107589069Y-71285996D01*
X107578000Y-71282746D01*
X107464772Y-71249500D01*
X107335228Y-71249500D01*
X107210931Y-71285996D01*
X107210929Y-71285996D01*
X107101951Y-71356032D01*
X107101949Y-71356034D01*
X107048368Y-71417872D01*
X107004566Y-71439798D01*
X106958089Y-71424329D01*
X106951632Y-71417872D01*
X106898050Y-71356034D01*
X106898048Y-71356032D01*
X106789069Y-71285996D01*
X106778000Y-71282746D01*
X106664772Y-71249500D01*
X106535228Y-71249500D01*
X106410931Y-71285996D01*
X106410929Y-71285996D01*
X106301951Y-71356032D01*
X106301949Y-71356034D01*
X106258386Y-71406309D01*
X106214583Y-71428235D01*
X106168107Y-71412766D01*
X106161650Y-71406309D01*
X106118086Y-71356034D01*
X106118084Y-71356032D01*
X106009105Y-71285996D01*
X105998036Y-71282746D01*
X105884808Y-71249500D01*
X105755264Y-71249500D01*
X105630967Y-71285996D01*
X105630965Y-71285996D01*
X105521987Y-71356032D01*
X105521985Y-71356034D01*
X105468404Y-71417871D01*
X105424602Y-71439797D01*
X105378125Y-71424328D01*
X105371668Y-71417871D01*
X105318086Y-71356034D01*
X105318084Y-71356032D01*
X105209105Y-71285996D01*
X105198036Y-71282746D01*
X105084808Y-71249500D01*
X104955264Y-71249500D01*
X104830967Y-71285996D01*
X104830965Y-71285996D01*
X104721987Y-71356032D01*
X104721985Y-71356034D01*
X104668404Y-71417871D01*
X104624602Y-71439797D01*
X104578125Y-71424328D01*
X104571668Y-71417871D01*
X104518086Y-71356034D01*
X104518084Y-71356032D01*
X104409105Y-71285996D01*
X104398036Y-71282746D01*
X104284808Y-71249500D01*
X104155264Y-71249500D01*
X104030967Y-71285996D01*
X104030965Y-71285996D01*
X103921987Y-71356032D01*
X103921985Y-71356034D01*
X103868404Y-71417871D01*
X103824602Y-71439797D01*
X103778125Y-71424328D01*
X103771668Y-71417871D01*
X103718086Y-71356034D01*
X103718085Y-71356033D01*
X103681467Y-71332500D01*
X103653531Y-71292263D01*
X103662229Y-71244058D01*
X103698039Y-71217253D01*
X103709105Y-71214004D01*
X103818085Y-71143967D01*
X103902918Y-71046063D01*
X103956733Y-70928226D01*
X103964986Y-70870821D01*
X103989980Y-70828698D01*
X104037442Y-70816583D01*
X104046349Y-70818520D01*
X104155264Y-70850500D01*
X104155266Y-70850500D01*
X104284807Y-70850500D01*
X104284808Y-70850500D01*
X104409105Y-70814004D01*
X104518085Y-70743967D01*
X104602918Y-70646063D01*
X104656733Y-70528226D01*
X104675169Y-70400000D01*
X104656733Y-70271774D01*
X104602918Y-70153937D01*
X104602916Y-70153935D01*
X104600443Y-70150086D01*
X104602510Y-70148757D01*
X104589594Y-70109920D01*
X104611529Y-70066123D01*
X104653430Y-70050500D01*
X104684807Y-70050500D01*
X104684808Y-70050500D01*
X104809105Y-70014004D01*
X104918085Y-69943967D01*
X105002918Y-69846063D01*
X105056733Y-69728226D01*
X105075169Y-69600000D01*
X105056733Y-69471774D01*
X105043005Y-69441715D01*
X105002919Y-69353939D01*
X105002917Y-69353936D01*
X104972727Y-69319094D01*
X104957259Y-69272617D01*
X104979186Y-69228815D01*
X105003066Y-69215777D01*
X105009105Y-69214004D01*
X105118085Y-69143967D01*
X105202918Y-69046063D01*
X105256733Y-68928226D01*
X105275169Y-68800000D01*
X105256733Y-68671774D01*
X105245034Y-68646158D01*
X105202919Y-68553939D01*
X105202917Y-68553936D01*
X105118086Y-68456034D01*
X105118084Y-68456032D01*
X105074816Y-68428226D01*
X105053614Y-68414600D01*
X105025679Y-68374365D01*
X105034376Y-68326160D01*
X105039843Y-68318855D01*
X105102918Y-68246063D01*
X105156733Y-68128226D01*
X105175169Y-68000000D01*
X105156733Y-67871774D01*
X105145034Y-67846158D01*
X105102919Y-67753939D01*
X105102917Y-67753936D01*
X105068315Y-67714003D01*
X105018085Y-67656033D01*
X105018084Y-67656032D01*
X104909105Y-67585996D01*
X104870255Y-67574589D01*
X104784808Y-67549500D01*
X104784806Y-67549500D01*
X104782085Y-67548701D01*
X104743944Y-67517965D01*
X104738707Y-67469263D01*
X104741893Y-67460718D01*
X104756733Y-67428226D01*
X104775169Y-67300000D01*
X104756733Y-67171774D01*
X104750572Y-67158284D01*
X104702919Y-67053939D01*
X104702917Y-67053936D01*
X104656182Y-67000000D01*
X106464903Y-67000000D01*
X106483339Y-67128228D01*
X106537152Y-67246060D01*
X106537154Y-67246063D01*
X106611689Y-67332083D01*
X106621987Y-67343967D01*
X106730967Y-67414004D01*
X106855264Y-67450500D01*
X106855265Y-67450500D01*
X106984807Y-67450500D01*
X106984808Y-67450500D01*
X107109105Y-67414004D01*
X107218085Y-67343967D01*
X107302918Y-67246063D01*
X107356733Y-67128226D01*
X107375169Y-67000000D01*
X107356733Y-66871774D01*
X107354773Y-66867483D01*
X107302919Y-66753939D01*
X107302917Y-66753936D01*
X107218086Y-66656034D01*
X107218084Y-66656032D01*
X107109105Y-66585996D01*
X107047014Y-66567765D01*
X106984808Y-66549500D01*
X106855264Y-66549500D01*
X106730967Y-66585996D01*
X106730965Y-66585996D01*
X106621987Y-66656032D01*
X106621985Y-66656034D01*
X106537154Y-66753936D01*
X106537152Y-66753939D01*
X106483339Y-66871771D01*
X106464903Y-67000000D01*
X104656182Y-67000000D01*
X104618086Y-66956034D01*
X104618084Y-66956032D01*
X104552059Y-66913601D01*
X104542905Y-66907718D01*
X104514970Y-66867483D01*
X104519291Y-66827292D01*
X104556732Y-66745309D01*
X104556731Y-66745309D01*
X104556733Y-66745307D01*
X104575169Y-66617081D01*
X104556733Y-66488855D01*
X104555427Y-66485996D01*
X104502919Y-66371020D01*
X104502917Y-66371017D01*
X104498598Y-66366033D01*
X104418085Y-66273114D01*
X104418084Y-66273113D01*
X104309105Y-66203077D01*
X104309104Y-66203077D01*
X104184808Y-66166581D01*
X104055264Y-66166581D01*
X103930967Y-66203077D01*
X103930965Y-66203077D01*
X103821987Y-66273113D01*
X103821985Y-66273115D01*
X103737154Y-66371017D01*
X103737152Y-66371020D01*
X103683339Y-66488852D01*
X103664903Y-66617081D01*
X103683339Y-66745309D01*
X103737152Y-66863141D01*
X103737154Y-66863144D01*
X103821985Y-66961046D01*
X103821987Y-66961048D01*
X103897165Y-67009362D01*
X103925101Y-67049598D01*
X103920780Y-67089789D01*
X103883339Y-67171771D01*
X103864903Y-67300000D01*
X103883339Y-67428228D01*
X103937152Y-67546060D01*
X103937154Y-67546063D01*
X104008347Y-67628226D01*
X104021987Y-67643967D01*
X104130967Y-67714004D01*
X104255264Y-67750500D01*
X104255268Y-67750500D01*
X104257986Y-67751298D01*
X104296127Y-67782033D01*
X104301364Y-67830736D01*
X104298173Y-67839292D01*
X104283339Y-67871772D01*
X104264903Y-68000000D01*
X104283339Y-68128228D01*
X104337152Y-68246060D01*
X104337154Y-68246063D01*
X104421987Y-68343967D01*
X104486456Y-68385399D01*
X104514392Y-68425633D01*
X104505695Y-68473839D01*
X104500224Y-68481148D01*
X104437154Y-68553936D01*
X104437152Y-68553939D01*
X104383339Y-68671771D01*
X104364903Y-68800000D01*
X104383339Y-68928228D01*
X104437152Y-69046060D01*
X104437154Y-69046063D01*
X104467344Y-69080905D01*
X104482812Y-69127382D01*
X104460885Y-69171184D01*
X104437007Y-69184222D01*
X104430970Y-69185994D01*
X104430965Y-69185996D01*
X104321987Y-69256032D01*
X104321985Y-69256034D01*
X104237154Y-69353936D01*
X104237152Y-69353939D01*
X104183339Y-69471771D01*
X104164903Y-69600000D01*
X104183339Y-69728228D01*
X104237152Y-69846060D01*
X104239629Y-69849914D01*
X104237561Y-69851242D01*
X104250478Y-69890080D01*
X104228543Y-69933877D01*
X104186642Y-69949500D01*
X104155264Y-69949500D01*
X104030967Y-69985996D01*
X104030965Y-69985996D01*
X103921987Y-70056032D01*
X103921985Y-70056034D01*
X103837154Y-70153936D01*
X103837152Y-70153939D01*
X103783339Y-70271772D01*
X103783338Y-70271775D01*
X103775085Y-70329176D01*
X103750090Y-70371302D01*
X103702628Y-70383415D01*
X103693708Y-70381475D01*
X103584808Y-70349500D01*
X103455264Y-70349500D01*
X103330967Y-70385996D01*
X103330965Y-70385996D01*
X103221987Y-70456032D01*
X103221985Y-70456034D01*
X103137154Y-70553936D01*
X103137152Y-70553939D01*
X103083339Y-70671771D01*
X103064903Y-70800000D01*
X103083339Y-70928228D01*
X103137152Y-71046060D01*
X103137154Y-71046063D01*
X103221985Y-71143965D01*
X103221987Y-71143967D01*
X103258603Y-71167499D01*
X103286540Y-71207735D01*
X103277842Y-71255940D01*
X103242033Y-71282746D01*
X103230972Y-71285993D01*
X103230965Y-71285996D01*
X103121987Y-71356032D01*
X103121985Y-71356034D01*
X103068404Y-71417871D01*
X103024602Y-71439797D01*
X102978125Y-71424328D01*
X102971668Y-71417871D01*
X102918086Y-71356034D01*
X102918084Y-71356032D01*
X102809105Y-71285996D01*
X102798036Y-71282746D01*
X102684808Y-71249500D01*
X102555264Y-71249500D01*
X102430967Y-71285996D01*
X102430965Y-71285996D01*
X102321987Y-71356032D01*
X102321985Y-71356034D01*
X102268404Y-71417871D01*
X102224602Y-71439797D01*
X102178125Y-71424328D01*
X102171668Y-71417871D01*
X102118086Y-71356034D01*
X102118084Y-71356032D01*
X102009105Y-71285996D01*
X101998036Y-71282746D01*
X101884808Y-71249500D01*
X101884807Y-71249500D01*
X101837742Y-71249500D01*
X101792487Y-71230755D01*
X101774394Y-71194610D01*
X101756733Y-71071774D01*
X101702918Y-70953937D01*
X101630901Y-70870824D01*
X101618086Y-70856034D01*
X101618084Y-70856032D01*
X101509105Y-70785996D01*
X101470565Y-70774680D01*
X101384808Y-70749500D01*
X101255264Y-70749500D01*
X101130967Y-70785996D01*
X101130966Y-70785996D01*
X101118635Y-70793921D01*
X101070429Y-70802617D01*
X101030194Y-70774680D01*
X101020035Y-70740080D01*
X101020035Y-69559919D01*
X101038780Y-69514664D01*
X101084035Y-69495919D01*
X101118634Y-69506078D01*
X101130967Y-69514004D01*
X101255264Y-69550500D01*
X101255265Y-69550500D01*
X101384807Y-69550500D01*
X101384808Y-69550500D01*
X101509105Y-69514004D01*
X101618085Y-69443967D01*
X101702918Y-69346063D01*
X101736496Y-69272536D01*
X101749370Y-69260550D01*
X101839587Y-69260550D01*
X101854677Y-69276758D01*
X101858061Y-69308232D01*
X101844867Y-69399999D01*
X101863303Y-69528228D01*
X101917116Y-69646060D01*
X101917118Y-69646063D01*
X101988311Y-69728226D01*
X102001951Y-69743967D01*
X102110931Y-69814004D01*
X102235228Y-69850500D01*
X102235229Y-69850500D01*
X102364771Y-69850500D01*
X102364772Y-69850500D01*
X102489069Y-69814004D01*
X102598049Y-69743967D01*
X102682882Y-69646063D01*
X102736697Y-69528226D01*
X102755133Y-69400000D01*
X102736697Y-69271774D01*
X102729508Y-69256033D01*
X102682883Y-69153939D01*
X102682881Y-69153936D01*
X102655100Y-69121875D01*
X102598049Y-69056033D01*
X102598048Y-69056032D01*
X102489069Y-68985996D01*
X102440622Y-68971771D01*
X102364772Y-68949500D01*
X102235228Y-68949500D01*
X102110931Y-68985996D01*
X102110929Y-68985996D01*
X102001951Y-69056032D01*
X102001949Y-69056034D01*
X101917118Y-69153936D01*
X101917116Y-69153939D01*
X101883539Y-69227462D01*
X101847688Y-69260840D01*
X101839587Y-69260550D01*
X101749370Y-69260550D01*
X101772346Y-69239159D01*
X101780448Y-69239448D01*
X101765358Y-69223240D01*
X101761974Y-69191770D01*
X101775169Y-69100000D01*
X101756733Y-68971774D01*
X101702918Y-68853937D01*
X101656182Y-68800000D01*
X101618086Y-68756034D01*
X101618082Y-68756030D01*
X101614676Y-68753842D01*
X101586737Y-68713608D01*
X101595432Y-68665402D01*
X101614676Y-68646158D01*
X101618082Y-68643969D01*
X101618082Y-68643968D01*
X101618085Y-68643967D01*
X101702918Y-68546063D01*
X101756733Y-68428226D01*
X101775169Y-68300000D01*
X101756733Y-68171774D01*
X101702918Y-68053937D01*
X101656182Y-68000000D01*
X101618086Y-67956034D01*
X101618082Y-67956030D01*
X101614676Y-67953842D01*
X101586737Y-67913608D01*
X101595432Y-67865402D01*
X101614676Y-67846158D01*
X101618082Y-67843969D01*
X101618082Y-67843968D01*
X101618085Y-67843967D01*
X101702918Y-67746063D01*
X101756733Y-67628226D01*
X101775169Y-67500000D01*
X101756733Y-67371774D01*
X101751283Y-67359841D01*
X101723954Y-67300000D01*
X102364903Y-67300000D01*
X102383339Y-67428228D01*
X102437152Y-67546060D01*
X102437154Y-67546063D01*
X102521985Y-67643965D01*
X102521987Y-67643967D01*
X102540760Y-67656032D01*
X102630967Y-67714004D01*
X102669810Y-67725409D01*
X102707950Y-67756143D01*
X102713187Y-67804846D01*
X102709996Y-67813402D01*
X102683339Y-67871772D01*
X102664903Y-68000000D01*
X102683339Y-68128228D01*
X102737152Y-68246060D01*
X102737154Y-68246063D01*
X102821987Y-68343967D01*
X102930967Y-68414004D01*
X103055264Y-68450500D01*
X103055265Y-68450500D01*
X103184807Y-68450500D01*
X103184808Y-68450500D01*
X103309105Y-68414004D01*
X103418085Y-68343967D01*
X103502918Y-68246063D01*
X103556733Y-68128226D01*
X103575169Y-68000000D01*
X103556733Y-67871774D01*
X103545034Y-67846158D01*
X103502919Y-67753939D01*
X103502917Y-67753936D01*
X103468315Y-67714003D01*
X103418085Y-67656033D01*
X103418084Y-67656032D01*
X103309106Y-67585996D01*
X103309101Y-67585994D01*
X103270260Y-67574589D01*
X103232120Y-67543853D01*
X103226885Y-67495150D01*
X103230076Y-67486595D01*
X103237992Y-67469263D01*
X103256733Y-67428226D01*
X103275169Y-67300000D01*
X103256733Y-67171774D01*
X103250572Y-67158284D01*
X103202919Y-67053939D01*
X103202917Y-67053936D01*
X103118086Y-66956034D01*
X103118080Y-66956029D01*
X103114671Y-66953838D01*
X103086736Y-66913601D01*
X103095435Y-66865396D01*
X103114679Y-66846155D01*
X103118085Y-66843967D01*
X103202918Y-66746063D01*
X103256733Y-66628226D01*
X103275169Y-66500000D01*
X103256733Y-66371774D01*
X103256720Y-66371746D01*
X103202919Y-66253939D01*
X103202917Y-66253936D01*
X103118086Y-66156034D01*
X103118084Y-66156032D01*
X103009105Y-66085996D01*
X102884808Y-66049500D01*
X102755264Y-66049500D01*
X102630967Y-66085996D01*
X102630965Y-66085996D01*
X102521987Y-66156032D01*
X102521985Y-66156034D01*
X102437154Y-66253936D01*
X102437152Y-66253939D01*
X102383339Y-66371771D01*
X102364903Y-66500000D01*
X102383339Y-66628228D01*
X102437152Y-66746060D01*
X102437154Y-66746063D01*
X102508347Y-66828226D01*
X102521987Y-66843967D01*
X102525401Y-66846161D01*
X102553336Y-66886398D01*
X102544637Y-66934603D01*
X102525401Y-66953839D01*
X102521986Y-66956033D01*
X102521985Y-66956034D01*
X102437154Y-67053936D01*
X102437152Y-67053939D01*
X102383339Y-67171771D01*
X102364903Y-67300000D01*
X101723954Y-67300000D01*
X101702919Y-67253939D01*
X101702917Y-67253936D01*
X101699636Y-67250150D01*
X101634274Y-67174716D01*
X101618087Y-67156035D01*
X101615011Y-67153370D01*
X101593083Y-67109568D01*
X101608550Y-67063091D01*
X101615011Y-67056630D01*
X101618079Y-67053970D01*
X101618085Y-67053967D01*
X101702918Y-66956063D01*
X101756733Y-66838226D01*
X101775169Y-66710000D01*
X101756733Y-66581774D01*
X101750335Y-66567765D01*
X101702919Y-66463939D01*
X101702917Y-66463936D01*
X101667335Y-66422872D01*
X101660501Y-66414984D01*
X101618086Y-66366034D01*
X101618084Y-66366032D01*
X101509105Y-66295996D01*
X101475047Y-66285996D01*
X101384808Y-66259500D01*
X101255264Y-66259500D01*
X101130967Y-66295996D01*
X101130965Y-66295996D01*
X101021987Y-66366032D01*
X101021985Y-66366034D01*
X100972736Y-66422872D01*
X100928934Y-66444798D01*
X100882457Y-66429329D01*
X100876000Y-66422872D01*
X100818085Y-66356033D01*
X100818084Y-66356032D01*
X100709105Y-66285996D01*
X100665228Y-66273113D01*
X100584808Y-66249500D01*
X100455264Y-66249500D01*
X100330967Y-66285996D01*
X100330965Y-66285996D01*
X100221987Y-66356032D01*
X100221985Y-66356034D01*
X100168404Y-66417871D01*
X100124602Y-66439797D01*
X100078125Y-66424328D01*
X100071668Y-66417871D01*
X100018086Y-66356034D01*
X100018084Y-66356032D01*
X99909105Y-66285996D01*
X99865228Y-66273113D01*
X99784808Y-66249500D01*
X99655264Y-66249500D01*
X99530967Y-66285996D01*
X99530965Y-66285996D01*
X99421987Y-66356032D01*
X99421985Y-66356034D01*
X99368404Y-66417871D01*
X99324602Y-66439797D01*
X99278125Y-66424328D01*
X99271668Y-66417871D01*
X99218086Y-66356034D01*
X99218084Y-66356032D01*
X99109105Y-66285996D01*
X99065228Y-66273113D01*
X98984808Y-66249500D01*
X98857017Y-66249500D01*
X98811762Y-66230755D01*
X98793017Y-66185500D01*
X98793017Y-65758483D01*
X98792682Y-65756368D01*
X98778164Y-65664696D01*
X98720568Y-65551658D01*
X98630860Y-65461950D01*
X98630855Y-65461947D01*
X98626782Y-65458987D01*
X98627531Y-65457955D01*
X98599195Y-65424781D01*
X98603035Y-65375948D01*
X98627281Y-65351701D01*
X98626782Y-65351013D01*
X98630857Y-65348052D01*
X98630857Y-65348051D01*
X98630860Y-65348050D01*
X98720568Y-65258342D01*
X98778164Y-65145304D01*
X98793018Y-65051519D01*
X98793018Y-65049426D01*
X98811763Y-65004171D01*
X98857018Y-64985426D01*
X102554153Y-64985426D01*
X102599408Y-65004171D01*
G37*
%TD.AperFunction*%
%TA.AperFunction,Conductor*%
G36*
X109059530Y-55183674D02*
G01*
X109087890Y-55223612D01*
X109089500Y-55237877D01*
X109089500Y-55548709D01*
X109091332Y-55564382D01*
X109104758Y-55679252D01*
X109104758Y-55679254D01*
X109104759Y-55679255D01*
X109122053Y-55726771D01*
X109164763Y-55844117D01*
X109164763Y-55844118D01*
X109261170Y-55990697D01*
X109330748Y-56056340D01*
X109350802Y-56101031D01*
X109333381Y-56146811D01*
X109304859Y-56164300D01*
X109230967Y-56185996D01*
X109230965Y-56185996D01*
X109121987Y-56256032D01*
X109121985Y-56256034D01*
X109037154Y-56353936D01*
X109037152Y-56353939D01*
X108983339Y-56471771D01*
X108964903Y-56600000D01*
X108983339Y-56728228D01*
X109037152Y-56846060D01*
X109037154Y-56846063D01*
X109113460Y-56934127D01*
X109121987Y-56943967D01*
X109230967Y-57014004D01*
X109355264Y-57050500D01*
X109355265Y-57050500D01*
X109484807Y-57050500D01*
X109484808Y-57050500D01*
X109609105Y-57014004D01*
X109613914Y-57010912D01*
X109662119Y-57002213D01*
X109702356Y-57030147D01*
X109712518Y-57064751D01*
X109712518Y-57436054D01*
X109723280Y-57509927D01*
X109778980Y-57623862D01*
X109868655Y-57713537D01*
X109874692Y-57716488D01*
X109907118Y-57753203D01*
X109904086Y-57802092D01*
X109875644Y-57831011D01*
X109854177Y-57841949D01*
X109764466Y-57931660D01*
X109764465Y-57931662D01*
X109706874Y-58044690D01*
X109706871Y-58044697D01*
X109700329Y-58086006D01*
X109693547Y-58128831D01*
X109692018Y-58138483D01*
X109692018Y-58701516D01*
X109706871Y-58795300D01*
X109706874Y-58795308D01*
X109712461Y-58806274D01*
X109764468Y-58908342D01*
X109854176Y-58998050D01*
X109854181Y-58998052D01*
X109858254Y-59001013D01*
X109857504Y-59002043D01*
X109885842Y-59035225D01*
X109881998Y-59084057D01*
X109857754Y-59108300D01*
X109858254Y-59108987D01*
X109854178Y-59111948D01*
X109764466Y-59201660D01*
X109764465Y-59201662D01*
X109706874Y-59314690D01*
X109706871Y-59314697D01*
X109692018Y-59408483D01*
X109692018Y-59971516D01*
X109706871Y-60065300D01*
X109706872Y-60065304D01*
X109764468Y-60178342D01*
X109854176Y-60268050D01*
X109854181Y-60268052D01*
X109858254Y-60271013D01*
X109857504Y-60272043D01*
X109885842Y-60305225D01*
X109881998Y-60354057D01*
X109857754Y-60378300D01*
X109858254Y-60378987D01*
X109854178Y-60381948D01*
X109764466Y-60471660D01*
X109764465Y-60471662D01*
X109706874Y-60584690D01*
X109706871Y-60584697D01*
X109692018Y-60678483D01*
X109692018Y-61241516D01*
X109706871Y-61335300D01*
X109706874Y-61335309D01*
X109708706Y-61338905D01*
X109712545Y-61387738D01*
X109696934Y-61413210D01*
X109479705Y-61630439D01*
X109478490Y-61631592D01*
X109449281Y-61657892D01*
X109449280Y-61657893D01*
X109449280Y-61657894D01*
X109448502Y-61659641D01*
X109439595Y-61679645D01*
X109434805Y-61688465D01*
X109421837Y-61708435D01*
X109421837Y-61708436D01*
X109420425Y-61717344D01*
X109415684Y-61733348D01*
X109412018Y-61741584D01*
X109412018Y-61765396D01*
X109411230Y-61775407D01*
X109408627Y-61791841D01*
X109407506Y-61798921D01*
X109409837Y-61807621D01*
X109412018Y-61824184D01*
X109412018Y-62056708D01*
X109393273Y-62101963D01*
X107243998Y-64251237D01*
X107198743Y-64269982D01*
X107153488Y-64251237D01*
X107135395Y-64215091D01*
X107130972Y-64184327D01*
X107077157Y-64066490D01*
X107041425Y-64025253D01*
X106989327Y-63965127D01*
X106990622Y-63964004D01*
X106971441Y-63925693D01*
X106986906Y-63879216D01*
X107052418Y-63803611D01*
X107106233Y-63685774D01*
X107124669Y-63557548D01*
X107106233Y-63429322D01*
X107106231Y-63429318D01*
X107052419Y-63311487D01*
X107052417Y-63311484D01*
X106977226Y-63224707D01*
X106961757Y-63178230D01*
X106977226Y-63140885D01*
X107052418Y-63054108D01*
X107106233Y-62936271D01*
X107124669Y-62808045D01*
X107106233Y-62679819D01*
X107104490Y-62676003D01*
X107052419Y-62561984D01*
X107052417Y-62561981D01*
X106967586Y-62464079D01*
X106967584Y-62464077D01*
X106910803Y-62427586D01*
X106882867Y-62387350D01*
X106891564Y-62339145D01*
X106897031Y-62331841D01*
X106945796Y-62275563D01*
X106999611Y-62157726D01*
X107018047Y-62029500D01*
X106999611Y-61901274D01*
X106978339Y-61854696D01*
X106945797Y-61783439D01*
X106945795Y-61783436D01*
X106860964Y-61685534D01*
X106860962Y-61685532D01*
X106751983Y-61615496D01*
X106749507Y-61614769D01*
X106627686Y-61579000D01*
X106498142Y-61579000D01*
X106373845Y-61615496D01*
X106373843Y-61615496D01*
X106373843Y-61615497D01*
X106356871Y-61626404D01*
X106308665Y-61635100D01*
X106268430Y-61607163D01*
X106264059Y-61599158D01*
X106234054Y-61533457D01*
X106160298Y-61448337D01*
X106149222Y-61435554D01*
X106149220Y-61435552D01*
X106040241Y-61365516D01*
X105915944Y-61329020D01*
X105786400Y-61329020D01*
X105662103Y-61365516D01*
X105662101Y-61365516D01*
X105553123Y-61435552D01*
X105553121Y-61435554D01*
X105468290Y-61533456D01*
X105468288Y-61533459D01*
X105414475Y-61651291D01*
X105396039Y-61779520D01*
X105414475Y-61907748D01*
X105468288Y-62025580D01*
X105468290Y-62025583D01*
X105534472Y-62101963D01*
X105553123Y-62123487D01*
X105662103Y-62193524D01*
X105766211Y-62224092D01*
X105788782Y-62242281D01*
X105792355Y-62237849D01*
X105823027Y-62230020D01*
X105915943Y-62230020D01*
X105915944Y-62230020D01*
X106040241Y-62193524D01*
X106057213Y-62182616D01*
X106105416Y-62173918D01*
X106145653Y-62201853D01*
X106150030Y-62209869D01*
X106180030Y-62275560D01*
X106180032Y-62275563D01*
X106264863Y-62373465D01*
X106264865Y-62373467D01*
X106321646Y-62409958D01*
X106349582Y-62450194D01*
X106340885Y-62498399D01*
X106335414Y-62505708D01*
X106286654Y-62561981D01*
X106286652Y-62561984D01*
X106254839Y-62631645D01*
X106218988Y-62665023D01*
X106170036Y-62663274D01*
X106138407Y-62631645D01*
X106102919Y-62553939D01*
X106102917Y-62553936D01*
X106018086Y-62456034D01*
X106018084Y-62456032D01*
X105909105Y-62385996D01*
X105804997Y-62355428D01*
X105782425Y-62337238D01*
X105778853Y-62341671D01*
X105748181Y-62349500D01*
X105655264Y-62349500D01*
X105530967Y-62385996D01*
X105530965Y-62385996D01*
X105421987Y-62456032D01*
X105421985Y-62456034D01*
X105337154Y-62553936D01*
X105337152Y-62553939D01*
X105283339Y-62671772D01*
X105282050Y-62676164D01*
X105280808Y-62675799D01*
X105258388Y-62713585D01*
X105210926Y-62725697D01*
X105168800Y-62700701D01*
X105158570Y-62676003D01*
X105158022Y-62676164D01*
X105156732Y-62671772D01*
X105102919Y-62553939D01*
X105102917Y-62553936D01*
X105018086Y-62456034D01*
X105018084Y-62456032D01*
X104909105Y-62385996D01*
X104895049Y-62381869D01*
X104784808Y-62349500D01*
X104655264Y-62349500D01*
X104530967Y-62385996D01*
X104530965Y-62385996D01*
X104421987Y-62456032D01*
X104421985Y-62456034D01*
X104337154Y-62553936D01*
X104337152Y-62553939D01*
X104283339Y-62671771D01*
X104264903Y-62800000D01*
X104283339Y-62928228D01*
X104337152Y-63046060D01*
X104337154Y-63046063D01*
X104405284Y-63124691D01*
X104421987Y-63143967D01*
X104530967Y-63214004D01*
X104614709Y-63238592D01*
X104652849Y-63269326D01*
X104658086Y-63318029D01*
X104627351Y-63356170D01*
X104614709Y-63361406D01*
X104530972Y-63385993D01*
X104530965Y-63385996D01*
X104421987Y-63456032D01*
X104421985Y-63456034D01*
X104337154Y-63553936D01*
X104337152Y-63553939D01*
X104283339Y-63671771D01*
X104264903Y-63800000D01*
X104283339Y-63928228D01*
X104337152Y-64046060D01*
X104337154Y-64046063D01*
X104421985Y-64143965D01*
X104421987Y-64143967D01*
X104484961Y-64184438D01*
X104512897Y-64224674D01*
X104504200Y-64272879D01*
X104463964Y-64300815D01*
X104432331Y-64299686D01*
X104370053Y-64281400D01*
X104240509Y-64281400D01*
X104116212Y-64317896D01*
X104116210Y-64317896D01*
X104007232Y-64387932D01*
X104007230Y-64387934D01*
X103922399Y-64485836D01*
X103922397Y-64485839D01*
X103870794Y-64598831D01*
X103834943Y-64632209D01*
X103785991Y-64630460D01*
X103767323Y-64617499D01*
X103102021Y-63952197D01*
X103100868Y-63950982D01*
X103074558Y-63921762D01*
X103074555Y-63921761D01*
X103074555Y-63921760D01*
X103074556Y-63921760D01*
X103052802Y-63912074D01*
X103043980Y-63907284D01*
X103024012Y-63894318D01*
X103024014Y-63894318D01*
X103015112Y-63892908D01*
X102999099Y-63888165D01*
X102990867Y-63884500D01*
X102990866Y-63884500D01*
X102967055Y-63884500D01*
X102957044Y-63883712D01*
X102951647Y-63882857D01*
X102933531Y-63879988D01*
X102933530Y-63879988D01*
X102924831Y-63882319D01*
X102908267Y-63884500D01*
X99623103Y-63884500D01*
X99577848Y-63865755D01*
X99559103Y-63820500D01*
X99574734Y-63778590D01*
X99599073Y-63750500D01*
X99602918Y-63746063D01*
X99656733Y-63628226D01*
X99675169Y-63500000D01*
X99656733Y-63371774D01*
X99647054Y-63350581D01*
X99602919Y-63253939D01*
X99602917Y-63253936D01*
X99594159Y-63243829D01*
X99518085Y-63156033D01*
X99518084Y-63156032D01*
X99409105Y-63085996D01*
X99390039Y-63080398D01*
X99284808Y-63049500D01*
X99155264Y-63049500D01*
X99030967Y-63085996D01*
X99030965Y-63085996D01*
X98921987Y-63156032D01*
X98921984Y-63156035D01*
X98894649Y-63187581D01*
X98850847Y-63209506D01*
X98804370Y-63194036D01*
X98783070Y-63155679D01*
X98778164Y-63124696D01*
X98720568Y-63011658D01*
X98630860Y-62921950D01*
X98630855Y-62921947D01*
X98626782Y-62918987D01*
X98627531Y-62917955D01*
X98599195Y-62884781D01*
X98603035Y-62835948D01*
X98627281Y-62811701D01*
X98626782Y-62811013D01*
X98630857Y-62808052D01*
X98630857Y-62808051D01*
X98630860Y-62808050D01*
X98720568Y-62718342D01*
X98778164Y-62605304D01*
X98793018Y-62511519D01*
X98793017Y-62037902D01*
X100777001Y-62037902D01*
X100795437Y-62166130D01*
X100849250Y-62283962D01*
X100849252Y-62283965D01*
X100926804Y-62373467D01*
X100934085Y-62381869D01*
X101043065Y-62451906D01*
X101167362Y-62488402D01*
X101167363Y-62488402D01*
X101296905Y-62488402D01*
X101296906Y-62488402D01*
X101421203Y-62451906D01*
X101530183Y-62381869D01*
X101615016Y-62283965D01*
X101630065Y-62251013D01*
X103187756Y-62251013D01*
X103206192Y-62379241D01*
X103260005Y-62497073D01*
X103260007Y-62497076D01*
X103316247Y-62561982D01*
X103344840Y-62594980D01*
X103453820Y-62665017D01*
X103578117Y-62701513D01*
X103578118Y-62701513D01*
X103707660Y-62701513D01*
X103707661Y-62701513D01*
X103831958Y-62665017D01*
X103940938Y-62594980D01*
X104025771Y-62497076D01*
X104079586Y-62379239D01*
X104092100Y-62292195D01*
X104117094Y-62250073D01*
X104162820Y-62238401D01*
X104162820Y-62238367D01*
X104162954Y-62238367D01*
X104164556Y-62237958D01*
X104164557Y-62237959D01*
X104167395Y-62238367D01*
X104167397Y-62238367D01*
X104296940Y-62238367D01*
X104296941Y-62238367D01*
X104421238Y-62201871D01*
X104530218Y-62131834D01*
X104615051Y-62033930D01*
X104668866Y-61916093D01*
X104687302Y-61787867D01*
X104668866Y-61659641D01*
X104668068Y-61657894D01*
X104615052Y-61541806D01*
X104615050Y-61541803D01*
X104614962Y-61541702D01*
X104534067Y-61448342D01*
X104530219Y-61443901D01*
X104530217Y-61443899D01*
X104421238Y-61373863D01*
X104392810Y-61365516D01*
X104296941Y-61337367D01*
X104167397Y-61337367D01*
X104043100Y-61373863D01*
X104043098Y-61373863D01*
X103934120Y-61443899D01*
X103934118Y-61443901D01*
X103849287Y-61541803D01*
X103849285Y-61541806D01*
X103795472Y-61659638D01*
X103788456Y-61708436D01*
X103783680Y-61741661D01*
X103782958Y-61746680D01*
X103757963Y-61788807D01*
X103712238Y-61800480D01*
X103712238Y-61800513D01*
X103712110Y-61800513D01*
X103710508Y-61800922D01*
X103707661Y-61800513D01*
X103578117Y-61800513D01*
X103453820Y-61837009D01*
X103453818Y-61837009D01*
X103344840Y-61907045D01*
X103344838Y-61907047D01*
X103260007Y-62004949D01*
X103260005Y-62004952D01*
X103206192Y-62122784D01*
X103187756Y-62251013D01*
X101630065Y-62251013D01*
X101668831Y-62166128D01*
X101687267Y-62037902D01*
X101668831Y-61909676D01*
X101667630Y-61907047D01*
X101615017Y-61791841D01*
X101615015Y-61791838D01*
X101530184Y-61693936D01*
X101530182Y-61693934D01*
X101421203Y-61623898D01*
X101392591Y-61615497D01*
X101296906Y-61587402D01*
X101167362Y-61587402D01*
X101043065Y-61623898D01*
X101043063Y-61623898D01*
X100934085Y-61693934D01*
X100934083Y-61693936D01*
X100849252Y-61791838D01*
X100849250Y-61791841D01*
X100795437Y-61909673D01*
X100777001Y-62037902D01*
X98793017Y-62037902D01*
X98793017Y-61948482D01*
X98778164Y-61854696D01*
X98720568Y-61741658D01*
X98630860Y-61651950D01*
X98630855Y-61651947D01*
X98626782Y-61648987D01*
X98627530Y-61647957D01*
X98599191Y-61614769D01*
X98603040Y-61565937D01*
X98627283Y-61541702D01*
X98626782Y-61541013D01*
X98630857Y-61538052D01*
X98630857Y-61538051D01*
X98630860Y-61538050D01*
X98720568Y-61448342D01*
X98778164Y-61335304D01*
X98793018Y-61241519D01*
X98793017Y-60724999D01*
X101914903Y-60724999D01*
X101933339Y-60853228D01*
X101987152Y-60971060D01*
X101987154Y-60971063D01*
X102071987Y-61068967D01*
X102180967Y-61139004D01*
X102305264Y-61175500D01*
X102305265Y-61175500D01*
X102434807Y-61175500D01*
X102434808Y-61175500D01*
X102559105Y-61139004D01*
X102668085Y-61068967D01*
X102752918Y-60971063D01*
X102806733Y-60853226D01*
X102825169Y-60725000D01*
X102806733Y-60596774D01*
X102801218Y-60584699D01*
X102752919Y-60478939D01*
X102752917Y-60478936D01*
X102746612Y-60471660D01*
X102668085Y-60381033D01*
X102668084Y-60381032D01*
X102559105Y-60310996D01*
X102507855Y-60295948D01*
X102434808Y-60274500D01*
X102305264Y-60274500D01*
X102180967Y-60310996D01*
X102180965Y-60310996D01*
X102071987Y-60381032D01*
X102071985Y-60381034D01*
X101987154Y-60478936D01*
X101987152Y-60478939D01*
X101933339Y-60596771D01*
X101914903Y-60724999D01*
X98793017Y-60724999D01*
X98793017Y-60678482D01*
X98778164Y-60584696D01*
X98720568Y-60471658D01*
X98630860Y-60381950D01*
X98630855Y-60381947D01*
X98626782Y-60378987D01*
X98627531Y-60377955D01*
X98599195Y-60344781D01*
X98603035Y-60295948D01*
X98627281Y-60271701D01*
X98626782Y-60271013D01*
X98630857Y-60268052D01*
X98630857Y-60268051D01*
X98630860Y-60268050D01*
X98720568Y-60178342D01*
X98778164Y-60065304D01*
X98793018Y-59971519D01*
X98793017Y-59408482D01*
X98791674Y-59400000D01*
X103739903Y-59400000D01*
X103758339Y-59528228D01*
X103812152Y-59646060D01*
X103812154Y-59646063D01*
X103896987Y-59743967D01*
X104005967Y-59814004D01*
X104130264Y-59850500D01*
X104130265Y-59850500D01*
X104259807Y-59850500D01*
X104259808Y-59850500D01*
X104384105Y-59814004D01*
X104493085Y-59743967D01*
X104577918Y-59646063D01*
X104631733Y-59528226D01*
X104650169Y-59400000D01*
X104631733Y-59271774D01*
X104613609Y-59232089D01*
X104577919Y-59153939D01*
X104577917Y-59153936D01*
X104493086Y-59056034D01*
X104493084Y-59056032D01*
X104384105Y-58985996D01*
X104259808Y-58949500D01*
X104130264Y-58949500D01*
X104005967Y-58985996D01*
X104005965Y-58985996D01*
X103896987Y-59056032D01*
X103896985Y-59056034D01*
X103812154Y-59153936D01*
X103812152Y-59153939D01*
X103758339Y-59271771D01*
X103739903Y-59400000D01*
X98791674Y-59400000D01*
X98778164Y-59314696D01*
X98720568Y-59201658D01*
X98630860Y-59111950D01*
X98630855Y-59111947D01*
X98626782Y-59108987D01*
X98627530Y-59107957D01*
X98599191Y-59074769D01*
X98603040Y-59025937D01*
X98627283Y-59001702D01*
X98626782Y-59001013D01*
X98630857Y-58998052D01*
X98630857Y-58998051D01*
X98630860Y-58998050D01*
X98694410Y-58934500D01*
X99264903Y-58934500D01*
X99283339Y-59062728D01*
X99337152Y-59180560D01*
X99337154Y-59180563D01*
X99416187Y-59271774D01*
X99421987Y-59278467D01*
X99530967Y-59348504D01*
X99655264Y-59385000D01*
X99655265Y-59385000D01*
X99784807Y-59385000D01*
X99784808Y-59385000D01*
X99909105Y-59348504D01*
X100018085Y-59278467D01*
X100058271Y-59232088D01*
X100102073Y-59210163D01*
X100106639Y-59210000D01*
X101052101Y-59210000D01*
X101064587Y-59211230D01*
X101067566Y-59211822D01*
X101085536Y-59215397D01*
X101109588Y-59210612D01*
X101109594Y-59210612D01*
X101128209Y-59206908D01*
X101193031Y-59194015D01*
X101237900Y-59164034D01*
X101261158Y-59148494D01*
X101261158Y-59148492D01*
X101268089Y-59143862D01*
X101268089Y-59143861D01*
X101284160Y-59133124D01*
X101296026Y-59115364D01*
X101303979Y-59105671D01*
X101815406Y-58594245D01*
X101860662Y-58575500D01*
X106013397Y-58575500D01*
X106058652Y-58594245D01*
X106061765Y-58597589D01*
X106098734Y-58640255D01*
X106101951Y-58643967D01*
X106210931Y-58714004D01*
X106335228Y-58750500D01*
X106335229Y-58750500D01*
X106464771Y-58750500D01*
X106464772Y-58750500D01*
X106589069Y-58714004D01*
X106698049Y-58643967D01*
X106782882Y-58546063D01*
X106836697Y-58428226D01*
X106855133Y-58300000D01*
X106836697Y-58171774D01*
X106821493Y-58138483D01*
X106782883Y-58053939D01*
X106782881Y-58053936D01*
X106774869Y-58044690D01*
X106698049Y-57956033D01*
X106698048Y-57956032D01*
X106589069Y-57885996D01*
X106464772Y-57849500D01*
X106335228Y-57849500D01*
X106210931Y-57885996D01*
X106210929Y-57885996D01*
X106101951Y-57956032D01*
X106101949Y-57956034D01*
X106061765Y-58002411D01*
X106017963Y-58024337D01*
X106013397Y-58024500D01*
X101753471Y-58024500D01*
X101740987Y-58023270D01*
X101730294Y-58021143D01*
X101720037Y-58019103D01*
X101720034Y-58019103D01*
X101612545Y-58040482D01*
X101612541Y-58040484D01*
X101546080Y-58084892D01*
X101521413Y-58101375D01*
X101521411Y-58101377D01*
X101509544Y-58119136D01*
X101501587Y-58128831D01*
X100990165Y-58640255D01*
X100944910Y-58659000D01*
X100106639Y-58659000D01*
X100061384Y-58640255D01*
X100058271Y-58636911D01*
X100018086Y-58590534D01*
X100018084Y-58590532D01*
X99909105Y-58520496D01*
X99909104Y-58520496D01*
X99784808Y-58484000D01*
X99655264Y-58484000D01*
X99530967Y-58520496D01*
X99530965Y-58520496D01*
X99421987Y-58590532D01*
X99421985Y-58590534D01*
X99337154Y-58688436D01*
X99337152Y-58688439D01*
X99283339Y-58806271D01*
X99264903Y-58934500D01*
X98694410Y-58934500D01*
X98720568Y-58908342D01*
X98778164Y-58795304D01*
X98793018Y-58701519D01*
X98793017Y-58138482D01*
X98778164Y-58044696D01*
X98720568Y-57931658D01*
X98630860Y-57841950D01*
X98630855Y-57841947D01*
X98626782Y-57838987D01*
X98627531Y-57837955D01*
X98599195Y-57804781D01*
X98603035Y-57755948D01*
X98627281Y-57731701D01*
X98626782Y-57731013D01*
X98630857Y-57728052D01*
X98630857Y-57728051D01*
X98630860Y-57728050D01*
X98720568Y-57638342D01*
X98778164Y-57525304D01*
X98793018Y-57431519D01*
X98793017Y-57000000D01*
X102264903Y-57000000D01*
X102283339Y-57128228D01*
X102337152Y-57246060D01*
X102337154Y-57246063D01*
X102421987Y-57343967D01*
X102530967Y-57414004D01*
X102655264Y-57450500D01*
X102655265Y-57450500D01*
X102784807Y-57450500D01*
X102784808Y-57450500D01*
X102909105Y-57414004D01*
X103018085Y-57343967D01*
X103102918Y-57246063D01*
X103111819Y-57226571D01*
X103147671Y-57193193D01*
X103196623Y-57194942D01*
X103228252Y-57226571D01*
X103237152Y-57246060D01*
X103237154Y-57246063D01*
X103321987Y-57343967D01*
X103430967Y-57414004D01*
X103555264Y-57450500D01*
X103555265Y-57450500D01*
X103684807Y-57450500D01*
X103684808Y-57450500D01*
X103809105Y-57414004D01*
X103918085Y-57343967D01*
X104002918Y-57246063D01*
X104056733Y-57128226D01*
X104075169Y-57000000D01*
X104056733Y-56871774D01*
X104012398Y-56774696D01*
X104002919Y-56753939D01*
X104002917Y-56753936D01*
X103918086Y-56656034D01*
X103918084Y-56656032D01*
X103809105Y-56585996D01*
X103684808Y-56549500D01*
X103555264Y-56549500D01*
X103430967Y-56585996D01*
X103430965Y-56585996D01*
X103321987Y-56656032D01*
X103321985Y-56656034D01*
X103237154Y-56753936D01*
X103237154Y-56753937D01*
X103228252Y-56773429D01*
X103192400Y-56806806D01*
X103143448Y-56805057D01*
X103111820Y-56773429D01*
X103110366Y-56770246D01*
X103102918Y-56753937D01*
X103060501Y-56704984D01*
X103018086Y-56656034D01*
X103018084Y-56656032D01*
X102909105Y-56585996D01*
X102784808Y-56549500D01*
X102655264Y-56549500D01*
X102530967Y-56585996D01*
X102530965Y-56585996D01*
X102421987Y-56656032D01*
X102421985Y-56656034D01*
X102337154Y-56753936D01*
X102337152Y-56753939D01*
X102283339Y-56871771D01*
X102264903Y-57000000D01*
X98793017Y-57000000D01*
X98793017Y-56868482D01*
X98778164Y-56774696D01*
X98720568Y-56661658D01*
X98630860Y-56571950D01*
X98630855Y-56571947D01*
X98517827Y-56514356D01*
X98517820Y-56514353D01*
X98462503Y-56505592D01*
X98424037Y-56499500D01*
X98424034Y-56499500D01*
X98155137Y-56499500D01*
X98109882Y-56480755D01*
X98091137Y-56435518D01*
X98091103Y-56314003D01*
X98091061Y-56165539D01*
X98109793Y-56120282D01*
X98155043Y-56101524D01*
X98187061Y-56110098D01*
X98188780Y-56111090D01*
X98188782Y-56111092D01*
X98340719Y-56198812D01*
X98508790Y-56249130D01*
X98683935Y-56259331D01*
X98856711Y-56228865D01*
X99017804Y-56159377D01*
X99158530Y-56054610D01*
X99271302Y-55920214D01*
X99350040Y-55763433D01*
X99390500Y-55592721D01*
X99390500Y-55267339D01*
X99409245Y-55222084D01*
X99454500Y-55203339D01*
X99499755Y-55222084D01*
X99508514Y-55233011D01*
X99525335Y-55259483D01*
X99541315Y-55284632D01*
X99665388Y-55415587D01*
X99673954Y-55424628D01*
X99830912Y-55536688D01*
X99873852Y-55556260D01*
X99907257Y-55592087D01*
X99905544Y-55641040D01*
X99869717Y-55674445D01*
X99865346Y-55675901D01*
X99854158Y-55679186D01*
X99830965Y-55685996D01*
X99721987Y-55756032D01*
X99721985Y-55756034D01*
X99637154Y-55853936D01*
X99637152Y-55853939D01*
X99583339Y-55971771D01*
X99564903Y-56100000D01*
X99583339Y-56228228D01*
X99637152Y-56346060D01*
X99637154Y-56346063D01*
X99721987Y-56443967D01*
X99830967Y-56514004D01*
X99955264Y-56550500D01*
X99955265Y-56550500D01*
X100084807Y-56550500D01*
X100084808Y-56550500D01*
X100209105Y-56514004D01*
X100318085Y-56443967D01*
X100402918Y-56346063D01*
X100456733Y-56228226D01*
X100475169Y-56100000D01*
X100456733Y-55971774D01*
X100403403Y-55855000D01*
X100402919Y-55853939D01*
X100402917Y-55853936D01*
X100335177Y-55775758D01*
X100319708Y-55729281D01*
X100341634Y-55685479D01*
X100383587Y-55670856D01*
X100383546Y-55670084D01*
X100386208Y-55669942D01*
X100386307Y-55669907D01*
X100386615Y-55669921D01*
X100577322Y-55641216D01*
X100759024Y-55576583D01*
X100765602Y-55572700D01*
X100779700Y-55564382D01*
X100812226Y-55555500D01*
X101383208Y-55555500D01*
X101428463Y-55574245D01*
X101447208Y-55619500D01*
X101438406Y-55649477D01*
X101439055Y-55649774D01*
X101383339Y-55771771D01*
X101364903Y-55900000D01*
X101383339Y-56028228D01*
X101437152Y-56146060D01*
X101437154Y-56146063D01*
X101508347Y-56228226D01*
X101521987Y-56243967D01*
X101630967Y-56314004D01*
X101755264Y-56350500D01*
X101755265Y-56350500D01*
X101884807Y-56350500D01*
X101884808Y-56350500D01*
X102009105Y-56314004D01*
X102118085Y-56243967D01*
X102202918Y-56146063D01*
X102256733Y-56028226D01*
X102275169Y-55900000D01*
X102256733Y-55771774D01*
X102252922Y-55763430D01*
X102201017Y-55649774D01*
X102202148Y-55649257D01*
X102194328Y-55605890D01*
X102222268Y-55565657D01*
X102256864Y-55555500D01*
X106181936Y-55555500D01*
X106227191Y-55574245D01*
X106245936Y-55619500D01*
X106240152Y-55646087D01*
X106203303Y-55726771D01*
X106184867Y-55855000D01*
X106203303Y-55983228D01*
X106257116Y-56101060D01*
X106257118Y-56101063D01*
X106341817Y-56198813D01*
X106341951Y-56198967D01*
X106450931Y-56269004D01*
X106575228Y-56305500D01*
X106575229Y-56305500D01*
X106704771Y-56305500D01*
X106704772Y-56305500D01*
X106829069Y-56269004D01*
X106930495Y-56203821D01*
X106978698Y-56195125D01*
X107018934Y-56223061D01*
X107027631Y-56271266D01*
X107023310Y-56284249D01*
X106983339Y-56371771D01*
X106964903Y-56500000D01*
X106983339Y-56628228D01*
X107037152Y-56746060D01*
X107037154Y-56746063D01*
X107118452Y-56839888D01*
X107121987Y-56843967D01*
X107230967Y-56914004D01*
X107355264Y-56950500D01*
X107355265Y-56950500D01*
X107484807Y-56950500D01*
X107484808Y-56950500D01*
X107609105Y-56914004D01*
X107718085Y-56843967D01*
X107802918Y-56746063D01*
X107856733Y-56628226D01*
X107875169Y-56500000D01*
X107856733Y-56371774D01*
X107847017Y-56350500D01*
X107802919Y-56253939D01*
X107802917Y-56253936D01*
X107718086Y-56156034D01*
X107718084Y-56156032D01*
X107609105Y-56085996D01*
X107601394Y-56083732D01*
X107484808Y-56049500D01*
X107355264Y-56049500D01*
X107230967Y-56085996D01*
X107230965Y-56085996D01*
X107129542Y-56151177D01*
X107081336Y-56159874D01*
X107041101Y-56131938D01*
X107032404Y-56083732D01*
X107036723Y-56070755D01*
X107076697Y-55983226D01*
X107095133Y-55855000D01*
X107076697Y-55726774D01*
X107046950Y-55661639D01*
X107039848Y-55646087D01*
X107038099Y-55597135D01*
X107071477Y-55561284D01*
X107098064Y-55555500D01*
X107669568Y-55555500D01*
X107701408Y-55563982D01*
X107722923Y-55576322D01*
X107903438Y-55638116D01*
X108092412Y-55664436D01*
X108282943Y-55654321D01*
X108468069Y-55608141D01*
X108641027Y-55527582D01*
X108795499Y-55415588D01*
X108925841Y-55276250D01*
X108971297Y-55203846D01*
X109011235Y-55175487D01*
X109059530Y-55183674D01*
G37*
%TD.AperFunction*%
%TA.AperFunction,Conductor*%
G36*
X110380172Y-56118284D02*
G01*
X110392837Y-56156396D01*
X110393336Y-56455893D01*
X110374666Y-56501179D01*
X110329443Y-56520000D01*
X110056458Y-56520000D01*
X110054699Y-56520257D01*
X110375306Y-56840864D01*
X110394051Y-56886006D01*
X110394056Y-56888839D01*
X110393804Y-56889449D01*
X110380389Y-56897195D01*
X110335446Y-56950755D01*
X110330169Y-56952952D01*
X110284881Y-56934287D01*
X109914041Y-56563447D01*
X109873498Y-56538138D01*
X109862237Y-56510061D01*
X109856733Y-56471774D01*
X109849480Y-56455893D01*
X109801017Y-56349774D01*
X109803202Y-56348775D01*
X109795898Y-56308371D01*
X109823820Y-56268126D01*
X109862158Y-56258062D01*
X109883935Y-56259331D01*
X110056711Y-56228865D01*
X110217804Y-56159377D01*
X110290619Y-56105167D01*
X110338112Y-56093179D01*
X110380172Y-56118284D01*
G37*
%TD.AperFunction*%
%TD*%
M02*
