M48
; DRILL file {KiCad 7.0.6} date Wed Sep 20 23:26:56 2023
; FORMAT={-:-/ absolute / inch / decimal}
; #@! TF.CreationDate,2023-09-20T23:26:56+02:00
; #@! TF.GenerationSoftware,Kicad,Pcbnew,7.0.6
; #@! TF.FileFunction,Plated,1,4,PTH
FMAT,2
INCH
; #@! TA.AperFunction,Plated,PTH,ViaDrill
T1C0.0079
; #@! TA.AperFunction,Plated,PTH,ComponentDrill
T2C0.0236
; #@! TA.AperFunction,Plated,PTH,ComponentDrill
T3C0.0256
%
G90
G05
T1
X3.8945Y-2.626
X3.9063Y-2.5
X3.926Y-2.3203
X3.926Y-2.626
X3.9378Y-2.2087
X3.9575Y-2.626
X3.962Y-2.5906
X3.9855Y-2.4424
X3.989Y-2.6264
X3.989Y-2.6575
X3.989Y-2.689
X3.989Y-2.7205
X3.989Y-2.8031
X4.0087Y-2.2008
X4.0087Y-2.8228
X4.0276Y-2.7323
X4.0303Y-2.3907
X4.0317Y-2.3386
X4.0402Y-2.8228
X4.0441Y-2.2441
X4.048Y-2.6181
X4.048Y-2.6496
X4.0598Y-2.6772
X4.0717Y-2.8228
X4.0756Y-2.7874
X4.0795Y-2.2441
X4.0804Y-2.4508
X4.0992Y-2.6227
X4.1022Y-2.3386
X4.1032Y-2.7717
X4.1032Y-2.8228
X4.1036Y-2.4326
X4.1065Y-2.5485
X4.1071Y-2.6496
X4.1189Y-2.7402
X4.1228Y-2.4724
X4.1228Y-2.5118
X4.1228Y-2.6772
X4.1268Y-2.7087
X4.1346Y-2.8228
X4.136Y-2.5492
X4.1425Y-2.4921
X4.1551Y-2.6732
X4.1622Y-2.4724
X4.1622Y-2.5118
X4.1655Y-2.549
X4.1661Y-2.8228
X4.1674Y-2.4323
X4.189Y-2.2953
X4.193Y-2.5605
X4.1954Y-2.4421
X4.1969Y-2.8228
X4.1984Y-2.199
X4.1996Y-2.4728
X4.1996Y-2.5023
X4.2006Y-2.532
X4.2095Y-2.6378
X4.2213Y-2.5853
X4.2283Y-2.8228
X4.2291Y-2.2244
X4.2409Y-2.3228
X4.2598Y-2.8228
X4.2608Y-2.6
X4.2756Y-2.7362
X4.2908Y-2.6339
X4.2913Y-2.8228
X4.3079Y-2.2283
X4.3157Y-2.6732
X4.3228Y-2.8228
T3
X3.854Y-2.25
X3.854Y-2.3
X3.854Y-2.35
X3.854Y-2.4
X3.854Y-2.45
X3.854Y-2.5
X3.854Y-2.55
X3.854Y-2.6
X4.354Y-2.25
X4.354Y-2.3
X4.354Y-2.35
X4.354Y-2.4
X4.354Y-2.45
X4.354Y-2.5
X4.354Y-2.55
X4.354Y-2.6
T2
G00X3.8835Y-1.9904
M15
G01X3.8835Y-2.0337
M16
G05
G00X3.8835Y-2.1537
M15
G01X3.8835Y-2.1852
M16
G05
G00X4.3244Y-1.9904
M15
G01X4.3244Y-2.0337
M16
G05
G00X4.3244Y-2.1537
M15
G01X4.3244Y-2.1852
M16
G05
T0
M30
