%TF.GenerationSoftware,KiCad,Pcbnew,8.0.4-8.0.4-0~ubuntu24.04.1*%
%TF.CreationDate,2024-08-16T16:11:13+02:00*%
%TF.ProjectId,epi_ESP32 (2023_01_16 13_30_41 UTC),6570695f-4553-4503-9332-202832303233,1_1*%
%TF.SameCoordinates,Original*%
%TF.FileFunction,Drillmap*%
%TF.FilePolarity,Positive*%
%FSLAX45Y45*%
G04 Gerber Fmt 4.5, Leading zero omitted, Abs format (unit mm)*
G04 Created by KiCad (PCBNEW 8.0.4-8.0.4-0~ubuntu24.04.1) date 2024-08-16 16:11:13*
%MOMM*%
%LPD*%
G01*
G04 APERTURE LIST*
%ADD10C,0.010000*%
%ADD11C,0.200000*%
%ADD12C,0.100000*%
G04 APERTURE END LIST*
D10*
X9789000Y-4991850D02*
X9789000Y-5215000D01*
X9789504Y-7220000D02*
X11060000Y-7220000D01*
X9967277Y-5531525D02*
X9966835Y-4991525D01*
X10879946Y-5531850D02*
X9967277Y-5531525D01*
X11059000Y-5415000D02*
G75*
G02*
X11059000Y-5215000I0J100000D01*
G01*
X9789000Y-5215000D02*
G75*
G02*
X9789000Y-5415000I0J-100000D01*
G01*
X10879504Y-4991850D02*
X11059000Y-4991850D01*
X11059000Y-5215000D02*
X11059000Y-4991850D01*
X9789000Y-4991850D02*
X9966835Y-4991525D01*
X10879946Y-5531850D02*
X10879504Y-4991850D01*
X11060000Y-7220000D02*
X11059000Y-5415000D01*
X9789000Y-5415000D02*
X9789504Y-7220000D01*
D11*
D12*
X9887500Y-6660000D02*
X9907500Y-6680000D01*
X9907500Y-6660000D02*
X9887500Y-6680000D01*
X9900000Y-5640000D02*
X9920000Y-5660000D01*
X9920000Y-5640000D02*
X9900000Y-5660000D01*
X9941450Y-6348550D02*
X9961450Y-6368550D01*
X9961450Y-6348550D02*
X9941450Y-6368550D01*
X9965668Y-6660000D02*
X9985668Y-6680000D01*
X9985668Y-6660000D02*
X9965668Y-6680000D01*
X10043836Y-6660000D02*
X10063836Y-6680000D01*
X10063836Y-6660000D02*
X10043836Y-6680000D01*
X10060000Y-6130050D02*
X10080000Y-6150050D01*
X10080000Y-6130050D02*
X10060000Y-6150050D01*
X10098306Y-5927347D02*
X10118306Y-5947347D01*
X10118306Y-5927347D02*
X10098306Y-5947347D01*
X10122000Y-7160000D02*
X10142000Y-7180000D01*
X10142000Y-7160000D02*
X10122000Y-7180000D01*
X10122004Y-6661000D02*
X10142004Y-6681000D01*
X10142004Y-6661000D02*
X10122004Y-6681000D01*
X10122004Y-6740000D02*
X10142004Y-6760000D01*
X10142004Y-6740000D02*
X10122004Y-6760000D01*
X10122004Y-6820000D02*
X10142004Y-6840000D01*
X10142004Y-6820000D02*
X10122004Y-6840000D01*
X10122004Y-6900000D02*
X10142004Y-6920000D01*
X10142004Y-6900000D02*
X10122004Y-6920000D01*
X10160000Y-7064100D02*
X10180000Y-7084100D01*
X10180000Y-7064100D02*
X10160000Y-7084100D01*
X10172004Y-5580000D02*
X10192004Y-5600000D01*
X10192004Y-5580000D02*
X10172004Y-5600000D01*
X10190000Y-6949900D02*
X10210000Y-6969900D01*
X10210000Y-6949900D02*
X10190000Y-6969900D01*
X10200000Y-6677000D02*
X10220000Y-6697000D01*
X10220000Y-6677000D02*
X10200000Y-6697000D01*
X10202000Y-7160000D02*
X10222000Y-7180000D01*
X10222000Y-7160000D02*
X10202000Y-7180000D01*
X10210940Y-5929060D02*
X10230940Y-5949060D01*
X10230940Y-5929060D02*
X10210940Y-5949060D01*
X10219950Y-6080000D02*
X10239950Y-6100000D01*
X10239950Y-6080000D02*
X10219950Y-6100000D01*
X10250689Y-7063147D02*
X10270689Y-7083147D01*
X10270689Y-7063147D02*
X10250689Y-7083147D01*
X10260000Y-6900000D02*
X10280000Y-6920000D01*
X10280000Y-6900000D02*
X10260000Y-6920000D01*
X10262004Y-5690000D02*
X10282004Y-5710000D01*
X10282004Y-5690000D02*
X10262004Y-5710000D01*
X10265854Y-6723991D02*
X10285854Y-6743991D01*
X10285854Y-6723991D02*
X10265854Y-6743991D01*
X10267657Y-6821328D02*
X10287657Y-6841328D01*
X10287657Y-6821328D02*
X10267657Y-6841328D01*
X10272004Y-6640000D02*
X10292004Y-6660000D01*
X10292004Y-6640000D02*
X10272004Y-6660000D01*
X10282000Y-7160000D02*
X10302000Y-7180000D01*
X10302000Y-7160000D02*
X10282000Y-7180000D01*
X10334038Y-7026384D02*
X10354038Y-7046384D01*
X10354038Y-7026384D02*
X10334038Y-7046384D01*
X10346984Y-6203869D02*
X10366984Y-6223869D01*
X10366984Y-6203869D02*
X10346984Y-6223869D01*
X10352004Y-5690000D02*
X10372004Y-5710000D01*
X10372004Y-5690000D02*
X10352004Y-5710000D01*
X10360000Y-6330000D02*
X10380000Y-6350000D01*
X10380000Y-6330000D02*
X10360000Y-6350000D01*
X10362000Y-7160000D02*
X10382000Y-7180000D01*
X10382000Y-7160000D02*
X10362000Y-7180000D01*
X10385779Y-6952373D02*
X10405779Y-6972373D01*
X10405779Y-6952373D02*
X10385779Y-6972373D01*
X10390000Y-6463190D02*
X10410000Y-6483190D01*
X10410000Y-6463190D02*
X10390000Y-6483190D01*
X10413217Y-6168787D02*
X10433217Y-6188787D01*
X10433217Y-6168787D02*
X10413217Y-6188787D01*
X10413408Y-6720000D02*
X10433408Y-6740000D01*
X10433408Y-6720000D02*
X10413408Y-6740000D01*
X10413408Y-6800469D02*
X10433408Y-6820469D01*
X10433408Y-6800469D02*
X10413408Y-6820469D01*
X10413954Y-6880000D02*
X10433954Y-6900000D01*
X10433954Y-6880000D02*
X10413954Y-6900000D01*
X10442000Y-7050000D02*
X10462000Y-7070000D01*
X10462000Y-7050000D02*
X10442000Y-7070000D01*
X10442000Y-7160000D02*
X10462000Y-7180000D01*
X10462000Y-7160000D02*
X10442000Y-7180000D01*
X10442004Y-6250000D02*
X10462004Y-6270000D01*
X10462004Y-6250000D02*
X10442004Y-6270000D01*
X10442004Y-6320000D02*
X10462004Y-6340000D01*
X10462004Y-6320000D02*
X10442004Y-6340000D01*
X10442004Y-6390000D02*
X10462004Y-6410000D01*
X10462004Y-6390000D02*
X10442004Y-6410000D01*
X10495193Y-6464932D02*
X10515193Y-6484932D01*
X10515193Y-6464932D02*
X10495193Y-6484932D01*
X10512004Y-6250000D02*
X10532004Y-6270000D01*
X10532004Y-6250000D02*
X10512004Y-6270000D01*
X10512004Y-6320000D02*
X10532004Y-6340000D01*
X10532004Y-6320000D02*
X10512004Y-6340000D01*
X10512004Y-6390000D02*
X10532004Y-6410000D01*
X10532004Y-6390000D02*
X10512004Y-6410000D01*
X10522000Y-7160000D02*
X10542000Y-7180000D01*
X10542000Y-7160000D02*
X10522000Y-7180000D01*
X10540000Y-5889950D02*
X10560000Y-5909950D01*
X10560000Y-5889950D02*
X10540000Y-5909950D01*
X10550000Y-6862000D02*
X10570000Y-6882000D01*
X10570000Y-6862000D02*
X10550000Y-6882000D01*
X10570102Y-6465010D02*
X10590102Y-6485010D01*
X10590102Y-6465010D02*
X10570102Y-6485010D01*
X10575117Y-6167952D02*
X10595117Y-6187952D01*
X10595117Y-6167952D02*
X10575117Y-6187952D01*
X10582004Y-6250000D02*
X10602004Y-6270000D01*
X10602004Y-6250000D02*
X10582004Y-6270000D01*
X10582004Y-6320000D02*
X10602004Y-6340000D01*
X10602004Y-6320000D02*
X10582004Y-6340000D01*
X10582004Y-6390000D02*
X10602004Y-6410000D01*
X10602004Y-6390000D02*
X10582004Y-6410000D01*
X10599996Y-7160000D02*
X10619996Y-7180000D01*
X10619996Y-7160000D02*
X10599996Y-7180000D01*
X10630000Y-5820000D02*
X10650000Y-5840000D01*
X10650000Y-5820000D02*
X10630000Y-5840000D01*
X10640182Y-6493692D02*
X10660182Y-6513692D01*
X10660182Y-6493692D02*
X10640182Y-6513692D01*
X10650728Y-6196113D02*
X10670728Y-6216113D01*
X10670728Y-6196113D02*
X10650728Y-6216113D01*
X10654000Y-5575500D02*
X10674000Y-5595500D01*
X10674000Y-5575500D02*
X10654000Y-5595500D01*
X10656954Y-6270804D02*
X10676954Y-6290804D01*
X10676954Y-6270804D02*
X10656954Y-6290804D01*
X10656954Y-6345755D02*
X10676954Y-6365755D01*
X10676954Y-6345755D02*
X10656954Y-6365755D01*
X10659428Y-6421255D02*
X10679428Y-6441255D01*
X10679428Y-6421255D02*
X10659428Y-6441255D01*
X10679996Y-7160000D02*
X10699996Y-7180000D01*
X10699996Y-7160000D02*
X10679996Y-7180000D01*
X10682004Y-6690000D02*
X10702004Y-6710000D01*
X10702004Y-6690000D02*
X10682004Y-6710000D01*
X10712004Y-6556677D02*
X10732004Y-6576677D01*
X10732004Y-6556677D02*
X10712004Y-6576677D01*
X10732004Y-5640000D02*
X10752004Y-5660000D01*
X10752004Y-5640000D02*
X10732004Y-5660000D01*
X10759996Y-7160000D02*
X10779996Y-7180000D01*
X10779996Y-7160000D02*
X10759996Y-7180000D01*
X10797060Y-6076848D02*
X10817060Y-6096848D01*
X10817060Y-6076848D02*
X10797060Y-6096848D01*
X10812383Y-6594068D02*
X10832383Y-6614068D01*
X10832383Y-6594068D02*
X10812383Y-6614068D01*
X10839996Y-7160000D02*
X10859996Y-7180000D01*
X10859996Y-7160000D02*
X10839996Y-7180000D01*
X10850000Y-6930000D02*
X10870000Y-6950000D01*
X10870000Y-6930000D02*
X10850000Y-6950000D01*
X10861392Y-6225776D02*
X10881392Y-6245776D01*
X10881392Y-6225776D02*
X10861392Y-6245776D01*
X10864871Y-6672367D02*
X10884871Y-6692367D01*
X10884871Y-6672367D02*
X10864871Y-6692367D01*
X10919996Y-7160000D02*
X10939996Y-7180000D01*
X10939996Y-7160000D02*
X10919996Y-7180000D01*
X10932004Y-5650000D02*
X10952004Y-5670000D01*
X10952004Y-5650000D02*
X10932004Y-5670000D01*
X10937363Y-6786731D02*
X10957363Y-6806731D01*
X10957363Y-6786731D02*
X10937363Y-6806731D01*
X11000000Y-7160000D02*
X11020000Y-7180000D01*
X11020000Y-7160000D02*
X11000000Y-7180000D01*
X9894000Y-5110500D02*
G75*
G02*
X9834000Y-5110500I-30000J0D01*
G01*
X9834000Y-5110500D02*
G75*
G02*
X9894000Y-5110500I30000J0D01*
G01*
X9834000Y-5055500D02*
X9834000Y-5165500D01*
X9894000Y-5165500D02*
G75*
G02*
X9834000Y-5165500I-30000J0D01*
G01*
X9894000Y-5165500D02*
X9894000Y-5055500D01*
X9894000Y-5055500D02*
G75*
G03*
X9834000Y-5055500I-30000J0D01*
G01*
X9894000Y-5510500D02*
G75*
G02*
X9834000Y-5510500I-30000J0D01*
G01*
X9834000Y-5510500D02*
G75*
G02*
X9894000Y-5510500I30000J0D01*
G01*
X9834000Y-5470500D02*
X9834000Y-5550500D01*
X9894000Y-5550500D02*
G75*
G02*
X9834000Y-5550500I-30000J0D01*
G01*
X9894000Y-5550500D02*
X9894000Y-5470500D01*
X9894000Y-5470500D02*
G75*
G03*
X9834000Y-5470500I-30000J0D01*
G01*
X11014000Y-5110500D02*
G75*
G02*
X10954000Y-5110500I-30000J0D01*
G01*
X10954000Y-5110500D02*
G75*
G02*
X11014000Y-5110500I30000J0D01*
G01*
X10954000Y-5055500D02*
X10954000Y-5165500D01*
X11014000Y-5165500D02*
G75*
G02*
X10954000Y-5165500I-30000J0D01*
G01*
X11014000Y-5165500D02*
X11014000Y-5055500D01*
X11014000Y-5055500D02*
G75*
G03*
X10954000Y-5055500I-30000J0D01*
G01*
X11014000Y-5510500D02*
G75*
G02*
X10954000Y-5510500I-30000J0D01*
G01*
X10954000Y-5510500D02*
G75*
G02*
X11014000Y-5510500I30000J0D01*
G01*
X10954000Y-5470500D02*
X10954000Y-5550500D01*
X11014000Y-5550500D02*
G75*
G02*
X10954000Y-5550500I-30000J0D01*
G01*
X11014000Y-5550500D02*
X11014000Y-5470500D01*
X11014000Y-5470500D02*
G75*
G03*
X10954000Y-5470500I-30000J0D01*
G01*
X9789252Y-5682500D02*
X9789252Y-5747500D01*
X9756752Y-5715000D02*
X9821752Y-5715000D01*
X9789252Y-5809500D02*
X9789252Y-5874500D01*
X9756752Y-5842000D02*
X9821752Y-5842000D01*
X9789252Y-5936500D02*
X9789252Y-6001500D01*
X9756752Y-5969000D02*
X9821752Y-5969000D01*
X9789252Y-6063500D02*
X9789252Y-6128500D01*
X9756752Y-6096000D02*
X9821752Y-6096000D01*
X9789252Y-6190500D02*
X9789252Y-6255500D01*
X9756752Y-6223000D02*
X9821752Y-6223000D01*
X9789252Y-6317500D02*
X9789252Y-6382500D01*
X9756752Y-6350000D02*
X9821752Y-6350000D01*
X9789252Y-6444500D02*
X9789252Y-6509500D01*
X9756752Y-6477000D02*
X9821752Y-6477000D01*
X9789252Y-6571500D02*
X9789252Y-6636500D01*
X9756752Y-6604000D02*
X9821752Y-6604000D01*
X11060000Y-5682500D02*
X11060000Y-5747500D01*
X11027500Y-5715000D02*
X11092500Y-5715000D01*
X11060000Y-5809500D02*
X11060000Y-5874500D01*
X11027500Y-5842000D02*
X11092500Y-5842000D01*
X11060000Y-5936500D02*
X11060000Y-6001500D01*
X11027500Y-5969000D02*
X11092500Y-5969000D01*
X11060000Y-6063500D02*
X11060000Y-6128500D01*
X11027500Y-6096000D02*
X11092500Y-6096000D01*
X11060000Y-6190500D02*
X11060000Y-6255500D01*
X11027500Y-6223000D02*
X11092500Y-6223000D01*
X11060000Y-6317500D02*
X11060000Y-6382500D01*
X11027500Y-6350000D02*
X11092500Y-6350000D01*
X11060000Y-6444500D02*
X11060000Y-6509500D01*
X11027500Y-6477000D02*
X11092500Y-6477000D01*
X11060000Y-6571500D02*
X11060000Y-6636500D01*
X11027500Y-6604000D02*
X11092500Y-6604000D01*
X11060000Y-6698500D02*
X11060000Y-6763500D01*
X11027500Y-6731000D02*
X11092500Y-6731000D01*
D11*
X10049277Y-7531984D02*
X10049277Y-7331984D01*
X10049277Y-7331984D02*
X10096896Y-7331984D01*
X10096896Y-7331984D02*
X10125467Y-7341508D01*
X10125467Y-7341508D02*
X10144515Y-7360555D01*
X10144515Y-7360555D02*
X10154039Y-7379603D01*
X10154039Y-7379603D02*
X10163563Y-7417698D01*
X10163563Y-7417698D02*
X10163563Y-7446269D01*
X10163563Y-7446269D02*
X10154039Y-7484365D01*
X10154039Y-7484365D02*
X10144515Y-7503412D01*
X10144515Y-7503412D02*
X10125467Y-7522460D01*
X10125467Y-7522460D02*
X10096896Y-7531984D01*
X10096896Y-7531984D02*
X10049277Y-7531984D01*
X10249277Y-7531984D02*
X10249277Y-7398650D01*
X10249277Y-7436746D02*
X10258801Y-7417698D01*
X10258801Y-7417698D02*
X10268324Y-7408174D01*
X10268324Y-7408174D02*
X10287372Y-7398650D01*
X10287372Y-7398650D02*
X10306420Y-7398650D01*
X10373086Y-7531984D02*
X10373086Y-7398650D01*
X10373086Y-7331984D02*
X10363563Y-7341508D01*
X10363563Y-7341508D02*
X10373086Y-7351031D01*
X10373086Y-7351031D02*
X10382610Y-7341508D01*
X10382610Y-7341508D02*
X10373086Y-7331984D01*
X10373086Y-7331984D02*
X10373086Y-7351031D01*
X10496896Y-7531984D02*
X10477848Y-7522460D01*
X10477848Y-7522460D02*
X10468324Y-7503412D01*
X10468324Y-7503412D02*
X10468324Y-7331984D01*
X10601658Y-7531984D02*
X10582610Y-7522460D01*
X10582610Y-7522460D02*
X10573086Y-7503412D01*
X10573086Y-7503412D02*
X10573086Y-7331984D01*
X10830229Y-7531984D02*
X10830229Y-7331984D01*
X10830229Y-7331984D02*
X10896896Y-7474841D01*
X10896896Y-7474841D02*
X10963563Y-7331984D01*
X10963563Y-7331984D02*
X10963563Y-7531984D01*
X11144515Y-7531984D02*
X11144515Y-7427222D01*
X11144515Y-7427222D02*
X11134991Y-7408174D01*
X11134991Y-7408174D02*
X11115944Y-7398650D01*
X11115944Y-7398650D02*
X11077848Y-7398650D01*
X11077848Y-7398650D02*
X11058801Y-7408174D01*
X11144515Y-7522460D02*
X11125467Y-7531984D01*
X11125467Y-7531984D02*
X11077848Y-7531984D01*
X11077848Y-7531984D02*
X11058801Y-7522460D01*
X11058801Y-7522460D02*
X11049277Y-7503412D01*
X11049277Y-7503412D02*
X11049277Y-7484365D01*
X11049277Y-7484365D02*
X11058801Y-7465317D01*
X11058801Y-7465317D02*
X11077848Y-7455793D01*
X11077848Y-7455793D02*
X11125467Y-7455793D01*
X11125467Y-7455793D02*
X11144515Y-7446269D01*
X11239753Y-7398650D02*
X11239753Y-7598650D01*
X11239753Y-7408174D02*
X11258801Y-7398650D01*
X11258801Y-7398650D02*
X11296896Y-7398650D01*
X11296896Y-7398650D02*
X11315943Y-7408174D01*
X11315943Y-7408174D02*
X11325467Y-7417698D01*
X11325467Y-7417698D02*
X11334991Y-7436746D01*
X11334991Y-7436746D02*
X11334991Y-7493888D01*
X11334991Y-7493888D02*
X11325467Y-7512936D01*
X11325467Y-7512936D02*
X11315943Y-7522460D01*
X11315943Y-7522460D02*
X11296896Y-7531984D01*
X11296896Y-7531984D02*
X11258801Y-7531984D01*
X11258801Y-7531984D02*
X11239753Y-7522460D01*
X11420705Y-7512936D02*
X11430229Y-7522460D01*
X11430229Y-7522460D02*
X11420705Y-7531984D01*
X11420705Y-7531984D02*
X11411182Y-7522460D01*
X11411182Y-7522460D02*
X11420705Y-7512936D01*
X11420705Y-7512936D02*
X11420705Y-7531984D01*
X11420705Y-7408174D02*
X11430229Y-7417698D01*
X11430229Y-7417698D02*
X11420705Y-7427222D01*
X11420705Y-7427222D02*
X11411182Y-7417698D01*
X11411182Y-7417698D02*
X11420705Y-7408174D01*
X11420705Y-7408174D02*
X11420705Y-7427222D01*
D12*
X9768500Y-7850500D02*
X9788500Y-7870500D01*
X9788500Y-7850500D02*
X9768500Y-7870500D01*
D11*
X10087372Y-7751984D02*
X10106420Y-7751984D01*
X10106420Y-7751984D02*
X10125467Y-7761508D01*
X10125467Y-7761508D02*
X10134991Y-7771031D01*
X10134991Y-7771031D02*
X10144515Y-7790079D01*
X10144515Y-7790079D02*
X10154039Y-7828174D01*
X10154039Y-7828174D02*
X10154039Y-7875793D01*
X10154039Y-7875793D02*
X10144515Y-7913888D01*
X10144515Y-7913888D02*
X10134991Y-7932936D01*
X10134991Y-7932936D02*
X10125467Y-7942460D01*
X10125467Y-7942460D02*
X10106420Y-7951984D01*
X10106420Y-7951984D02*
X10087372Y-7951984D01*
X10087372Y-7951984D02*
X10068324Y-7942460D01*
X10068324Y-7942460D02*
X10058801Y-7932936D01*
X10058801Y-7932936D02*
X10049277Y-7913888D01*
X10049277Y-7913888D02*
X10039753Y-7875793D01*
X10039753Y-7875793D02*
X10039753Y-7828174D01*
X10039753Y-7828174D02*
X10049277Y-7790079D01*
X10049277Y-7790079D02*
X10058801Y-7771031D01*
X10058801Y-7771031D02*
X10068324Y-7761508D01*
X10068324Y-7761508D02*
X10087372Y-7751984D01*
X10239753Y-7932936D02*
X10249277Y-7942460D01*
X10249277Y-7942460D02*
X10239753Y-7951984D01*
X10239753Y-7951984D02*
X10230229Y-7942460D01*
X10230229Y-7942460D02*
X10239753Y-7932936D01*
X10239753Y-7932936D02*
X10239753Y-7951984D01*
X10325467Y-7771031D02*
X10334991Y-7761508D01*
X10334991Y-7761508D02*
X10354039Y-7751984D01*
X10354039Y-7751984D02*
X10401658Y-7751984D01*
X10401658Y-7751984D02*
X10420705Y-7761508D01*
X10420705Y-7761508D02*
X10430229Y-7771031D01*
X10430229Y-7771031D02*
X10439753Y-7790079D01*
X10439753Y-7790079D02*
X10439753Y-7809127D01*
X10439753Y-7809127D02*
X10430229Y-7837698D01*
X10430229Y-7837698D02*
X10315944Y-7951984D01*
X10315944Y-7951984D02*
X10439753Y-7951984D01*
X10563563Y-7751984D02*
X10582610Y-7751984D01*
X10582610Y-7751984D02*
X10601658Y-7761508D01*
X10601658Y-7761508D02*
X10611182Y-7771031D01*
X10611182Y-7771031D02*
X10620705Y-7790079D01*
X10620705Y-7790079D02*
X10630229Y-7828174D01*
X10630229Y-7828174D02*
X10630229Y-7875793D01*
X10630229Y-7875793D02*
X10620705Y-7913888D01*
X10620705Y-7913888D02*
X10611182Y-7932936D01*
X10611182Y-7932936D02*
X10601658Y-7942460D01*
X10601658Y-7942460D02*
X10582610Y-7951984D01*
X10582610Y-7951984D02*
X10563563Y-7951984D01*
X10563563Y-7951984D02*
X10544515Y-7942460D01*
X10544515Y-7942460D02*
X10534991Y-7932936D01*
X10534991Y-7932936D02*
X10525467Y-7913888D01*
X10525467Y-7913888D02*
X10515944Y-7875793D01*
X10515944Y-7875793D02*
X10515944Y-7828174D01*
X10515944Y-7828174D02*
X10525467Y-7790079D01*
X10525467Y-7790079D02*
X10534991Y-7771031D01*
X10534991Y-7771031D02*
X10544515Y-7761508D01*
X10544515Y-7761508D02*
X10563563Y-7751984D01*
X10754039Y-7751984D02*
X10773086Y-7751984D01*
X10773086Y-7751984D02*
X10792134Y-7761508D01*
X10792134Y-7761508D02*
X10801658Y-7771031D01*
X10801658Y-7771031D02*
X10811182Y-7790079D01*
X10811182Y-7790079D02*
X10820705Y-7828174D01*
X10820705Y-7828174D02*
X10820705Y-7875793D01*
X10820705Y-7875793D02*
X10811182Y-7913888D01*
X10811182Y-7913888D02*
X10801658Y-7932936D01*
X10801658Y-7932936D02*
X10792134Y-7942460D01*
X10792134Y-7942460D02*
X10773086Y-7951984D01*
X10773086Y-7951984D02*
X10754039Y-7951984D01*
X10754039Y-7951984D02*
X10734991Y-7942460D01*
X10734991Y-7942460D02*
X10725467Y-7932936D01*
X10725467Y-7932936D02*
X10715944Y-7913888D01*
X10715944Y-7913888D02*
X10706420Y-7875793D01*
X10706420Y-7875793D02*
X10706420Y-7828174D01*
X10706420Y-7828174D02*
X10715944Y-7790079D01*
X10715944Y-7790079D02*
X10725467Y-7771031D01*
X10725467Y-7771031D02*
X10734991Y-7761508D01*
X10734991Y-7761508D02*
X10754039Y-7751984D01*
X10906420Y-7951984D02*
X10906420Y-7818650D01*
X10906420Y-7837698D02*
X10915944Y-7828174D01*
X10915944Y-7828174D02*
X10934991Y-7818650D01*
X10934991Y-7818650D02*
X10963563Y-7818650D01*
X10963563Y-7818650D02*
X10982610Y-7828174D01*
X10982610Y-7828174D02*
X10992134Y-7847222D01*
X10992134Y-7847222D02*
X10992134Y-7951984D01*
X10992134Y-7847222D02*
X11001658Y-7828174D01*
X11001658Y-7828174D02*
X11020705Y-7818650D01*
X11020705Y-7818650D02*
X11049277Y-7818650D01*
X11049277Y-7818650D02*
X11068325Y-7828174D01*
X11068325Y-7828174D02*
X11077848Y-7847222D01*
X11077848Y-7847222D02*
X11077848Y-7951984D01*
X11173086Y-7951984D02*
X11173086Y-7818650D01*
X11173086Y-7837698D02*
X11182610Y-7828174D01*
X11182610Y-7828174D02*
X11201658Y-7818650D01*
X11201658Y-7818650D02*
X11230229Y-7818650D01*
X11230229Y-7818650D02*
X11249277Y-7828174D01*
X11249277Y-7828174D02*
X11258801Y-7847222D01*
X11258801Y-7847222D02*
X11258801Y-7951984D01*
X11258801Y-7847222D02*
X11268324Y-7828174D01*
X11268324Y-7828174D02*
X11287372Y-7818650D01*
X11287372Y-7818650D02*
X11315943Y-7818650D01*
X11315943Y-7818650D02*
X11334991Y-7828174D01*
X11334991Y-7828174D02*
X11344515Y-7847222D01*
X11344515Y-7847222D02*
X11344515Y-7951984D01*
X11734991Y-7742460D02*
X11563563Y-7999603D01*
X11992134Y-7751984D02*
X12011182Y-7751984D01*
X12011182Y-7751984D02*
X12030229Y-7761508D01*
X12030229Y-7761508D02*
X12039753Y-7771031D01*
X12039753Y-7771031D02*
X12049277Y-7790079D01*
X12049277Y-7790079D02*
X12058801Y-7828174D01*
X12058801Y-7828174D02*
X12058801Y-7875793D01*
X12058801Y-7875793D02*
X12049277Y-7913888D01*
X12049277Y-7913888D02*
X12039753Y-7932936D01*
X12039753Y-7932936D02*
X12030229Y-7942460D01*
X12030229Y-7942460D02*
X12011182Y-7951984D01*
X12011182Y-7951984D02*
X11992134Y-7951984D01*
X11992134Y-7951984D02*
X11973086Y-7942460D01*
X11973086Y-7942460D02*
X11963563Y-7932936D01*
X11963563Y-7932936D02*
X11954039Y-7913888D01*
X11954039Y-7913888D02*
X11944515Y-7875793D01*
X11944515Y-7875793D02*
X11944515Y-7828174D01*
X11944515Y-7828174D02*
X11954039Y-7790079D01*
X11954039Y-7790079D02*
X11963563Y-7771031D01*
X11963563Y-7771031D02*
X11973086Y-7761508D01*
X11973086Y-7761508D02*
X11992134Y-7751984D01*
X12144515Y-7932936D02*
X12154039Y-7942460D01*
X12154039Y-7942460D02*
X12144515Y-7951984D01*
X12144515Y-7951984D02*
X12134991Y-7942460D01*
X12134991Y-7942460D02*
X12144515Y-7932936D01*
X12144515Y-7932936D02*
X12144515Y-7951984D01*
X12277848Y-7751984D02*
X12296896Y-7751984D01*
X12296896Y-7751984D02*
X12315944Y-7761508D01*
X12315944Y-7761508D02*
X12325467Y-7771031D01*
X12325467Y-7771031D02*
X12334991Y-7790079D01*
X12334991Y-7790079D02*
X12344515Y-7828174D01*
X12344515Y-7828174D02*
X12344515Y-7875793D01*
X12344515Y-7875793D02*
X12334991Y-7913888D01*
X12334991Y-7913888D02*
X12325467Y-7932936D01*
X12325467Y-7932936D02*
X12315944Y-7942460D01*
X12315944Y-7942460D02*
X12296896Y-7951984D01*
X12296896Y-7951984D02*
X12277848Y-7951984D01*
X12277848Y-7951984D02*
X12258801Y-7942460D01*
X12258801Y-7942460D02*
X12249277Y-7932936D01*
X12249277Y-7932936D02*
X12239753Y-7913888D01*
X12239753Y-7913888D02*
X12230229Y-7875793D01*
X12230229Y-7875793D02*
X12230229Y-7828174D01*
X12230229Y-7828174D02*
X12239753Y-7790079D01*
X12239753Y-7790079D02*
X12249277Y-7771031D01*
X12249277Y-7771031D02*
X12258801Y-7761508D01*
X12258801Y-7761508D02*
X12277848Y-7751984D01*
X12468325Y-7751984D02*
X12487372Y-7751984D01*
X12487372Y-7751984D02*
X12506420Y-7761508D01*
X12506420Y-7761508D02*
X12515944Y-7771031D01*
X12515944Y-7771031D02*
X12525467Y-7790079D01*
X12525467Y-7790079D02*
X12534991Y-7828174D01*
X12534991Y-7828174D02*
X12534991Y-7875793D01*
X12534991Y-7875793D02*
X12525467Y-7913888D01*
X12525467Y-7913888D02*
X12515944Y-7932936D01*
X12515944Y-7932936D02*
X12506420Y-7942460D01*
X12506420Y-7942460D02*
X12487372Y-7951984D01*
X12487372Y-7951984D02*
X12468325Y-7951984D01*
X12468325Y-7951984D02*
X12449277Y-7942460D01*
X12449277Y-7942460D02*
X12439753Y-7932936D01*
X12439753Y-7932936D02*
X12430229Y-7913888D01*
X12430229Y-7913888D02*
X12420706Y-7875793D01*
X12420706Y-7875793D02*
X12420706Y-7828174D01*
X12420706Y-7828174D02*
X12430229Y-7790079D01*
X12430229Y-7790079D02*
X12439753Y-7771031D01*
X12439753Y-7771031D02*
X12449277Y-7761508D01*
X12449277Y-7761508D02*
X12468325Y-7751984D01*
X12601658Y-7751984D02*
X12734991Y-7751984D01*
X12734991Y-7751984D02*
X12649277Y-7951984D01*
X12820706Y-7951984D02*
X12858801Y-7951984D01*
X12858801Y-7951984D02*
X12877848Y-7942460D01*
X12877848Y-7942460D02*
X12887372Y-7932936D01*
X12887372Y-7932936D02*
X12906420Y-7904365D01*
X12906420Y-7904365D02*
X12915944Y-7866269D01*
X12915944Y-7866269D02*
X12915944Y-7790079D01*
X12915944Y-7790079D02*
X12906420Y-7771031D01*
X12906420Y-7771031D02*
X12896896Y-7761508D01*
X12896896Y-7761508D02*
X12877848Y-7751984D01*
X12877848Y-7751984D02*
X12839753Y-7751984D01*
X12839753Y-7751984D02*
X12820706Y-7761508D01*
X12820706Y-7761508D02*
X12811182Y-7771031D01*
X12811182Y-7771031D02*
X12801658Y-7790079D01*
X12801658Y-7790079D02*
X12801658Y-7837698D01*
X12801658Y-7837698D02*
X12811182Y-7856746D01*
X12811182Y-7856746D02*
X12820706Y-7866269D01*
X12820706Y-7866269D02*
X12839753Y-7875793D01*
X12839753Y-7875793D02*
X12877848Y-7875793D01*
X12877848Y-7875793D02*
X12896896Y-7866269D01*
X12896896Y-7866269D02*
X12906420Y-7856746D01*
X12906420Y-7856746D02*
X12915944Y-7837698D01*
X12992134Y-7751984D02*
X12992134Y-7790079D01*
X13068325Y-7751984D02*
X13068325Y-7790079D01*
X13363563Y-8028174D02*
X13354039Y-8018650D01*
X13354039Y-8018650D02*
X13334991Y-7990079D01*
X13334991Y-7990079D02*
X13325468Y-7971031D01*
X13325468Y-7971031D02*
X13315944Y-7942460D01*
X13315944Y-7942460D02*
X13306420Y-7894841D01*
X13306420Y-7894841D02*
X13306420Y-7856746D01*
X13306420Y-7856746D02*
X13315944Y-7809127D01*
X13315944Y-7809127D02*
X13325468Y-7780555D01*
X13325468Y-7780555D02*
X13334991Y-7761508D01*
X13334991Y-7761508D02*
X13354039Y-7732936D01*
X13354039Y-7732936D02*
X13363563Y-7723412D01*
X13420706Y-7751984D02*
X13554039Y-7751984D01*
X13554039Y-7751984D02*
X13468325Y-7951984D01*
X13611182Y-7751984D02*
X13744515Y-7751984D01*
X13744515Y-7751984D02*
X13658801Y-7951984D01*
X13973087Y-7951984D02*
X13973087Y-7751984D01*
X14058801Y-7951984D02*
X14058801Y-7847222D01*
X14058801Y-7847222D02*
X14049277Y-7828174D01*
X14049277Y-7828174D02*
X14030230Y-7818650D01*
X14030230Y-7818650D02*
X14001658Y-7818650D01*
X14001658Y-7818650D02*
X13982610Y-7828174D01*
X13982610Y-7828174D02*
X13973087Y-7837698D01*
X14182610Y-7951984D02*
X14163563Y-7942460D01*
X14163563Y-7942460D02*
X14154039Y-7932936D01*
X14154039Y-7932936D02*
X14144515Y-7913888D01*
X14144515Y-7913888D02*
X14144515Y-7856746D01*
X14144515Y-7856746D02*
X14154039Y-7837698D01*
X14154039Y-7837698D02*
X14163563Y-7828174D01*
X14163563Y-7828174D02*
X14182610Y-7818650D01*
X14182610Y-7818650D02*
X14211182Y-7818650D01*
X14211182Y-7818650D02*
X14230230Y-7828174D01*
X14230230Y-7828174D02*
X14239753Y-7837698D01*
X14239753Y-7837698D02*
X14249277Y-7856746D01*
X14249277Y-7856746D02*
X14249277Y-7913888D01*
X14249277Y-7913888D02*
X14239753Y-7932936D01*
X14239753Y-7932936D02*
X14230230Y-7942460D01*
X14230230Y-7942460D02*
X14211182Y-7951984D01*
X14211182Y-7951984D02*
X14182610Y-7951984D01*
X14363563Y-7951984D02*
X14344515Y-7942460D01*
X14344515Y-7942460D02*
X14334991Y-7923412D01*
X14334991Y-7923412D02*
X14334991Y-7751984D01*
X14515944Y-7942460D02*
X14496896Y-7951984D01*
X14496896Y-7951984D02*
X14458801Y-7951984D01*
X14458801Y-7951984D02*
X14439753Y-7942460D01*
X14439753Y-7942460D02*
X14430230Y-7923412D01*
X14430230Y-7923412D02*
X14430230Y-7847222D01*
X14430230Y-7847222D02*
X14439753Y-7828174D01*
X14439753Y-7828174D02*
X14458801Y-7818650D01*
X14458801Y-7818650D02*
X14496896Y-7818650D01*
X14496896Y-7818650D02*
X14515944Y-7828174D01*
X14515944Y-7828174D02*
X14525468Y-7847222D01*
X14525468Y-7847222D02*
X14525468Y-7866269D01*
X14525468Y-7866269D02*
X14430230Y-7885317D01*
X14601658Y-7942460D02*
X14620706Y-7951984D01*
X14620706Y-7951984D02*
X14658801Y-7951984D01*
X14658801Y-7951984D02*
X14677849Y-7942460D01*
X14677849Y-7942460D02*
X14687372Y-7923412D01*
X14687372Y-7923412D02*
X14687372Y-7913888D01*
X14687372Y-7913888D02*
X14677849Y-7894841D01*
X14677849Y-7894841D02*
X14658801Y-7885317D01*
X14658801Y-7885317D02*
X14630230Y-7885317D01*
X14630230Y-7885317D02*
X14611182Y-7875793D01*
X14611182Y-7875793D02*
X14601658Y-7856746D01*
X14601658Y-7856746D02*
X14601658Y-7847222D01*
X14601658Y-7847222D02*
X14611182Y-7828174D01*
X14611182Y-7828174D02*
X14630230Y-7818650D01*
X14630230Y-7818650D02*
X14658801Y-7818650D01*
X14658801Y-7818650D02*
X14677849Y-7828174D01*
X14754039Y-8028174D02*
X14763563Y-8018650D01*
X14763563Y-8018650D02*
X14782611Y-7990079D01*
X14782611Y-7990079D02*
X14792134Y-7971031D01*
X14792134Y-7971031D02*
X14801658Y-7942460D01*
X14801658Y-7942460D02*
X14811182Y-7894841D01*
X14811182Y-7894841D02*
X14811182Y-7856746D01*
X14811182Y-7856746D02*
X14801658Y-7809127D01*
X14801658Y-7809127D02*
X14792134Y-7780555D01*
X14792134Y-7780555D02*
X14782611Y-7761508D01*
X14782611Y-7761508D02*
X14763563Y-7732936D01*
X14763563Y-7732936D02*
X14754039Y-7723412D01*
D12*
X9788500Y-8124500D02*
G75*
G02*
X9728500Y-8124500I-30000J0D01*
G01*
X9728500Y-8124500D02*
G75*
G02*
X9788500Y-8124500I30000J0D01*
G01*
D11*
X10087372Y-8015984D02*
X10106420Y-8015984D01*
X10106420Y-8015984D02*
X10125467Y-8025508D01*
X10125467Y-8025508D02*
X10134991Y-8035031D01*
X10134991Y-8035031D02*
X10144515Y-8054079D01*
X10144515Y-8054079D02*
X10154039Y-8092174D01*
X10154039Y-8092174D02*
X10154039Y-8139793D01*
X10154039Y-8139793D02*
X10144515Y-8177888D01*
X10144515Y-8177888D02*
X10134991Y-8196936D01*
X10134991Y-8196936D02*
X10125467Y-8206460D01*
X10125467Y-8206460D02*
X10106420Y-8215984D01*
X10106420Y-8215984D02*
X10087372Y-8215984D01*
X10087372Y-8215984D02*
X10068324Y-8206460D01*
X10068324Y-8206460D02*
X10058801Y-8196936D01*
X10058801Y-8196936D02*
X10049277Y-8177888D01*
X10049277Y-8177888D02*
X10039753Y-8139793D01*
X10039753Y-8139793D02*
X10039753Y-8092174D01*
X10039753Y-8092174D02*
X10049277Y-8054079D01*
X10049277Y-8054079D02*
X10058801Y-8035031D01*
X10058801Y-8035031D02*
X10068324Y-8025508D01*
X10068324Y-8025508D02*
X10087372Y-8015984D01*
X10239753Y-8196936D02*
X10249277Y-8206460D01*
X10249277Y-8206460D02*
X10239753Y-8215984D01*
X10239753Y-8215984D02*
X10230229Y-8206460D01*
X10230229Y-8206460D02*
X10239753Y-8196936D01*
X10239753Y-8196936D02*
X10239753Y-8215984D01*
X10420705Y-8015984D02*
X10382610Y-8015984D01*
X10382610Y-8015984D02*
X10363563Y-8025508D01*
X10363563Y-8025508D02*
X10354039Y-8035031D01*
X10354039Y-8035031D02*
X10334991Y-8063603D01*
X10334991Y-8063603D02*
X10325467Y-8101698D01*
X10325467Y-8101698D02*
X10325467Y-8177888D01*
X10325467Y-8177888D02*
X10334991Y-8196936D01*
X10334991Y-8196936D02*
X10344515Y-8206460D01*
X10344515Y-8206460D02*
X10363563Y-8215984D01*
X10363563Y-8215984D02*
X10401658Y-8215984D01*
X10401658Y-8215984D02*
X10420705Y-8206460D01*
X10420705Y-8206460D02*
X10430229Y-8196936D01*
X10430229Y-8196936D02*
X10439753Y-8177888D01*
X10439753Y-8177888D02*
X10439753Y-8130269D01*
X10439753Y-8130269D02*
X10430229Y-8111222D01*
X10430229Y-8111222D02*
X10420705Y-8101698D01*
X10420705Y-8101698D02*
X10401658Y-8092174D01*
X10401658Y-8092174D02*
X10363563Y-8092174D01*
X10363563Y-8092174D02*
X10344515Y-8101698D01*
X10344515Y-8101698D02*
X10334991Y-8111222D01*
X10334991Y-8111222D02*
X10325467Y-8130269D01*
X10563563Y-8015984D02*
X10582610Y-8015984D01*
X10582610Y-8015984D02*
X10601658Y-8025508D01*
X10601658Y-8025508D02*
X10611182Y-8035031D01*
X10611182Y-8035031D02*
X10620705Y-8054079D01*
X10620705Y-8054079D02*
X10630229Y-8092174D01*
X10630229Y-8092174D02*
X10630229Y-8139793D01*
X10630229Y-8139793D02*
X10620705Y-8177888D01*
X10620705Y-8177888D02*
X10611182Y-8196936D01*
X10611182Y-8196936D02*
X10601658Y-8206460D01*
X10601658Y-8206460D02*
X10582610Y-8215984D01*
X10582610Y-8215984D02*
X10563563Y-8215984D01*
X10563563Y-8215984D02*
X10544515Y-8206460D01*
X10544515Y-8206460D02*
X10534991Y-8196936D01*
X10534991Y-8196936D02*
X10525467Y-8177888D01*
X10525467Y-8177888D02*
X10515944Y-8139793D01*
X10515944Y-8139793D02*
X10515944Y-8092174D01*
X10515944Y-8092174D02*
X10525467Y-8054079D01*
X10525467Y-8054079D02*
X10534991Y-8035031D01*
X10534991Y-8035031D02*
X10544515Y-8025508D01*
X10544515Y-8025508D02*
X10563563Y-8015984D01*
X10754039Y-8015984D02*
X10773086Y-8015984D01*
X10773086Y-8015984D02*
X10792134Y-8025508D01*
X10792134Y-8025508D02*
X10801658Y-8035031D01*
X10801658Y-8035031D02*
X10811182Y-8054079D01*
X10811182Y-8054079D02*
X10820705Y-8092174D01*
X10820705Y-8092174D02*
X10820705Y-8139793D01*
X10820705Y-8139793D02*
X10811182Y-8177888D01*
X10811182Y-8177888D02*
X10801658Y-8196936D01*
X10801658Y-8196936D02*
X10792134Y-8206460D01*
X10792134Y-8206460D02*
X10773086Y-8215984D01*
X10773086Y-8215984D02*
X10754039Y-8215984D01*
X10754039Y-8215984D02*
X10734991Y-8206460D01*
X10734991Y-8206460D02*
X10725467Y-8196936D01*
X10725467Y-8196936D02*
X10715944Y-8177888D01*
X10715944Y-8177888D02*
X10706420Y-8139793D01*
X10706420Y-8139793D02*
X10706420Y-8092174D01*
X10706420Y-8092174D02*
X10715944Y-8054079D01*
X10715944Y-8054079D02*
X10725467Y-8035031D01*
X10725467Y-8035031D02*
X10734991Y-8025508D01*
X10734991Y-8025508D02*
X10754039Y-8015984D01*
X10906420Y-8215984D02*
X10906420Y-8082650D01*
X10906420Y-8101698D02*
X10915944Y-8092174D01*
X10915944Y-8092174D02*
X10934991Y-8082650D01*
X10934991Y-8082650D02*
X10963563Y-8082650D01*
X10963563Y-8082650D02*
X10982610Y-8092174D01*
X10982610Y-8092174D02*
X10992134Y-8111222D01*
X10992134Y-8111222D02*
X10992134Y-8215984D01*
X10992134Y-8111222D02*
X11001658Y-8092174D01*
X11001658Y-8092174D02*
X11020705Y-8082650D01*
X11020705Y-8082650D02*
X11049277Y-8082650D01*
X11049277Y-8082650D02*
X11068325Y-8092174D01*
X11068325Y-8092174D02*
X11077848Y-8111222D01*
X11077848Y-8111222D02*
X11077848Y-8215984D01*
X11173086Y-8215984D02*
X11173086Y-8082650D01*
X11173086Y-8101698D02*
X11182610Y-8092174D01*
X11182610Y-8092174D02*
X11201658Y-8082650D01*
X11201658Y-8082650D02*
X11230229Y-8082650D01*
X11230229Y-8082650D02*
X11249277Y-8092174D01*
X11249277Y-8092174D02*
X11258801Y-8111222D01*
X11258801Y-8111222D02*
X11258801Y-8215984D01*
X11258801Y-8111222D02*
X11268324Y-8092174D01*
X11268324Y-8092174D02*
X11287372Y-8082650D01*
X11287372Y-8082650D02*
X11315943Y-8082650D01*
X11315943Y-8082650D02*
X11334991Y-8092174D01*
X11334991Y-8092174D02*
X11344515Y-8111222D01*
X11344515Y-8111222D02*
X11344515Y-8215984D01*
X11734991Y-8006460D02*
X11563563Y-8263603D01*
X11992134Y-8015984D02*
X12011182Y-8015984D01*
X12011182Y-8015984D02*
X12030229Y-8025508D01*
X12030229Y-8025508D02*
X12039753Y-8035031D01*
X12039753Y-8035031D02*
X12049277Y-8054079D01*
X12049277Y-8054079D02*
X12058801Y-8092174D01*
X12058801Y-8092174D02*
X12058801Y-8139793D01*
X12058801Y-8139793D02*
X12049277Y-8177888D01*
X12049277Y-8177888D02*
X12039753Y-8196936D01*
X12039753Y-8196936D02*
X12030229Y-8206460D01*
X12030229Y-8206460D02*
X12011182Y-8215984D01*
X12011182Y-8215984D02*
X11992134Y-8215984D01*
X11992134Y-8215984D02*
X11973086Y-8206460D01*
X11973086Y-8206460D02*
X11963563Y-8196936D01*
X11963563Y-8196936D02*
X11954039Y-8177888D01*
X11954039Y-8177888D02*
X11944515Y-8139793D01*
X11944515Y-8139793D02*
X11944515Y-8092174D01*
X11944515Y-8092174D02*
X11954039Y-8054079D01*
X11954039Y-8054079D02*
X11963563Y-8035031D01*
X11963563Y-8035031D02*
X11973086Y-8025508D01*
X11973086Y-8025508D02*
X11992134Y-8015984D01*
X12144515Y-8196936D02*
X12154039Y-8206460D01*
X12154039Y-8206460D02*
X12144515Y-8215984D01*
X12144515Y-8215984D02*
X12134991Y-8206460D01*
X12134991Y-8206460D02*
X12144515Y-8196936D01*
X12144515Y-8196936D02*
X12144515Y-8215984D01*
X12277848Y-8015984D02*
X12296896Y-8015984D01*
X12296896Y-8015984D02*
X12315944Y-8025508D01*
X12315944Y-8025508D02*
X12325467Y-8035031D01*
X12325467Y-8035031D02*
X12334991Y-8054079D01*
X12334991Y-8054079D02*
X12344515Y-8092174D01*
X12344515Y-8092174D02*
X12344515Y-8139793D01*
X12344515Y-8139793D02*
X12334991Y-8177888D01*
X12334991Y-8177888D02*
X12325467Y-8196936D01*
X12325467Y-8196936D02*
X12315944Y-8206460D01*
X12315944Y-8206460D02*
X12296896Y-8215984D01*
X12296896Y-8215984D02*
X12277848Y-8215984D01*
X12277848Y-8215984D02*
X12258801Y-8206460D01*
X12258801Y-8206460D02*
X12249277Y-8196936D01*
X12249277Y-8196936D02*
X12239753Y-8177888D01*
X12239753Y-8177888D02*
X12230229Y-8139793D01*
X12230229Y-8139793D02*
X12230229Y-8092174D01*
X12230229Y-8092174D02*
X12239753Y-8054079D01*
X12239753Y-8054079D02*
X12249277Y-8035031D01*
X12249277Y-8035031D02*
X12258801Y-8025508D01*
X12258801Y-8025508D02*
X12277848Y-8015984D01*
X12420706Y-8035031D02*
X12430229Y-8025508D01*
X12430229Y-8025508D02*
X12449277Y-8015984D01*
X12449277Y-8015984D02*
X12496896Y-8015984D01*
X12496896Y-8015984D02*
X12515944Y-8025508D01*
X12515944Y-8025508D02*
X12525467Y-8035031D01*
X12525467Y-8035031D02*
X12534991Y-8054079D01*
X12534991Y-8054079D02*
X12534991Y-8073127D01*
X12534991Y-8073127D02*
X12525467Y-8101698D01*
X12525467Y-8101698D02*
X12411182Y-8215984D01*
X12411182Y-8215984D02*
X12534991Y-8215984D01*
X12601658Y-8015984D02*
X12725467Y-8015984D01*
X12725467Y-8015984D02*
X12658801Y-8092174D01*
X12658801Y-8092174D02*
X12687372Y-8092174D01*
X12687372Y-8092174D02*
X12706420Y-8101698D01*
X12706420Y-8101698D02*
X12715944Y-8111222D01*
X12715944Y-8111222D02*
X12725467Y-8130269D01*
X12725467Y-8130269D02*
X12725467Y-8177888D01*
X12725467Y-8177888D02*
X12715944Y-8196936D01*
X12715944Y-8196936D02*
X12706420Y-8206460D01*
X12706420Y-8206460D02*
X12687372Y-8215984D01*
X12687372Y-8215984D02*
X12630229Y-8215984D01*
X12630229Y-8215984D02*
X12611182Y-8206460D01*
X12611182Y-8206460D02*
X12601658Y-8196936D01*
X12896896Y-8015984D02*
X12858801Y-8015984D01*
X12858801Y-8015984D02*
X12839753Y-8025508D01*
X12839753Y-8025508D02*
X12830229Y-8035031D01*
X12830229Y-8035031D02*
X12811182Y-8063603D01*
X12811182Y-8063603D02*
X12801658Y-8101698D01*
X12801658Y-8101698D02*
X12801658Y-8177888D01*
X12801658Y-8177888D02*
X12811182Y-8196936D01*
X12811182Y-8196936D02*
X12820706Y-8206460D01*
X12820706Y-8206460D02*
X12839753Y-8215984D01*
X12839753Y-8215984D02*
X12877848Y-8215984D01*
X12877848Y-8215984D02*
X12896896Y-8206460D01*
X12896896Y-8206460D02*
X12906420Y-8196936D01*
X12906420Y-8196936D02*
X12915944Y-8177888D01*
X12915944Y-8177888D02*
X12915944Y-8130269D01*
X12915944Y-8130269D02*
X12906420Y-8111222D01*
X12906420Y-8111222D02*
X12896896Y-8101698D01*
X12896896Y-8101698D02*
X12877848Y-8092174D01*
X12877848Y-8092174D02*
X12839753Y-8092174D01*
X12839753Y-8092174D02*
X12820706Y-8101698D01*
X12820706Y-8101698D02*
X12811182Y-8111222D01*
X12811182Y-8111222D02*
X12801658Y-8130269D01*
X12992134Y-8015984D02*
X12992134Y-8054079D01*
X13068325Y-8015984D02*
X13068325Y-8054079D01*
X13363563Y-8292174D02*
X13354039Y-8282650D01*
X13354039Y-8282650D02*
X13334991Y-8254079D01*
X13334991Y-8254079D02*
X13325468Y-8235031D01*
X13325468Y-8235031D02*
X13315944Y-8206460D01*
X13315944Y-8206460D02*
X13306420Y-8158841D01*
X13306420Y-8158841D02*
X13306420Y-8120746D01*
X13306420Y-8120746D02*
X13315944Y-8073127D01*
X13315944Y-8073127D02*
X13325468Y-8044555D01*
X13325468Y-8044555D02*
X13334991Y-8025508D01*
X13334991Y-8025508D02*
X13354039Y-7996936D01*
X13354039Y-7996936D02*
X13363563Y-7987412D01*
X13477848Y-8015984D02*
X13496896Y-8015984D01*
X13496896Y-8015984D02*
X13515944Y-8025508D01*
X13515944Y-8025508D02*
X13525468Y-8035031D01*
X13525468Y-8035031D02*
X13534991Y-8054079D01*
X13534991Y-8054079D02*
X13544515Y-8092174D01*
X13544515Y-8092174D02*
X13544515Y-8139793D01*
X13544515Y-8139793D02*
X13534991Y-8177888D01*
X13534991Y-8177888D02*
X13525468Y-8196936D01*
X13525468Y-8196936D02*
X13515944Y-8206460D01*
X13515944Y-8206460D02*
X13496896Y-8215984D01*
X13496896Y-8215984D02*
X13477848Y-8215984D01*
X13477848Y-8215984D02*
X13458801Y-8206460D01*
X13458801Y-8206460D02*
X13449277Y-8196936D01*
X13449277Y-8196936D02*
X13439753Y-8177888D01*
X13439753Y-8177888D02*
X13430229Y-8139793D01*
X13430229Y-8139793D02*
X13430229Y-8092174D01*
X13430229Y-8092174D02*
X13439753Y-8054079D01*
X13439753Y-8054079D02*
X13449277Y-8035031D01*
X13449277Y-8035031D02*
X13458801Y-8025508D01*
X13458801Y-8025508D02*
X13477848Y-8015984D01*
X13782610Y-8215984D02*
X13782610Y-8015984D01*
X13868325Y-8215984D02*
X13868325Y-8111222D01*
X13868325Y-8111222D02*
X13858801Y-8092174D01*
X13858801Y-8092174D02*
X13839753Y-8082650D01*
X13839753Y-8082650D02*
X13811182Y-8082650D01*
X13811182Y-8082650D02*
X13792134Y-8092174D01*
X13792134Y-8092174D02*
X13782610Y-8101698D01*
X13992134Y-8215984D02*
X13973087Y-8206460D01*
X13973087Y-8206460D02*
X13963563Y-8196936D01*
X13963563Y-8196936D02*
X13954039Y-8177888D01*
X13954039Y-8177888D02*
X13954039Y-8120746D01*
X13954039Y-8120746D02*
X13963563Y-8101698D01*
X13963563Y-8101698D02*
X13973087Y-8092174D01*
X13973087Y-8092174D02*
X13992134Y-8082650D01*
X13992134Y-8082650D02*
X14020706Y-8082650D01*
X14020706Y-8082650D02*
X14039753Y-8092174D01*
X14039753Y-8092174D02*
X14049277Y-8101698D01*
X14049277Y-8101698D02*
X14058801Y-8120746D01*
X14058801Y-8120746D02*
X14058801Y-8177888D01*
X14058801Y-8177888D02*
X14049277Y-8196936D01*
X14049277Y-8196936D02*
X14039753Y-8206460D01*
X14039753Y-8206460D02*
X14020706Y-8215984D01*
X14020706Y-8215984D02*
X13992134Y-8215984D01*
X14173087Y-8215984D02*
X14154039Y-8206460D01*
X14154039Y-8206460D02*
X14144515Y-8187412D01*
X14144515Y-8187412D02*
X14144515Y-8015984D01*
X14325468Y-8206460D02*
X14306420Y-8215984D01*
X14306420Y-8215984D02*
X14268325Y-8215984D01*
X14268325Y-8215984D02*
X14249277Y-8206460D01*
X14249277Y-8206460D02*
X14239753Y-8187412D01*
X14239753Y-8187412D02*
X14239753Y-8111222D01*
X14239753Y-8111222D02*
X14249277Y-8092174D01*
X14249277Y-8092174D02*
X14268325Y-8082650D01*
X14268325Y-8082650D02*
X14306420Y-8082650D01*
X14306420Y-8082650D02*
X14325468Y-8092174D01*
X14325468Y-8092174D02*
X14334991Y-8111222D01*
X14334991Y-8111222D02*
X14334991Y-8130269D01*
X14334991Y-8130269D02*
X14239753Y-8149317D01*
X14411182Y-8206460D02*
X14430230Y-8215984D01*
X14430230Y-8215984D02*
X14468325Y-8215984D01*
X14468325Y-8215984D02*
X14487372Y-8206460D01*
X14487372Y-8206460D02*
X14496896Y-8187412D01*
X14496896Y-8187412D02*
X14496896Y-8177888D01*
X14496896Y-8177888D02*
X14487372Y-8158841D01*
X14487372Y-8158841D02*
X14468325Y-8149317D01*
X14468325Y-8149317D02*
X14439753Y-8149317D01*
X14439753Y-8149317D02*
X14420706Y-8139793D01*
X14420706Y-8139793D02*
X14411182Y-8120746D01*
X14411182Y-8120746D02*
X14411182Y-8111222D01*
X14411182Y-8111222D02*
X14420706Y-8092174D01*
X14420706Y-8092174D02*
X14439753Y-8082650D01*
X14439753Y-8082650D02*
X14468325Y-8082650D01*
X14468325Y-8082650D02*
X14487372Y-8092174D01*
X14734992Y-8139793D02*
X14887373Y-8139793D01*
X14811182Y-8215984D02*
X14811182Y-8063603D01*
X15220706Y-8082650D02*
X15220706Y-8215984D01*
X15173087Y-8006460D02*
X15125468Y-8149317D01*
X15125468Y-8149317D02*
X15249277Y-8149317D01*
X15468325Y-8206460D02*
X15487373Y-8215984D01*
X15487373Y-8215984D02*
X15525468Y-8215984D01*
X15525468Y-8215984D02*
X15544515Y-8206460D01*
X15544515Y-8206460D02*
X15554039Y-8187412D01*
X15554039Y-8187412D02*
X15554039Y-8177888D01*
X15554039Y-8177888D02*
X15544515Y-8158841D01*
X15544515Y-8158841D02*
X15525468Y-8149317D01*
X15525468Y-8149317D02*
X15496896Y-8149317D01*
X15496896Y-8149317D02*
X15477849Y-8139793D01*
X15477849Y-8139793D02*
X15468325Y-8120746D01*
X15468325Y-8120746D02*
X15468325Y-8111222D01*
X15468325Y-8111222D02*
X15477849Y-8092174D01*
X15477849Y-8092174D02*
X15496896Y-8082650D01*
X15496896Y-8082650D02*
X15525468Y-8082650D01*
X15525468Y-8082650D02*
X15544515Y-8092174D01*
X15668325Y-8215984D02*
X15649277Y-8206460D01*
X15649277Y-8206460D02*
X15639754Y-8187412D01*
X15639754Y-8187412D02*
X15639754Y-8015984D01*
X15773087Y-8215984D02*
X15754039Y-8206460D01*
X15754039Y-8206460D02*
X15744515Y-8196936D01*
X15744515Y-8196936D02*
X15734992Y-8177888D01*
X15734992Y-8177888D02*
X15734992Y-8120746D01*
X15734992Y-8120746D02*
X15744515Y-8101698D01*
X15744515Y-8101698D02*
X15754039Y-8092174D01*
X15754039Y-8092174D02*
X15773087Y-8082650D01*
X15773087Y-8082650D02*
X15801658Y-8082650D01*
X15801658Y-8082650D02*
X15820706Y-8092174D01*
X15820706Y-8092174D02*
X15830230Y-8101698D01*
X15830230Y-8101698D02*
X15839754Y-8120746D01*
X15839754Y-8120746D02*
X15839754Y-8177888D01*
X15839754Y-8177888D02*
X15830230Y-8196936D01*
X15830230Y-8196936D02*
X15820706Y-8206460D01*
X15820706Y-8206460D02*
X15801658Y-8215984D01*
X15801658Y-8215984D02*
X15773087Y-8215984D01*
X15896896Y-8082650D02*
X15973087Y-8082650D01*
X15925468Y-8015984D02*
X15925468Y-8187412D01*
X15925468Y-8187412D02*
X15934992Y-8206460D01*
X15934992Y-8206460D02*
X15954039Y-8215984D01*
X15954039Y-8215984D02*
X15973087Y-8215984D01*
X16030230Y-8206460D02*
X16049277Y-8215984D01*
X16049277Y-8215984D02*
X16087373Y-8215984D01*
X16087373Y-8215984D02*
X16106420Y-8206460D01*
X16106420Y-8206460D02*
X16115944Y-8187412D01*
X16115944Y-8187412D02*
X16115944Y-8177888D01*
X16115944Y-8177888D02*
X16106420Y-8158841D01*
X16106420Y-8158841D02*
X16087373Y-8149317D01*
X16087373Y-8149317D02*
X16058801Y-8149317D01*
X16058801Y-8149317D02*
X16039754Y-8139793D01*
X16039754Y-8139793D02*
X16030230Y-8120746D01*
X16030230Y-8120746D02*
X16030230Y-8111222D01*
X16030230Y-8111222D02*
X16039754Y-8092174D01*
X16039754Y-8092174D02*
X16058801Y-8082650D01*
X16058801Y-8082650D02*
X16087373Y-8082650D01*
X16087373Y-8082650D02*
X16106420Y-8092174D01*
X16182611Y-8292174D02*
X16192135Y-8282650D01*
X16192135Y-8282650D02*
X16211182Y-8254079D01*
X16211182Y-8254079D02*
X16220706Y-8235031D01*
X16220706Y-8235031D02*
X16230230Y-8206460D01*
X16230230Y-8206460D02*
X16239754Y-8158841D01*
X16239754Y-8158841D02*
X16239754Y-8120746D01*
X16239754Y-8120746D02*
X16230230Y-8073127D01*
X16230230Y-8073127D02*
X16220706Y-8044555D01*
X16220706Y-8044555D02*
X16211182Y-8025508D01*
X16211182Y-8025508D02*
X16192135Y-7996936D01*
X16192135Y-7996936D02*
X16182611Y-7987412D01*
D12*
X9756000Y-8356000D02*
X9756000Y-8421000D01*
X9723500Y-8388500D02*
X9788500Y-8388500D01*
D11*
X10087372Y-8279984D02*
X10106420Y-8279984D01*
X10106420Y-8279984D02*
X10125467Y-8289508D01*
X10125467Y-8289508D02*
X10134991Y-8299031D01*
X10134991Y-8299031D02*
X10144515Y-8318079D01*
X10144515Y-8318079D02*
X10154039Y-8356174D01*
X10154039Y-8356174D02*
X10154039Y-8403793D01*
X10154039Y-8403793D02*
X10144515Y-8441889D01*
X10144515Y-8441889D02*
X10134991Y-8460936D01*
X10134991Y-8460936D02*
X10125467Y-8470460D01*
X10125467Y-8470460D02*
X10106420Y-8479984D01*
X10106420Y-8479984D02*
X10087372Y-8479984D01*
X10087372Y-8479984D02*
X10068324Y-8470460D01*
X10068324Y-8470460D02*
X10058801Y-8460936D01*
X10058801Y-8460936D02*
X10049277Y-8441889D01*
X10049277Y-8441889D02*
X10039753Y-8403793D01*
X10039753Y-8403793D02*
X10039753Y-8356174D01*
X10039753Y-8356174D02*
X10049277Y-8318079D01*
X10049277Y-8318079D02*
X10058801Y-8299031D01*
X10058801Y-8299031D02*
X10068324Y-8289508D01*
X10068324Y-8289508D02*
X10087372Y-8279984D01*
X10239753Y-8460936D02*
X10249277Y-8470460D01*
X10249277Y-8470460D02*
X10239753Y-8479984D01*
X10239753Y-8479984D02*
X10230229Y-8470460D01*
X10230229Y-8470460D02*
X10239753Y-8460936D01*
X10239753Y-8460936D02*
X10239753Y-8479984D01*
X10420705Y-8279984D02*
X10382610Y-8279984D01*
X10382610Y-8279984D02*
X10363563Y-8289508D01*
X10363563Y-8289508D02*
X10354039Y-8299031D01*
X10354039Y-8299031D02*
X10334991Y-8327603D01*
X10334991Y-8327603D02*
X10325467Y-8365698D01*
X10325467Y-8365698D02*
X10325467Y-8441889D01*
X10325467Y-8441889D02*
X10334991Y-8460936D01*
X10334991Y-8460936D02*
X10344515Y-8470460D01*
X10344515Y-8470460D02*
X10363563Y-8479984D01*
X10363563Y-8479984D02*
X10401658Y-8479984D01*
X10401658Y-8479984D02*
X10420705Y-8470460D01*
X10420705Y-8470460D02*
X10430229Y-8460936D01*
X10430229Y-8460936D02*
X10439753Y-8441889D01*
X10439753Y-8441889D02*
X10439753Y-8394270D01*
X10439753Y-8394270D02*
X10430229Y-8375222D01*
X10430229Y-8375222D02*
X10420705Y-8365698D01*
X10420705Y-8365698D02*
X10401658Y-8356174D01*
X10401658Y-8356174D02*
X10363563Y-8356174D01*
X10363563Y-8356174D02*
X10344515Y-8365698D01*
X10344515Y-8365698D02*
X10334991Y-8375222D01*
X10334991Y-8375222D02*
X10325467Y-8394270D01*
X10620705Y-8279984D02*
X10525467Y-8279984D01*
X10525467Y-8279984D02*
X10515944Y-8375222D01*
X10515944Y-8375222D02*
X10525467Y-8365698D01*
X10525467Y-8365698D02*
X10544515Y-8356174D01*
X10544515Y-8356174D02*
X10592134Y-8356174D01*
X10592134Y-8356174D02*
X10611182Y-8365698D01*
X10611182Y-8365698D02*
X10620705Y-8375222D01*
X10620705Y-8375222D02*
X10630229Y-8394270D01*
X10630229Y-8394270D02*
X10630229Y-8441889D01*
X10630229Y-8441889D02*
X10620705Y-8460936D01*
X10620705Y-8460936D02*
X10611182Y-8470460D01*
X10611182Y-8470460D02*
X10592134Y-8479984D01*
X10592134Y-8479984D02*
X10544515Y-8479984D01*
X10544515Y-8479984D02*
X10525467Y-8470460D01*
X10525467Y-8470460D02*
X10515944Y-8460936D01*
X10754039Y-8279984D02*
X10773086Y-8279984D01*
X10773086Y-8279984D02*
X10792134Y-8289508D01*
X10792134Y-8289508D02*
X10801658Y-8299031D01*
X10801658Y-8299031D02*
X10811182Y-8318079D01*
X10811182Y-8318079D02*
X10820705Y-8356174D01*
X10820705Y-8356174D02*
X10820705Y-8403793D01*
X10820705Y-8403793D02*
X10811182Y-8441889D01*
X10811182Y-8441889D02*
X10801658Y-8460936D01*
X10801658Y-8460936D02*
X10792134Y-8470460D01*
X10792134Y-8470460D02*
X10773086Y-8479984D01*
X10773086Y-8479984D02*
X10754039Y-8479984D01*
X10754039Y-8479984D02*
X10734991Y-8470460D01*
X10734991Y-8470460D02*
X10725467Y-8460936D01*
X10725467Y-8460936D02*
X10715944Y-8441889D01*
X10715944Y-8441889D02*
X10706420Y-8403793D01*
X10706420Y-8403793D02*
X10706420Y-8356174D01*
X10706420Y-8356174D02*
X10715944Y-8318079D01*
X10715944Y-8318079D02*
X10725467Y-8299031D01*
X10725467Y-8299031D02*
X10734991Y-8289508D01*
X10734991Y-8289508D02*
X10754039Y-8279984D01*
X10906420Y-8479984D02*
X10906420Y-8346650D01*
X10906420Y-8365698D02*
X10915944Y-8356174D01*
X10915944Y-8356174D02*
X10934991Y-8346650D01*
X10934991Y-8346650D02*
X10963563Y-8346650D01*
X10963563Y-8346650D02*
X10982610Y-8356174D01*
X10982610Y-8356174D02*
X10992134Y-8375222D01*
X10992134Y-8375222D02*
X10992134Y-8479984D01*
X10992134Y-8375222D02*
X11001658Y-8356174D01*
X11001658Y-8356174D02*
X11020705Y-8346650D01*
X11020705Y-8346650D02*
X11049277Y-8346650D01*
X11049277Y-8346650D02*
X11068325Y-8356174D01*
X11068325Y-8356174D02*
X11077848Y-8375222D01*
X11077848Y-8375222D02*
X11077848Y-8479984D01*
X11173086Y-8479984D02*
X11173086Y-8346650D01*
X11173086Y-8365698D02*
X11182610Y-8356174D01*
X11182610Y-8356174D02*
X11201658Y-8346650D01*
X11201658Y-8346650D02*
X11230229Y-8346650D01*
X11230229Y-8346650D02*
X11249277Y-8356174D01*
X11249277Y-8356174D02*
X11258801Y-8375222D01*
X11258801Y-8375222D02*
X11258801Y-8479984D01*
X11258801Y-8375222D02*
X11268324Y-8356174D01*
X11268324Y-8356174D02*
X11287372Y-8346650D01*
X11287372Y-8346650D02*
X11315943Y-8346650D01*
X11315943Y-8346650D02*
X11334991Y-8356174D01*
X11334991Y-8356174D02*
X11344515Y-8375222D01*
X11344515Y-8375222D02*
X11344515Y-8479984D01*
X11734991Y-8270460D02*
X11563563Y-8527603D01*
X11992134Y-8279984D02*
X12011182Y-8279984D01*
X12011182Y-8279984D02*
X12030229Y-8289508D01*
X12030229Y-8289508D02*
X12039753Y-8299031D01*
X12039753Y-8299031D02*
X12049277Y-8318079D01*
X12049277Y-8318079D02*
X12058801Y-8356174D01*
X12058801Y-8356174D02*
X12058801Y-8403793D01*
X12058801Y-8403793D02*
X12049277Y-8441889D01*
X12049277Y-8441889D02*
X12039753Y-8460936D01*
X12039753Y-8460936D02*
X12030229Y-8470460D01*
X12030229Y-8470460D02*
X12011182Y-8479984D01*
X12011182Y-8479984D02*
X11992134Y-8479984D01*
X11992134Y-8479984D02*
X11973086Y-8470460D01*
X11973086Y-8470460D02*
X11963563Y-8460936D01*
X11963563Y-8460936D02*
X11954039Y-8441889D01*
X11954039Y-8441889D02*
X11944515Y-8403793D01*
X11944515Y-8403793D02*
X11944515Y-8356174D01*
X11944515Y-8356174D02*
X11954039Y-8318079D01*
X11954039Y-8318079D02*
X11963563Y-8299031D01*
X11963563Y-8299031D02*
X11973086Y-8289508D01*
X11973086Y-8289508D02*
X11992134Y-8279984D01*
X12144515Y-8460936D02*
X12154039Y-8470460D01*
X12154039Y-8470460D02*
X12144515Y-8479984D01*
X12144515Y-8479984D02*
X12134991Y-8470460D01*
X12134991Y-8470460D02*
X12144515Y-8460936D01*
X12144515Y-8460936D02*
X12144515Y-8479984D01*
X12277848Y-8279984D02*
X12296896Y-8279984D01*
X12296896Y-8279984D02*
X12315944Y-8289508D01*
X12315944Y-8289508D02*
X12325467Y-8299031D01*
X12325467Y-8299031D02*
X12334991Y-8318079D01*
X12334991Y-8318079D02*
X12344515Y-8356174D01*
X12344515Y-8356174D02*
X12344515Y-8403793D01*
X12344515Y-8403793D02*
X12334991Y-8441889D01*
X12334991Y-8441889D02*
X12325467Y-8460936D01*
X12325467Y-8460936D02*
X12315944Y-8470460D01*
X12315944Y-8470460D02*
X12296896Y-8479984D01*
X12296896Y-8479984D02*
X12277848Y-8479984D01*
X12277848Y-8479984D02*
X12258801Y-8470460D01*
X12258801Y-8470460D02*
X12249277Y-8460936D01*
X12249277Y-8460936D02*
X12239753Y-8441889D01*
X12239753Y-8441889D02*
X12230229Y-8403793D01*
X12230229Y-8403793D02*
X12230229Y-8356174D01*
X12230229Y-8356174D02*
X12239753Y-8318079D01*
X12239753Y-8318079D02*
X12249277Y-8299031D01*
X12249277Y-8299031D02*
X12258801Y-8289508D01*
X12258801Y-8289508D02*
X12277848Y-8279984D01*
X12420706Y-8299031D02*
X12430229Y-8289508D01*
X12430229Y-8289508D02*
X12449277Y-8279984D01*
X12449277Y-8279984D02*
X12496896Y-8279984D01*
X12496896Y-8279984D02*
X12515944Y-8289508D01*
X12515944Y-8289508D02*
X12525467Y-8299031D01*
X12525467Y-8299031D02*
X12534991Y-8318079D01*
X12534991Y-8318079D02*
X12534991Y-8337127D01*
X12534991Y-8337127D02*
X12525467Y-8365698D01*
X12525467Y-8365698D02*
X12411182Y-8479984D01*
X12411182Y-8479984D02*
X12534991Y-8479984D01*
X12715944Y-8279984D02*
X12620706Y-8279984D01*
X12620706Y-8279984D02*
X12611182Y-8375222D01*
X12611182Y-8375222D02*
X12620706Y-8365698D01*
X12620706Y-8365698D02*
X12639753Y-8356174D01*
X12639753Y-8356174D02*
X12687372Y-8356174D01*
X12687372Y-8356174D02*
X12706420Y-8365698D01*
X12706420Y-8365698D02*
X12715944Y-8375222D01*
X12715944Y-8375222D02*
X12725467Y-8394270D01*
X12725467Y-8394270D02*
X12725467Y-8441889D01*
X12725467Y-8441889D02*
X12715944Y-8460936D01*
X12715944Y-8460936D02*
X12706420Y-8470460D01*
X12706420Y-8470460D02*
X12687372Y-8479984D01*
X12687372Y-8479984D02*
X12639753Y-8479984D01*
X12639753Y-8479984D02*
X12620706Y-8470460D01*
X12620706Y-8470460D02*
X12611182Y-8460936D01*
X12896896Y-8279984D02*
X12858801Y-8279984D01*
X12858801Y-8279984D02*
X12839753Y-8289508D01*
X12839753Y-8289508D02*
X12830229Y-8299031D01*
X12830229Y-8299031D02*
X12811182Y-8327603D01*
X12811182Y-8327603D02*
X12801658Y-8365698D01*
X12801658Y-8365698D02*
X12801658Y-8441889D01*
X12801658Y-8441889D02*
X12811182Y-8460936D01*
X12811182Y-8460936D02*
X12820706Y-8470460D01*
X12820706Y-8470460D02*
X12839753Y-8479984D01*
X12839753Y-8479984D02*
X12877848Y-8479984D01*
X12877848Y-8479984D02*
X12896896Y-8470460D01*
X12896896Y-8470460D02*
X12906420Y-8460936D01*
X12906420Y-8460936D02*
X12915944Y-8441889D01*
X12915944Y-8441889D02*
X12915944Y-8394270D01*
X12915944Y-8394270D02*
X12906420Y-8375222D01*
X12906420Y-8375222D02*
X12896896Y-8365698D01*
X12896896Y-8365698D02*
X12877848Y-8356174D01*
X12877848Y-8356174D02*
X12839753Y-8356174D01*
X12839753Y-8356174D02*
X12820706Y-8365698D01*
X12820706Y-8365698D02*
X12811182Y-8375222D01*
X12811182Y-8375222D02*
X12801658Y-8394270D01*
X12992134Y-8279984D02*
X12992134Y-8318079D01*
X13068325Y-8279984D02*
X13068325Y-8318079D01*
X13363563Y-8556174D02*
X13354039Y-8546650D01*
X13354039Y-8546650D02*
X13334991Y-8518079D01*
X13334991Y-8518079D02*
X13325468Y-8499031D01*
X13325468Y-8499031D02*
X13315944Y-8470460D01*
X13315944Y-8470460D02*
X13306420Y-8422841D01*
X13306420Y-8422841D02*
X13306420Y-8384746D01*
X13306420Y-8384746D02*
X13315944Y-8337127D01*
X13315944Y-8337127D02*
X13325468Y-8308555D01*
X13325468Y-8308555D02*
X13334991Y-8289508D01*
X13334991Y-8289508D02*
X13354039Y-8260936D01*
X13354039Y-8260936D02*
X13363563Y-8251412D01*
X13544515Y-8479984D02*
X13430229Y-8479984D01*
X13487372Y-8479984D02*
X13487372Y-8279984D01*
X13487372Y-8279984D02*
X13468325Y-8308555D01*
X13468325Y-8308555D02*
X13449277Y-8327603D01*
X13449277Y-8327603D02*
X13430229Y-8337127D01*
X13611182Y-8279984D02*
X13744515Y-8279984D01*
X13744515Y-8279984D02*
X13658801Y-8479984D01*
X13973087Y-8479984D02*
X13973087Y-8279984D01*
X14058801Y-8479984D02*
X14058801Y-8375222D01*
X14058801Y-8375222D02*
X14049277Y-8356174D01*
X14049277Y-8356174D02*
X14030230Y-8346650D01*
X14030230Y-8346650D02*
X14001658Y-8346650D01*
X14001658Y-8346650D02*
X13982610Y-8356174D01*
X13982610Y-8356174D02*
X13973087Y-8365698D01*
X14182610Y-8479984D02*
X14163563Y-8470460D01*
X14163563Y-8470460D02*
X14154039Y-8460936D01*
X14154039Y-8460936D02*
X14144515Y-8441889D01*
X14144515Y-8441889D02*
X14144515Y-8384746D01*
X14144515Y-8384746D02*
X14154039Y-8365698D01*
X14154039Y-8365698D02*
X14163563Y-8356174D01*
X14163563Y-8356174D02*
X14182610Y-8346650D01*
X14182610Y-8346650D02*
X14211182Y-8346650D01*
X14211182Y-8346650D02*
X14230230Y-8356174D01*
X14230230Y-8356174D02*
X14239753Y-8365698D01*
X14239753Y-8365698D02*
X14249277Y-8384746D01*
X14249277Y-8384746D02*
X14249277Y-8441889D01*
X14249277Y-8441889D02*
X14239753Y-8460936D01*
X14239753Y-8460936D02*
X14230230Y-8470460D01*
X14230230Y-8470460D02*
X14211182Y-8479984D01*
X14211182Y-8479984D02*
X14182610Y-8479984D01*
X14363563Y-8479984D02*
X14344515Y-8470460D01*
X14344515Y-8470460D02*
X14334991Y-8451412D01*
X14334991Y-8451412D02*
X14334991Y-8279984D01*
X14515944Y-8470460D02*
X14496896Y-8479984D01*
X14496896Y-8479984D02*
X14458801Y-8479984D01*
X14458801Y-8479984D02*
X14439753Y-8470460D01*
X14439753Y-8470460D02*
X14430230Y-8451412D01*
X14430230Y-8451412D02*
X14430230Y-8375222D01*
X14430230Y-8375222D02*
X14439753Y-8356174D01*
X14439753Y-8356174D02*
X14458801Y-8346650D01*
X14458801Y-8346650D02*
X14496896Y-8346650D01*
X14496896Y-8346650D02*
X14515944Y-8356174D01*
X14515944Y-8356174D02*
X14525468Y-8375222D01*
X14525468Y-8375222D02*
X14525468Y-8394270D01*
X14525468Y-8394270D02*
X14430230Y-8413317D01*
X14601658Y-8470460D02*
X14620706Y-8479984D01*
X14620706Y-8479984D02*
X14658801Y-8479984D01*
X14658801Y-8479984D02*
X14677849Y-8470460D01*
X14677849Y-8470460D02*
X14687372Y-8451412D01*
X14687372Y-8451412D02*
X14687372Y-8441889D01*
X14687372Y-8441889D02*
X14677849Y-8422841D01*
X14677849Y-8422841D02*
X14658801Y-8413317D01*
X14658801Y-8413317D02*
X14630230Y-8413317D01*
X14630230Y-8413317D02*
X14611182Y-8403793D01*
X14611182Y-8403793D02*
X14601658Y-8384746D01*
X14601658Y-8384746D02*
X14601658Y-8375222D01*
X14601658Y-8375222D02*
X14611182Y-8356174D01*
X14611182Y-8356174D02*
X14630230Y-8346650D01*
X14630230Y-8346650D02*
X14658801Y-8346650D01*
X14658801Y-8346650D02*
X14677849Y-8356174D01*
X14754039Y-8556174D02*
X14763563Y-8546650D01*
X14763563Y-8546650D02*
X14782611Y-8518079D01*
X14782611Y-8518079D02*
X14792134Y-8499031D01*
X14792134Y-8499031D02*
X14801658Y-8470460D01*
X14801658Y-8470460D02*
X14811182Y-8422841D01*
X14811182Y-8422841D02*
X14811182Y-8384746D01*
X14811182Y-8384746D02*
X14801658Y-8337127D01*
X14801658Y-8337127D02*
X14792134Y-8308555D01*
X14792134Y-8308555D02*
X14782611Y-8289508D01*
X14782611Y-8289508D02*
X14763563Y-8260936D01*
X14763563Y-8260936D02*
X14754039Y-8251412D01*
M02*
