M48
; DRILL file {KiCad 8.0.4-8.0.4-0~ubuntu24.04.1} date 2024-08-16T16:11:12+0200
; FORMAT={-:-/ absolute / inch / decimal}
; #@! TF.CreationDate,2024-08-16T16:11:12+02:00
; #@! TF.GenerationSoftware,Kicad,Pcbnew,8.0.4-8.0.4-0~ubuntu24.04.1
; #@! TF.FileFunction,Plated,1,4,PTH
FMAT,2
INCH
; #@! TA.AperFunction,Plated,PTH,ViaDrill
T1C0.0079
; #@! TA.AperFunction,Plated,PTH,ComponentDrill
T2C0.0236
; #@! TA.AperFunction,Plated,PTH,ComponentDrill
T3C0.0256
%
G90
G05
T1
X3.8967Y-2.626
X3.9016Y-2.2244
X3.9179Y-2.5034
X3.9274Y-2.626
X3.9582Y-2.626
X3.9646Y-2.4173
X3.9796Y-2.3375
X3.989Y-2.8228
X3.989Y-2.6264
X3.989Y-2.6575
X3.989Y-2.689
X3.989Y-2.7205
X4.0039Y-2.7851
X4.0087Y-2.2008
X4.0157Y-2.7401
X4.0197Y-2.6327
X4.0205Y-2.8228
X4.024Y-2.3382
X4.0275Y-2.3976
X4.0396Y-2.7847
X4.0433Y-2.7205
X4.0441Y-2.2441
X4.0456Y-2.6512
X4.0463Y-2.6895
X4.048Y-2.6181
X4.052Y-2.8228
X4.0725Y-2.7702
X4.0776Y-2.4464
X4.0795Y-2.2441
X4.0827Y-2.4961
X4.0835Y-2.8228
X4.0928Y-2.7411
X4.0945Y-2.5485
X4.1036Y-2.4326
X4.1037Y-2.6496
X4.1037Y-2.6813
X4.1039Y-2.7126
X4.115Y-2.7795
X4.115Y-2.8228
X4.115Y-2.4646
X4.115Y-2.4921
X4.115Y-2.5197
X4.1359Y-2.5492
X4.1425Y-2.4646
X4.1425Y-2.4921
X4.1425Y-2.5197
X4.1465Y-2.8228
X4.1535Y-2.3228
X4.1575Y-2.7055
X4.1654Y-2.5492
X4.1674Y-2.4323
X4.1701Y-2.4646
X4.1701Y-2.4921
X4.1701Y-2.5197
X4.1772Y-2.8228
X4.189Y-2.2953
X4.193Y-2.5605
X4.1971Y-2.4434
X4.1984Y-2.199
X4.1996Y-2.4728
X4.1996Y-2.5023
X4.2006Y-2.532
X4.2087Y-2.8228
X4.2095Y-2.6378
X4.2213Y-2.5853
X4.2291Y-2.2244
X4.2402Y-2.8228
X4.2547Y-2.3964
X4.2608Y-2.6
X4.2717Y-2.8228
X4.2756Y-2.7323
X4.2801Y-2.455
X4.2814Y-2.6309
X4.3031Y-2.8228
X4.3079Y-2.2283
X4.31Y-2.6759
X4.3346Y-2.8228
T3
X3.854Y-2.25
X3.854Y-2.3
X3.854Y-2.35
X3.854Y-2.4
X3.854Y-2.45
X3.854Y-2.5
X3.854Y-2.55
X3.854Y-2.6
X4.3543Y-2.25
X4.3543Y-2.3
X4.3543Y-2.35
X4.3543Y-2.4
X4.3543Y-2.45
X4.3543Y-2.5
X4.3543Y-2.55
X4.3543Y-2.6
X4.3543Y-2.65
T2
G00X3.8835Y-1.9904
M15
G01X3.8835Y-2.0337
M16
G05
G00X3.8835Y-2.1537
M15
G01X3.8835Y-2.1852
M16
G05
G00X4.3244Y-1.9904
M15
G01X4.3244Y-2.0337
M16
G05
G00X4.3244Y-2.1537
M15
G01X4.3244Y-2.1852
M16
G05
M30
