%TF.GenerationSoftware,KiCad,Pcbnew,8.0.4-8.0.4-0~ubuntu24.04.1*%
%TF.CreationDate,2024-08-16T16:11:10+02:00*%
%TF.ProjectId,epi_ESP32 (2023_01_16 13_30_41 UTC),6570695f-4553-4503-9332-202832303233,1_1*%
%TF.SameCoordinates,Original*%
%TF.FileFunction,Copper,L1,Top*%
%TF.FilePolarity,Positive*%
%FSLAX46Y46*%
G04 Gerber Fmt 4.6, Leading zero omitted, Abs format (unit mm)*
G04 Created by KiCad (PCBNEW 8.0.4-8.0.4-0~ubuntu24.04.1) date 2024-08-16 16:11:10*
%MOMM*%
%LPD*%
G01*
G04 APERTURE LIST*
G04 Aperture macros list*
%AMRoundRect*
0 Rectangle with rounded corners*
0 $1 Rounding radius*
0 $2 $3 $4 $5 $6 $7 $8 $9 X,Y pos of 4 corners*
0 Add a 4 corners polygon primitive as box body*
4,1,4,$2,$3,$4,$5,$6,$7,$8,$9,$2,$3,0*
0 Add four circle primitives for the rounded corners*
1,1,$1+$1,$2,$3*
1,1,$1+$1,$4,$5*
1,1,$1+$1,$6,$7*
1,1,$1+$1,$8,$9*
0 Add four rect primitives between the rounded corners*
20,1,$1+$1,$2,$3,$4,$5,0*
20,1,$1+$1,$4,$5,$6,$7,0*
20,1,$1+$1,$6,$7,$8,$9,0*
20,1,$1+$1,$8,$9,$2,$3,0*%
G04 Aperture macros list end*
%TA.AperFunction,SMDPad,CuDef*%
%ADD10RoundRect,0.062500X0.062500X-0.375000X0.062500X0.375000X-0.062500X0.375000X-0.062500X-0.375000X0*%
%TD*%
%TA.AperFunction,SMDPad,CuDef*%
%ADD11RoundRect,0.062500X0.375000X-0.062500X0.375000X0.062500X-0.375000X0.062500X-0.375000X-0.062500X0*%
%TD*%
%TA.AperFunction,SMDPad,CuDef*%
%ADD12R,2.000000X2.000000*%
%TD*%
%TA.AperFunction,SMDPad,CuDef*%
%ADD13RoundRect,0.140000X-0.170000X0.140000X-0.170000X-0.140000X0.170000X-0.140000X0.170000X0.140000X0*%
%TD*%
%TA.AperFunction,ComponentPad*%
%ADD14RoundRect,0.250000X-0.500000X-0.250000X0.500000X-0.250000X0.500000X0.250000X-0.500000X0.250000X0*%
%TD*%
%TA.AperFunction,SMDPad,CuDef*%
%ADD15RoundRect,0.135000X0.185000X-0.135000X0.185000X0.135000X-0.185000X0.135000X-0.185000X-0.135000X0*%
%TD*%
%TA.AperFunction,SMDPad,CuDef*%
%ADD16RoundRect,0.135000X0.135000X0.185000X-0.135000X0.185000X-0.135000X-0.185000X0.135000X-0.185000X0*%
%TD*%
%TA.AperFunction,SMDPad,CuDef*%
%ADD17R,0.800000X0.900000*%
%TD*%
%TA.AperFunction,SMDPad,CuDef*%
%ADD18RoundRect,0.140000X0.140000X0.170000X-0.140000X0.170000X-0.140000X-0.170000X0.140000X-0.170000X0*%
%TD*%
%TA.AperFunction,SMDPad,CuDef*%
%ADD19RoundRect,0.140000X0.170000X-0.140000X0.170000X0.140000X-0.170000X0.140000X-0.170000X-0.140000X0*%
%TD*%
%TA.AperFunction,SMDPad,CuDef*%
%ADD20R,1.300000X0.550000*%
%TD*%
%TA.AperFunction,SMDPad,CuDef*%
%ADD21RoundRect,0.135000X-0.135000X-0.185000X0.135000X-0.185000X0.135000X0.185000X-0.135000X0.185000X0*%
%TD*%
%TA.AperFunction,SMDPad,CuDef*%
%ADD22RoundRect,0.135000X-0.185000X0.135000X-0.185000X-0.135000X0.185000X-0.135000X0.185000X0.135000X0*%
%TD*%
%TA.AperFunction,SMDPad,CuDef*%
%ADD23RoundRect,0.225000X0.225000X0.250000X-0.225000X0.250000X-0.225000X-0.250000X0.225000X-0.250000X0*%
%TD*%
%TA.AperFunction,SMDPad,CuDef*%
%ADD24R,0.615500X1.000000*%
%TD*%
%TA.AperFunction,SMDPad,CuDef*%
%ADD25R,0.307750X1.000000*%
%TD*%
%TA.AperFunction,SMDPad,CuDef*%
%ADD26R,0.307750X0.500000*%
%TD*%
%TA.AperFunction,SMDPad,CuDef*%
%ADD27R,0.307750X1.000860*%
%TD*%
%TA.AperFunction,SMDPad,CuDef*%
%ADD28R,0.607750X0.300000*%
%TD*%
%TA.AperFunction,ComponentPad*%
%ADD29O,1.200000X2.000000*%
%TD*%
%TA.AperFunction,ComponentPad*%
%ADD30O,1.200000X2.300000*%
%TD*%
%TA.AperFunction,SMDPad,CuDef*%
%ADD31RoundRect,0.147500X0.147500X0.172500X-0.147500X0.172500X-0.147500X-0.172500X0.147500X-0.172500X0*%
%TD*%
%TA.AperFunction,SMDPad,CuDef*%
%ADD32RoundRect,0.147500X-0.172500X0.147500X-0.172500X-0.147500X0.172500X-0.147500X0.172500X0.147500X0*%
%TD*%
%TA.AperFunction,SMDPad,CuDef*%
%ADD33RoundRect,0.150000X-0.150000X0.512500X-0.150000X-0.512500X0.150000X-0.512500X0.150000X0.512500X0*%
%TD*%
%TA.AperFunction,SMDPad,CuDef*%
%ADD34R,0.600000X0.450000*%
%TD*%
%TA.AperFunction,SMDPad,CuDef*%
%ADD35R,0.400000X0.800000*%
%TD*%
%TA.AperFunction,ViaPad*%
%ADD36C,0.600000*%
%TD*%
%TA.AperFunction,Conductor*%
%ADD37C,0.350000*%
%TD*%
%TA.AperFunction,Conductor*%
%ADD38C,0.250000*%
%TD*%
%TA.AperFunction,Conductor*%
%ADD39C,0.130000*%
%TD*%
%TA.AperFunction,Conductor*%
%ADD40C,0.200000*%
%TD*%
%TA.AperFunction,Conductor*%
%ADD41C,0.243000*%
%TD*%
%TA.AperFunction,Conductor*%
%ADD42C,0.150000*%
%TD*%
G04 APERTURE END LIST*
%TA.AperFunction,EtchedComponent*%
%TO.C,AE1*%
G36*
X98620036Y-71200000D02*
G01*
X98120036Y-71200000D01*
X98120036Y-67500000D01*
X98620036Y-67500000D01*
X98620036Y-71200000D01*
G37*
%TD.AperFunction*%
%TA.AperFunction,EtchedComponent*%
G36*
X98770036Y-72000000D02*
G01*
X98120036Y-72000000D01*
X98120036Y-71200000D01*
X98770036Y-71200000D01*
X98770036Y-72000000D01*
G37*
%TD.AperFunction*%
%TA.AperFunction,EtchedComponent*%
G36*
X100120036Y-69000000D02*
G01*
X100620036Y-69000000D01*
X100620036Y-68000000D01*
X100120036Y-68000000D01*
X100120036Y-69000000D01*
G37*
%TD.AperFunction*%
%TA.AperFunction,EtchedComponent*%
G36*
X100620036Y-68000000D02*
G01*
X98620036Y-68000000D01*
X98620036Y-67500000D01*
X100620036Y-67500000D01*
X100620036Y-68000000D01*
G37*
%TD.AperFunction*%
%TA.AperFunction,EtchedComponent*%
G36*
X100720036Y-72000000D02*
G01*
X99870036Y-72000000D01*
X99870036Y-69770000D01*
X100720036Y-69770000D01*
X100720036Y-72000000D01*
G37*
%TD.AperFunction*%
%TD*%
D10*
%TO.P,U1,1,LNA_IN*%
%TO.N,Net-(U1-LNA_IN)*%
X103470036Y-65737500D03*
%TO.P,U1,2,VDD3P3*%
%TO.N,Net-(C5-Pad2)*%
X103970036Y-65737500D03*
%TO.P,U1,3,VDD3P3*%
X104470036Y-65737500D03*
%TO.P,U1,4,XTAL_32K_P/ADC1_CH0*%
%TO.N,IO0*%
X104970036Y-65737500D03*
%TO.P,U1,5,XTAL_32K_N/ADC1_CH1*%
%TO.N,IO1*%
X105470036Y-65737500D03*
%TO.P,U1,6,GPIO2/ADC1_CH2*%
%TO.N,IO2*%
X105970036Y-65737500D03*
%TO.P,U1,7,CHIP_EN*%
%TO.N,EN*%
X106470036Y-65737500D03*
%TO.P,U1,8,GPIO3/ADC1_CH3*%
%TO.N,IO3*%
X106970036Y-65737500D03*
D11*
%TO.P,U1,9,MTMS/GPIO4/ADC1_CH4*%
%TO.N,IO4*%
X107657536Y-65050000D03*
%TO.P,U1,10,MTDI/GPIO5/ADC2_CH0*%
%TO.N,IO5*%
X107657536Y-64550000D03*
%TO.P,U1,11,VDD3P3_RTC*%
%TO.N,+3.3V*%
X107657536Y-64050000D03*
%TO.P,U1,12,MTCK/GPIO6*%
%TO.N,IO6*%
X107657536Y-63550000D03*
%TO.P,U1,13,MTDO/GPIO7*%
%TO.N,IO7*%
X107657536Y-63050000D03*
%TO.P,U1,14,GPIO8*%
%TO.N,IO8*%
X107657536Y-62550000D03*
%TO.P,U1,15,GPIO9/BOOT*%
%TO.N,BOOT*%
X107657536Y-62050000D03*
%TO.P,U1,16,GPIO10*%
%TO.N,IO10*%
X107657536Y-61550000D03*
D10*
%TO.P,U1,17,VDD3P3_CPU*%
%TO.N,+3.3V*%
X106970036Y-60862500D03*
%TO.P,U1,18,VDD_SPI/GPIO11*%
%TO.N,Net-(U1-VDD_SPI{slash}GPIO11)*%
X106470036Y-60862500D03*
%TO.P,U1,19,SPIHD/GPIO12*%
%TO.N,unconnected-(U1-SPIHD{slash}GPIO12-Pad19)*%
X105970036Y-60862500D03*
%TO.P,U1,20,SPIWP/GPIO13*%
%TO.N,unconnected-(U1-SPIWP{slash}GPIO13-Pad20)*%
X105470036Y-60862500D03*
%TO.P,U1,21,SPICS0/GPIO14*%
%TO.N,unconnected-(U1-SPICS0{slash}GPIO14-Pad21)*%
X104970036Y-60862500D03*
%TO.P,U1,22,SPICLK/GPIO15*%
%TO.N,unconnected-(U1-SPICLK{slash}GPIO15-Pad22)*%
X104470036Y-60862500D03*
%TO.P,U1,23,SPID/GPIO16*%
%TO.N,unconnected-(U1-SPID{slash}GPIO16-Pad23)*%
X103970036Y-60862500D03*
%TO.P,U1,24,SPIQ/GPIO17*%
%TO.N,unconnected-(U1-SPIQ{slash}GPIO17-Pad24)*%
X103470036Y-60862500D03*
D11*
%TO.P,U1,25,GPIO18/USB_D-*%
%TO.N,D-*%
X102782536Y-61550000D03*
%TO.P,U1,26,GPIO19/USB_D+*%
%TO.N,D+*%
X102782536Y-62050000D03*
%TO.P,U1,27,U0RXD/GPIO20*%
%TO.N,U0RXD*%
X102782536Y-62550000D03*
%TO.P,U1,28,U0TXD/GPIO21*%
%TO.N,U0TXD*%
X102782536Y-63050000D03*
%TO.P,U1,29,XTAL_N*%
%TO.N,Net-(U1-XTAL_N)*%
X102782536Y-63550000D03*
%TO.P,U1,30,XTAL_P*%
%TO.N,Net-(U1-XTAL_P)*%
X102782536Y-64050000D03*
%TO.P,U1,31,VDDA*%
%TO.N,+3.3V*%
X102782536Y-64550000D03*
%TO.P,U1,32,VDDA*%
X102782536Y-65050000D03*
D12*
%TO.P,U1,33,GND*%
%TO.N,GND*%
X105220036Y-63300000D03*
%TD*%
D13*
%TO.P,C13,1*%
%TO.N,GND*%
X108850000Y-60620000D03*
%TO.P,C13,2*%
%TO.N,+3.3V*%
X108850000Y-61580000D03*
%TD*%
D14*
%TO.P,J2,1,Pin_1*%
%TO.N,+3.3V*%
X110600000Y-57150000D03*
%TO.P,J2,2,Pin_2*%
%TO.N,GND*%
X110600000Y-58420000D03*
%TO.P,J2,3,Pin_3*%
%TO.N,VCC*%
X110600000Y-59690000D03*
%TO.P,J2,4,Pin_4*%
%TO.N,EN*%
X110600000Y-60960000D03*
%TO.P,J2,5,Pin_5*%
%TO.N,BOOT*%
X110600000Y-62230000D03*
%TO.P,J2,6,Pin_6*%
%TO.N,IO10*%
X110600000Y-63500000D03*
%TO.P,J2,7,Pin_7*%
%TO.N,IO8*%
X110600000Y-64770000D03*
%TO.P,J2,8,Pin_8*%
%TO.N,IO7*%
X110600000Y-66040000D03*
%TO.P,J2,9,Pin_9*%
%TO.N,IO6*%
X110600000Y-67310000D03*
%TD*%
D15*
%TO.P,RV2,1*%
%TO.N,GND*%
X102700000Y-58010000D03*
%TO.P,RV2,2*%
%TO.N,D+*%
X102700000Y-56990000D03*
%TD*%
D16*
%TO.P,R5,1*%
%TO.N,Net-(J3-CC1)*%
X105780036Y-56900000D03*
%TO.P,R5,2*%
%TO.N,GND*%
X104760036Y-56900000D03*
%TD*%
D17*
%TO.P,Y1,1,1*%
%TO.N,Net-(C4-Pad2)*%
X101400000Y-63700000D03*
%TO.P,Y1,2,2*%
%TO.N,GND*%
X101400000Y-62300000D03*
%TO.P,Y1,3,3*%
%TO.N,Net-(U1-XTAL_N)*%
X100300000Y-62300000D03*
%TO.P,Y1,4,4*%
%TO.N,GND*%
X100300000Y-63700000D03*
%TD*%
D18*
%TO.P,C2,1*%
%TO.N,GND*%
X108380000Y-59700000D03*
%TO.P,C2,2*%
%TO.N,+3.3V*%
X107420000Y-59700000D03*
%TD*%
D19*
%TO.P,C7,1*%
%TO.N,GND*%
X108850000Y-65380000D03*
%TO.P,C7,2*%
%TO.N,+3.3V*%
X108850000Y-64420000D03*
%TD*%
D20*
%TO.P,SW2,1,A*%
%TO.N,EN*%
X107000000Y-68675000D03*
%TO.P,SW2,3,B*%
%TO.N,GND*%
X107000000Y-71325000D03*
%TD*%
D21*
%TO.P,R2,1*%
%TO.N,Net-(C4-Pad2)*%
X100640000Y-64900000D03*
%TO.P,R2,2*%
%TO.N,Net-(U1-XTAL_P)*%
X101660000Y-64900000D03*
%TD*%
%TO.P,RV1,1*%
%TO.N,+5V*%
X106610036Y-56900000D03*
%TO.P,RV1,2*%
%TO.N,GND*%
X107630036Y-56900000D03*
%TD*%
D18*
%TO.P,C4,1*%
%TO.N,GND*%
X101605000Y-65900000D03*
%TO.P,C4,2*%
%TO.N,Net-(C4-Pad2)*%
X100645000Y-65900000D03*
%TD*%
D22*
%TO.P,L1,1*%
%TO.N,Net-(U1-LNA_IN)*%
X103470036Y-67890000D03*
%TO.P,L1,2*%
%TO.N,Net-(AE1-A)*%
X103470036Y-68910000D03*
%TD*%
D19*
%TO.P,C1,1*%
%TO.N,GND*%
X102100000Y-67830000D03*
%TO.P,C1,2*%
%TO.N,+3.3V*%
X102100000Y-66870000D03*
%TD*%
D18*
%TO.P,C11,1*%
%TO.N,GND*%
X108800036Y-66875000D03*
%TO.P,C11,2*%
%TO.N,EN*%
X107840036Y-66875000D03*
%TD*%
D20*
%TO.P,SW1,1,A*%
%TO.N,BOOT*%
X108700000Y-68675000D03*
%TO.P,SW1,3,B*%
%TO.N,GND*%
X108700000Y-71325000D03*
%TD*%
D23*
%TO.P,C10,1*%
%TO.N,GND*%
X104375000Y-59400000D03*
%TO.P,C10,2*%
%TO.N,+3.3V*%
X102825000Y-59400000D03*
%TD*%
D24*
%TO.P,J3,A1,GND*%
%TO.N,GND*%
X107440000Y-55855000D03*
X101040000Y-55855000D03*
%TO.P,J3,A4,VBUS*%
%TO.N,+5V*%
X106640000Y-55855000D03*
D25*
%TO.P,J3,A5,CC1*%
%TO.N,Net-(J3-CC1)*%
X105490923Y-55855000D03*
D26*
%TO.P,J3,A6,D+*%
%TO.N,D+*%
X104489970Y-56105000D03*
D27*
%TO.P,J3,A7,D-*%
%TO.N,D-*%
X103991169Y-55855430D03*
D24*
%TO.P,J3,A9,VBUS*%
%TO.N,+5V*%
X101840000Y-55860000D03*
D25*
%TO.P,J3,B5,CC2*%
%TO.N,Net-(J3-CC2)*%
X102487811Y-55860000D03*
%TO.P,J3,B6,D+*%
%TO.N,D+*%
X103490692Y-55855860D03*
%TO.P,J3,B7,D-*%
%TO.N,D-*%
X104990447Y-55855000D03*
D28*
%TO.P,J3,B12,GND*%
%TO.N,GND*%
X107440000Y-56255000D03*
X101040000Y-56255000D03*
D29*
%TO.P,J3,S1,SHIELD*%
X109840000Y-55105000D03*
D30*
X109840000Y-51105000D03*
D29*
X98640000Y-55105000D03*
D30*
X98640000Y-51105000D03*
%TD*%
D16*
%TO.P,R4,1*%
%TO.N,Net-(J3-CC2)*%
X101830036Y-57000000D03*
%TO.P,R4,2*%
%TO.N,GND*%
X100810036Y-57000000D03*
%TD*%
D19*
%TO.P,C3,1*%
%TO.N,GND*%
X99750000Y-65880000D03*
%TO.P,C3,2*%
%TO.N,Net-(U1-XTAL_N)*%
X99750000Y-64920000D03*
%TD*%
%TO.P,C8,1*%
%TO.N,GND*%
X105600000Y-69680000D03*
%TO.P,C8,2*%
%TO.N,+3.3V*%
X105600000Y-68720000D03*
%TD*%
D31*
%TO.P,FB2,1*%
%TO.N,+3.3V*%
X106485000Y-67800000D03*
%TO.P,FB2,2*%
%TO.N,Net-(C5-Pad2)*%
X105515000Y-67800000D03*
%TD*%
D16*
%TO.P,R6,1*%
%TO.N,+3.3V*%
X108830036Y-67800000D03*
%TO.P,R6,2*%
%TO.N,EN*%
X107810036Y-67800000D03*
%TD*%
D18*
%TO.P,C6,1*%
%TO.N,GND*%
X104430036Y-67000000D03*
%TO.P,C6,2*%
%TO.N,Net-(U1-LNA_IN)*%
X103470036Y-67000000D03*
%TD*%
D32*
%TO.P,F1,1*%
%TO.N,Net-(F1-Pad1)*%
X108520036Y-57815000D03*
%TO.P,F1,2*%
%TO.N,Net-(D1-A)*%
X108520036Y-58785000D03*
%TD*%
D33*
%TO.P,U2,1,IN*%
%TO.N,VCC*%
X101550000Y-58362500D03*
%TO.P,U2,2,GND*%
%TO.N,GND*%
X100600000Y-58362500D03*
%TO.P,U2,3,EN*%
%TO.N,VCC*%
X99650000Y-58362500D03*
%TO.P,U2,4,NC*%
%TO.N,unconnected-(U2-NC-Pad4)*%
X99650000Y-60637500D03*
%TO.P,U2,5,OUT*%
%TO.N,+3.3V*%
X101550000Y-60637500D03*
%TD*%
D32*
%TO.P,FB1,1*%
%TO.N,+5V*%
X108520036Y-56003500D03*
%TO.P,FB1,2*%
%TO.N,Net-(F1-Pad1)*%
X108520036Y-56973500D03*
%TD*%
D34*
%TO.P,D1,1,K*%
%TO.N,VCC*%
X105370036Y-58297500D03*
%TO.P,D1,2,A*%
%TO.N,Net-(D1-A)*%
X107470036Y-58297500D03*
%TD*%
D15*
%TO.P,RV3,1*%
%TO.N,GND*%
X103700000Y-58010000D03*
%TO.P,RV3,2*%
%TO.N,D-*%
X103700000Y-56990000D03*
%TD*%
D18*
%TO.P,C5,1*%
%TO.N,GND*%
X106480000Y-66875000D03*
%TO.P,C5,2*%
%TO.N,Net-(C5-Pad2)*%
X105520000Y-66875000D03*
%TD*%
D35*
%TO.P,AE1,1,A*%
%TO.N,Net-(AE1-A)*%
X100920036Y-70170000D03*
%TD*%
D13*
%TO.P,C9,1*%
%TO.N,GND*%
X99900000Y-56040000D03*
%TO.P,C9,2*%
%TO.N,VCC*%
X99900000Y-57000000D03*
%TD*%
D18*
%TO.P,C12,1*%
%TO.N,Net-(U1-VDD_SPI{slash}GPIO11)*%
X106500000Y-59700000D03*
%TO.P,C12,2*%
%TO.N,GND*%
X105540000Y-59700000D03*
%TD*%
D14*
%TO.P,J1,1,Pin_1*%
%TO.N,U0TXD*%
X97892518Y-57150000D03*
%TO.P,J1,2,Pin_2*%
%TO.N,U0RXD*%
X97892518Y-58420000D03*
%TO.P,J1,3,Pin_3*%
%TO.N,IO0*%
X97892518Y-59690000D03*
%TO.P,J1,4,Pin_4*%
%TO.N,IO1*%
X97892518Y-60960000D03*
%TO.P,J1,5,Pin_5*%
%TO.N,IO2*%
X97892518Y-62230000D03*
%TO.P,J1,6,Pin_6*%
%TO.N,IO3*%
X97892518Y-63500000D03*
%TO.P,J1,7,Pin_7*%
%TO.N,IO4*%
X97892518Y-64770000D03*
%TO.P,J1,8,Pin_8*%
%TO.N,IO5*%
X97892518Y-66040000D03*
%TD*%
D36*
%TO.N,+5V*%
X109420036Y-56600000D03*
X106640000Y-55855000D03*
X101820036Y-55900000D03*
%TO.N,GND*%
X103440381Y-70363842D03*
X102606894Y-70731472D03*
X105500000Y-58999500D03*
X106099964Y-71700000D03*
X104520000Y-71700000D03*
X105920036Y-62600000D03*
X105220036Y-64000000D03*
X104520036Y-63300000D03*
X105220036Y-63300000D03*
X99514500Y-63585500D03*
X104234079Y-67300000D03*
X104520036Y-64000000D03*
X105220036Y-62600000D03*
X103720000Y-71700000D03*
X98975000Y-66700000D03*
X101320036Y-68300000D03*
X110100000Y-71700000D03*
X102758538Y-67339912D03*
X102120000Y-71700000D03*
X104520000Y-70600000D03*
X101700000Y-70741000D03*
X105320000Y-71700000D03*
X103957788Y-69623730D03*
X104234079Y-68104690D03*
X102776573Y-68313282D03*
X108499964Y-71700000D03*
X107420036Y-56500000D03*
X99756678Y-66700000D03*
X104239536Y-68900000D03*
X102000000Y-69599000D03*
X105920036Y-64000000D03*
X100700000Y-61400498D03*
X109299964Y-71700000D03*
X101320000Y-71700000D03*
X102820036Y-66500000D03*
X106899964Y-71700000D03*
X105920036Y-63300000D03*
X107699964Y-71700000D03*
X101320036Y-66710000D03*
X108748711Y-66823675D03*
X100538356Y-66700000D03*
X99100000Y-56500000D03*
X101320036Y-67500000D03*
X102700000Y-69100000D03*
X104520036Y-62600000D03*
X106920036Y-67000000D03*
X102920000Y-71700000D03*
X101320036Y-69100000D03*
%TO.N,+3.3V*%
X102209401Y-59390599D03*
X102100000Y-66870000D03*
X105600000Y-68720000D03*
X109473625Y-67967313D03*
X108070602Y-60868479D03*
%TO.N,IO0*%
X104000000Y-64731900D03*
%TO.N,IO1*%
X105051930Y-64749316D03*
%TO.N,IO2*%
X105801015Y-64750101D03*
%TO.N,IO3*%
X107220036Y-65666775D03*
%TO.N,D+*%
X102720036Y-57000000D03*
X103569842Y-62138692D03*
%TO.N,D-*%
X104232169Y-61787867D03*
X103620036Y-57000000D03*
%TO.N,IO4*%
X108223832Y-66040684D03*
%TO.N,IO8*%
X106607280Y-62061133D03*
%TO.N,IO5*%
X106694275Y-64312553D03*
%TO.N,EN*%
X106501815Y-65036924D03*
%TO.N,BOOT*%
X105851172Y-61779520D03*
X108600000Y-69400000D03*
%TO.N,U0TXD*%
X103700000Y-63400000D03*
%TO.N,U0RXD*%
X102299500Y-60900000D03*
%TO.N,IO7*%
X106669536Y-62808045D03*
%TO.N,IO6*%
X106669536Y-63557548D03*
%TO.N,VCC*%
X106400000Y-58300000D03*
X101083055Y-59373473D03*
%TO.N,IO10*%
X108713916Y-62357764D03*
%TD*%
D37*
%TO.N,+5V*%
X108823536Y-56003500D02*
X108520036Y-56003500D01*
D38*
X106640000Y-56770036D02*
X106640000Y-55855000D01*
X101840000Y-55880036D02*
X101820036Y-55900000D01*
D37*
X109420036Y-56600000D02*
X108823536Y-56003500D01*
D38*
X106510036Y-56900000D02*
X106640000Y-56770036D01*
X101840000Y-55860000D02*
X101840000Y-55880036D01*
D39*
%TO.N,GND*%
X100285500Y-63585500D02*
X100300000Y-63600000D01*
X99514500Y-63585500D02*
X100285500Y-63585500D01*
X101400000Y-62100498D02*
X101400000Y-62200000D01*
X101040000Y-56255000D02*
X101040000Y-56770036D01*
X101040000Y-56770036D02*
X100810036Y-57000000D01*
D37*
X109565036Y-58420000D02*
X110075036Y-58420000D01*
D38*
%TO.N,+3.3V*%
X108480000Y-64050000D02*
X107657536Y-64050000D01*
D37*
X109425000Y-63845000D02*
X109425000Y-62184964D01*
D38*
X105600000Y-68685000D02*
X106485000Y-67800000D01*
D39*
X109473625Y-67967313D02*
X109306312Y-67800000D01*
D38*
X102100000Y-66870000D02*
X102100000Y-66300000D01*
X108070602Y-60868479D02*
X108070602Y-60350602D01*
X105600000Y-68720000D02*
X105600000Y-68685000D01*
D37*
X109485000Y-67161526D02*
X109485000Y-65043510D01*
D38*
X102100000Y-66300000D02*
X102782536Y-65617464D01*
D37*
X108830036Y-67800000D02*
X108846526Y-67800000D01*
X108846526Y-67800000D02*
X109485000Y-67161526D01*
X109485000Y-65043510D02*
X108861490Y-64420000D01*
D38*
X102782536Y-65617464D02*
X102782536Y-65050000D01*
D37*
X108861490Y-64420000D02*
X108850000Y-64420000D01*
D38*
X106970036Y-60149964D02*
X106970036Y-60862500D01*
X108850000Y-64420000D02*
X108480000Y-64050000D01*
D37*
X109425000Y-62184964D02*
X108102536Y-60862500D01*
D39*
X109306312Y-67800000D02*
X108830036Y-67800000D01*
D38*
X108070602Y-60350602D02*
X107420000Y-59700000D01*
X108076581Y-60862500D02*
X108102536Y-60862500D01*
X101550000Y-60637500D02*
X101550000Y-60050000D01*
D37*
X101550000Y-60050000D02*
X102209401Y-59390599D01*
D38*
X108070602Y-60868479D02*
X108076581Y-60862500D01*
D37*
X108850000Y-64420000D02*
X109425000Y-63845000D01*
D38*
X107420000Y-59700000D02*
X106970036Y-60149964D01*
D37*
X108850000Y-64420000D02*
X108827645Y-64420000D01*
D38*
X102782536Y-65050000D02*
X102782536Y-64550000D01*
D39*
%TO.N,IO0*%
X104306900Y-64731900D02*
X104970036Y-65395036D01*
X104000000Y-64731900D02*
X104306900Y-64731900D01*
X104970036Y-65395036D02*
X104970036Y-65737500D01*
%TO.N,IO1*%
X105051930Y-64749316D02*
X105470036Y-65167422D01*
X105470036Y-65167422D02*
X105470036Y-65737500D01*
%TO.N,IO2*%
X105955190Y-64904276D02*
X105955190Y-65722654D01*
X105955190Y-65722654D02*
X105970036Y-65737500D01*
X105801015Y-64750101D02*
X105955190Y-64904276D01*
%TO.N,IO3*%
X107149311Y-65737500D02*
X106970036Y-65737500D01*
X107220036Y-65666775D02*
X107149311Y-65737500D01*
%TO.N,D+*%
X104489970Y-56335030D02*
X104275036Y-56549964D01*
X104275036Y-56549964D02*
X104275036Y-57229939D01*
X103490692Y-56229344D02*
X102720036Y-57000000D01*
X104275036Y-57229939D02*
X103989975Y-57515000D01*
X103235036Y-57515000D02*
X102720036Y-57000000D01*
X103989975Y-57515000D02*
X103235036Y-57515000D01*
X103490692Y-55855860D02*
X103490692Y-56229344D01*
X104489970Y-56105000D02*
X104489970Y-56335030D01*
D40*
X103569842Y-62138692D02*
X103481150Y-62050000D01*
D38*
X102720036Y-57000000D02*
X102720036Y-57009828D01*
D40*
X103481150Y-62050000D02*
X102782536Y-62050000D01*
D39*
%TO.N,D-*%
X103991169Y-55855430D02*
X104226599Y-55620000D01*
X104755447Y-55620000D02*
X104990447Y-55855000D01*
X103991169Y-56618867D02*
X103991169Y-55855430D01*
D40*
X104232169Y-61787867D02*
X103994302Y-61550000D01*
D39*
X103620036Y-57000000D02*
X103991169Y-56618867D01*
D40*
X103994302Y-61550000D02*
X102782536Y-61550000D01*
D39*
X104226599Y-55620000D02*
X104755447Y-55620000D01*
%TO.N,IO4*%
X108223832Y-65616296D02*
X108223832Y-66040684D01*
X107657536Y-65050000D02*
X108223832Y-65616296D01*
%TO.N,IO8*%
X106711133Y-62061133D02*
X107200000Y-62550000D01*
X107200000Y-62550000D02*
X107657536Y-62550000D01*
X106607280Y-62061133D02*
X106711133Y-62061133D01*
%TO.N,IO5*%
X106931722Y-64550000D02*
X107657536Y-64550000D01*
X106694275Y-64312553D02*
X106931722Y-64550000D01*
%TO.N,EN*%
X106802592Y-66400000D02*
X107340036Y-66400000D01*
X106501815Y-65036924D02*
X106470036Y-65068703D01*
X107340036Y-66400000D02*
X107810036Y-66870000D01*
X106470036Y-66067444D02*
X106802592Y-66400000D01*
X106470036Y-65068703D02*
X106470036Y-65737500D01*
X106470036Y-65737500D02*
X106470036Y-66067444D01*
X107810036Y-67900000D02*
X107120036Y-68590000D01*
X107120036Y-68590000D02*
X107120036Y-68675000D01*
X107810036Y-66870000D02*
X107810036Y-67900000D01*
%TO.N,BOOT*%
X107327592Y-62050000D02*
X107657536Y-62050000D01*
X106823725Y-61546133D02*
X107327592Y-62050000D01*
X105851172Y-61779520D02*
X106084559Y-61546133D01*
X108600000Y-68675000D02*
X108600000Y-69400000D01*
X106084559Y-61546133D02*
X106823725Y-61546133D01*
%TO.N,U0TXD*%
X103350000Y-63050000D02*
X102782536Y-63050000D01*
X103700000Y-63400000D02*
X103350000Y-63050000D01*
X98155792Y-56990000D02*
X98155837Y-57149927D01*
%TO.N,U0RXD*%
X102299500Y-60900000D02*
X102130036Y-61069464D01*
X102130036Y-61069464D02*
X102130036Y-62227444D01*
X102452592Y-62550000D02*
X102782536Y-62550000D01*
X102130036Y-62227444D02*
X102452592Y-62550000D01*
%TO.N,IO7*%
X106911491Y-63050000D02*
X107657536Y-63050000D01*
X106669536Y-62808045D02*
X106911491Y-63050000D01*
%TO.N,IO6*%
X106669536Y-63557548D02*
X106677084Y-63550000D01*
X106677084Y-63550000D02*
X107657536Y-63550000D01*
%TO.N,Net-(U1-XTAL_N)*%
X100300000Y-62300000D02*
X100300000Y-62480000D01*
X100300000Y-62480000D02*
X100820000Y-63000000D01*
X99000000Y-64070000D02*
X99000000Y-62900000D01*
X99000000Y-62900000D02*
X99600000Y-62300000D01*
X99600000Y-62300000D02*
X100300000Y-62300000D01*
X100415000Y-62190000D02*
X100410000Y-62190000D01*
X102100000Y-63100000D02*
X102100000Y-63348704D01*
X100820000Y-63000000D02*
X102000000Y-63000000D01*
X102000000Y-63000000D02*
X102100000Y-63100000D01*
X102301296Y-63550000D02*
X102782536Y-63550000D01*
X102100000Y-63348704D02*
X102301296Y-63550000D01*
X99750000Y-64820000D02*
X99000000Y-64070000D01*
D41*
%TO.N,Net-(U1-LNA_IN)*%
X103470036Y-66900000D02*
X103470036Y-67790000D01*
X103470036Y-66900000D02*
X103470036Y-65737500D01*
D37*
%TO.N,VCC*%
X101156528Y-59300000D02*
X101550000Y-58906528D01*
X100996751Y-59300000D02*
X101156528Y-59300000D01*
X100253249Y-59350000D02*
X100946751Y-59350000D01*
D38*
X99650000Y-58362500D02*
X99650000Y-58676041D01*
D37*
X100946751Y-59350000D02*
X100996751Y-59300000D01*
X101550000Y-58906528D02*
X101550000Y-58676041D01*
D38*
X101550000Y-58676041D02*
X101550000Y-58362500D01*
D37*
X99650000Y-58676041D02*
X99650000Y-58746751D01*
X105370036Y-58297500D02*
X106397500Y-58297500D01*
X99900000Y-58112500D02*
X99650000Y-58362500D01*
X99900000Y-57080000D02*
X99900000Y-58112500D01*
X106397500Y-58297500D02*
X106400000Y-58300000D01*
X99650000Y-58746751D02*
X100253249Y-59350000D01*
D38*
%TO.N,Net-(U1-VDD_SPI{slash}GPIO11)*%
X106470036Y-59729964D02*
X106470036Y-60862500D01*
X106500000Y-59700000D02*
X106470036Y-59729964D01*
D37*
%TO.N,Net-(D1-A)*%
X108501820Y-58785000D02*
X108520036Y-58785000D01*
X108014320Y-58297500D02*
X108501820Y-58785000D01*
X107470036Y-58297500D02*
X108014320Y-58297500D01*
D39*
%TO.N,Net-(J3-CC1)*%
X105630036Y-56900000D02*
X105630036Y-56662074D01*
X105490923Y-56522961D02*
X105490923Y-55855000D01*
X105630036Y-56662074D02*
X105490923Y-56522961D01*
%TO.N,Net-(J3-CC2)*%
X102487811Y-56332225D02*
X101930036Y-56890000D01*
X102487811Y-55860000D02*
X102487811Y-56332225D01*
X101930036Y-56890000D02*
X101820036Y-56890000D01*
%TO.N,Net-(U1-XTAL_P)*%
X101660000Y-64841296D02*
X102451296Y-64050000D01*
X101660000Y-64875000D02*
X101660000Y-64841296D01*
X102451296Y-64050000D02*
X102782536Y-64050000D01*
%TO.N,Net-(C4-Pad2)*%
X100640000Y-64875000D02*
X101400000Y-64115000D01*
X101400000Y-64115000D02*
X101400000Y-63600000D01*
X100645000Y-65800000D02*
X100645000Y-64880000D01*
X100645000Y-64880000D02*
X100640000Y-64875000D01*
D37*
%TO.N,Net-(F1-Pad1)*%
X108520036Y-57815000D02*
X108520036Y-56973500D01*
D41*
%TO.N,Net-(AE1-A)*%
X103177143Y-69822857D02*
X103122893Y-69877107D01*
X103470036Y-68810000D02*
X103470036Y-69115750D01*
X102415786Y-70170000D02*
X101141536Y-70170000D01*
X102415786Y-70170000D02*
G75*
G03*
X103122900Y-69877114I14J1000000D01*
G01*
X103470036Y-69115750D02*
G75*
G02*
X103177175Y-69822889I-1000036J-50D01*
G01*
D38*
%TO.N,Net-(C5-Pad2)*%
X105338065Y-66693065D02*
X105020000Y-66693065D01*
X105515000Y-66870000D02*
X105338065Y-66693065D01*
X105020000Y-66693065D02*
X104741935Y-66415000D01*
X104723064Y-66415000D02*
X104470036Y-66161972D01*
X103970036Y-65737500D02*
X104470036Y-65737500D01*
X104741935Y-66415000D02*
X104723064Y-66415000D01*
X105515000Y-67800000D02*
X105515000Y-66870000D01*
X104470036Y-66161972D02*
X104470036Y-65737500D01*
D42*
%TO.N,IO10*%
X108713916Y-62357764D02*
X108320036Y-61963884D01*
X108320036Y-61866680D02*
X108003356Y-61550000D01*
X108320036Y-61963884D02*
X108320036Y-61866680D01*
X108003356Y-61550000D02*
X107657536Y-61550000D01*
%TD*%
%TA.AperFunction,Conductor*%
%TO.N,GND*%
G36*
X109800000Y-71999500D02*
G01*
X105700000Y-71999500D01*
X105700000Y-70700000D01*
X109800000Y-70700000D01*
X109800000Y-71999500D01*
G37*
%TD.AperFunction*%
%TD*%
%TA.AperFunction,Conductor*%
%TO.N,GND*%
G36*
X104232628Y-66311947D02*
G01*
X104233483Y-66313546D01*
X104236477Y-66318027D01*
X104236479Y-66318030D01*
X104567006Y-66648558D01*
X104587460Y-66657030D01*
X104608222Y-66670903D01*
X104863941Y-66926622D01*
X104893599Y-66938906D01*
X104950000Y-66962268D01*
X104950000Y-67550000D01*
X103853793Y-67550000D01*
X103850000Y-67546207D01*
X103850000Y-67340865D01*
X103853849Y-67337016D01*
X103897718Y-67237662D01*
X103900536Y-67213373D01*
X103900535Y-66786628D01*
X103897718Y-66762338D01*
X103853849Y-66662984D01*
X103850000Y-66659135D01*
X103850000Y-66318229D01*
X103886552Y-66325500D01*
X103886556Y-66325500D01*
X104053519Y-66325500D01*
X104115641Y-66313143D01*
X104115642Y-66313143D01*
X104115642Y-66313142D01*
X104115645Y-66313142D01*
X104135313Y-66300000D01*
X104214747Y-66300000D01*
X104232628Y-66311947D01*
G37*
%TD.AperFunction*%
%TD*%
%TA.AperFunction,Conductor*%
%TO.N,GND*%
G36*
X98765755Y-64033664D02*
G01*
X98784500Y-64078919D01*
X98784500Y-64112866D01*
X98817308Y-64192071D01*
X99275753Y-64650516D01*
X99294498Y-64695771D01*
X99292532Y-64710487D01*
X99289500Y-64736627D01*
X99289500Y-65103366D01*
X99289501Y-65103372D01*
X99292318Y-65127662D01*
X99336187Y-65227016D01*
X99412984Y-65303813D01*
X99512338Y-65347682D01*
X99522265Y-65348833D01*
X99565057Y-65372667D01*
X99578464Y-65419781D01*
X99554630Y-65462574D01*
X99527376Y-65475177D01*
X99474654Y-65485663D01*
X99474652Y-65485664D01*
X99385340Y-65545341D01*
X99325664Y-65634651D01*
X99325663Y-65634653D01*
X99310000Y-65713402D01*
X99310000Y-65780000D01*
X99786000Y-65780000D01*
X99831255Y-65798745D01*
X99850000Y-65844000D01*
X99850000Y-66289999D01*
X99946596Y-66289999D01*
X99946597Y-66289998D01*
X100025344Y-66274336D01*
X100025347Y-66274335D01*
X100114659Y-66214658D01*
X100132228Y-66188364D01*
X100172956Y-66161149D01*
X100220998Y-66170704D01*
X100243989Y-66198067D01*
X100261187Y-66237016D01*
X100337984Y-66313813D01*
X100437338Y-66357682D01*
X100461627Y-66360500D01*
X100828372Y-66360499D01*
X100852662Y-66357682D01*
X100952016Y-66313813D01*
X101028813Y-66237016D01*
X101072682Y-66137662D01*
X101073833Y-66127734D01*
X101097667Y-66084942D01*
X101144780Y-66071535D01*
X101187574Y-66095369D01*
X101200177Y-66122624D01*
X101210663Y-66175344D01*
X101210664Y-66175347D01*
X101270341Y-66264659D01*
X101359651Y-66324335D01*
X101359653Y-66324336D01*
X101438402Y-66339999D01*
X101505000Y-66339999D01*
X101505000Y-65864000D01*
X101523745Y-65818745D01*
X101569000Y-65800000D01*
X102014999Y-65800000D01*
X102014999Y-65703403D01*
X102014998Y-65703402D01*
X101999336Y-65624655D01*
X101999335Y-65624652D01*
X101939658Y-65535340D01*
X101854370Y-65478351D01*
X101827157Y-65437622D01*
X101836713Y-65389580D01*
X101864071Y-65366593D01*
X101959141Y-65324616D01*
X102034616Y-65249141D01*
X102077730Y-65151498D01*
X102077730Y-65151496D01*
X102078923Y-65148795D01*
X102114351Y-65114968D01*
X102163321Y-65116099D01*
X102197148Y-65151527D01*
X102200240Y-65162160D01*
X102206892Y-65195606D01*
X102206894Y-65195609D01*
X102253969Y-65266063D01*
X102253972Y-65266066D01*
X102274826Y-65280000D01*
X102324427Y-65313142D01*
X102324428Y-65313142D01*
X102324430Y-65313143D01*
X102386552Y-65325500D01*
X102386556Y-65325500D01*
X102443036Y-65325500D01*
X102488291Y-65344245D01*
X102507036Y-65389500D01*
X102507036Y-65476838D01*
X102488290Y-65522093D01*
X102227630Y-65782755D01*
X102029130Y-65981255D01*
X101983875Y-66000000D01*
X101705000Y-66000000D01*
X101705000Y-66339999D01*
X101760500Y-66339999D01*
X101805755Y-66358744D01*
X101824500Y-66403999D01*
X101824500Y-66417322D01*
X101805755Y-66462577D01*
X101786353Y-66475868D01*
X101762986Y-66486186D01*
X101762984Y-66486187D01*
X101686187Y-66562984D01*
X101642318Y-66662338D01*
X101639500Y-66686627D01*
X101639500Y-67053366D01*
X101639501Y-67053372D01*
X101642318Y-67077662D01*
X101686187Y-67177016D01*
X101762984Y-67253813D01*
X101862338Y-67297682D01*
X101872265Y-67298833D01*
X101915057Y-67322667D01*
X101928464Y-67369781D01*
X101904630Y-67412574D01*
X101877376Y-67425177D01*
X101824654Y-67435663D01*
X101824652Y-67435664D01*
X101735340Y-67495341D01*
X101675664Y-67584651D01*
X101675663Y-67584653D01*
X101660000Y-67663402D01*
X101660000Y-67730000D01*
X102539999Y-67730000D01*
X102539999Y-67663403D01*
X102539998Y-67663402D01*
X102524336Y-67584655D01*
X102524335Y-67584652D01*
X102464658Y-67495340D01*
X102375348Y-67435664D01*
X102375345Y-67435663D01*
X102322624Y-67425176D01*
X102281896Y-67397962D01*
X102272340Y-67349920D01*
X102299554Y-67309192D01*
X102327737Y-67298833D01*
X102337662Y-67297682D01*
X102437016Y-67253813D01*
X102513813Y-67177016D01*
X102557682Y-67077662D01*
X102560500Y-67053373D01*
X102560499Y-66686628D01*
X102557682Y-66662338D01*
X102513813Y-66562984D01*
X102437016Y-66486187D01*
X102437013Y-66486185D01*
X102437012Y-66486185D01*
X102429812Y-66483006D01*
X102395985Y-66447579D01*
X102397118Y-66398608D01*
X102410406Y-66379208D01*
X103016094Y-65773522D01*
X103058036Y-65672264D01*
X103058036Y-65562664D01*
X103058036Y-65389500D01*
X103076781Y-65344245D01*
X103122036Y-65325500D01*
X103130536Y-65325500D01*
X103175791Y-65344245D01*
X103194536Y-65389500D01*
X103194536Y-66133481D01*
X103196806Y-66144892D01*
X103198036Y-66157379D01*
X103198036Y-66529023D01*
X103179291Y-66574278D01*
X103167557Y-66582317D01*
X103167912Y-66582836D01*
X103163019Y-66586187D01*
X103086223Y-66662984D01*
X103042354Y-66762338D01*
X103039536Y-66786627D01*
X103039536Y-67213366D01*
X103039537Y-67213372D01*
X103042354Y-67237662D01*
X103086223Y-67337016D01*
X103154513Y-67405306D01*
X103173258Y-67450560D01*
X103154513Y-67495815D01*
X103135112Y-67509106D01*
X103120896Y-67515383D01*
X103045420Y-67590859D01*
X103045420Y-67590860D01*
X103002306Y-67688501D01*
X102999536Y-67712376D01*
X102999536Y-68067616D01*
X102999537Y-68067625D01*
X103000433Y-68075346D01*
X103002306Y-68091498D01*
X103045420Y-68189141D01*
X103120895Y-68264616D01*
X103218538Y-68307730D01*
X103242413Y-68310500D01*
X103697658Y-68310499D01*
X103721534Y-68307730D01*
X103819177Y-68264616D01*
X103894652Y-68189141D01*
X103937766Y-68091498D01*
X103940536Y-68067623D01*
X103940535Y-67712378D01*
X103937766Y-67688502D01*
X103894652Y-67590859D01*
X103853793Y-67550000D01*
X104950000Y-67550000D01*
X104950000Y-66962268D01*
X104965200Y-66968565D01*
X105025501Y-66968565D01*
X105070756Y-66987310D01*
X105089501Y-67032565D01*
X105089501Y-67088375D01*
X105091167Y-67102736D01*
X105092318Y-67112662D01*
X105136187Y-67212016D01*
X105204220Y-67280049D01*
X105222965Y-67325303D01*
X105204220Y-67370558D01*
X105197061Y-67376503D01*
X105117392Y-67456172D01*
X105072389Y-67558094D01*
X105069501Y-67582991D01*
X105069500Y-67583009D01*
X105069500Y-68016984D01*
X105069501Y-68016993D01*
X105072391Y-68041908D01*
X105072392Y-68041912D01*
X105091458Y-68085092D01*
X105117392Y-68143828D01*
X105196172Y-68222608D01*
X105235843Y-68240124D01*
X105269669Y-68275550D01*
X105268538Y-68324521D01*
X105255246Y-68343925D01*
X105186187Y-68412984D01*
X105142318Y-68512338D01*
X105139500Y-68536627D01*
X105139500Y-68903366D01*
X105139501Y-68903372D01*
X105142318Y-68927662D01*
X105186187Y-69027016D01*
X105262984Y-69103813D01*
X105362338Y-69147682D01*
X105372265Y-69148833D01*
X105415057Y-69172667D01*
X105428464Y-69219781D01*
X105404630Y-69262574D01*
X105377376Y-69275177D01*
X105324654Y-69285663D01*
X105324652Y-69285664D01*
X105235340Y-69345341D01*
X105175664Y-69434651D01*
X105175663Y-69434653D01*
X105160000Y-69513402D01*
X105160000Y-69580000D01*
X106039999Y-69580000D01*
X106039999Y-69513403D01*
X106039998Y-69513402D01*
X106024336Y-69434655D01*
X106024335Y-69434652D01*
X105964658Y-69345340D01*
X105875348Y-69285664D01*
X105875345Y-69285663D01*
X105822624Y-69275176D01*
X105781896Y-69247962D01*
X105772340Y-69199920D01*
X105799554Y-69159192D01*
X105827737Y-69148833D01*
X105837662Y-69147682D01*
X105937016Y-69103813D01*
X106013813Y-69027016D01*
X106057682Y-68927662D01*
X106060500Y-68903373D01*
X106060499Y-68640624D01*
X106079244Y-68595370D01*
X106090245Y-68584369D01*
X106135500Y-68565624D01*
X106180755Y-68584369D01*
X106199500Y-68629624D01*
X106199500Y-68964821D01*
X106208233Y-69008722D01*
X106208234Y-69008724D01*
X106241494Y-69058502D01*
X106241497Y-69058505D01*
X106285076Y-69087623D01*
X106291278Y-69091767D01*
X106326446Y-69098762D01*
X106335179Y-69100500D01*
X106335180Y-69100500D01*
X107664821Y-69100500D01*
X107672104Y-69099050D01*
X107708722Y-69091767D01*
X107758504Y-69058504D01*
X107791767Y-69008722D01*
X107791766Y-69008722D01*
X107795269Y-69003481D01*
X107797070Y-69004684D01*
X107825505Y-68976247D01*
X107874488Y-68976244D01*
X107902930Y-69004683D01*
X107904731Y-69003481D01*
X107941494Y-69058502D01*
X107941497Y-69058505D01*
X107985076Y-69087623D01*
X107991278Y-69091767D01*
X108026446Y-69098762D01*
X108035179Y-69100500D01*
X108035180Y-69100500D01*
X108141936Y-69100500D01*
X108187191Y-69119245D01*
X108205936Y-69164500D01*
X108200152Y-69191087D01*
X108163303Y-69271771D01*
X108144867Y-69400000D01*
X108163303Y-69528228D01*
X108217116Y-69646060D01*
X108217118Y-69646063D01*
X108273623Y-69711275D01*
X108301951Y-69743967D01*
X108410931Y-69814004D01*
X108535228Y-69850500D01*
X108535229Y-69850500D01*
X108664771Y-69850500D01*
X108664772Y-69850500D01*
X108789069Y-69814004D01*
X108898049Y-69743967D01*
X108982882Y-69646063D01*
X109036697Y-69528226D01*
X109055133Y-69400000D01*
X109036697Y-69271774D01*
X109032495Y-69262574D01*
X108999848Y-69191087D01*
X108998099Y-69142135D01*
X109031477Y-69106284D01*
X109058064Y-69100500D01*
X109364821Y-69100500D01*
X109372104Y-69099050D01*
X109408722Y-69091767D01*
X109458504Y-69058504D01*
X109491767Y-69008722D01*
X109500500Y-68964820D01*
X109500500Y-68476850D01*
X109519245Y-68431595D01*
X109546467Y-68415443D01*
X109662694Y-68381317D01*
X109771674Y-68311280D01*
X109856507Y-68213376D01*
X109910322Y-68095539D01*
X109923587Y-68003272D01*
X109948582Y-67961147D01*
X109996044Y-67949033D01*
X109996896Y-67949162D01*
X110068481Y-67960500D01*
X110333186Y-67960499D01*
X110378441Y-67979244D01*
X110397186Y-68024464D01*
X110398178Y-69814003D01*
X110399235Y-71722456D01*
X110399354Y-71935465D01*
X110380634Y-71980730D01*
X110335389Y-71999500D01*
X109800000Y-71999500D01*
X109800000Y-70700000D01*
X105700000Y-70700000D01*
X105700000Y-71999500D01*
X101084036Y-71999500D01*
X101038781Y-71980755D01*
X101020036Y-71935500D01*
X101020036Y-70784500D01*
X101038781Y-70739245D01*
X101084036Y-70720500D01*
X101134857Y-70720500D01*
X101142140Y-70719050D01*
X101178758Y-70711767D01*
X101228540Y-70678504D01*
X101261803Y-70628722D01*
X101270536Y-70584820D01*
X101270536Y-70506000D01*
X101289281Y-70460745D01*
X101334536Y-70442000D01*
X102476698Y-70442000D01*
X102476787Y-70441990D01*
X102515890Y-70441991D01*
X102713642Y-70410673D01*
X102904061Y-70348805D01*
X103082456Y-70257911D01*
X103244436Y-70140228D01*
X103267965Y-70116699D01*
X103267971Y-70116695D01*
X103315224Y-70069442D01*
X103329796Y-70054869D01*
X103329815Y-70054854D01*
X103335573Y-70049094D01*
X103335576Y-70049094D01*
X103350508Y-70034160D01*
X103350618Y-70034114D01*
X103369519Y-70015210D01*
X103369520Y-70015211D01*
X103440304Y-69944418D01*
X103511366Y-69846597D01*
X105160001Y-69846597D01*
X105175663Y-69925344D01*
X105175664Y-69925347D01*
X105235341Y-70014659D01*
X105324651Y-70074335D01*
X105324653Y-70074336D01*
X105403402Y-70089999D01*
X105500000Y-70089999D01*
X105700000Y-70089999D01*
X105796596Y-70089999D01*
X105796597Y-70089998D01*
X105875344Y-70074336D01*
X105875347Y-70074335D01*
X105964659Y-70014658D01*
X106024335Y-69925348D01*
X106024336Y-69925346D01*
X106040000Y-69846597D01*
X106040000Y-69780000D01*
X105700000Y-69780000D01*
X105700000Y-70089999D01*
X105500000Y-70089999D01*
X105500000Y-69780000D01*
X105160001Y-69780000D01*
X105160001Y-69846597D01*
X103511366Y-69846597D01*
X103557981Y-69782429D01*
X103648869Y-69604027D01*
X103710730Y-69413603D01*
X103719081Y-69360852D01*
X103744673Y-69319087D01*
X103756437Y-69312318D01*
X103819177Y-69284616D01*
X103894652Y-69209141D01*
X103937766Y-69111498D01*
X103940536Y-69087623D01*
X103940535Y-68732378D01*
X103937766Y-68708502D01*
X103894652Y-68610859D01*
X103819177Y-68535384D01*
X103721534Y-68492270D01*
X103697659Y-68489500D01*
X103697658Y-68489500D01*
X103242419Y-68489500D01*
X103242410Y-68489501D01*
X103218538Y-68492270D01*
X103120895Y-68535384D01*
X103045420Y-68610859D01*
X103032277Y-68640625D01*
X103002306Y-68708501D01*
X102999536Y-68732376D01*
X102999536Y-69087616D01*
X102999537Y-69087625D01*
X103001415Y-69103812D01*
X103002306Y-69111498D01*
X103045420Y-69209141D01*
X103120895Y-69284616D01*
X103120896Y-69284616D01*
X103120897Y-69284617D01*
X103125792Y-69287971D01*
X103124282Y-69290174D01*
X103151404Y-69318574D01*
X103152974Y-69360273D01*
X103144464Y-69388334D01*
X103139663Y-69399926D01*
X103078334Y-69514679D01*
X103071364Y-69525111D01*
X102987111Y-69627785D01*
X102982891Y-69632441D01*
X102946553Y-69668780D01*
X102946551Y-69668782D01*
X102932782Y-69682550D01*
X102928129Y-69686767D01*
X102825113Y-69771307D01*
X102814682Y-69778277D01*
X102699941Y-69839606D01*
X102688350Y-69844407D01*
X102563848Y-69882173D01*
X102551542Y-69884621D01*
X102418821Y-69897691D01*
X102412549Y-69897999D01*
X102362677Y-69897999D01*
X102362665Y-69898000D01*
X101334536Y-69898000D01*
X101289281Y-69879255D01*
X101270536Y-69834000D01*
X101270536Y-69755178D01*
X101267637Y-69740610D01*
X101261803Y-69711278D01*
X101261801Y-69711275D01*
X101228541Y-69661497D01*
X101228538Y-69661494D01*
X101178760Y-69628234D01*
X101178758Y-69628233D01*
X101134857Y-69619500D01*
X101134856Y-69619500D01*
X101084036Y-69619500D01*
X101038781Y-69600755D01*
X101020036Y-69555500D01*
X101020036Y-67996597D01*
X101660001Y-67996597D01*
X101675663Y-68075344D01*
X101675664Y-68075347D01*
X101735341Y-68164659D01*
X101824651Y-68224335D01*
X101824653Y-68224336D01*
X101903402Y-68239999D01*
X102000000Y-68239999D01*
X102200000Y-68239999D01*
X102296596Y-68239999D01*
X102296597Y-68239998D01*
X102375344Y-68224336D01*
X102375347Y-68224335D01*
X102464659Y-68164658D01*
X102524335Y-68075348D01*
X102524336Y-68075346D01*
X102540000Y-67996597D01*
X102540000Y-67930000D01*
X102200000Y-67930000D01*
X102200000Y-68239999D01*
X102000000Y-68239999D01*
X102000000Y-67930000D01*
X101660001Y-67930000D01*
X101660001Y-67996597D01*
X101020036Y-67996597D01*
X101020036Y-67000000D01*
X98158067Y-67000000D01*
X98112812Y-66981255D01*
X98094067Y-66936018D01*
X98094016Y-66754517D01*
X98112748Y-66709257D01*
X98157998Y-66690499D01*
X98424035Y-66690499D01*
X98424036Y-66690499D01*
X98517822Y-66675646D01*
X98630856Y-66618052D01*
X98630857Y-66618052D01*
X98630857Y-66618051D01*
X98630860Y-66618050D01*
X98720568Y-66528342D01*
X98778164Y-66415304D01*
X98793018Y-66321519D01*
X98793018Y-66046597D01*
X99310001Y-66046597D01*
X99325663Y-66125344D01*
X99325664Y-66125347D01*
X99385341Y-66214659D01*
X99474651Y-66274335D01*
X99474653Y-66274336D01*
X99553402Y-66289999D01*
X99650000Y-66289999D01*
X99650000Y-65980000D01*
X99310001Y-65980000D01*
X99310001Y-66046597D01*
X98793018Y-66046597D01*
X98793017Y-65758482D01*
X98778164Y-65664696D01*
X98720568Y-65551658D01*
X98630860Y-65461950D01*
X98630857Y-65461948D01*
X98626782Y-65458987D01*
X98627531Y-65457955D01*
X98599195Y-65424781D01*
X98603035Y-65375948D01*
X98627281Y-65351701D01*
X98626782Y-65351013D01*
X98630857Y-65348052D01*
X98630857Y-65348051D01*
X98630860Y-65348050D01*
X98720568Y-65258342D01*
X98778164Y-65145304D01*
X98793018Y-65051519D01*
X98793017Y-64488482D01*
X98778164Y-64394696D01*
X98720568Y-64281658D01*
X98630860Y-64191950D01*
X98630857Y-64191948D01*
X98626782Y-64188987D01*
X98627531Y-64187955D01*
X98599195Y-64154781D01*
X98603035Y-64105948D01*
X98627281Y-64081701D01*
X98626782Y-64081013D01*
X98630857Y-64078052D01*
X98630857Y-64078051D01*
X98630860Y-64078050D01*
X98675246Y-64033663D01*
X98720500Y-64014919D01*
X98765755Y-64033664D01*
G37*
%TD.AperFunction*%
%TA.AperFunction,Conductor*%
G36*
X107269518Y-66634245D02*
G01*
X107390791Y-66755518D01*
X107409536Y-66800773D01*
X107409536Y-67088366D01*
X107409537Y-67088375D01*
X107411203Y-67102736D01*
X107412354Y-67112662D01*
X107456223Y-67212016D01*
X107520904Y-67276697D01*
X107539649Y-67321951D01*
X107520904Y-67367206D01*
X107511828Y-67374744D01*
X107510900Y-67375379D01*
X107510895Y-67375384D01*
X107435420Y-67450859D01*
X107421969Y-67481322D01*
X107392306Y-67548501D01*
X107389536Y-67572376D01*
X107389536Y-67989226D01*
X107370791Y-68034481D01*
X107174518Y-68230755D01*
X107129263Y-68249500D01*
X106931445Y-68249500D01*
X106886190Y-68230755D01*
X106867445Y-68185500D01*
X106881922Y-68150546D01*
X106879256Y-68148720D01*
X106882602Y-68143833D01*
X106882608Y-68143828D01*
X106927609Y-68041909D01*
X106927609Y-68041906D01*
X106927610Y-68041905D01*
X106930498Y-68017008D01*
X106930497Y-68017008D01*
X106930500Y-68016991D01*
X106930499Y-67583010D01*
X106927609Y-67558091D01*
X106882608Y-67456172D01*
X106803828Y-67377392D01*
X106792787Y-67372517D01*
X106758961Y-67337090D01*
X106760092Y-67288120D01*
X106783084Y-67260756D01*
X106814658Y-67239659D01*
X106874335Y-67150348D01*
X106874336Y-67150346D01*
X106890000Y-67071597D01*
X106890000Y-66975000D01*
X106444000Y-66975000D01*
X106398745Y-66956255D01*
X106380000Y-66911000D01*
X106380000Y-66839000D01*
X106398745Y-66793745D01*
X106444000Y-66775000D01*
X106889999Y-66775000D01*
X106889999Y-66679500D01*
X106908744Y-66634245D01*
X106953999Y-66615500D01*
X107224263Y-66615500D01*
X107269518Y-66634245D01*
G37*
%TD.AperFunction*%
%TA.AperFunction,Conductor*%
G36*
X103850000Y-67546207D02*
G01*
X103819177Y-67515384D01*
X103819175Y-67515383D01*
X103819174Y-67515382D01*
X103804960Y-67509106D01*
X103771134Y-67473678D01*
X103772267Y-67424707D01*
X103785553Y-67405311D01*
X103850000Y-67340864D01*
X103850000Y-67546207D01*
G37*
%TD.AperFunction*%
%TA.AperFunction,Conductor*%
G36*
X108370755Y-64344245D02*
G01*
X108389500Y-64389500D01*
X108389500Y-64603366D01*
X108389501Y-64603375D01*
X108390616Y-64612984D01*
X108392318Y-64627662D01*
X108436187Y-64727016D01*
X108512984Y-64803813D01*
X108612338Y-64847682D01*
X108622265Y-64848833D01*
X108665057Y-64872667D01*
X108678464Y-64919781D01*
X108654630Y-64962574D01*
X108627376Y-64975177D01*
X108574654Y-64985663D01*
X108574652Y-64985664D01*
X108485340Y-65045341D01*
X108425664Y-65134651D01*
X108425663Y-65134653D01*
X108410000Y-65213402D01*
X108410000Y-65280000D01*
X108886000Y-65280000D01*
X108931255Y-65298745D01*
X108950000Y-65344000D01*
X108950000Y-65789999D01*
X109046595Y-65789999D01*
X109083014Y-65782755D01*
X109131057Y-65792311D01*
X109158270Y-65833039D01*
X109159500Y-65845525D01*
X109159500Y-66407178D01*
X109140755Y-66452433D01*
X109095500Y-66471178D01*
X109059944Y-66460392D01*
X109045387Y-66450666D01*
X109045382Y-66450663D01*
X108966634Y-66435000D01*
X108900036Y-66435000D01*
X108900036Y-66911000D01*
X108881291Y-66956255D01*
X108836036Y-66975000D01*
X108764036Y-66975000D01*
X108718781Y-66956255D01*
X108700036Y-66911000D01*
X108700036Y-66435000D01*
X108633438Y-66435000D01*
X108633435Y-66435001D01*
X108629051Y-66435873D01*
X108581010Y-66426313D01*
X108553800Y-66385582D01*
X108563360Y-66337541D01*
X108568198Y-66331197D01*
X108606714Y-66286747D01*
X108660529Y-66168910D01*
X108678965Y-66040684D01*
X108660529Y-65912458D01*
X108645973Y-65880585D01*
X108644225Y-65831633D01*
X108677604Y-65795782D01*
X108704190Y-65789999D01*
X108750000Y-65789999D01*
X108750000Y-65480000D01*
X108418809Y-65480000D01*
X108373554Y-65461255D01*
X108220141Y-65307842D01*
X108201396Y-65262587D01*
X108212180Y-65227033D01*
X108233178Y-65195609D01*
X108233179Y-65195605D01*
X108245536Y-65133483D01*
X108245536Y-64966516D01*
X108233179Y-64904394D01*
X108233178Y-64904390D01*
X108187184Y-64835556D01*
X108177628Y-64787514D01*
X108187184Y-64764444D01*
X108203172Y-64740517D01*
X108233178Y-64695609D01*
X108234390Y-64689517D01*
X108245536Y-64633483D01*
X108245536Y-64466517D01*
X108232700Y-64401986D01*
X108242256Y-64353943D01*
X108282984Y-64326730D01*
X108295470Y-64325500D01*
X108325500Y-64325500D01*
X108370755Y-64344245D01*
G37*
%TD.AperFunction*%
%TA.AperFunction,Conductor*%
G36*
X103818522Y-66311968D02*
G01*
X103850000Y-66318229D01*
X103850000Y-66659135D01*
X103777052Y-66586187D01*
X103772160Y-66582836D01*
X103773622Y-66580701D01*
X103746353Y-66552131D01*
X103742036Y-66529023D01*
X103742036Y-66374738D01*
X103760781Y-66329483D01*
X103806036Y-66310738D01*
X103818522Y-66311968D01*
G37*
%TD.AperFunction*%
%TA.AperFunction,Conductor*%
G36*
X104214747Y-66300000D02*
G01*
X104135313Y-66300000D01*
X104143860Y-66294289D01*
X104191899Y-66284734D01*
X104214747Y-66300000D01*
G37*
%TD.AperFunction*%
%TA.AperFunction,Conductor*%
G36*
X99730755Y-62564518D02*
G01*
X99749500Y-62609773D01*
X99749500Y-62764821D01*
X99758233Y-62808722D01*
X99758234Y-62808724D01*
X99791494Y-62858502D01*
X99791497Y-62858505D01*
X99804672Y-62867308D01*
X99841278Y-62891767D01*
X99876446Y-62898762D01*
X99885179Y-62900500D01*
X99885180Y-62900500D01*
X100389227Y-62900500D01*
X100434482Y-62919245D01*
X100525982Y-63010745D01*
X100544727Y-63056000D01*
X100525982Y-63101255D01*
X100480727Y-63120000D01*
X100400000Y-63120000D01*
X100400000Y-64280000D01*
X100712805Y-64280000D01*
X100750723Y-64272456D01*
X100750726Y-64272455D01*
X100774153Y-64256802D01*
X100822195Y-64247245D01*
X100862923Y-64274458D01*
X100872480Y-64322500D01*
X100854965Y-64355270D01*
X100799480Y-64410755D01*
X100754225Y-64429500D01*
X100462383Y-64429500D01*
X100462374Y-64429501D01*
X100438502Y-64432270D01*
X100340859Y-64475384D01*
X100265384Y-64550859D01*
X100265383Y-64550861D01*
X100252980Y-64578949D01*
X100217551Y-64612775D01*
X100168581Y-64611642D01*
X100149182Y-64598353D01*
X100087016Y-64536187D01*
X99987662Y-64492318D01*
X99987661Y-64492317D01*
X99987657Y-64492316D01*
X99987658Y-64492316D01*
X99963390Y-64489501D01*
X99963373Y-64489500D01*
X99963372Y-64489500D01*
X99750773Y-64489500D01*
X99705518Y-64470755D01*
X99397568Y-64162805D01*
X99770000Y-64162805D01*
X99777543Y-64200723D01*
X99777544Y-64200725D01*
X99806273Y-64243722D01*
X99806277Y-64243726D01*
X99849274Y-64272455D01*
X99849276Y-64272456D01*
X99887195Y-64280000D01*
X100200000Y-64280000D01*
X100200000Y-63800000D01*
X99770000Y-63800000D01*
X99770000Y-64162805D01*
X99397568Y-64162805D01*
X99234245Y-63999482D01*
X99215500Y-63954227D01*
X99215500Y-63237194D01*
X99770000Y-63237194D01*
X99770000Y-63600000D01*
X100200000Y-63600000D01*
X100200000Y-63120000D01*
X99887195Y-63120000D01*
X99849276Y-63127543D01*
X99849274Y-63127544D01*
X99806277Y-63156273D01*
X99806273Y-63156277D01*
X99777544Y-63199274D01*
X99777543Y-63199276D01*
X99770000Y-63237194D01*
X99215500Y-63237194D01*
X99215500Y-63015773D01*
X99234245Y-62970518D01*
X99640245Y-62564518D01*
X99685500Y-62545773D01*
X99730755Y-62564518D01*
G37*
%TD.AperFunction*%
%TA.AperFunction,Conductor*%
G36*
X105255592Y-61392148D02*
G01*
X105324426Y-61438142D01*
X105324430Y-61438143D01*
X105386552Y-61450500D01*
X105386556Y-61450500D01*
X105406589Y-61450500D01*
X105451844Y-61469245D01*
X105470589Y-61514500D01*
X105464805Y-61541087D01*
X105414475Y-61651291D01*
X105396039Y-61779520D01*
X105414475Y-61907748D01*
X105468288Y-62025580D01*
X105468290Y-62025583D01*
X105501655Y-62064089D01*
X105517124Y-62110566D01*
X105495198Y-62154368D01*
X105453287Y-62170000D01*
X105320036Y-62170000D01*
X105320036Y-63336000D01*
X105301291Y-63381255D01*
X105256036Y-63400000D01*
X105184036Y-63400000D01*
X105138781Y-63381255D01*
X105120036Y-63336000D01*
X105120036Y-62170000D01*
X104637286Y-62170000D01*
X104592031Y-62151255D01*
X104573286Y-62106000D01*
X104588918Y-62064089D01*
X104615051Y-62033930D01*
X104668866Y-61916093D01*
X104687302Y-61787867D01*
X104668866Y-61659641D01*
X104664000Y-61648987D01*
X104615052Y-61541806D01*
X104615050Y-61541803D01*
X104614430Y-61541087D01*
X104605885Y-61531226D01*
X104590417Y-61484750D01*
X104612343Y-61440948D01*
X104618698Y-61436102D01*
X104684480Y-61392148D01*
X104732522Y-61382592D01*
X104755592Y-61392148D01*
X104824426Y-61438142D01*
X104824430Y-61438143D01*
X104886552Y-61450500D01*
X104886556Y-61450500D01*
X105053519Y-61450500D01*
X105115641Y-61438143D01*
X105115645Y-61438142D01*
X105184480Y-61392148D01*
X105232522Y-61382592D01*
X105255592Y-61392148D01*
G37*
%TD.AperFunction*%
%TA.AperFunction,Conductor*%
G36*
X99479255Y-55384743D02*
G01*
X99493137Y-55405527D01*
X99502755Y-55428770D01*
X99502880Y-55428957D01*
X99502883Y-55428960D01*
X99502884Y-55428961D01*
X99531055Y-55457086D01*
X99559132Y-55485184D01*
X99559329Y-55485315D01*
X99559330Y-55485315D01*
X99559332Y-55485317D01*
X99595988Y-55500465D01*
X99596045Y-55500522D01*
X99596057Y-55500494D01*
X99632811Y-55515733D01*
X99632812Y-55515733D01*
X99632814Y-55515734D01*
X99632816Y-55515734D01*
X99633039Y-55515778D01*
X99633044Y-55515779D01*
X99633049Y-55515781D01*
X99633053Y-55515780D01*
X99633138Y-55515798D01*
X99638871Y-55516940D01*
X99638963Y-55516949D01*
X99639226Y-55517001D01*
X99638980Y-55518244D01*
X99639140Y-55518293D01*
X99639183Y-55518311D01*
X99638773Y-55519288D01*
X99638580Y-55520265D01*
X99673007Y-55534484D01*
X99691798Y-55579720D01*
X99673099Y-55624994D01*
X99640284Y-55642555D01*
X99624654Y-55645663D01*
X99624652Y-55645664D01*
X99535340Y-55705341D01*
X99475664Y-55794651D01*
X99475663Y-55794653D01*
X99460000Y-55873402D01*
X99460000Y-55940000D01*
X100339999Y-55940000D01*
X100339999Y-55873403D01*
X100339998Y-55873402D01*
X100324336Y-55794655D01*
X100324335Y-55794652D01*
X100267303Y-55709299D01*
X100257747Y-55661257D01*
X100284960Y-55620528D01*
X100296012Y-55614620D01*
X100388127Y-55576465D01*
X100462416Y-55526826D01*
X100497990Y-55516041D01*
X100538274Y-55516056D01*
X100583522Y-55534818D01*
X100602250Y-55580056D01*
X100602250Y-55755000D01*
X101076000Y-55755000D01*
X101121255Y-55773745D01*
X101140000Y-55819000D01*
X101140000Y-55891000D01*
X101121255Y-55936255D01*
X101076000Y-55955000D01*
X100602250Y-55955000D01*
X100602250Y-56155000D01*
X101076000Y-56155000D01*
X101121255Y-56173745D01*
X101140000Y-56219000D01*
X101140000Y-56291000D01*
X101121255Y-56336255D01*
X101076000Y-56355000D01*
X100602250Y-56355000D01*
X100602250Y-56367804D01*
X100604895Y-56381098D01*
X100606125Y-56393587D01*
X100606125Y-56417805D01*
X100613668Y-56455723D01*
X100613669Y-56455725D01*
X100620194Y-56465491D01*
X100629750Y-56513533D01*
X100602536Y-56554261D01*
X100579467Y-56563817D01*
X100571640Y-56565373D01*
X100571637Y-56565375D01*
X100483982Y-56623943D01*
X100483979Y-56623946D01*
X100427878Y-56707909D01*
X100387150Y-56735123D01*
X100339108Y-56725567D01*
X100316117Y-56698203D01*
X100315293Y-56696337D01*
X100313813Y-56692984D01*
X100237016Y-56616187D01*
X100137662Y-56572318D01*
X100137661Y-56572317D01*
X100137657Y-56572316D01*
X100137658Y-56572316D01*
X100127732Y-56571165D01*
X100084939Y-56547329D01*
X100071536Y-56500215D01*
X100095372Y-56457422D01*
X100122625Y-56444821D01*
X100175348Y-56434334D01*
X100264659Y-56374658D01*
X100324335Y-56285348D01*
X100324336Y-56285346D01*
X100340000Y-56206597D01*
X100340000Y-56140000D01*
X99460001Y-56140000D01*
X99460001Y-56206597D01*
X99475663Y-56285344D01*
X99475664Y-56285347D01*
X99535341Y-56374659D01*
X99624651Y-56434335D01*
X99624653Y-56434336D01*
X99677375Y-56444823D01*
X99718103Y-56472036D01*
X99727659Y-56520079D01*
X99700446Y-56560807D01*
X99672264Y-56571166D01*
X99662355Y-56572316D01*
X99662338Y-56572318D01*
X99562984Y-56616187D01*
X99486187Y-56692984D01*
X99442318Y-56792338D01*
X99439500Y-56816627D01*
X99439500Y-57183366D01*
X99439501Y-57183375D01*
X99440317Y-57190409D01*
X99442318Y-57207662D01*
X99486187Y-57307016D01*
X99555755Y-57376584D01*
X99574500Y-57421838D01*
X99574500Y-57485500D01*
X99555755Y-57530755D01*
X99510501Y-57549500D01*
X99455141Y-57549500D01*
X99455132Y-57549501D01*
X99430006Y-57552415D01*
X99352928Y-57586449D01*
X99327235Y-57597794D01*
X99247794Y-57677235D01*
X99202415Y-57780009D01*
X99199500Y-57805135D01*
X99199500Y-58919858D01*
X99199501Y-58919867D01*
X99202415Y-58944993D01*
X99225104Y-58996378D01*
X99247794Y-59047765D01*
X99327235Y-59127206D01*
X99430009Y-59172585D01*
X99455135Y-59175500D01*
X99591911Y-59175499D01*
X99637166Y-59194244D01*
X100053387Y-59610465D01*
X100127610Y-59653318D01*
X100127612Y-59653318D01*
X100127613Y-59653319D01*
X100210395Y-59675500D01*
X100210396Y-59675500D01*
X100296102Y-59675500D01*
X100719437Y-59675500D01*
X100764692Y-59694245D01*
X100767805Y-59697589D01*
X100785004Y-59717438D01*
X100785010Y-59717443D01*
X100839853Y-59752688D01*
X100893986Y-59787477D01*
X101018283Y-59823973D01*
X101018284Y-59823973D01*
X101121547Y-59823973D01*
X101166802Y-59842718D01*
X101185547Y-59887973D01*
X101166802Y-59933226D01*
X101157119Y-59942910D01*
X101147794Y-59952235D01*
X101102415Y-60055009D01*
X101099500Y-60080135D01*
X101099500Y-61194858D01*
X101099501Y-61194867D01*
X101102415Y-61219993D01*
X101113001Y-61243967D01*
X101147794Y-61322765D01*
X101227235Y-61402206D01*
X101330009Y-61447585D01*
X101355135Y-61450500D01*
X101744864Y-61450499D01*
X101769991Y-61447585D01*
X101824685Y-61423434D01*
X101873655Y-61422304D01*
X101909083Y-61456130D01*
X101914536Y-61481982D01*
X101914536Y-61662251D01*
X101895791Y-61707506D01*
X101850536Y-61726251D01*
X101838051Y-61725021D01*
X101812808Y-61720000D01*
X101500000Y-61720000D01*
X101500000Y-62336000D01*
X101481255Y-62381255D01*
X101436000Y-62400000D01*
X101364000Y-62400000D01*
X101318745Y-62381255D01*
X101300000Y-62336000D01*
X101300000Y-61720000D01*
X100987195Y-61720000D01*
X100949276Y-61727543D01*
X100949274Y-61727544D01*
X100901034Y-61759777D01*
X100899587Y-61757611D01*
X100863457Y-61772567D01*
X100818207Y-61753811D01*
X100810259Y-61744123D01*
X100808504Y-61741496D01*
X100808502Y-61741495D01*
X100808502Y-61741494D01*
X100758724Y-61708234D01*
X100758722Y-61708233D01*
X100714821Y-61699500D01*
X100714820Y-61699500D01*
X99885180Y-61699500D01*
X99885179Y-61699500D01*
X99841277Y-61708233D01*
X99841275Y-61708234D01*
X99791497Y-61741494D01*
X99791494Y-61741497D01*
X99758234Y-61791275D01*
X99758233Y-61791277D01*
X99749500Y-61835178D01*
X99749500Y-62020500D01*
X99730755Y-62065755D01*
X99685500Y-62084500D01*
X99557133Y-62084500D01*
X99477928Y-62117308D01*
X98877929Y-62717308D01*
X98877928Y-62717308D01*
X98843896Y-62751339D01*
X98803129Y-62768224D01*
X98809592Y-62783826D01*
X98804721Y-62808316D01*
X98788329Y-62847892D01*
X98784500Y-62857135D01*
X98784500Y-62921081D01*
X98765755Y-62966336D01*
X98720500Y-62985081D01*
X98675246Y-62966336D01*
X98630860Y-62921950D01*
X98630857Y-62921948D01*
X98626782Y-62918987D01*
X98627531Y-62917955D01*
X98599195Y-62884781D01*
X98603035Y-62835948D01*
X98627281Y-62811701D01*
X98626782Y-62811013D01*
X98630856Y-62808052D01*
X98630855Y-62808052D01*
X98630860Y-62808050D01*
X98700340Y-62738569D01*
X98741104Y-62721684D01*
X98734642Y-62706083D01*
X98741617Y-62677030D01*
X98778164Y-62605304D01*
X98793018Y-62511519D01*
X98793017Y-61948482D01*
X98778164Y-61854696D01*
X98720568Y-61741658D01*
X98630860Y-61651950D01*
X98630857Y-61651948D01*
X98626782Y-61648987D01*
X98627531Y-61647955D01*
X98599195Y-61614781D01*
X98603035Y-61565948D01*
X98627281Y-61541701D01*
X98626782Y-61541013D01*
X98630857Y-61538052D01*
X98630857Y-61538051D01*
X98630860Y-61538050D01*
X98720568Y-61448342D01*
X98778164Y-61335304D01*
X98793018Y-61241519D01*
X98793017Y-60678482D01*
X98778164Y-60584696D01*
X98720568Y-60471658D01*
X98630860Y-60381950D01*
X98630857Y-60381948D01*
X98626782Y-60378987D01*
X98627531Y-60377955D01*
X98599195Y-60344781D01*
X98603035Y-60295948D01*
X98627281Y-60271701D01*
X98626782Y-60271013D01*
X98630857Y-60268052D01*
X98630857Y-60268051D01*
X98630860Y-60268050D01*
X98720568Y-60178342D01*
X98770607Y-60080135D01*
X99199500Y-60080135D01*
X99199500Y-61194858D01*
X99199501Y-61194867D01*
X99202415Y-61219993D01*
X99213001Y-61243967D01*
X99247794Y-61322765D01*
X99327235Y-61402206D01*
X99430009Y-61447585D01*
X99455135Y-61450500D01*
X99844864Y-61450499D01*
X99869991Y-61447585D01*
X99972765Y-61402206D01*
X100052206Y-61322765D01*
X100097585Y-61219991D01*
X100100500Y-61194865D01*
X100100499Y-60080136D01*
X100097585Y-60055009D01*
X100052206Y-59952235D01*
X99972765Y-59872794D01*
X99869991Y-59827415D01*
X99844865Y-59824500D01*
X99844863Y-59824500D01*
X99455141Y-59824500D01*
X99455132Y-59824501D01*
X99430006Y-59827415D01*
X99358170Y-59859135D01*
X99327235Y-59872794D01*
X99247794Y-59952235D01*
X99202415Y-60055009D01*
X99199500Y-60080135D01*
X98770607Y-60080135D01*
X98778164Y-60065304D01*
X98793018Y-59971519D01*
X98793017Y-59408482D01*
X98778164Y-59314696D01*
X98720568Y-59201658D01*
X98630860Y-59111950D01*
X98630857Y-59111948D01*
X98626782Y-59108987D01*
X98627531Y-59107955D01*
X98599195Y-59074781D01*
X98603035Y-59025948D01*
X98627281Y-59001701D01*
X98626782Y-59001013D01*
X98630857Y-58998052D01*
X98630857Y-58998051D01*
X98630860Y-58998050D01*
X98720568Y-58908342D01*
X98778164Y-58795304D01*
X98793018Y-58701519D01*
X98793017Y-58138482D01*
X98778164Y-58044696D01*
X98720568Y-57931658D01*
X98630860Y-57841950D01*
X98630857Y-57841948D01*
X98626782Y-57838987D01*
X98627531Y-57837955D01*
X98599195Y-57804781D01*
X98603035Y-57755948D01*
X98627281Y-57731701D01*
X98626782Y-57731013D01*
X98630857Y-57728052D01*
X98630857Y-57728051D01*
X98630860Y-57728050D01*
X98720568Y-57638342D01*
X98778164Y-57525304D01*
X98793018Y-57431519D01*
X98793017Y-56868482D01*
X98778164Y-56774696D01*
X98720568Y-56661658D01*
X98630860Y-56571950D01*
X98630857Y-56571948D01*
X98630855Y-56571947D01*
X98517827Y-56514356D01*
X98517820Y-56514353D01*
X98461920Y-56505500D01*
X98424037Y-56499500D01*
X98424034Y-56499500D01*
X98155137Y-56499500D01*
X98109882Y-56480755D01*
X98091137Y-56435518D01*
X98091136Y-56432270D01*
X98091053Y-56135920D01*
X98109785Y-56090662D01*
X98155035Y-56071904D01*
X98190610Y-56082690D01*
X98294214Y-56151916D01*
X98294217Y-56151917D01*
X98427069Y-56206946D01*
X98427071Y-56206947D01*
X98539999Y-56229410D01*
X98540000Y-56229410D01*
X98540000Y-55788788D01*
X98600504Y-55805000D01*
X98679496Y-55805000D01*
X98740000Y-55788788D01*
X98740000Y-56229410D01*
X98852928Y-56206947D01*
X98852930Y-56206946D01*
X98985782Y-56151917D01*
X98985790Y-56151913D01*
X99105347Y-56072028D01*
X99207028Y-55970347D01*
X99286913Y-55850790D01*
X99286917Y-55850782D01*
X99341946Y-55717930D01*
X99341947Y-55717928D01*
X99370000Y-55576901D01*
X99370000Y-55429998D01*
X99388745Y-55384743D01*
X99434000Y-55365998D01*
X99479255Y-55384743D01*
G37*
%TD.AperFunction*%
%TA.AperFunction,Conductor*%
G36*
X109099790Y-56918599D02*
G01*
X109102903Y-56921943D01*
X109121987Y-56943967D01*
X109230967Y-57014004D01*
X109355264Y-57050500D01*
X109355265Y-57050500D01*
X109484807Y-57050500D01*
X109484808Y-57050500D01*
X109609105Y-57014004D01*
X109609105Y-57014003D01*
X109613498Y-57012714D01*
X109613851Y-57013918D01*
X109657853Y-57012337D01*
X109693711Y-57045708D01*
X109699500Y-57072307D01*
X109699500Y-57431516D01*
X109714353Y-57525300D01*
X109714356Y-57525308D01*
X109754708Y-57604504D01*
X109771950Y-57638342D01*
X109861658Y-57728050D01*
X109883124Y-57738987D01*
X109914936Y-57776234D01*
X109911094Y-57825067D01*
X109882179Y-57853509D01*
X109876137Y-57856462D01*
X109786462Y-57946137D01*
X109730762Y-58060073D01*
X109730760Y-58060078D01*
X109720000Y-58133938D01*
X109720000Y-58320000D01*
X110290331Y-58320000D01*
X110275000Y-58377213D01*
X110275000Y-58462787D01*
X110290331Y-58520000D01*
X109720001Y-58520000D01*
X109720001Y-58706054D01*
X109730762Y-58779927D01*
X109786462Y-58893862D01*
X109876137Y-58983537D01*
X109882174Y-58986488D01*
X109914600Y-59023203D01*
X109911568Y-59072092D01*
X109883126Y-59101011D01*
X109861659Y-59111949D01*
X109861658Y-59111949D01*
X109861658Y-59111950D01*
X109771950Y-59201658D01*
X109771948Y-59201660D01*
X109771948Y-59201661D01*
X109771947Y-59201662D01*
X109714356Y-59314690D01*
X109714353Y-59314697D01*
X109704084Y-59379539D01*
X109700908Y-59399595D01*
X109699500Y-59408483D01*
X109699500Y-59971516D01*
X109714353Y-60065300D01*
X109714356Y-60065308D01*
X109754387Y-60143874D01*
X109771950Y-60178342D01*
X109861658Y-60268050D01*
X109861660Y-60268051D01*
X109861661Y-60268052D01*
X109865736Y-60271013D01*
X109864986Y-60272043D01*
X109893324Y-60305225D01*
X109889480Y-60354057D01*
X109865236Y-60378300D01*
X109865736Y-60378987D01*
X109861661Y-60381948D01*
X109861660Y-60381948D01*
X109861658Y-60381950D01*
X109771950Y-60471658D01*
X109771948Y-60471660D01*
X109771947Y-60471662D01*
X109714356Y-60584690D01*
X109714353Y-60584697D01*
X109699500Y-60678483D01*
X109699500Y-61241516D01*
X109714353Y-61335300D01*
X109714356Y-61335308D01*
X109771563Y-61447584D01*
X109771950Y-61448342D01*
X109861658Y-61538050D01*
X109861660Y-61538051D01*
X109861661Y-61538052D01*
X109865736Y-61541013D01*
X109864986Y-61542043D01*
X109893324Y-61575225D01*
X109889480Y-61624057D01*
X109865236Y-61648300D01*
X109865736Y-61648987D01*
X109861661Y-61651948D01*
X109861660Y-61651948D01*
X109861658Y-61651950D01*
X109771950Y-61741658D01*
X109771948Y-61741660D01*
X109771947Y-61741662D01*
X109714356Y-61854690D01*
X109714353Y-61854697D01*
X109712223Y-61868151D01*
X109686629Y-61909916D01*
X109638999Y-61921351D01*
X109603756Y-61903394D01*
X109329244Y-61628882D01*
X109310499Y-61583627D01*
X109310499Y-61396633D01*
X109310499Y-61396628D01*
X109307682Y-61372338D01*
X109263813Y-61272984D01*
X109187016Y-61196187D01*
X109087662Y-61152318D01*
X109087661Y-61152317D01*
X109087657Y-61152316D01*
X109087658Y-61152316D01*
X109077732Y-61151165D01*
X109034939Y-61127329D01*
X109021536Y-61080215D01*
X109045372Y-61037422D01*
X109072625Y-61024821D01*
X109125348Y-61014334D01*
X109214659Y-60954658D01*
X109274335Y-60865348D01*
X109274336Y-60865346D01*
X109290000Y-60786597D01*
X109290000Y-60720000D01*
X108814000Y-60720000D01*
X108768745Y-60701255D01*
X108750000Y-60656000D01*
X108750000Y-60520000D01*
X108950000Y-60520000D01*
X109289999Y-60520000D01*
X109289999Y-60453403D01*
X109289998Y-60453402D01*
X109274336Y-60374655D01*
X109274335Y-60374652D01*
X109214658Y-60285340D01*
X109125348Y-60225664D01*
X109125346Y-60225663D01*
X109046598Y-60210000D01*
X108950000Y-60210000D01*
X108950000Y-60520000D01*
X108750000Y-60520000D01*
X108750000Y-60210000D01*
X108708120Y-60210000D01*
X108662865Y-60191255D01*
X108644120Y-60146000D01*
X108662865Y-60100745D01*
X108672564Y-60092786D01*
X108714657Y-60064660D01*
X108714658Y-60064659D01*
X108774335Y-59975348D01*
X108774336Y-59975346D01*
X108790000Y-59896597D01*
X108790000Y-59800000D01*
X108480000Y-59800000D01*
X108480000Y-60139999D01*
X108491880Y-60139999D01*
X108537135Y-60158744D01*
X108555880Y-60203999D01*
X108537135Y-60249254D01*
X108527437Y-60257213D01*
X108485340Y-60285341D01*
X108485339Y-60285342D01*
X108462279Y-60319853D01*
X108421550Y-60347066D01*
X108373508Y-60337508D01*
X108349311Y-60301294D01*
X108348514Y-60301625D01*
X108346851Y-60297612D01*
X108346295Y-60296779D01*
X108346295Y-60296776D01*
X108346102Y-60295809D01*
X108346102Y-60295802D01*
X108316443Y-60224201D01*
X108304159Y-60194543D01*
X108298743Y-60189127D01*
X108280000Y-60143874D01*
X108280000Y-59664000D01*
X108298745Y-59618745D01*
X108344000Y-59600000D01*
X108789999Y-59600000D01*
X108789999Y-59503403D01*
X108789998Y-59503402D01*
X108774336Y-59424655D01*
X108774335Y-59424652D01*
X108711157Y-59330100D01*
X108713098Y-59328802D01*
X108697874Y-59292046D01*
X108716619Y-59246791D01*
X108754500Y-59228472D01*
X108761945Y-59227609D01*
X108863864Y-59182608D01*
X108942644Y-59103828D01*
X108987645Y-59001909D01*
X108987645Y-59001906D01*
X108987646Y-59001905D01*
X108990534Y-58977008D01*
X108990533Y-58977008D01*
X108990536Y-58976991D01*
X108990535Y-58593010D01*
X108987645Y-58568091D01*
X108942644Y-58466172D01*
X108863864Y-58387392D01*
X108798532Y-58358545D01*
X108764707Y-58323120D01*
X108765838Y-58274149D01*
X108798532Y-58241454D01*
X108863864Y-58212608D01*
X108942644Y-58133828D01*
X108987645Y-58031909D01*
X108987645Y-58031906D01*
X108987646Y-58031905D01*
X108990534Y-58007008D01*
X108990533Y-58007008D01*
X108990536Y-58006991D01*
X108990535Y-57623010D01*
X108987645Y-57598091D01*
X108942644Y-57496172D01*
X108916970Y-57470498D01*
X108885976Y-57439503D01*
X108867231Y-57394248D01*
X108885976Y-57348995D01*
X108942644Y-57292328D01*
X108987645Y-57190409D01*
X108987645Y-57190406D01*
X108987646Y-57190405D01*
X108990534Y-57165508D01*
X108990533Y-57165508D01*
X108990536Y-57165491D01*
X108990535Y-56963852D01*
X109009280Y-56918599D01*
X109054535Y-56899854D01*
X109099790Y-56918599D01*
G37*
%TD.AperFunction*%
%TA.AperFunction,Conductor*%
G36*
X105246979Y-56507139D02*
G01*
X105274193Y-56547866D01*
X105275423Y-56560353D01*
X105275423Y-56565827D01*
X105308231Y-56645032D01*
X105340791Y-56677592D01*
X105359536Y-56722847D01*
X105359536Y-57127616D01*
X105359537Y-57127622D01*
X105362306Y-57151498D01*
X105405420Y-57249141D01*
X105480895Y-57324616D01*
X105578538Y-57367730D01*
X105602413Y-57370500D01*
X105957658Y-57370499D01*
X105981534Y-57367730D01*
X106079177Y-57324616D01*
X106149782Y-57254010D01*
X106195036Y-57235266D01*
X106240289Y-57254010D01*
X106310895Y-57324616D01*
X106408538Y-57367730D01*
X106432413Y-57370500D01*
X106787658Y-57370499D01*
X106811534Y-57367730D01*
X106909177Y-57324616D01*
X106984652Y-57249141D01*
X107027766Y-57151498D01*
X107030536Y-57127623D01*
X107030536Y-57111104D01*
X107230036Y-57111104D01*
X107245409Y-57188395D01*
X107245411Y-57188398D01*
X107303979Y-57276053D01*
X107303982Y-57276056D01*
X107391637Y-57334624D01*
X107391640Y-57334626D01*
X107468931Y-57350000D01*
X107530036Y-57350000D01*
X107530036Y-57000000D01*
X107230036Y-57000000D01*
X107230036Y-57111104D01*
X107030536Y-57111104D01*
X107030535Y-56672378D01*
X107027766Y-56648502D01*
X107013359Y-56615875D01*
X107012229Y-56566907D01*
X107046056Y-56531479D01*
X107084395Y-56527256D01*
X107123321Y-56535000D01*
X107182663Y-56535000D01*
X107227918Y-56553745D01*
X107246663Y-56599000D01*
X107245433Y-56611485D01*
X107230036Y-56688894D01*
X107230036Y-56800000D01*
X107666036Y-56800000D01*
X107711291Y-56818745D01*
X107730036Y-56864000D01*
X107730036Y-57350000D01*
X107791141Y-57350000D01*
X107868431Y-57334626D01*
X107868434Y-57334624D01*
X107956089Y-57276056D01*
X107956091Y-57276054D01*
X107972152Y-57252017D01*
X108012880Y-57224802D01*
X108060922Y-57234357D01*
X108083913Y-57261720D01*
X108097428Y-57292328D01*
X108154095Y-57348995D01*
X108172840Y-57394249D01*
X108154096Y-57439503D01*
X108097428Y-57496172D01*
X108052425Y-57598094D01*
X108049537Y-57622991D01*
X108049536Y-57623005D01*
X108049536Y-57623009D01*
X108049536Y-57785646D01*
X108049537Y-57908000D01*
X108030792Y-57953255D01*
X107985537Y-57972000D01*
X107909933Y-57972000D01*
X107874377Y-57961214D01*
X107828760Y-57930734D01*
X107828758Y-57930733D01*
X107784857Y-57922000D01*
X107784856Y-57922000D01*
X107155216Y-57922000D01*
X107155215Y-57922000D01*
X107111313Y-57930733D01*
X107111311Y-57930734D01*
X107061533Y-57963994D01*
X107061530Y-57963997D01*
X107028270Y-58013775D01*
X107028269Y-58013777D01*
X107019536Y-58057678D01*
X107019536Y-58537321D01*
X107028269Y-58581222D01*
X107028270Y-58581224D01*
X107061530Y-58631002D01*
X107061533Y-58631005D01*
X107080937Y-58643970D01*
X107111314Y-58664267D01*
X107146482Y-58671262D01*
X107155215Y-58673000D01*
X107155216Y-58673000D01*
X107784857Y-58673000D01*
X107790325Y-58671911D01*
X107828758Y-58664267D01*
X107840238Y-58656596D01*
X107888276Y-58647039D01*
X107921048Y-58664555D01*
X108030791Y-58774298D01*
X108049536Y-58819553D01*
X108049536Y-58976986D01*
X108049537Y-58976994D01*
X108051849Y-58996925D01*
X108052427Y-59001909D01*
X108097428Y-59103828D01*
X108162265Y-59168665D01*
X108181010Y-59213919D01*
X108162265Y-59259174D01*
X108139656Y-59271271D01*
X108140477Y-59273252D01*
X108134652Y-59275664D01*
X108045340Y-59335341D01*
X107985664Y-59424651D01*
X107985663Y-59424653D01*
X107975176Y-59477376D01*
X107947962Y-59518104D01*
X107899919Y-59527659D01*
X107859191Y-59500445D01*
X107848833Y-59472262D01*
X107847682Y-59462338D01*
X107803813Y-59362984D01*
X107727016Y-59286187D01*
X107627662Y-59242318D01*
X107603373Y-59239500D01*
X107603371Y-59239500D01*
X107236633Y-59239500D01*
X107236624Y-59239501D01*
X107212338Y-59242318D01*
X107112984Y-59286187D01*
X107036187Y-59362984D01*
X107018546Y-59402936D01*
X106983119Y-59436763D01*
X106934149Y-59435632D01*
X106901453Y-59402936D01*
X106883813Y-59362984D01*
X106807016Y-59286187D01*
X106707662Y-59242318D01*
X106683373Y-59239500D01*
X106683371Y-59239500D01*
X106316633Y-59239500D01*
X106316624Y-59239501D01*
X106292338Y-59242318D01*
X106192984Y-59286187D01*
X106116187Y-59362984D01*
X106072316Y-59462341D01*
X106071165Y-59472268D01*
X106047328Y-59515060D01*
X106000214Y-59528463D01*
X105957422Y-59504626D01*
X105944822Y-59477375D01*
X105934336Y-59424655D01*
X105934335Y-59424652D01*
X105874658Y-59335340D01*
X105785348Y-59275664D01*
X105785346Y-59275663D01*
X105706598Y-59260000D01*
X105640000Y-59260000D01*
X105640000Y-60139999D01*
X105706596Y-60139999D01*
X105706597Y-60139998D01*
X105785344Y-60124336D01*
X105785347Y-60124335D01*
X105874659Y-60064658D01*
X105934335Y-59975348D01*
X105934336Y-59975345D01*
X105944823Y-59922625D01*
X105972036Y-59881896D01*
X106020078Y-59872340D01*
X106060807Y-59899553D01*
X106071166Y-59927735D01*
X106072318Y-59937662D01*
X106116187Y-60037016D01*
X106175791Y-60096620D01*
X106194536Y-60141874D01*
X106194536Y-60224565D01*
X106175791Y-60269820D01*
X106130536Y-60288565D01*
X106118051Y-60287335D01*
X106053520Y-60274500D01*
X106053516Y-60274500D01*
X105886556Y-60274500D01*
X105886552Y-60274500D01*
X105824430Y-60286856D01*
X105824426Y-60286858D01*
X105755592Y-60332851D01*
X105707550Y-60342407D01*
X105684480Y-60332851D01*
X105615645Y-60286858D01*
X105615641Y-60286856D01*
X105553520Y-60274500D01*
X105553516Y-60274500D01*
X105386556Y-60274500D01*
X105386552Y-60274500D01*
X105324430Y-60286856D01*
X105324426Y-60286858D01*
X105255592Y-60332851D01*
X105207550Y-60342407D01*
X105184480Y-60332851D01*
X105115645Y-60286858D01*
X105115641Y-60286856D01*
X105053520Y-60274500D01*
X105053516Y-60274500D01*
X104886556Y-60274500D01*
X104886552Y-60274500D01*
X104824430Y-60286856D01*
X104824426Y-60286858D01*
X104755592Y-60332851D01*
X104707550Y-60342407D01*
X104684480Y-60332851D01*
X104615645Y-60286858D01*
X104615641Y-60286856D01*
X104553520Y-60274500D01*
X104553516Y-60274500D01*
X104386556Y-60274500D01*
X104386552Y-60274500D01*
X104324430Y-60286856D01*
X104324426Y-60286858D01*
X104255592Y-60332851D01*
X104207550Y-60342407D01*
X104184480Y-60332851D01*
X104115645Y-60286858D01*
X104115641Y-60286856D01*
X104053520Y-60274500D01*
X104053516Y-60274500D01*
X103886556Y-60274500D01*
X103886552Y-60274500D01*
X103824430Y-60286856D01*
X103824426Y-60286858D01*
X103755592Y-60332851D01*
X103707550Y-60342407D01*
X103684480Y-60332851D01*
X103615645Y-60286858D01*
X103615641Y-60286856D01*
X103553520Y-60274500D01*
X103553516Y-60274500D01*
X103386556Y-60274500D01*
X103386552Y-60274500D01*
X103324430Y-60286856D01*
X103324426Y-60286858D01*
X103253972Y-60333933D01*
X103253969Y-60333936D01*
X103206894Y-60404390D01*
X103206892Y-60404394D01*
X103194536Y-60466516D01*
X103194536Y-61210500D01*
X103175791Y-61255755D01*
X103130536Y-61274500D01*
X102711231Y-61274500D01*
X102665976Y-61255755D01*
X102647231Y-61210500D01*
X102662863Y-61168589D01*
X102682382Y-61146063D01*
X102736197Y-61028226D01*
X102754633Y-60900000D01*
X102736197Y-60771774D01*
X102721800Y-60740250D01*
X102682383Y-60653939D01*
X102682381Y-60653936D01*
X102597550Y-60556034D01*
X102597548Y-60556032D01*
X102488569Y-60485996D01*
X102447836Y-60474036D01*
X102364272Y-60449500D01*
X102234728Y-60449500D01*
X102206516Y-60457783D01*
X102110431Y-60485995D01*
X102099098Y-60493279D01*
X102050892Y-60501974D01*
X102010657Y-60474036D01*
X102000499Y-60439437D01*
X102000499Y-60086337D01*
X102019244Y-60041082D01*
X102100501Y-59959825D01*
X102194644Y-59865681D01*
X102239898Y-59846937D01*
X102285153Y-59865682D01*
X102287969Y-59869006D01*
X102290174Y-59871211D01*
X102378789Y-59959826D01*
X102491375Y-60014866D01*
X102540034Y-60021955D01*
X102564363Y-60025500D01*
X102564364Y-60025500D01*
X103085637Y-60025500D01*
X103103883Y-60022841D01*
X103158625Y-60014866D01*
X103271211Y-59959826D01*
X103359826Y-59871211D01*
X103414866Y-59758625D01*
X103425500Y-59685636D01*
X103425500Y-59683695D01*
X103795000Y-59683695D01*
X103805051Y-59752688D01*
X103805053Y-59752694D01*
X103857089Y-59859135D01*
X103940864Y-59942910D01*
X104047305Y-59994946D01*
X104047311Y-59994948D01*
X104116305Y-60005000D01*
X104275000Y-60005000D01*
X104475000Y-60005000D01*
X104633694Y-60005000D01*
X104702688Y-59994948D01*
X104702694Y-59994946D01*
X104809135Y-59942910D01*
X104855448Y-59896597D01*
X105130001Y-59896597D01*
X105145663Y-59975344D01*
X105145664Y-59975347D01*
X105205341Y-60064659D01*
X105294651Y-60124335D01*
X105294653Y-60124336D01*
X105373402Y-60139999D01*
X105440000Y-60139999D01*
X105440000Y-59800000D01*
X105130001Y-59800000D01*
X105130001Y-59896597D01*
X104855448Y-59896597D01*
X104892910Y-59859135D01*
X104944946Y-59752694D01*
X104944948Y-59752688D01*
X104955000Y-59683695D01*
X104955000Y-59503402D01*
X105130000Y-59503402D01*
X105130000Y-59600000D01*
X105440000Y-59600000D01*
X105440000Y-59260000D01*
X105373402Y-59260000D01*
X105373401Y-59260001D01*
X105294655Y-59275663D01*
X105294652Y-59275664D01*
X105205340Y-59335341D01*
X105145664Y-59424651D01*
X105145663Y-59424653D01*
X105130000Y-59503402D01*
X104955000Y-59503402D01*
X104955000Y-59500000D01*
X104475000Y-59500000D01*
X104475000Y-60005000D01*
X104275000Y-60005000D01*
X104275000Y-59500000D01*
X103795000Y-59500000D01*
X103795000Y-59683695D01*
X103425500Y-59683695D01*
X103425500Y-59116304D01*
X103795000Y-59116304D01*
X103795000Y-59300000D01*
X104275000Y-59300000D01*
X104475000Y-59300000D01*
X104955000Y-59300000D01*
X104955000Y-59116304D01*
X104944948Y-59047311D01*
X104944946Y-59047305D01*
X104892910Y-58940864D01*
X104809135Y-58857089D01*
X104702694Y-58805053D01*
X104702688Y-58805051D01*
X104633696Y-58795000D01*
X104475000Y-58795000D01*
X104475000Y-59300000D01*
X104275000Y-59300000D01*
X104275000Y-58795000D01*
X104116304Y-58795000D01*
X104047311Y-58805051D01*
X104047305Y-58805053D01*
X103940864Y-58857089D01*
X103857089Y-58940864D01*
X103805053Y-59047305D01*
X103805051Y-59047311D01*
X103795000Y-59116304D01*
X103425500Y-59116304D01*
X103425500Y-59114364D01*
X103414866Y-59041375D01*
X103359826Y-58928789D01*
X103271211Y-58840174D01*
X103158625Y-58785134D01*
X103158623Y-58785133D01*
X103158622Y-58785133D01*
X103085637Y-58774500D01*
X103085636Y-58774500D01*
X102564364Y-58774500D01*
X102564363Y-58774500D01*
X102491377Y-58785133D01*
X102491375Y-58785134D01*
X102378789Y-58840174D01*
X102297608Y-58921354D01*
X102252355Y-58940099D01*
X102144629Y-58940099D01*
X102127968Y-58944991D01*
X102082529Y-58958332D01*
X102033826Y-58953095D01*
X102003091Y-58914954D01*
X102000499Y-58896930D01*
X102000499Y-58171104D01*
X102250000Y-58171104D01*
X102265373Y-58248395D01*
X102265375Y-58248398D01*
X102323943Y-58336053D01*
X102323946Y-58336056D01*
X102411601Y-58394624D01*
X102411604Y-58394626D01*
X102488895Y-58410000D01*
X102600000Y-58410000D01*
X102600000Y-58110000D01*
X102250000Y-58110000D01*
X102250000Y-58171104D01*
X102000499Y-58171104D01*
X102000499Y-57848895D01*
X102250000Y-57848895D01*
X102250000Y-57910000D01*
X102600000Y-57910000D01*
X102600000Y-57610000D01*
X102488895Y-57610000D01*
X102411604Y-57625373D01*
X102411601Y-57625375D01*
X102323946Y-57683943D01*
X102323943Y-57683946D01*
X102265375Y-57771601D01*
X102265373Y-57771604D01*
X102250000Y-57848895D01*
X102000499Y-57848895D01*
X102000499Y-57805136D01*
X101997585Y-57780009D01*
X101992094Y-57767574D01*
X101977658Y-57734879D01*
X101952206Y-57677235D01*
X101872765Y-57597794D01*
X101872762Y-57597792D01*
X101872761Y-57597792D01*
X101862010Y-57593045D01*
X101828183Y-57557618D01*
X101829316Y-57508647D01*
X101864743Y-57474820D01*
X101887860Y-57470499D01*
X102007658Y-57470499D01*
X102031534Y-57467730D01*
X102129177Y-57424616D01*
X102204652Y-57349141D01*
X102206957Y-57343919D01*
X102242384Y-57310092D01*
X102291354Y-57311223D01*
X102310755Y-57324512D01*
X102350859Y-57364616D01*
X102448502Y-57407730D01*
X102472377Y-57410500D01*
X102509827Y-57410499D01*
X102527857Y-57413091D01*
X102557648Y-57421838D01*
X102655264Y-57450500D01*
X102655265Y-57450500D01*
X102784808Y-57450500D01*
X102810959Y-57442821D01*
X102859662Y-57448056D01*
X102874246Y-57458973D01*
X102916018Y-57500745D01*
X102934763Y-57546000D01*
X102916018Y-57591255D01*
X102870763Y-57610000D01*
X102800000Y-57610000D01*
X102800000Y-58410000D01*
X102911105Y-58410000D01*
X102988395Y-58394626D01*
X102988398Y-58394624D01*
X103076053Y-58336056D01*
X103076056Y-58336053D01*
X103134624Y-58248398D01*
X103134626Y-58248394D01*
X103137230Y-58235305D01*
X103164443Y-58194576D01*
X103212485Y-58185020D01*
X103253214Y-58212233D01*
X103262770Y-58235305D01*
X103265373Y-58248394D01*
X103265375Y-58248398D01*
X103323943Y-58336053D01*
X103323946Y-58336056D01*
X103411601Y-58394624D01*
X103411604Y-58394626D01*
X103488895Y-58410000D01*
X103600000Y-58410000D01*
X103800000Y-58410000D01*
X103911105Y-58410000D01*
X103988395Y-58394626D01*
X103988398Y-58394624D01*
X104076053Y-58336056D01*
X104076056Y-58336053D01*
X104134624Y-58248398D01*
X104134626Y-58248395D01*
X104150000Y-58171104D01*
X104150000Y-58110000D01*
X103800000Y-58110000D01*
X103800000Y-58410000D01*
X103600000Y-58410000D01*
X103600000Y-58057678D01*
X104919536Y-58057678D01*
X104919536Y-58537321D01*
X104928269Y-58581222D01*
X104928270Y-58581224D01*
X104961530Y-58631002D01*
X104961533Y-58631005D01*
X104980937Y-58643970D01*
X105011314Y-58664267D01*
X105046482Y-58671262D01*
X105055215Y-58673000D01*
X105055216Y-58673000D01*
X105684857Y-58673000D01*
X105692140Y-58671550D01*
X105728758Y-58664267D01*
X105763619Y-58640974D01*
X105774377Y-58633786D01*
X105809933Y-58623000D01*
X106054556Y-58623000D01*
X106098353Y-58641141D01*
X106098498Y-58640974D01*
X106098999Y-58641409D01*
X106099811Y-58641745D01*
X106101579Y-58643645D01*
X106101949Y-58643965D01*
X106101951Y-58643967D01*
X106101953Y-58643968D01*
X106101955Y-58643970D01*
X106147127Y-58673000D01*
X106210931Y-58714004D01*
X106335228Y-58750500D01*
X106335229Y-58750500D01*
X106464771Y-58750500D01*
X106464772Y-58750500D01*
X106589069Y-58714004D01*
X106698049Y-58643967D01*
X106782882Y-58546063D01*
X106836697Y-58428226D01*
X106855133Y-58300000D01*
X106836697Y-58171774D01*
X106821493Y-58138483D01*
X106782883Y-58053939D01*
X106782881Y-58053936D01*
X106698050Y-57956034D01*
X106698048Y-57956032D01*
X106589069Y-57885996D01*
X106464772Y-57849500D01*
X106335228Y-57849500D01*
X106210931Y-57885996D01*
X106210929Y-57885996D01*
X106101951Y-57956032D01*
X106101560Y-57956372D01*
X106101235Y-57956493D01*
X106098100Y-57958508D01*
X106097661Y-57957825D01*
X106059653Y-57972000D01*
X105809933Y-57972000D01*
X105774377Y-57961214D01*
X105728760Y-57930734D01*
X105728758Y-57930733D01*
X105684857Y-57922000D01*
X105684856Y-57922000D01*
X105055216Y-57922000D01*
X105055215Y-57922000D01*
X105011313Y-57930733D01*
X105011311Y-57930734D01*
X104961533Y-57963994D01*
X104961530Y-57963997D01*
X104928270Y-58013775D01*
X104928269Y-58013777D01*
X104919536Y-58057678D01*
X103600000Y-58057678D01*
X103600000Y-57974000D01*
X103618745Y-57928745D01*
X103664000Y-57910000D01*
X104150000Y-57910000D01*
X104150000Y-57848895D01*
X104134626Y-57771604D01*
X104134625Y-57771602D01*
X104125156Y-57757430D01*
X104115601Y-57709388D01*
X104133113Y-57676624D01*
X104457728Y-57352010D01*
X104457728Y-57352008D01*
X104458642Y-57351095D01*
X104503897Y-57332350D01*
X104516383Y-57333580D01*
X104598931Y-57350000D01*
X104660036Y-57350000D01*
X104860036Y-57350000D01*
X104921141Y-57350000D01*
X104998431Y-57334626D01*
X104998434Y-57334624D01*
X105086089Y-57276056D01*
X105086092Y-57276053D01*
X105144660Y-57188398D01*
X105144662Y-57188395D01*
X105160036Y-57111104D01*
X105160036Y-57000000D01*
X104860036Y-57000000D01*
X104860036Y-57350000D01*
X104660036Y-57350000D01*
X104660036Y-56864000D01*
X104678781Y-56818745D01*
X104724036Y-56800000D01*
X105160036Y-56800000D01*
X105160036Y-56688895D01*
X105144662Y-56611604D01*
X105136995Y-56600130D01*
X105127439Y-56552087D01*
X105154652Y-56511359D01*
X105177717Y-56501805D01*
X105198938Y-56497583D01*
X105246979Y-56507139D01*
G37*
%TD.AperFunction*%
%TA.AperFunction,Conductor*%
G36*
X101498266Y-56535158D02*
G01*
X101507823Y-56583201D01*
X101490308Y-56615970D01*
X101455422Y-56650855D01*
X101455420Y-56650858D01*
X101455420Y-56650859D01*
X101445916Y-56672383D01*
X101412306Y-56748501D01*
X101409536Y-56772376D01*
X101409536Y-57227616D01*
X101409537Y-57227625D01*
X101411613Y-57245529D01*
X101412306Y-57251498D01*
X101455420Y-57349141D01*
X101530895Y-57424616D01*
X101536188Y-57426953D01*
X101570017Y-57462379D01*
X101568886Y-57511349D01*
X101533460Y-57545178D01*
X101510339Y-57549500D01*
X101355141Y-57549500D01*
X101355132Y-57549501D01*
X101330006Y-57552415D01*
X101252928Y-57586449D01*
X101227235Y-57597794D01*
X101147794Y-57677235D01*
X101124049Y-57731013D01*
X101122342Y-57734879D01*
X101086914Y-57768705D01*
X101037943Y-57767574D01*
X101005248Y-57734878D01*
X100985000Y-57689021D01*
X100910978Y-57614999D01*
X100815216Y-57572716D01*
X100791805Y-57570000D01*
X100744546Y-57570000D01*
X100711896Y-57556476D01*
X100710745Y-57559255D01*
X100700000Y-57570000D01*
X100700000Y-58398500D01*
X100681255Y-58443755D01*
X100636000Y-58462500D01*
X100564000Y-58462500D01*
X100518745Y-58443755D01*
X100500000Y-58398500D01*
X100500000Y-57570000D01*
X100408194Y-57570000D01*
X100384782Y-57572716D01*
X100315350Y-57603373D01*
X100266380Y-57604504D01*
X100230953Y-57570676D01*
X100225500Y-57544826D01*
X100225500Y-57421838D01*
X100244244Y-57376584D01*
X100313813Y-57307016D01*
X100316117Y-57301796D01*
X100351541Y-57267969D01*
X100400512Y-57269098D01*
X100427878Y-57292090D01*
X100483979Y-57376053D01*
X100483982Y-57376056D01*
X100571637Y-57434624D01*
X100571640Y-57434626D01*
X100648931Y-57450000D01*
X100665490Y-57450000D01*
X100698139Y-57463523D01*
X100699291Y-57460745D01*
X100710036Y-57450000D01*
X100910036Y-57450000D01*
X100971141Y-57450000D01*
X101048431Y-57434626D01*
X101048434Y-57434624D01*
X101136089Y-57376056D01*
X101136092Y-57376053D01*
X101194660Y-57288398D01*
X101194662Y-57288395D01*
X101210036Y-57211104D01*
X101210036Y-57100000D01*
X100910036Y-57100000D01*
X100910036Y-57450000D01*
X100710036Y-57450000D01*
X100710036Y-56964000D01*
X100728781Y-56918745D01*
X100774036Y-56900000D01*
X101210036Y-56900000D01*
X101210036Y-56788895D01*
X101194662Y-56711604D01*
X101194660Y-56711601D01*
X101143181Y-56634556D01*
X101133625Y-56586514D01*
X101160839Y-56545786D01*
X101196395Y-56535000D01*
X101356680Y-56535000D01*
X101394598Y-56527456D01*
X101409495Y-56517503D01*
X101457538Y-56507946D01*
X101498266Y-56535158D01*
G37*
%TD.AperFunction*%
%TA.AperFunction,Conductor*%
G36*
X107986045Y-55518710D02*
G01*
X108021579Y-55529496D01*
X108094487Y-55578212D01*
X108093453Y-55579758D01*
X108120965Y-55613233D01*
X108116199Y-55661984D01*
X108104991Y-55677108D01*
X108097428Y-55684671D01*
X108097426Y-55684674D01*
X108052426Y-55786592D01*
X108052425Y-55786594D01*
X108049537Y-55811491D01*
X108049536Y-55811509D01*
X108049536Y-56195486D01*
X108049537Y-56195494D01*
X108050866Y-56206947D01*
X108052427Y-56220409D01*
X108097428Y-56322328D01*
X108176208Y-56401108D01*
X108241537Y-56429953D01*
X108275364Y-56465379D01*
X108274233Y-56514349D01*
X108241538Y-56547045D01*
X108176211Y-56575890D01*
X108176205Y-56575894D01*
X108119245Y-56632854D01*
X108073990Y-56651599D01*
X108028736Y-56632853D01*
X108014861Y-56612087D01*
X108014658Y-56611598D01*
X107956092Y-56523946D01*
X107956089Y-56523943D01*
X107900441Y-56486761D01*
X107873227Y-56446033D01*
X107873228Y-56421055D01*
X107873875Y-56417804D01*
X107873875Y-56393587D01*
X107875105Y-56381098D01*
X107877750Y-56367804D01*
X107877750Y-56355000D01*
X107404000Y-56355000D01*
X107358745Y-56336255D01*
X107340000Y-56291000D01*
X107340000Y-56219000D01*
X107358745Y-56173745D01*
X107404000Y-56155000D01*
X107877750Y-56155000D01*
X107877750Y-55955000D01*
X107404000Y-55955000D01*
X107358745Y-55936255D01*
X107340000Y-55891000D01*
X107340000Y-55819000D01*
X107358745Y-55773745D01*
X107404000Y-55755000D01*
X107877750Y-55755000D01*
X107877750Y-55582694D01*
X107896495Y-55537439D01*
X107941749Y-55518694D01*
X107986045Y-55518710D01*
G37*
%TD.AperFunction*%
%TA.AperFunction,Conductor*%
G36*
X109940000Y-56229410D02*
G01*
X110052928Y-56206947D01*
X110052930Y-56206946D01*
X110185782Y-56151917D01*
X110185790Y-56151913D01*
X110291042Y-56081587D01*
X110339084Y-56072031D01*
X110379812Y-56099245D01*
X110390598Y-56134765D01*
X110390765Y-56435464D01*
X110372045Y-56480730D01*
X110326801Y-56499500D01*
X110068483Y-56499500D01*
X109974699Y-56514353D01*
X109974696Y-56514354D01*
X109950165Y-56526853D01*
X109901333Y-56530695D01*
X109864086Y-56498883D01*
X109857763Y-56478938D01*
X109856733Y-56471774D01*
X109856660Y-56471615D01*
X109802919Y-56353939D01*
X109802917Y-56353936D01*
X109755632Y-56299365D01*
X109740000Y-56257454D01*
X109740000Y-55788788D01*
X109800504Y-55805000D01*
X109879496Y-55805000D01*
X109940000Y-55788788D01*
X109940000Y-56229410D01*
G37*
%TD.AperFunction*%
%TD*%
M02*
