%TF.GenerationSoftware,KiCad,Pcbnew,8.0.4-8.0.4-0~ubuntu24.04.1*%
%TF.CreationDate,2024-08-16T16:11:10+02:00*%
%TF.ProjectId,epi_ESP32 (2023_01_16 13_30_41 UTC),6570695f-4553-4503-9332-202832303233,1_1*%
%TF.SameCoordinates,Original*%
%TF.FileFunction,Legend,Bot*%
%TF.FilePolarity,Positive*%
%FSLAX46Y46*%
G04 Gerber Fmt 4.6, Leading zero omitted, Abs format (unit mm)*
G04 Created by KiCad (PCBNEW 8.0.4-8.0.4-0~ubuntu24.04.1) date 2024-08-16 16:11:10*
%MOMM*%
%LPD*%
G01*
G04 APERTURE LIST*
%ADD10C,0.160000*%
G04 APERTURE END LIST*
D10*
X108670000Y-58120000D02*
X108670000Y-58720000D01*
X108970000Y-58420000D02*
X108970000Y-58920000D01*
X109470000Y-58420000D02*
X108970000Y-58420000D01*
X108970000Y-58420000D02*
X108970000Y-57920000D01*
X109580451Y-65664975D02*
X109047117Y-65664975D01*
X109047117Y-65664975D02*
X109389975Y-66464975D01*
X109618546Y-59314975D02*
X109351879Y-60114975D01*
X109351879Y-60114975D02*
X109085213Y-59314975D01*
X108818546Y-60114975D02*
X108818546Y-59314975D01*
X108437594Y-60114975D02*
X108437594Y-59314975D01*
X108437594Y-59314975D02*
X107980451Y-60114975D01*
X107980451Y-60114975D02*
X107980451Y-59314975D01*
X99342356Y-61929965D02*
X99304260Y-61891870D01*
X99304260Y-61891870D02*
X99228070Y-61853775D01*
X99228070Y-61853775D02*
X99037594Y-61853775D01*
X99037594Y-61853775D02*
X98961403Y-61891870D01*
X98961403Y-61891870D02*
X98923308Y-61929965D01*
X98923308Y-61929965D02*
X98885213Y-62006156D01*
X98885213Y-62006156D02*
X98885213Y-62082346D01*
X98885213Y-62082346D02*
X98923308Y-62196632D01*
X98923308Y-62196632D02*
X99380451Y-62653775D01*
X99380451Y-62653775D02*
X98885213Y-62653775D01*
X109085213Y-63924975D02*
X109542356Y-63924975D01*
X109313784Y-63924975D02*
X109313784Y-63124975D01*
X109313784Y-63124975D02*
X109389975Y-63239260D01*
X109389975Y-63239260D02*
X109466165Y-63315451D01*
X109466165Y-63315451D02*
X109542356Y-63353546D01*
X108589974Y-63124975D02*
X108513784Y-63124975D01*
X108513784Y-63124975D02*
X108437593Y-63163070D01*
X108437593Y-63163070D02*
X108399498Y-63201165D01*
X108399498Y-63201165D02*
X108361403Y-63277356D01*
X108361403Y-63277356D02*
X108323308Y-63429737D01*
X108323308Y-63429737D02*
X108323308Y-63620213D01*
X108323308Y-63620213D02*
X108361403Y-63772594D01*
X108361403Y-63772594D02*
X108399498Y-63848784D01*
X108399498Y-63848784D02*
X108437593Y-63886880D01*
X108437593Y-63886880D02*
X108513784Y-63924975D01*
X108513784Y-63924975D02*
X108589974Y-63924975D01*
X108589974Y-63924975D02*
X108666165Y-63886880D01*
X108666165Y-63886880D02*
X108704260Y-63848784D01*
X108704260Y-63848784D02*
X108742355Y-63772594D01*
X108742355Y-63772594D02*
X108780451Y-63620213D01*
X108780451Y-63620213D02*
X108780451Y-63429737D01*
X108780451Y-63429737D02*
X108742355Y-63277356D01*
X108742355Y-63277356D02*
X108704260Y-63201165D01*
X108704260Y-63201165D02*
X108666165Y-63163070D01*
X108666165Y-63163070D02*
X108589974Y-63124975D01*
X102009022Y-58843775D02*
X102275689Y-58462822D01*
X102466165Y-58843775D02*
X102466165Y-58043775D01*
X102466165Y-58043775D02*
X102161403Y-58043775D01*
X102161403Y-58043775D02*
X102085213Y-58081870D01*
X102085213Y-58081870D02*
X102047118Y-58119965D01*
X102047118Y-58119965D02*
X102009022Y-58196156D01*
X102009022Y-58196156D02*
X102009022Y-58310441D01*
X102009022Y-58310441D02*
X102047118Y-58386632D01*
X102047118Y-58386632D02*
X102085213Y-58424727D01*
X102085213Y-58424727D02*
X102161403Y-58462822D01*
X102161403Y-58462822D02*
X102466165Y-58462822D01*
X101742356Y-58043775D02*
X101209022Y-58843775D01*
X101209022Y-58043775D02*
X101742356Y-58843775D01*
X100332832Y-58005680D02*
X101018546Y-59034251D01*
X100104261Y-58119965D02*
X100066165Y-58081870D01*
X100066165Y-58081870D02*
X99989975Y-58043775D01*
X99989975Y-58043775D02*
X99799499Y-58043775D01*
X99799499Y-58043775D02*
X99723308Y-58081870D01*
X99723308Y-58081870D02*
X99685213Y-58119965D01*
X99685213Y-58119965D02*
X99647118Y-58196156D01*
X99647118Y-58196156D02*
X99647118Y-58272346D01*
X99647118Y-58272346D02*
X99685213Y-58386632D01*
X99685213Y-58386632D02*
X100142356Y-58843775D01*
X100142356Y-58843775D02*
X99647118Y-58843775D01*
X99151879Y-58043775D02*
X99075689Y-58043775D01*
X99075689Y-58043775D02*
X98999498Y-58081870D01*
X98999498Y-58081870D02*
X98961403Y-58119965D01*
X98961403Y-58119965D02*
X98923308Y-58196156D01*
X98923308Y-58196156D02*
X98885213Y-58348537D01*
X98885213Y-58348537D02*
X98885213Y-58539013D01*
X98885213Y-58539013D02*
X98923308Y-58691394D01*
X98923308Y-58691394D02*
X98961403Y-58767584D01*
X98961403Y-58767584D02*
X98999498Y-58805680D01*
X98999498Y-58805680D02*
X99075689Y-58843775D01*
X99075689Y-58843775D02*
X99151879Y-58843775D01*
X99151879Y-58843775D02*
X99228070Y-58805680D01*
X99228070Y-58805680D02*
X99266165Y-58767584D01*
X99266165Y-58767584D02*
X99304260Y-58691394D01*
X99304260Y-58691394D02*
X99342356Y-58539013D01*
X99342356Y-58539013D02*
X99342356Y-58348537D01*
X99342356Y-58348537D02*
X99304260Y-58196156D01*
X99304260Y-58196156D02*
X99266165Y-58119965D01*
X99266165Y-58119965D02*
X99228070Y-58081870D01*
X99228070Y-58081870D02*
X99151879Y-58043775D01*
X99151879Y-59313775D02*
X99075689Y-59313775D01*
X99075689Y-59313775D02*
X98999498Y-59351870D01*
X98999498Y-59351870D02*
X98961403Y-59389965D01*
X98961403Y-59389965D02*
X98923308Y-59466156D01*
X98923308Y-59466156D02*
X98885213Y-59618537D01*
X98885213Y-59618537D02*
X98885213Y-59809013D01*
X98885213Y-59809013D02*
X98923308Y-59961394D01*
X98923308Y-59961394D02*
X98961403Y-60037584D01*
X98961403Y-60037584D02*
X98999498Y-60075680D01*
X98999498Y-60075680D02*
X99075689Y-60113775D01*
X99075689Y-60113775D02*
X99151879Y-60113775D01*
X99151879Y-60113775D02*
X99228070Y-60075680D01*
X99228070Y-60075680D02*
X99266165Y-60037584D01*
X99266165Y-60037584D02*
X99304260Y-59961394D01*
X99304260Y-59961394D02*
X99342356Y-59809013D01*
X99342356Y-59809013D02*
X99342356Y-59618537D01*
X99342356Y-59618537D02*
X99304260Y-59466156D01*
X99304260Y-59466156D02*
X99266165Y-59389965D01*
X99266165Y-59389965D02*
X99228070Y-59351870D01*
X99228070Y-59351870D02*
X99151879Y-59313775D01*
X109389975Y-64737832D02*
X109466165Y-64699737D01*
X109466165Y-64699737D02*
X109504260Y-64661641D01*
X109504260Y-64661641D02*
X109542356Y-64585451D01*
X109542356Y-64585451D02*
X109542356Y-64547356D01*
X109542356Y-64547356D02*
X109504260Y-64471165D01*
X109504260Y-64471165D02*
X109466165Y-64433070D01*
X109466165Y-64433070D02*
X109389975Y-64394975D01*
X109389975Y-64394975D02*
X109237594Y-64394975D01*
X109237594Y-64394975D02*
X109161403Y-64433070D01*
X109161403Y-64433070D02*
X109123308Y-64471165D01*
X109123308Y-64471165D02*
X109085213Y-64547356D01*
X109085213Y-64547356D02*
X109085213Y-64585451D01*
X109085213Y-64585451D02*
X109123308Y-64661641D01*
X109123308Y-64661641D02*
X109161403Y-64699737D01*
X109161403Y-64699737D02*
X109237594Y-64737832D01*
X109237594Y-64737832D02*
X109389975Y-64737832D01*
X109389975Y-64737832D02*
X109466165Y-64775927D01*
X109466165Y-64775927D02*
X109504260Y-64814022D01*
X109504260Y-64814022D02*
X109542356Y-64890213D01*
X109542356Y-64890213D02*
X109542356Y-65042594D01*
X109542356Y-65042594D02*
X109504260Y-65118784D01*
X109504260Y-65118784D02*
X109466165Y-65156880D01*
X109466165Y-65156880D02*
X109389975Y-65194975D01*
X109389975Y-65194975D02*
X109237594Y-65194975D01*
X109237594Y-65194975D02*
X109161403Y-65156880D01*
X109161403Y-65156880D02*
X109123308Y-65118784D01*
X109123308Y-65118784D02*
X109085213Y-65042594D01*
X109085213Y-65042594D02*
X109085213Y-64890213D01*
X109085213Y-64890213D02*
X109123308Y-64814022D01*
X109123308Y-64814022D02*
X109161403Y-64775927D01*
X109161403Y-64775927D02*
X109237594Y-64737832D01*
X109047117Y-61384975D02*
X109313784Y-61004022D01*
X109504260Y-61384975D02*
X109504260Y-60584975D01*
X109504260Y-60584975D02*
X109199498Y-60584975D01*
X109199498Y-60584975D02*
X109123308Y-60623070D01*
X109123308Y-60623070D02*
X109085213Y-60661165D01*
X109085213Y-60661165D02*
X109047117Y-60737356D01*
X109047117Y-60737356D02*
X109047117Y-60851641D01*
X109047117Y-60851641D02*
X109085213Y-60927832D01*
X109085213Y-60927832D02*
X109123308Y-60965927D01*
X109123308Y-60965927D02*
X109199498Y-61004022D01*
X109199498Y-61004022D02*
X109504260Y-61004022D01*
X108742356Y-61346880D02*
X108628070Y-61384975D01*
X108628070Y-61384975D02*
X108437594Y-61384975D01*
X108437594Y-61384975D02*
X108361403Y-61346880D01*
X108361403Y-61346880D02*
X108323308Y-61308784D01*
X108323308Y-61308784D02*
X108285213Y-61232594D01*
X108285213Y-61232594D02*
X108285213Y-61156403D01*
X108285213Y-61156403D02*
X108323308Y-61080213D01*
X108323308Y-61080213D02*
X108361403Y-61042118D01*
X108361403Y-61042118D02*
X108437594Y-61004022D01*
X108437594Y-61004022D02*
X108589975Y-60965927D01*
X108589975Y-60965927D02*
X108666165Y-60927832D01*
X108666165Y-60927832D02*
X108704260Y-60889737D01*
X108704260Y-60889737D02*
X108742356Y-60813546D01*
X108742356Y-60813546D02*
X108742356Y-60737356D01*
X108742356Y-60737356D02*
X108704260Y-60661165D01*
X108704260Y-60661165D02*
X108666165Y-60623070D01*
X108666165Y-60623070D02*
X108589975Y-60584975D01*
X108589975Y-60584975D02*
X108399498Y-60584975D01*
X108399498Y-60584975D02*
X108285213Y-60623070D01*
X108056641Y-60584975D02*
X107599498Y-60584975D01*
X107828070Y-61384975D02*
X107828070Y-60584975D01*
X98961403Y-64660441D02*
X98961403Y-65193775D01*
X99151879Y-64355680D02*
X99342356Y-64927108D01*
X99342356Y-64927108D02*
X98847117Y-64927108D01*
X99380451Y-63123775D02*
X98885213Y-63123775D01*
X98885213Y-63123775D02*
X99151879Y-63428537D01*
X99151879Y-63428537D02*
X99037594Y-63428537D01*
X99037594Y-63428537D02*
X98961403Y-63466632D01*
X98961403Y-63466632D02*
X98923308Y-63504727D01*
X98923308Y-63504727D02*
X98885213Y-63580918D01*
X98885213Y-63580918D02*
X98885213Y-63771394D01*
X98885213Y-63771394D02*
X98923308Y-63847584D01*
X98923308Y-63847584D02*
X98961403Y-63885680D01*
X98961403Y-63885680D02*
X99037594Y-63923775D01*
X99037594Y-63923775D02*
X99266165Y-63923775D01*
X99266165Y-63923775D02*
X99342356Y-63885680D01*
X99342356Y-63885680D02*
X99380451Y-63847584D01*
X106294737Y-56074727D02*
X106028071Y-56074727D01*
X105913785Y-56493775D02*
X106294737Y-56493775D01*
X106294737Y-56493775D02*
X106294737Y-55693775D01*
X106294737Y-55693775D02*
X105913785Y-55693775D01*
X105570927Y-55960441D02*
X105570927Y-56760441D01*
X105570927Y-55998537D02*
X105494737Y-55960441D01*
X105494737Y-55960441D02*
X105342356Y-55960441D01*
X105342356Y-55960441D02*
X105266165Y-55998537D01*
X105266165Y-55998537D02*
X105228070Y-56036632D01*
X105228070Y-56036632D02*
X105189975Y-56112822D01*
X105189975Y-56112822D02*
X105189975Y-56341394D01*
X105189975Y-56341394D02*
X105228070Y-56417584D01*
X105228070Y-56417584D02*
X105266165Y-56455680D01*
X105266165Y-56455680D02*
X105342356Y-56493775D01*
X105342356Y-56493775D02*
X105494737Y-56493775D01*
X105494737Y-56493775D02*
X105570927Y-56455680D01*
X104847117Y-56493775D02*
X104847117Y-55960441D01*
X104847117Y-55693775D02*
X104885213Y-55731870D01*
X104885213Y-55731870D02*
X104847117Y-55769965D01*
X104847117Y-55769965D02*
X104809022Y-55731870D01*
X104809022Y-55731870D02*
X104847117Y-55693775D01*
X104847117Y-55693775D02*
X104847117Y-55769965D01*
X104466165Y-56189013D02*
X103856642Y-56189013D01*
X103018546Y-56417584D02*
X103056642Y-56455680D01*
X103056642Y-56455680D02*
X103170927Y-56493775D01*
X103170927Y-56493775D02*
X103247118Y-56493775D01*
X103247118Y-56493775D02*
X103361404Y-56455680D01*
X103361404Y-56455680D02*
X103437594Y-56379489D01*
X103437594Y-56379489D02*
X103475689Y-56303299D01*
X103475689Y-56303299D02*
X103513785Y-56150918D01*
X103513785Y-56150918D02*
X103513785Y-56036632D01*
X103513785Y-56036632D02*
X103475689Y-55884251D01*
X103475689Y-55884251D02*
X103437594Y-55808060D01*
X103437594Y-55808060D02*
X103361404Y-55731870D01*
X103361404Y-55731870D02*
X103247118Y-55693775D01*
X103247118Y-55693775D02*
X103170927Y-55693775D01*
X103170927Y-55693775D02*
X103056642Y-55731870D01*
X103056642Y-55731870D02*
X103018546Y-55769965D01*
X102751880Y-55693775D02*
X102256642Y-55693775D01*
X102256642Y-55693775D02*
X102523308Y-55998537D01*
X102523308Y-55998537D02*
X102409023Y-55998537D01*
X102409023Y-55998537D02*
X102332832Y-56036632D01*
X102332832Y-56036632D02*
X102294737Y-56074727D01*
X102294737Y-56074727D02*
X102256642Y-56150918D01*
X102256642Y-56150918D02*
X102256642Y-56341394D01*
X102256642Y-56341394D02*
X102294737Y-56417584D01*
X102294737Y-56417584D02*
X102332832Y-56455680D01*
X102332832Y-56455680D02*
X102409023Y-56493775D01*
X102409023Y-56493775D02*
X102637594Y-56493775D01*
X102637594Y-56493775D02*
X102713785Y-56455680D01*
X102713785Y-56455680D02*
X102751880Y-56417584D01*
X109237594Y-62235927D02*
X109123308Y-62274022D01*
X109123308Y-62274022D02*
X109085213Y-62312118D01*
X109085213Y-62312118D02*
X109047117Y-62388308D01*
X109047117Y-62388308D02*
X109047117Y-62502594D01*
X109047117Y-62502594D02*
X109085213Y-62578784D01*
X109085213Y-62578784D02*
X109123308Y-62616880D01*
X109123308Y-62616880D02*
X109199498Y-62654975D01*
X109199498Y-62654975D02*
X109504260Y-62654975D01*
X109504260Y-62654975D02*
X109504260Y-61854975D01*
X109504260Y-61854975D02*
X109237594Y-61854975D01*
X109237594Y-61854975D02*
X109161403Y-61893070D01*
X109161403Y-61893070D02*
X109123308Y-61931165D01*
X109123308Y-61931165D02*
X109085213Y-62007356D01*
X109085213Y-62007356D02*
X109085213Y-62083546D01*
X109085213Y-62083546D02*
X109123308Y-62159737D01*
X109123308Y-62159737D02*
X109161403Y-62197832D01*
X109161403Y-62197832D02*
X109237594Y-62235927D01*
X109237594Y-62235927D02*
X109504260Y-62235927D01*
X108551879Y-61854975D02*
X108399498Y-61854975D01*
X108399498Y-61854975D02*
X108323308Y-61893070D01*
X108323308Y-61893070D02*
X108247117Y-61969260D01*
X108247117Y-61969260D02*
X108209022Y-62121641D01*
X108209022Y-62121641D02*
X108209022Y-62388308D01*
X108209022Y-62388308D02*
X108247117Y-62540689D01*
X108247117Y-62540689D02*
X108323308Y-62616880D01*
X108323308Y-62616880D02*
X108399498Y-62654975D01*
X108399498Y-62654975D02*
X108551879Y-62654975D01*
X108551879Y-62654975D02*
X108628070Y-62616880D01*
X108628070Y-62616880D02*
X108704260Y-62540689D01*
X108704260Y-62540689D02*
X108742356Y-62388308D01*
X108742356Y-62388308D02*
X108742356Y-62121641D01*
X108742356Y-62121641D02*
X108704260Y-61969260D01*
X108704260Y-61969260D02*
X108628070Y-61893070D01*
X108628070Y-61893070D02*
X108551879Y-61854975D01*
X107713784Y-61854975D02*
X107561403Y-61854975D01*
X107561403Y-61854975D02*
X107485213Y-61893070D01*
X107485213Y-61893070D02*
X107409022Y-61969260D01*
X107409022Y-61969260D02*
X107370927Y-62121641D01*
X107370927Y-62121641D02*
X107370927Y-62388308D01*
X107370927Y-62388308D02*
X107409022Y-62540689D01*
X107409022Y-62540689D02*
X107485213Y-62616880D01*
X107485213Y-62616880D02*
X107561403Y-62654975D01*
X107561403Y-62654975D02*
X107713784Y-62654975D01*
X107713784Y-62654975D02*
X107789975Y-62616880D01*
X107789975Y-62616880D02*
X107866165Y-62540689D01*
X107866165Y-62540689D02*
X107904261Y-62388308D01*
X107904261Y-62388308D02*
X107904261Y-62121641D01*
X107904261Y-62121641D02*
X107866165Y-61969260D01*
X107866165Y-61969260D02*
X107789975Y-61893070D01*
X107789975Y-61893070D02*
X107713784Y-61854975D01*
X107142356Y-61854975D02*
X106685213Y-61854975D01*
X106913785Y-62654975D02*
X106913785Y-61854975D01*
X102389975Y-56773775D02*
X101932832Y-56773775D01*
X102161404Y-57573775D02*
X102161404Y-56773775D01*
X101742356Y-56773775D02*
X101209022Y-57573775D01*
X101209022Y-56773775D02*
X101742356Y-57573775D01*
X100332832Y-56735680D02*
X101018546Y-57764251D01*
X100104261Y-56849965D02*
X100066165Y-56811870D01*
X100066165Y-56811870D02*
X99989975Y-56773775D01*
X99989975Y-56773775D02*
X99799499Y-56773775D01*
X99799499Y-56773775D02*
X99723308Y-56811870D01*
X99723308Y-56811870D02*
X99685213Y-56849965D01*
X99685213Y-56849965D02*
X99647118Y-56926156D01*
X99647118Y-56926156D02*
X99647118Y-57002346D01*
X99647118Y-57002346D02*
X99685213Y-57116632D01*
X99685213Y-57116632D02*
X100142356Y-57573775D01*
X100142356Y-57573775D02*
X99647118Y-57573775D01*
X98885213Y-57573775D02*
X99342356Y-57573775D01*
X99113784Y-57573775D02*
X99113784Y-56773775D01*
X99113784Y-56773775D02*
X99189975Y-56888060D01*
X99189975Y-56888060D02*
X99266165Y-56964251D01*
X99266165Y-56964251D02*
X99342356Y-57002346D01*
X109580451Y-56774975D02*
X109085213Y-56774975D01*
X109085213Y-56774975D02*
X109351879Y-57079737D01*
X109351879Y-57079737D02*
X109237594Y-57079737D01*
X109237594Y-57079737D02*
X109161403Y-57117832D01*
X109161403Y-57117832D02*
X109123308Y-57155927D01*
X109123308Y-57155927D02*
X109085213Y-57232118D01*
X109085213Y-57232118D02*
X109085213Y-57422594D01*
X109085213Y-57422594D02*
X109123308Y-57498784D01*
X109123308Y-57498784D02*
X109161403Y-57536880D01*
X109161403Y-57536880D02*
X109237594Y-57574975D01*
X109237594Y-57574975D02*
X109466165Y-57574975D01*
X109466165Y-57574975D02*
X109542356Y-57536880D01*
X109542356Y-57536880D02*
X109580451Y-57498784D01*
X108704260Y-57536880D02*
X108704260Y-57574975D01*
X108704260Y-57574975D02*
X108742355Y-57651165D01*
X108742355Y-57651165D02*
X108780451Y-57689260D01*
X108437594Y-56774975D02*
X107942356Y-56774975D01*
X107942356Y-56774975D02*
X108209022Y-57079737D01*
X108209022Y-57079737D02*
X108094737Y-57079737D01*
X108094737Y-57079737D02*
X108018546Y-57117832D01*
X108018546Y-57117832D02*
X107980451Y-57155927D01*
X107980451Y-57155927D02*
X107942356Y-57232118D01*
X107942356Y-57232118D02*
X107942356Y-57422594D01*
X107942356Y-57422594D02*
X107980451Y-57498784D01*
X107980451Y-57498784D02*
X108018546Y-57536880D01*
X108018546Y-57536880D02*
X108094737Y-57574975D01*
X108094737Y-57574975D02*
X108323308Y-57574975D01*
X108323308Y-57574975D02*
X108399499Y-57536880D01*
X108399499Y-57536880D02*
X108437594Y-57498784D01*
X107675689Y-57041641D02*
X107485213Y-57574975D01*
X107485213Y-57574975D02*
X107294736Y-57041641D01*
X98885213Y-61383775D02*
X99342356Y-61383775D01*
X99113784Y-61383775D02*
X99113784Y-60583775D01*
X99113784Y-60583775D02*
X99189975Y-60698060D01*
X99189975Y-60698060D02*
X99266165Y-60774251D01*
X99266165Y-60774251D02*
X99342356Y-60812346D01*
X106009023Y-60160441D02*
X105818547Y-60693775D01*
X105818547Y-60693775D02*
X105628070Y-60160441D01*
X104904261Y-60693775D02*
X105361404Y-60693775D01*
X105132832Y-60693775D02*
X105132832Y-59893775D01*
X105132832Y-59893775D02*
X105209023Y-60008060D01*
X105209023Y-60008060D02*
X105285213Y-60084251D01*
X105285213Y-60084251D02*
X105361404Y-60122346D01*
X104523308Y-60655680D02*
X104523308Y-60693775D01*
X104523308Y-60693775D02*
X104561403Y-60769965D01*
X104561403Y-60769965D02*
X104599499Y-60808060D01*
X104218547Y-59969965D02*
X104180451Y-59931870D01*
X104180451Y-59931870D02*
X104104261Y-59893775D01*
X104104261Y-59893775D02*
X103913785Y-59893775D01*
X103913785Y-59893775D02*
X103837594Y-59931870D01*
X103837594Y-59931870D02*
X103799499Y-59969965D01*
X103799499Y-59969965D02*
X103761404Y-60046156D01*
X103761404Y-60046156D02*
X103761404Y-60122346D01*
X103761404Y-60122346D02*
X103799499Y-60236632D01*
X103799499Y-60236632D02*
X104256642Y-60693775D01*
X104256642Y-60693775D02*
X103761404Y-60693775D01*
X103380451Y-60655680D02*
X103380451Y-60693775D01*
X103380451Y-60693775D02*
X103418546Y-60769965D01*
X103418546Y-60769965D02*
X103456642Y-60808060D01*
X103075690Y-59969965D02*
X103037594Y-59931870D01*
X103037594Y-59931870D02*
X102961404Y-59893775D01*
X102961404Y-59893775D02*
X102770928Y-59893775D01*
X102770928Y-59893775D02*
X102694737Y-59931870D01*
X102694737Y-59931870D02*
X102656642Y-59969965D01*
X102656642Y-59969965D02*
X102618547Y-60046156D01*
X102618547Y-60046156D02*
X102618547Y-60122346D01*
X102618547Y-60122346D02*
X102656642Y-60236632D01*
X102656642Y-60236632D02*
X103113785Y-60693775D01*
X103113785Y-60693775D02*
X102618547Y-60693775D01*
X109161403Y-66934975D02*
X109313784Y-66934975D01*
X109313784Y-66934975D02*
X109389975Y-66973070D01*
X109389975Y-66973070D02*
X109428070Y-67011165D01*
X109428070Y-67011165D02*
X109504260Y-67125451D01*
X109504260Y-67125451D02*
X109542356Y-67277832D01*
X109542356Y-67277832D02*
X109542356Y-67582594D01*
X109542356Y-67582594D02*
X109504260Y-67658784D01*
X109504260Y-67658784D02*
X109466165Y-67696880D01*
X109466165Y-67696880D02*
X109389975Y-67734975D01*
X109389975Y-67734975D02*
X109237594Y-67734975D01*
X109237594Y-67734975D02*
X109161403Y-67696880D01*
X109161403Y-67696880D02*
X109123308Y-67658784D01*
X109123308Y-67658784D02*
X109085213Y-67582594D01*
X109085213Y-67582594D02*
X109085213Y-67392118D01*
X109085213Y-67392118D02*
X109123308Y-67315927D01*
X109123308Y-67315927D02*
X109161403Y-67277832D01*
X109161403Y-67277832D02*
X109237594Y-67239737D01*
X109237594Y-67239737D02*
X109389975Y-67239737D01*
X109389975Y-67239737D02*
X109466165Y-67277832D01*
X109466165Y-67277832D02*
X109504260Y-67315927D01*
X109504260Y-67315927D02*
X109542356Y-67392118D01*
X98923308Y-65663775D02*
X99304260Y-65663775D01*
X99304260Y-65663775D02*
X99342356Y-66044727D01*
X99342356Y-66044727D02*
X99304260Y-66006632D01*
X99304260Y-66006632D02*
X99228070Y-65968537D01*
X99228070Y-65968537D02*
X99037594Y-65968537D01*
X99037594Y-65968537D02*
X98961403Y-66006632D01*
X98961403Y-66006632D02*
X98923308Y-66044727D01*
X98923308Y-66044727D02*
X98885213Y-66120918D01*
X98885213Y-66120918D02*
X98885213Y-66311394D01*
X98885213Y-66311394D02*
X98923308Y-66387584D01*
X98923308Y-66387584D02*
X98961403Y-66425680D01*
X98961403Y-66425680D02*
X99037594Y-66463775D01*
X99037594Y-66463775D02*
X99228070Y-66463775D01*
X99228070Y-66463775D02*
X99304260Y-66425680D01*
X99304260Y-66425680D02*
X99342356Y-66387584D01*
M02*
