%TF.GenerationSoftware,KiCad,Pcbnew,8.0.4-8.0.4-0~ubuntu24.04.1*%
%TF.CreationDate,2024-08-16T16:11:10+02:00*%
%TF.ProjectId,epi_ESP32 (2023_01_16 13_30_41 UTC),6570695f-4553-4503-9332-202832303233,1_1*%
%TF.SameCoordinates,Original*%
%TF.FileFunction,Copper,L4,Bot*%
%TF.FilePolarity,Positive*%
%FSLAX46Y46*%
G04 Gerber Fmt 4.6, Leading zero omitted, Abs format (unit mm)*
G04 Created by KiCad (PCBNEW 8.0.4-8.0.4-0~ubuntu24.04.1) date 2024-08-16 16:11:10*
%MOMM*%
%LPD*%
G01*
G04 APERTURE LIST*
G04 Aperture macros list*
%AMRoundRect*
0 Rectangle with rounded corners*
0 $1 Rounding radius*
0 $2 $3 $4 $5 $6 $7 $8 $9 X,Y pos of 4 corners*
0 Add a 4 corners polygon primitive as box body*
4,1,4,$2,$3,$4,$5,$6,$7,$8,$9,$2,$3,0*
0 Add four circle primitives for the rounded corners*
1,1,$1+$1,$2,$3*
1,1,$1+$1,$4,$5*
1,1,$1+$1,$6,$7*
1,1,$1+$1,$8,$9*
0 Add four rect primitives between the rounded corners*
20,1,$1+$1,$2,$3,$4,$5,0*
20,1,$1+$1,$4,$5,$6,$7,0*
20,1,$1+$1,$6,$7,$8,$9,0*
20,1,$1+$1,$8,$9,$2,$3,0*%
G04 Aperture macros list end*
%TA.AperFunction,NonConductor*%
%ADD10C,0.162500*%
%TD*%
%TA.AperFunction,NonConductor*%
%ADD11C,0.162499*%
%TD*%
%TA.AperFunction,ComponentPad*%
%ADD12RoundRect,0.250000X-0.500000X-0.250000X0.500000X-0.250000X0.500000X0.250000X-0.500000X0.250000X0*%
%TD*%
%TA.AperFunction,ComponentPad*%
%ADD13O,1.200000X2.000000*%
%TD*%
%TA.AperFunction,ComponentPad*%
%ADD14O,1.200000X2.300000*%
%TD*%
%TA.AperFunction,ViaPad*%
%ADD15C,0.600000*%
%TD*%
%TA.AperFunction,Conductor*%
%ADD16C,0.350000*%
%TD*%
%TA.AperFunction,Conductor*%
%ADD17C,0.250000*%
%TD*%
%TA.AperFunction,Conductor*%
%ADD18C,0.130000*%
%TD*%
%TA.AperFunction,Conductor*%
%ADD19C,0.230000*%
%TD*%
%TA.AperFunction,Conductor*%
%ADD20C,0.150000*%
%TD*%
G04 APERTURE END LIST*
D10*
X106766763Y-69703887D02*
X106780279Y-69684362D01*
X107149240Y-70499851D02*
X107169638Y-70556148D01*
X106095902Y-69887166D02*
X106108694Y-69916665D01*
X105828720Y-70033431D02*
X105761667Y-70052402D01*
X106640341Y-71079094D02*
X106669199Y-71066815D01*
X106639481Y-69358732D02*
X106621642Y-69366261D01*
X107749665Y-70648748D02*
X107713840Y-70662530D01*
X106876535Y-69877237D02*
X106892166Y-69870165D01*
X106981661Y-71098110D02*
X106953892Y-71097842D01*
X105500000Y-70300000D02*
X105502008Y-70324999D01*
X107095456Y-70379246D02*
X107124572Y-70440879D01*
X106695444Y-69342982D02*
X106676440Y-69347204D01*
X106815355Y-69730570D02*
X106784255Y-69726918D01*
X106496308Y-69495114D02*
X106490839Y-69507148D01*
X106714720Y-69339637D02*
X106695444Y-69342982D01*
X106631810Y-69586110D02*
X106614087Y-69572939D01*
X107019132Y-69507148D02*
X107044464Y-69498878D01*
X106364869Y-69484654D02*
X106340375Y-69485588D01*
X107358085Y-69565390D02*
X107373733Y-69581367D01*
X106841698Y-69888648D02*
X106859750Y-69883411D01*
X108007989Y-70324999D02*
X108003040Y-70351281D01*
X106301713Y-70874093D02*
X106309019Y-70908464D01*
X107894631Y-70543518D02*
X107858241Y-70577884D01*
X106967400Y-69529628D02*
X106985050Y-69521172D01*
X106793765Y-69338973D02*
X106813349Y-69342122D01*
X107251110Y-70111124D02*
X107229882Y-70128741D01*
X105688080Y-70606697D02*
X105724289Y-70630228D01*
X107949253Y-70157663D02*
X107965315Y-70174773D01*
X107177747Y-70968770D02*
X107162873Y-70994677D01*
X107071268Y-69801572D02*
X107047582Y-69791357D01*
X107341123Y-69550715D02*
X107358085Y-69565390D01*
X106999710Y-69772743D02*
X106985896Y-69767973D01*
X107979065Y-70192893D02*
X107990414Y-70212060D01*
X106071509Y-69725903D02*
X106069819Y-69750684D01*
X107809373Y-70073997D02*
X107863687Y-70098529D01*
X108003040Y-70351281D02*
X107995061Y-70378887D01*
X105530931Y-70192893D02*
X105519582Y-70212060D01*
X107278172Y-69916318D02*
X107233044Y-69887731D01*
X106928405Y-70271737D02*
X106895567Y-70277947D01*
X107095103Y-69488084D02*
X107120218Y-69485471D01*
X107163692Y-70175330D02*
X107140908Y-70189059D01*
X107008707Y-71095411D02*
X106981661Y-71098110D01*
X106949490Y-69539038D02*
X106967400Y-69529628D01*
X106311455Y-70660657D02*
X106302748Y-70708841D01*
X106784255Y-69726918D02*
X106754303Y-69724296D01*
X106954012Y-69410295D02*
X106961490Y-69417778D01*
X106542416Y-69529628D02*
X106524832Y-69521172D01*
X105831715Y-70671846D02*
X105866957Y-70676966D01*
X107367324Y-69977504D02*
X107322914Y-69946308D01*
X107385708Y-69946792D02*
X107367324Y-69977504D01*
X106686307Y-69892907D02*
X106666856Y-69888648D01*
X107367315Y-69977504D02*
X107349448Y-70003527D01*
X107094465Y-70214330D02*
X107070875Y-70226043D01*
X106473829Y-71089760D02*
X106499907Y-71095411D01*
X107106108Y-71055240D02*
X107083730Y-71069660D01*
X106953892Y-71097842D02*
X106925578Y-71094593D01*
X106323896Y-70609755D02*
X106311455Y-70660657D01*
X107229882Y-70128741D02*
X107208213Y-70145257D01*
X106346637Y-70410173D02*
X106486827Y-70248056D01*
X106217815Y-70072246D02*
X106238060Y-70092321D01*
X106088672Y-69657401D02*
X106081031Y-69679217D01*
X107952039Y-70470035D02*
X107931037Y-70503326D01*
X106753854Y-69335136D02*
X106734209Y-69337059D01*
X106847133Y-69735227D02*
X106815355Y-69730570D01*
X106992075Y-70256645D02*
X106960537Y-70264587D01*
X106933278Y-69843966D02*
X106945434Y-69833705D01*
X107303636Y-69525452D02*
X107322941Y-69537387D01*
X106124235Y-69946792D02*
X106142619Y-69977504D01*
X106596180Y-69560700D02*
X106578195Y-69549398D01*
X107193603Y-69488228D02*
X107217091Y-69492529D01*
X106582866Y-71094593D02*
X106611504Y-71088349D01*
X106810047Y-69647988D02*
X106826080Y-69631151D01*
X106931431Y-69549398D02*
X106949490Y-69539038D01*
X107047085Y-70237257D02*
X107023129Y-70248056D01*
X107124572Y-70440879D02*
X107149240Y-70499851D01*
X106448833Y-71081171D02*
X106473829Y-71089760D01*
X107208213Y-70145257D02*
X107186138Y-70160758D01*
X106632142Y-69877237D02*
X106616633Y-69870165D01*
X106868019Y-71079094D02*
X106839131Y-71066815D01*
X106614355Y-70277947D02*
X106648008Y-70283071D01*
X106389721Y-69485471D02*
X106364869Y-69484654D01*
X106527266Y-69443209D02*
X106520618Y-69452535D01*
X107047582Y-69791357D02*
X107023731Y-69781739D01*
X106925578Y-71094593D02*
X106896894Y-71088349D01*
X107428909Y-69679217D02*
X107434663Y-69702066D01*
X107969651Y-70438224D02*
X107952039Y-70470035D01*
X107126877Y-71037927D02*
X107106108Y-71055240D01*
X105519582Y-70212060D02*
X105510725Y-70232316D01*
X106822265Y-69892907D02*
X106841698Y-69888648D01*
X106510228Y-69772743D02*
X106524027Y-69767973D01*
X106190858Y-70557247D02*
X106246802Y-70510144D01*
X106682819Y-69631151D02*
X106666281Y-69615222D01*
X107292110Y-70072246D02*
X107271864Y-70092321D01*
X107070875Y-70226043D02*
X107047085Y-70237257D01*
X107034852Y-71089760D02*
X107008707Y-71095411D01*
X107187474Y-69860744D02*
X107164507Y-69847912D01*
X106298863Y-70460395D02*
X106346637Y-70410173D01*
X107118175Y-69823695D02*
X107094797Y-69812360D01*
X106425095Y-71069660D02*
X106448833Y-71081171D01*
X106648842Y-69883411D02*
X106632142Y-69877237D01*
X106676440Y-69347204D02*
X106657766Y-69352417D01*
X105761667Y-70052402D02*
X105700623Y-70073997D01*
X107145070Y-69484654D02*
X107169564Y-69485588D01*
X107999271Y-70232316D02*
X108005548Y-70253698D01*
X106369017Y-70189059D02*
X106392103Y-70202030D01*
X106069819Y-69750684D02*
X106070303Y-69776363D01*
X107681277Y-70033431D02*
X107748329Y-70052402D01*
X106941825Y-69754986D02*
X106910839Y-69747459D01*
X106368520Y-69835554D02*
X106391755Y-69823695D01*
X106486791Y-70248056D02*
X106517846Y-70256645D01*
X106989363Y-69786090D02*
X106999741Y-69772743D01*
X106345423Y-69847912D02*
X106368520Y-69835554D01*
X107094797Y-69812360D02*
X107071268Y-69801572D01*
X107431763Y-69830237D02*
X107424180Y-69858342D01*
X106486204Y-69781739D02*
X106510228Y-69772743D01*
X107411834Y-69636663D02*
X107421268Y-69657401D01*
X106666856Y-69888648D02*
X106648842Y-69883411D01*
X106578195Y-69549398D02*
X106560239Y-69539038D01*
X106567904Y-69754986D02*
X106598674Y-69747459D01*
X106100539Y-70618183D02*
X106131432Y-70599529D01*
X106773493Y-70290162D02*
X106754963Y-70290454D01*
X106985050Y-69521172D02*
X107002331Y-69513677D01*
X106499907Y-71095411D02*
X106526891Y-71098110D01*
X106517846Y-70256645D02*
X106549385Y-70264587D01*
X106246802Y-70510144D02*
X106298863Y-70460395D01*
X106842731Y-69615222D02*
X106859892Y-69600206D01*
X106068926Y-70634817D02*
X106100539Y-70618183D01*
X107441071Y-70634817D02*
X107409458Y-70618183D01*
X106989376Y-69452392D02*
X106995807Y-69462280D01*
X106226637Y-69514954D02*
X106206304Y-69525452D01*
X105970274Y-70669876D02*
X106003744Y-70660935D01*
X106975852Y-69434123D02*
X106982722Y-69443011D01*
X107059918Y-71081171D02*
X107034852Y-71089760D01*
X107271864Y-70092321D02*
X107251110Y-70111124D01*
X106554602Y-71097842D02*
X106582866Y-71094593D01*
X106827336Y-70286961D02*
X106809666Y-70288397D01*
X106754283Y-69724296D02*
X106741839Y-69703887D01*
X106905420Y-69374249D02*
X106922281Y-69384663D01*
X105500844Y-70276247D02*
X105500000Y-70300000D01*
X106415458Y-70214330D02*
X106439047Y-70226043D01*
X106555926Y-69410761D02*
X106548465Y-69418173D01*
X106541667Y-69811132D02*
X106531035Y-69798899D01*
X108005548Y-70253698D02*
X108009152Y-70276247D01*
X107409458Y-70618183D02*
X107378565Y-70599529D01*
X106391755Y-69823695D02*
X106415134Y-69812360D01*
X106073058Y-69802896D02*
X106078180Y-69830237D01*
X107330936Y-70027934D02*
X107311811Y-70050812D01*
X106665175Y-70285179D02*
X106682587Y-70286961D01*
X106524027Y-69767973D02*
X106538276Y-69763422D01*
X106531035Y-69798899D02*
X106520605Y-69786090D01*
X106754303Y-69724296D02*
X106754305Y-69724296D01*
X105560743Y-70157663D02*
X105544682Y-70174773D01*
X107311811Y-70050812D02*
X107292110Y-70072246D01*
X106465476Y-69498878D02*
X106440120Y-69492538D01*
X107367356Y-69977504D02*
X107451254Y-69989121D01*
X107678281Y-70671846D02*
X107643040Y-70676966D01*
X106773920Y-69336678D02*
X106793765Y-69338973D01*
X107239935Y-69498447D02*
X107262037Y-69505937D01*
X106938497Y-69396645D02*
X106946346Y-69403255D01*
X106616633Y-69870165D02*
X106602191Y-69862236D01*
X106832615Y-69346228D02*
X106851511Y-69351392D01*
X106297597Y-70754291D02*
X106295825Y-70796992D01*
X106363201Y-71017734D02*
X106382103Y-71037927D01*
X106414521Y-70379246D02*
X106385382Y-70440879D01*
X107931037Y-70503326D02*
X107894631Y-70543518D01*
X106151854Y-69565390D02*
X106136206Y-69581367D01*
X107319139Y-70557247D02*
X107263194Y-70510144D01*
X106526891Y-71098110D02*
X106554602Y-71097842D01*
X106968110Y-69811132D02*
X106978858Y-69798899D01*
X107263194Y-70510144D02*
X107211134Y-70460395D01*
X107400704Y-69617049D02*
X107411834Y-69636663D01*
X106462836Y-70237257D02*
X106486791Y-70248056D01*
X105526035Y-70407855D02*
X105540346Y-70438224D01*
X108009152Y-70276247D02*
X108009996Y-70300000D01*
X106754305Y-69724296D02*
X106766763Y-69703887D01*
X106231763Y-69916318D02*
X106276889Y-69887731D01*
X106507594Y-69513677D02*
X106490808Y-69507148D01*
X106700258Y-70288397D02*
X106718202Y-70289471D01*
X107821916Y-70606697D02*
X107785708Y-70630228D01*
X106142609Y-69977504D02*
X106160476Y-70003527D01*
X106392103Y-70202030D02*
X106415458Y-70214330D01*
X106109237Y-69617049D02*
X106098106Y-69636663D01*
X106462352Y-69791357D02*
X106486204Y-69781739D01*
X106851511Y-69351392D02*
X106869980Y-69357715D01*
X106448277Y-70314967D02*
X106414521Y-70379246D01*
X106415134Y-69812360D02*
X106438664Y-69801572D01*
X107141410Y-69835554D02*
X107118175Y-69823695D01*
X106142640Y-69977504D02*
X106058742Y-69989121D01*
X106869980Y-69357715D02*
X106887968Y-69365300D01*
X106524832Y-69521172D02*
X106507594Y-69513677D01*
X107163359Y-70410173D02*
X107023170Y-70248056D01*
X107322941Y-69537387D02*
X107341123Y-69550715D01*
X106385382Y-70440879D02*
X106360682Y-70499851D01*
X106728365Y-69684362D02*
X106713966Y-69665727D01*
X106514190Y-69462374D02*
X106507992Y-69472742D01*
X106438664Y-69801572D02*
X106462352Y-69791357D01*
X106982722Y-69443011D02*
X106989376Y-69452392D01*
X106136206Y-69581367D02*
X106121969Y-69598601D01*
X107421268Y-69657401D02*
X107428909Y-69679217D01*
X107198330Y-70660657D02*
X107206980Y-70708841D01*
X106661882Y-69735227D02*
X106693443Y-69730570D01*
X106486827Y-70248056D02*
X106448277Y-70314967D01*
X106382103Y-71037927D02*
X106402793Y-71055240D01*
X107212272Y-70836932D02*
X107207741Y-70874093D01*
X107217091Y-69492529D02*
X107239935Y-69498447D01*
X107212069Y-70754291D02*
X107213773Y-70796992D01*
X107473352Y-70649158D02*
X107441071Y-70634817D01*
X106780279Y-69684362D02*
X106794744Y-69665727D01*
X107140908Y-70189059D02*
X107117821Y-70202030D01*
X107044464Y-69498878D02*
X107069819Y-69492538D01*
X106270004Y-69498447D02*
X106247902Y-69505937D01*
X106920423Y-69853490D02*
X106933278Y-69843966D01*
X106098106Y-69636663D02*
X106088672Y-69657401D01*
X107200358Y-70908464D02*
X107190301Y-70940027D01*
X105557957Y-70470035D02*
X105578959Y-70503326D01*
X106548465Y-69418173D02*
X106541197Y-69426042D01*
X106440120Y-69492538D02*
X106414837Y-69488084D01*
X106552625Y-69822747D02*
X106541667Y-69811132D01*
X107451254Y-69989121D02*
X107532019Y-70002104D01*
X107069819Y-69492538D02*
X107095103Y-69488084D01*
X107858241Y-70577884D02*
X107821916Y-70606697D01*
X106346266Y-70994677D02*
X106363201Y-71017734D01*
X107169564Y-69485588D02*
X107193603Y-69488228D01*
X106075278Y-69702066D02*
X106071509Y-69725903D01*
X106439047Y-70226043D02*
X106462836Y-70237257D01*
X107023129Y-70248056D02*
X106992075Y-70256645D01*
X107608166Y-70678164D02*
X107573710Y-70675710D01*
X106754284Y-69724296D02*
X106754283Y-69724296D01*
X106718202Y-70289471D02*
X106736433Y-70290162D01*
X106809666Y-70288397D02*
X106791723Y-70289471D01*
X107713840Y-70662530D02*
X107678281Y-70671846D01*
X106945434Y-69833705D02*
X106957007Y-69822747D01*
X106861914Y-70283071D02*
X106844748Y-70285179D01*
X106576015Y-69843966D02*
X106564033Y-69833705D01*
X106826080Y-69631151D02*
X106842731Y-69615222D01*
X107162873Y-70994677D02*
X107145857Y-71017734D01*
X106666281Y-69615222D02*
X106649243Y-69600206D01*
X106520605Y-69786090D02*
X106510255Y-69772743D01*
X106713966Y-69665727D02*
X106698749Y-69647988D01*
X107573710Y-70675710D02*
X107539723Y-70669876D01*
X106707320Y-69896150D02*
X106686307Y-69892907D01*
X106730018Y-69898334D02*
X106707320Y-69896150D01*
X106247902Y-69505937D02*
X106226637Y-69514954D01*
X106602191Y-69862236D02*
X106588693Y-69853490D01*
X107206980Y-70708841D02*
X107212069Y-70754291D01*
X107083730Y-71069660D02*
X107059918Y-71081171D01*
X106930473Y-69390452D02*
X106938497Y-69396645D01*
X106697902Y-71051496D02*
X106726272Y-71033123D01*
X107120218Y-69485471D02*
X107145070Y-69484654D01*
X106968772Y-69425717D02*
X106975852Y-69434123D01*
X107348442Y-70579127D02*
X107319139Y-70557247D01*
X105615365Y-70543518D02*
X105651755Y-70577884D01*
X107169638Y-70556148D02*
X107185942Y-70609755D01*
X107262037Y-69505937D02*
X107283302Y-69514954D01*
X106910839Y-69747459D02*
X106879118Y-69740864D01*
X107145857Y-71017734D02*
X107126877Y-71037927D01*
X107436883Y-69802896D02*
X107431763Y-69830237D01*
X106131432Y-70599529D02*
X106161555Y-70579127D01*
X106985896Y-69767973D02*
X106971605Y-69763422D01*
X106078180Y-69830237D02*
X106085762Y-69858342D01*
X106621642Y-69366261D02*
X106604309Y-69375117D01*
X106186998Y-69537387D02*
X106168817Y-69550715D01*
X107748329Y-70052402D02*
X107809373Y-70073997D01*
X107373733Y-69581367D02*
X107387971Y-69598601D01*
X107785708Y-70630228D02*
X107749665Y-70648748D01*
X107506253Y-70660935D02*
X107473352Y-70649158D01*
X107965315Y-70174773D02*
X107979065Y-70192893D01*
X105700623Y-70073997D02*
X105646309Y-70098529D01*
X105544682Y-70174773D02*
X105530931Y-70192893D01*
X106614087Y-69572939D02*
X106596180Y-69560700D01*
X106142619Y-69977504D02*
X106187024Y-69946308D01*
X106295825Y-70796992D02*
X106297256Y-70836932D01*
X106960537Y-70264587D02*
X106928405Y-70271737D01*
X106360682Y-70499851D02*
X106340246Y-70556148D01*
X106160476Y-70003527D02*
X106178988Y-70027934D01*
X107007972Y-69483625D02*
X107013693Y-69495108D01*
X106895302Y-69572939D02*
X106913332Y-69560700D01*
X106895567Y-70277947D02*
X106861914Y-70283071D01*
X107233044Y-69887731D02*
X107187474Y-69860744D01*
X106309019Y-70908464D02*
X106318998Y-70940027D01*
X106877452Y-69586110D02*
X106895302Y-69572939D01*
X107414041Y-69887166D02*
X107401249Y-69916665D01*
X106318998Y-70940027D02*
X106331472Y-70968770D01*
X106892166Y-69870165D02*
X106906757Y-69862236D01*
X106178988Y-70027934D02*
X106198113Y-70050812D01*
X107434663Y-69702066D02*
X107438432Y-69725903D01*
X107532019Y-70002104D02*
X107608933Y-70016770D01*
X105621900Y-70111995D02*
X105599442Y-70126314D01*
X106507992Y-69472742D02*
X106502028Y-69483650D01*
X105510725Y-70232316D02*
X105504449Y-70253698D01*
X106604309Y-69375117D02*
X106587540Y-69385411D01*
X106648008Y-70283071D02*
X106665175Y-70285179D01*
X107023170Y-70248056D02*
X107061714Y-70314967D01*
X106121969Y-69598601D02*
X106109237Y-69617049D01*
X106734209Y-69337059D02*
X106714720Y-69339637D01*
X105901063Y-70016770D02*
X105828720Y-70033431D01*
X106839131Y-71066815D02*
X106810406Y-71051496D01*
X106560239Y-69539038D02*
X106542416Y-69529628D01*
X106168817Y-69550715D02*
X106151854Y-69565390D01*
X105760331Y-70648748D02*
X105796157Y-70662530D01*
X106070303Y-69776363D02*
X106073058Y-69802896D01*
X107322914Y-69946308D02*
X107278172Y-69916318D01*
X105901830Y-70678164D02*
X105936286Y-70675710D01*
X106571393Y-69397255D02*
X106563570Y-69403793D01*
X106292847Y-69492529D02*
X106270004Y-69498447D01*
X106649243Y-69600206D02*
X106631810Y-69586110D01*
X107002008Y-69472686D02*
X107007972Y-69483625D01*
X105936286Y-70675710D02*
X105970274Y-70669876D01*
X106340375Y-69485588D02*
X106316336Y-69488228D01*
X106587540Y-69385411D02*
X106579385Y-69391132D01*
X107378565Y-70599529D02*
X107348442Y-70579127D01*
X106563570Y-69403793D02*
X106555926Y-69410761D01*
X106754524Y-69899422D02*
X106730018Y-69898334D01*
X106810406Y-71051496D02*
X106782022Y-71033123D01*
X105977977Y-70002104D02*
X105901063Y-70016770D01*
X106778798Y-69898334D02*
X106801336Y-69896150D01*
X106323787Y-70160758D02*
X106346233Y-70175330D01*
X108009996Y-70300000D02*
X108007989Y-70324999D01*
X105540346Y-70438224D02*
X105557957Y-70470035D01*
X106297256Y-70836932D02*
X106301713Y-70874093D01*
X105796157Y-70662530D02*
X105831715Y-70671846D01*
X105646309Y-70098529D02*
X105621900Y-70111995D01*
X106794744Y-69665727D02*
X106810047Y-69647988D01*
X106682587Y-70286961D02*
X106700258Y-70288397D01*
X105579027Y-70141523D02*
X105560743Y-70157663D01*
X107207741Y-70874093D02*
X107200358Y-70908464D01*
X107186138Y-70160758D02*
X107163692Y-70175330D01*
X106276889Y-69887731D02*
X106322457Y-69860744D01*
X106316336Y-69488228D02*
X106292847Y-69492529D01*
X106698749Y-69647988D02*
X106682819Y-69631151D01*
X106693443Y-69730570D02*
X106724390Y-69726918D01*
X106801336Y-69896150D02*
X106822265Y-69892907D01*
X106331472Y-70968770D02*
X106346266Y-70994677D01*
X105599442Y-70126314D02*
X105579027Y-70141523D01*
X107023731Y-69781739D02*
X106999710Y-69772743D01*
X105506956Y-70351281D02*
X105514935Y-70378887D01*
X107283302Y-69514954D02*
X107303636Y-69525452D01*
X106879118Y-69740864D02*
X106847133Y-69735227D01*
X106346233Y-70175330D02*
X106369017Y-70189059D01*
X106611504Y-71088349D02*
X106640341Y-71079094D01*
X107164507Y-69847912D02*
X107141410Y-69835554D01*
X106490808Y-69507148D02*
X106465476Y-69498878D01*
X106859750Y-69883411D02*
X106876535Y-69877237D01*
X106187024Y-69946308D02*
X106231763Y-69916318D01*
X106302748Y-70708841D02*
X106297597Y-70754291D01*
X106630146Y-69740864D02*
X106661882Y-69735227D01*
X106036644Y-70649158D02*
X106068926Y-70634817D01*
X106161555Y-70579127D02*
X106190858Y-70557247D01*
X107424180Y-69858342D02*
X107414041Y-69887166D01*
X106414837Y-69488084D02*
X106389721Y-69485471D01*
X106598674Y-69747459D02*
X106630146Y-69740864D01*
X106301712Y-70145257D02*
X106323787Y-70160758D01*
X107438432Y-69725903D02*
X107440123Y-69750684D01*
X107013693Y-69495108D02*
X107019163Y-69507148D01*
X106791723Y-70289471D02*
X106773493Y-70290162D01*
X106280043Y-70128741D02*
X106301712Y-70145257D01*
X106896894Y-71088349D02*
X106868019Y-71079094D01*
X107439638Y-69776363D02*
X107436883Y-69802896D01*
X106922281Y-69384663D02*
X106930473Y-69390452D01*
X107211134Y-70460395D02*
X107163359Y-70410173D01*
X107863687Y-70098529D02*
X107888097Y-70111995D01*
X105504449Y-70253698D02*
X105500844Y-70276247D01*
X106340246Y-70556148D02*
X106323896Y-70609755D01*
X107608933Y-70016770D02*
X107681277Y-70033431D01*
X107995061Y-70378887D02*
X107983961Y-70407855D01*
X106238060Y-70092321D02*
X106258815Y-70111124D01*
X106859892Y-69600206D02*
X106877452Y-69586110D01*
X107387971Y-69598601D02*
X107400704Y-69617049D01*
X107349448Y-70003527D02*
X107330936Y-70027934D01*
X106258815Y-70111124D02*
X106280043Y-70128741D01*
X107002331Y-69513677D02*
X107019132Y-69507148D01*
X106581518Y-70271737D02*
X106614355Y-70277947D01*
X105578959Y-70503326D02*
X105615365Y-70543518D01*
X105866957Y-70676966D02*
X105901830Y-70678164D01*
X106995807Y-69462280D02*
X107002008Y-69472686D01*
X106549385Y-70264587D02*
X106581518Y-70271737D01*
X106579385Y-69391132D02*
X106571393Y-69397255D01*
X106588693Y-69853490D02*
X106576015Y-69843966D01*
X107983961Y-70407855D02*
X107969651Y-70438224D01*
X107213773Y-70796992D02*
X107212272Y-70836932D01*
X106198113Y-70050812D02*
X106217815Y-70072246D01*
X107910554Y-70126314D02*
X107930969Y-70141523D01*
X107401249Y-69916665D02*
X107385708Y-69946792D01*
X105514935Y-70378887D02*
X105526035Y-70407855D01*
X106402793Y-71055240D02*
X106425095Y-71069660D01*
X106520618Y-69452535D02*
X106514190Y-69462374D01*
X106322457Y-69860744D02*
X106345423Y-69847912D01*
X107539723Y-70669876D02*
X107506253Y-70660935D01*
X106736433Y-70290162D02*
X106754964Y-70290454D01*
X107440123Y-69750684D02*
X107439638Y-69776363D01*
X106657766Y-69352417D02*
X106639481Y-69358732D01*
X106961490Y-69417778D02*
X106968772Y-69425717D01*
X106741839Y-69703887D02*
X106728365Y-69684362D01*
D11*
X106770140Y-69785536D02*
X106783872Y-69786852D01*
X106797577Y-69788448D01*
X106811256Y-69790279D01*
X106838548Y-69794450D01*
X106865768Y-69798987D01*
X106866758Y-69799275D01*
X106867780Y-69799510D01*
X106868827Y-69799704D01*
X106869893Y-69799869D01*
X106874215Y-69800464D01*
X106875278Y-69800654D01*
X106876321Y-69800883D01*
X106877337Y-69801163D01*
X106878320Y-69801505D01*
X106878797Y-69801704D01*
X106879264Y-69801922D01*
X106879719Y-69802161D01*
X106880161Y-69802423D01*
X106880591Y-69802710D01*
X106881006Y-69803022D01*
X106881407Y-69803361D01*
X106881792Y-69803728D01*
X106881860Y-69804002D01*
X106881919Y-69804275D01*
X106881968Y-69804547D01*
X106882006Y-69804818D01*
X106882031Y-69805087D01*
X106882042Y-69805354D01*
X106882037Y-69805618D01*
X106882014Y-69805877D01*
X106881973Y-69806133D01*
X106881945Y-69806259D01*
X106881911Y-69806384D01*
X106881873Y-69806507D01*
X106881828Y-69806629D01*
X106881778Y-69806750D01*
X106881722Y-69806869D01*
X106881660Y-69806986D01*
X106881591Y-69807102D01*
X106881516Y-69807216D01*
X106881435Y-69807328D01*
X106881346Y-69807438D01*
X106881250Y-69807546D01*
X106881147Y-69807652D01*
X106881037Y-69807756D01*
X106878412Y-69809444D01*
X106875750Y-69811070D01*
X106873051Y-69812637D01*
X106870318Y-69814146D01*
X106864758Y-69816996D01*
X106859088Y-69819634D01*
X106853325Y-69822070D01*
X106847485Y-69824318D01*
X106841585Y-69826390D01*
X106835643Y-69828299D01*
X106827229Y-69830563D01*
X106818751Y-69832568D01*
X106810218Y-69834318D01*
X106801637Y-69835811D01*
X106793016Y-69837050D01*
X106784361Y-69838036D01*
X106775680Y-69838768D01*
X106766980Y-69839249D01*
X106758270Y-69839480D01*
X106749556Y-69839461D01*
X106740846Y-69839194D01*
X106732147Y-69838679D01*
X106723466Y-69837917D01*
X106714812Y-69836911D01*
X106706191Y-69835660D01*
X106697611Y-69834165D01*
X106693309Y-69833392D01*
X106689029Y-69832524D01*
X106684772Y-69831560D01*
X106680539Y-69830501D01*
X106676332Y-69829350D01*
X106672153Y-69828105D01*
X106668003Y-69826768D01*
X106663883Y-69825341D01*
X106659796Y-69823823D01*
X106655743Y-69822215D01*
X106651726Y-69820519D01*
X106647745Y-69818735D01*
X106643804Y-69816864D01*
X106639902Y-69814907D01*
X106636043Y-69812865D01*
X106632227Y-69810738D01*
X106631886Y-69810622D01*
X106631550Y-69810482D01*
X106631218Y-69810320D01*
X106630893Y-69810137D01*
X106630576Y-69809934D01*
X106630269Y-69809712D01*
X106629972Y-69809474D01*
X106629687Y-69809221D01*
X106629415Y-69808953D01*
X106629159Y-69808672D01*
X106628918Y-69808380D01*
X106628695Y-69808078D01*
X106628491Y-69807768D01*
X106628307Y-69807450D01*
X106628145Y-69807126D01*
X106628005Y-69806798D01*
X106627890Y-69806467D01*
X106627801Y-69806134D01*
X106627739Y-69805801D01*
X106627705Y-69805469D01*
X106627701Y-69805140D01*
X106627729Y-69804814D01*
X106627788Y-69804494D01*
X106627882Y-69804180D01*
X106628011Y-69803874D01*
X106628177Y-69803578D01*
X106628380Y-69803292D01*
X106628623Y-69803019D01*
X106628907Y-69802759D01*
X106629233Y-69802514D01*
X106629602Y-69802285D01*
X106630017Y-69802074D01*
X106636854Y-69800463D01*
X106643730Y-69799009D01*
X106650638Y-69797683D01*
X106657568Y-69796457D01*
X106685357Y-69791971D01*
X106703051Y-69789548D01*
X106720778Y-69787256D01*
X106729657Y-69786275D01*
X106738549Y-69785466D01*
X106747455Y-69784875D01*
X106756377Y-69784549D01*
X106770140Y-69785536D01*
%TA.AperFunction,NonConductor*%
G36*
X106770140Y-69785536D02*
G01*
X106783872Y-69786852D01*
X106797577Y-69788448D01*
X106811256Y-69790279D01*
X106838548Y-69794450D01*
X106865768Y-69798987D01*
X106866758Y-69799275D01*
X106867780Y-69799510D01*
X106868827Y-69799704D01*
X106869893Y-69799869D01*
X106874215Y-69800464D01*
X106875278Y-69800654D01*
X106876321Y-69800883D01*
X106877337Y-69801163D01*
X106878320Y-69801505D01*
X106878797Y-69801704D01*
X106879264Y-69801922D01*
X106879719Y-69802161D01*
X106880161Y-69802423D01*
X106880591Y-69802710D01*
X106881006Y-69803022D01*
X106881407Y-69803361D01*
X106881792Y-69803728D01*
X106881860Y-69804002D01*
X106881919Y-69804275D01*
X106881968Y-69804547D01*
X106882006Y-69804818D01*
X106882031Y-69805087D01*
X106882042Y-69805354D01*
X106882037Y-69805618D01*
X106882014Y-69805877D01*
X106881973Y-69806133D01*
X106881945Y-69806259D01*
X106881911Y-69806384D01*
X106881873Y-69806507D01*
X106881828Y-69806629D01*
X106881778Y-69806750D01*
X106881722Y-69806869D01*
X106881660Y-69806986D01*
X106881591Y-69807102D01*
X106881516Y-69807216D01*
X106881435Y-69807328D01*
X106881346Y-69807438D01*
X106881250Y-69807546D01*
X106881147Y-69807652D01*
X106881037Y-69807756D01*
X106878412Y-69809444D01*
X106875750Y-69811070D01*
X106873051Y-69812637D01*
X106870318Y-69814146D01*
X106864758Y-69816996D01*
X106859088Y-69819634D01*
X106853325Y-69822070D01*
X106847485Y-69824318D01*
X106841585Y-69826390D01*
X106835643Y-69828299D01*
X106827229Y-69830563D01*
X106818751Y-69832568D01*
X106810218Y-69834318D01*
X106801637Y-69835811D01*
X106793016Y-69837050D01*
X106784361Y-69838036D01*
X106775680Y-69838768D01*
X106766980Y-69839249D01*
X106758270Y-69839480D01*
X106749556Y-69839461D01*
X106740846Y-69839194D01*
X106732147Y-69838679D01*
X106723466Y-69837917D01*
X106714812Y-69836911D01*
X106706191Y-69835660D01*
X106697611Y-69834165D01*
X106693309Y-69833392D01*
X106689029Y-69832524D01*
X106684772Y-69831560D01*
X106680539Y-69830501D01*
X106676332Y-69829350D01*
X106672153Y-69828105D01*
X106668003Y-69826768D01*
X106663883Y-69825341D01*
X106659796Y-69823823D01*
X106655743Y-69822215D01*
X106651726Y-69820519D01*
X106647745Y-69818735D01*
X106643804Y-69816864D01*
X106639902Y-69814907D01*
X106636043Y-69812865D01*
X106632227Y-69810738D01*
X106631886Y-69810622D01*
X106631550Y-69810482D01*
X106631218Y-69810320D01*
X106630893Y-69810137D01*
X106630576Y-69809934D01*
X106630269Y-69809712D01*
X106629972Y-69809474D01*
X106629687Y-69809221D01*
X106629415Y-69808953D01*
X106629159Y-69808672D01*
X106628918Y-69808380D01*
X106628695Y-69808078D01*
X106628491Y-69807768D01*
X106628307Y-69807450D01*
X106628145Y-69807126D01*
X106628005Y-69806798D01*
X106627890Y-69806467D01*
X106627801Y-69806134D01*
X106627739Y-69805801D01*
X106627705Y-69805469D01*
X106627701Y-69805140D01*
X106627729Y-69804814D01*
X106627788Y-69804494D01*
X106627882Y-69804180D01*
X106628011Y-69803874D01*
X106628177Y-69803578D01*
X106628380Y-69803292D01*
X106628623Y-69803019D01*
X106628907Y-69802759D01*
X106629233Y-69802514D01*
X106629602Y-69802285D01*
X106630017Y-69802074D01*
X106636854Y-69800463D01*
X106643730Y-69799009D01*
X106650638Y-69797683D01*
X106657568Y-69796457D01*
X106685357Y-69791971D01*
X106703051Y-69789548D01*
X106720778Y-69787256D01*
X106729657Y-69786275D01*
X106738549Y-69785466D01*
X106747455Y-69784875D01*
X106756377Y-69784549D01*
X106770140Y-69785536D01*
G37*
%TD.AperFunction*%
D10*
X107061714Y-70314967D02*
X107095456Y-70379246D01*
X106502028Y-69483650D02*
X106496308Y-69495114D01*
X105651755Y-70577884D02*
X105688080Y-70606697D01*
X106081031Y-69679217D02*
X106075278Y-69702066D01*
X106085762Y-69858342D02*
X106095902Y-69887166D01*
X107888097Y-70111995D02*
X107910554Y-70126314D01*
X106906757Y-69862236D02*
X106920423Y-69853490D01*
X106541197Y-69426042D02*
X106534128Y-69434383D01*
X106971605Y-69763422D02*
X106941825Y-69754986D01*
X107185942Y-70609755D02*
X107198330Y-70660657D01*
X106813349Y-69342122D02*
X106832615Y-69346228D01*
X107190301Y-70940027D02*
X107177747Y-70968770D01*
X106003744Y-70660935D02*
X106036644Y-70649158D01*
X107643040Y-70676966D02*
X107608166Y-70678164D01*
X106913332Y-69560700D02*
X106931431Y-69549398D01*
X106753868Y-69335136D02*
X106773920Y-69336678D01*
X106844748Y-70285179D02*
X106827336Y-70286961D01*
X106534128Y-69434383D02*
X106527266Y-69443209D01*
X105502008Y-70324999D02*
X105506956Y-70351281D01*
D11*
X106760987Y-69395447D02*
X106765471Y-69395683D01*
X106769955Y-69396104D01*
X106774437Y-69396725D01*
X106782688Y-69397713D01*
X106790943Y-69398881D01*
X106799186Y-69400243D01*
X106807402Y-69401811D01*
X106815578Y-69403597D01*
X106823697Y-69405614D01*
X106831745Y-69407874D01*
X106839708Y-69410390D01*
X106847569Y-69413175D01*
X106855314Y-69416240D01*
X106862929Y-69419598D01*
X106870398Y-69423262D01*
X106877706Y-69427245D01*
X106884839Y-69431558D01*
X106891781Y-69436214D01*
X106898518Y-69441226D01*
X106907832Y-69449435D01*
X106912434Y-69453632D01*
X106916935Y-69457934D01*
X106919134Y-69460134D01*
X106921290Y-69462372D01*
X106923398Y-69464652D01*
X106925451Y-69466978D01*
X106927444Y-69469353D01*
X106929371Y-69471783D01*
X106931226Y-69474270D01*
X106933003Y-69476819D01*
X106933055Y-69477157D01*
X106933090Y-69477479D01*
X106933107Y-69477787D01*
X106933106Y-69478081D01*
X106933099Y-69478224D01*
X106933087Y-69478364D01*
X106933070Y-69478501D01*
X106933048Y-69478636D01*
X106933021Y-69478768D01*
X106932989Y-69478898D01*
X106932953Y-69479025D01*
X106932911Y-69479151D01*
X106932864Y-69479275D01*
X106932812Y-69479397D01*
X106932754Y-69479517D01*
X106932692Y-69479636D01*
X106932624Y-69479754D01*
X106932550Y-69479870D01*
X106932472Y-69479985D01*
X106932387Y-69480100D01*
X106932297Y-69480214D01*
X106932201Y-69480327D01*
X106931993Y-69480552D01*
X106931761Y-69480776D01*
X106931505Y-69481000D01*
X106920735Y-69486728D01*
X106910086Y-69492700D01*
X106899562Y-69498904D01*
X106889165Y-69505330D01*
X106878900Y-69511967D01*
X106868769Y-69518805D01*
X106858775Y-69525832D01*
X106848922Y-69533037D01*
X106843119Y-69537338D01*
X106837386Y-69541725D01*
X106826124Y-69550746D01*
X106815123Y-69560074D01*
X106804366Y-69569686D01*
X106793838Y-69579555D01*
X106783525Y-69589658D01*
X106773412Y-69599969D01*
X106763483Y-69610464D01*
X106763158Y-69610736D01*
X106762838Y-69611035D01*
X106762520Y-69611358D01*
X106762206Y-69611703D01*
X106761583Y-69612443D01*
X106760964Y-69613232D01*
X106759719Y-69614862D01*
X106759082Y-69615655D01*
X106758430Y-69616401D01*
X106758097Y-69616750D01*
X106757757Y-69617077D01*
X106757412Y-69617382D01*
X106757059Y-69617660D01*
X106756699Y-69617908D01*
X106756330Y-69618124D01*
X106755953Y-69618305D01*
X106755566Y-69618447D01*
X106755169Y-69618548D01*
X106754761Y-69618605D01*
X106754342Y-69618614D01*
X106753911Y-69618573D01*
X106753468Y-69618479D01*
X106753011Y-69618328D01*
X106752541Y-69618119D01*
X106752056Y-69617847D01*
X106743147Y-69607949D01*
X106734031Y-69598249D01*
X106724712Y-69588749D01*
X106715192Y-69579454D01*
X106705477Y-69570370D01*
X106695569Y-69561500D01*
X106685473Y-69552849D01*
X106675193Y-69544421D01*
X106664731Y-69536221D01*
X106654093Y-69528253D01*
X106643282Y-69520522D01*
X106632302Y-69513032D01*
X106621157Y-69505787D01*
X106609849Y-69498792D01*
X106598385Y-69492051D01*
X106586766Y-69485569D01*
X106586456Y-69485318D01*
X106586123Y-69485077D01*
X106585770Y-69484845D01*
X106585398Y-69484621D01*
X106584609Y-69484192D01*
X106583774Y-69483781D01*
X106582046Y-69482974D01*
X106581189Y-69482559D01*
X106580363Y-69482123D01*
X106579968Y-69481895D01*
X106579587Y-69481657D01*
X106579223Y-69481410D01*
X106578878Y-69481152D01*
X106578555Y-69480881D01*
X106578257Y-69480597D01*
X106577984Y-69480298D01*
X106577741Y-69479983D01*
X106577529Y-69479651D01*
X106577350Y-69479301D01*
X106577207Y-69478931D01*
X106577103Y-69478541D01*
X106577039Y-69478129D01*
X106577018Y-69477694D01*
X106577042Y-69477234D01*
X106577114Y-69476750D01*
X106577926Y-69475539D01*
X106578773Y-69474347D01*
X106579652Y-69473172D01*
X106580559Y-69472014D01*
X106581491Y-69470870D01*
X106582446Y-69469739D01*
X106584408Y-69467511D01*
X106586420Y-69465318D01*
X106588457Y-69463149D01*
X106592502Y-69458834D01*
X106598124Y-69453257D01*
X106603986Y-69447976D01*
X106610074Y-69442987D01*
X106616372Y-69438284D01*
X106622868Y-69433863D01*
X106629544Y-69429719D01*
X106636388Y-69425846D01*
X106643383Y-69422241D01*
X106650516Y-69418898D01*
X106657771Y-69415811D01*
X106665135Y-69412977D01*
X106672591Y-69410391D01*
X106680126Y-69408047D01*
X106687725Y-69405940D01*
X106695372Y-69404066D01*
X106703054Y-69402420D01*
X106720744Y-69399189D01*
X106729648Y-69397726D01*
X106738582Y-69396524D01*
X106743057Y-69396058D01*
X106747535Y-69395702D01*
X106752017Y-69395472D01*
X106756502Y-69395382D01*
X106760987Y-69395447D01*
%TA.AperFunction,NonConductor*%
G36*
X106760987Y-69395447D02*
G01*
X106765471Y-69395683D01*
X106769955Y-69396104D01*
X106774437Y-69396725D01*
X106782688Y-69397713D01*
X106790943Y-69398881D01*
X106799186Y-69400243D01*
X106807402Y-69401811D01*
X106815578Y-69403597D01*
X106823697Y-69405614D01*
X106831745Y-69407874D01*
X106839708Y-69410390D01*
X106847569Y-69413175D01*
X106855314Y-69416240D01*
X106862929Y-69419598D01*
X106870398Y-69423262D01*
X106877706Y-69427245D01*
X106884839Y-69431558D01*
X106891781Y-69436214D01*
X106898518Y-69441226D01*
X106907832Y-69449435D01*
X106912434Y-69453632D01*
X106916935Y-69457934D01*
X106919134Y-69460134D01*
X106921290Y-69462372D01*
X106923398Y-69464652D01*
X106925451Y-69466978D01*
X106927444Y-69469353D01*
X106929371Y-69471783D01*
X106931226Y-69474270D01*
X106933003Y-69476819D01*
X106933055Y-69477157D01*
X106933090Y-69477479D01*
X106933107Y-69477787D01*
X106933106Y-69478081D01*
X106933099Y-69478224D01*
X106933087Y-69478364D01*
X106933070Y-69478501D01*
X106933048Y-69478636D01*
X106933021Y-69478768D01*
X106932989Y-69478898D01*
X106932953Y-69479025D01*
X106932911Y-69479151D01*
X106932864Y-69479275D01*
X106932812Y-69479397D01*
X106932754Y-69479517D01*
X106932692Y-69479636D01*
X106932624Y-69479754D01*
X106932550Y-69479870D01*
X106932472Y-69479985D01*
X106932387Y-69480100D01*
X106932297Y-69480214D01*
X106932201Y-69480327D01*
X106931993Y-69480552D01*
X106931761Y-69480776D01*
X106931505Y-69481000D01*
X106920735Y-69486728D01*
X106910086Y-69492700D01*
X106899562Y-69498904D01*
X106889165Y-69505330D01*
X106878900Y-69511967D01*
X106868769Y-69518805D01*
X106858775Y-69525832D01*
X106848922Y-69533037D01*
X106843119Y-69537338D01*
X106837386Y-69541725D01*
X106826124Y-69550746D01*
X106815123Y-69560074D01*
X106804366Y-69569686D01*
X106793838Y-69579555D01*
X106783525Y-69589658D01*
X106773412Y-69599969D01*
X106763483Y-69610464D01*
X106763158Y-69610736D01*
X106762838Y-69611035D01*
X106762520Y-69611358D01*
X106762206Y-69611703D01*
X106761583Y-69612443D01*
X106760964Y-69613232D01*
X106759719Y-69614862D01*
X106759082Y-69615655D01*
X106758430Y-69616401D01*
X106758097Y-69616750D01*
X106757757Y-69617077D01*
X106757412Y-69617382D01*
X106757059Y-69617660D01*
X106756699Y-69617908D01*
X106756330Y-69618124D01*
X106755953Y-69618305D01*
X106755566Y-69618447D01*
X106755169Y-69618548D01*
X106754761Y-69618605D01*
X106754342Y-69618614D01*
X106753911Y-69618573D01*
X106753468Y-69618479D01*
X106753011Y-69618328D01*
X106752541Y-69618119D01*
X106752056Y-69617847D01*
X106743147Y-69607949D01*
X106734031Y-69598249D01*
X106724712Y-69588749D01*
X106715192Y-69579454D01*
X106705477Y-69570370D01*
X106695569Y-69561500D01*
X106685473Y-69552849D01*
X106675193Y-69544421D01*
X106664731Y-69536221D01*
X106654093Y-69528253D01*
X106643282Y-69520522D01*
X106632302Y-69513032D01*
X106621157Y-69505787D01*
X106609849Y-69498792D01*
X106598385Y-69492051D01*
X106586766Y-69485569D01*
X106586456Y-69485318D01*
X106586123Y-69485077D01*
X106585770Y-69484845D01*
X106585398Y-69484621D01*
X106584609Y-69484192D01*
X106583774Y-69483781D01*
X106582046Y-69482974D01*
X106581189Y-69482559D01*
X106580363Y-69482123D01*
X106579968Y-69481895D01*
X106579587Y-69481657D01*
X106579223Y-69481410D01*
X106578878Y-69481152D01*
X106578555Y-69480881D01*
X106578257Y-69480597D01*
X106577984Y-69480298D01*
X106577741Y-69479983D01*
X106577529Y-69479651D01*
X106577350Y-69479301D01*
X106577207Y-69478931D01*
X106577103Y-69478541D01*
X106577039Y-69478129D01*
X106577018Y-69477694D01*
X106577042Y-69477234D01*
X106577114Y-69476750D01*
X106577926Y-69475539D01*
X106578773Y-69474347D01*
X106579652Y-69473172D01*
X106580559Y-69472014D01*
X106581491Y-69470870D01*
X106582446Y-69469739D01*
X106584408Y-69467511D01*
X106586420Y-69465318D01*
X106588457Y-69463149D01*
X106592502Y-69458834D01*
X106598124Y-69453257D01*
X106603986Y-69447976D01*
X106610074Y-69442987D01*
X106616372Y-69438284D01*
X106622868Y-69433863D01*
X106629544Y-69429719D01*
X106636388Y-69425846D01*
X106643383Y-69422241D01*
X106650516Y-69418898D01*
X106657771Y-69415811D01*
X106665135Y-69412977D01*
X106672591Y-69410391D01*
X106680126Y-69408047D01*
X106687725Y-69405940D01*
X106695372Y-69404066D01*
X106703054Y-69402420D01*
X106720744Y-69399189D01*
X106729648Y-69397726D01*
X106738582Y-69396524D01*
X106743057Y-69396058D01*
X106747535Y-69395702D01*
X106752017Y-69395472D01*
X106756502Y-69395382D01*
X106760987Y-69395447D01*
G37*
%TD.AperFunction*%
D10*
X106058742Y-69989121D02*
X105977977Y-70002104D01*
X107990414Y-70212060D02*
X107999271Y-70232316D01*
X106946346Y-69403255D02*
X106954012Y-69410295D01*
X105724289Y-70630228D02*
X105760331Y-70648748D01*
X106564033Y-69833705D02*
X106552625Y-69822747D01*
X106669199Y-71066815D02*
X106697902Y-71051496D01*
X106957007Y-69822747D02*
X106968110Y-69811132D01*
X106726272Y-71033123D02*
X106754134Y-71011682D01*
X106754536Y-69899422D02*
X106778798Y-69898334D01*
X106538276Y-69763422D02*
X106567904Y-69754986D01*
X106887968Y-69365300D02*
X106905420Y-69374249D01*
X106978858Y-69798899D02*
X106989363Y-69786090D01*
X106108694Y-69916665D02*
X106124235Y-69946792D01*
X106206304Y-69525452D02*
X106186998Y-69537387D01*
X107930969Y-70141523D02*
X107949253Y-70157663D01*
X106782022Y-71033123D02*
X106754156Y-71011682D01*
X107117821Y-70202030D02*
X107094465Y-70214330D01*
X106724390Y-69726918D02*
X106754284Y-69724296D01*
D12*
%TO.P,J2,1,Pin_1*%
%TO.N,+3.3V*%
X110600000Y-57150000D03*
%TO.P,J2,2,Pin_2*%
%TO.N,GND*%
X110600000Y-58420000D03*
%TO.P,J2,3,Pin_3*%
%TO.N,VCC*%
X110600000Y-59690000D03*
%TO.P,J2,4,Pin_4*%
%TO.N,EN*%
X110600000Y-60960000D03*
%TO.P,J2,5,Pin_5*%
%TO.N,BOOT*%
X110600000Y-62230000D03*
%TO.P,J2,6,Pin_6*%
%TO.N,IO10*%
X110600000Y-63500000D03*
%TO.P,J2,7,Pin_7*%
%TO.N,IO8*%
X110600000Y-64770000D03*
%TO.P,J2,8,Pin_8*%
%TO.N,IO7*%
X110600000Y-66040000D03*
%TO.P,J2,9,Pin_9*%
%TO.N,IO6*%
X110600000Y-67310000D03*
%TD*%
D13*
%TO.P,J3,S1,SHIELD*%
%TO.N,GND*%
X109840000Y-55105000D03*
D14*
X109840000Y-51105000D03*
D13*
X98640000Y-55105000D03*
D14*
X98640000Y-51105000D03*
%TD*%
D12*
%TO.P,J1,1,Pin_1*%
%TO.N,U0TXD*%
X97892518Y-57150000D03*
%TO.P,J1,2,Pin_2*%
%TO.N,U0RXD*%
X97892518Y-58420000D03*
%TO.P,J1,3,Pin_3*%
%TO.N,IO0*%
X97892518Y-59690000D03*
%TO.P,J1,4,Pin_4*%
%TO.N,IO1*%
X97892518Y-60960000D03*
%TO.P,J1,5,Pin_5*%
%TO.N,IO2*%
X97892518Y-62230000D03*
%TO.P,J1,6,Pin_6*%
%TO.N,IO3*%
X97892518Y-63500000D03*
%TO.P,J1,7,Pin_7*%
%TO.N,IO4*%
X97892518Y-64770000D03*
%TO.P,J1,8,Pin_8*%
%TO.N,IO5*%
X97892518Y-66040000D03*
%TD*%
D15*
%TO.N,+5V*%
X109420036Y-56600000D03*
X106640000Y-55855000D03*
X101820036Y-55900000D03*
%TO.N,GND*%
X103440381Y-70363842D03*
X102606894Y-70731472D03*
X105500000Y-58999500D03*
X106099964Y-71700000D03*
X104520000Y-71700000D03*
X105920036Y-62600000D03*
X105220036Y-64000000D03*
X104520036Y-63300000D03*
X105220036Y-63300000D03*
X99514500Y-63585500D03*
X104234079Y-67300000D03*
X104520036Y-64000000D03*
X105220036Y-62600000D03*
X103720000Y-71700000D03*
X98975000Y-66700000D03*
X101320036Y-68300000D03*
X110100000Y-71700000D03*
X102758538Y-67339912D03*
X102120000Y-71700000D03*
X104520000Y-70600000D03*
X101700000Y-70741000D03*
X105320000Y-71700000D03*
X103957788Y-69623730D03*
X104234079Y-68104690D03*
X102776573Y-68313282D03*
X108499964Y-71700000D03*
X107420036Y-56500000D03*
X99756678Y-66700000D03*
X104239536Y-68900000D03*
X102000000Y-69599000D03*
X105920036Y-64000000D03*
X100700000Y-61400498D03*
X109299964Y-71700000D03*
X101320000Y-71700000D03*
X102820036Y-66500000D03*
X106899964Y-71700000D03*
X105920036Y-63300000D03*
X107699964Y-71700000D03*
X101320036Y-66710000D03*
X108748711Y-66823675D03*
X100538356Y-66700000D03*
X99100000Y-56500000D03*
X101320036Y-67500000D03*
X102700000Y-69100000D03*
X104520036Y-62600000D03*
X106920036Y-67000000D03*
X102920000Y-71700000D03*
X101320036Y-69100000D03*
%TO.N,+3.3V*%
X102209401Y-59390599D03*
X102100000Y-66870000D03*
X105600000Y-68720000D03*
X109473625Y-67967313D03*
X108070602Y-60868479D03*
%TO.N,IO0*%
X104000000Y-64731900D03*
%TO.N,IO1*%
X105051930Y-64749316D03*
%TO.N,IO2*%
X105801015Y-64750101D03*
%TO.N,IO3*%
X107220036Y-65666775D03*
%TO.N,D+*%
X102720036Y-57000000D03*
X103569842Y-62138692D03*
%TO.N,D-*%
X104232169Y-61787867D03*
X103620036Y-57000000D03*
%TO.N,IO4*%
X108223832Y-66040684D03*
%TO.N,IO8*%
X106607280Y-62061133D03*
%TO.N,IO5*%
X106694275Y-64312553D03*
%TO.N,EN*%
X106501815Y-65036924D03*
%TO.N,BOOT*%
X105851172Y-61779520D03*
X108600000Y-69400000D03*
%TO.N,U0TXD*%
X103700000Y-63400000D03*
%TO.N,U0RXD*%
X102299500Y-60900000D03*
%TO.N,IO7*%
X106669536Y-62808045D03*
%TO.N,IO6*%
X106669536Y-63557548D03*
%TO.N,VCC*%
X106400000Y-58300000D03*
X101083055Y-59373473D03*
%TO.N,IO10*%
X108713916Y-62357764D03*
%TD*%
D16*
%TO.N,+5V*%
X101820036Y-55900000D02*
X106595000Y-55900000D01*
X108675036Y-55855000D02*
X106640000Y-55855000D01*
X109420036Y-56600000D02*
X108675036Y-55855000D01*
D17*
X106595000Y-55900000D02*
X106640000Y-55855000D01*
D16*
%TO.N,GND*%
X109565036Y-58420000D02*
X110075036Y-58420000D01*
D18*
%TO.N,IO0*%
X103165210Y-64731900D02*
X98156545Y-59723235D01*
X104000000Y-64731900D02*
X103165210Y-64731900D01*
X98156545Y-59723235D02*
X98156545Y-59689926D01*
%TO.N,IO1*%
X103042880Y-65246900D02*
X98755906Y-60959926D01*
X104554346Y-65246900D02*
X103042880Y-65246900D01*
X105051930Y-64749316D02*
X104554346Y-65246900D01*
X98755906Y-60959926D02*
X98156900Y-60959926D01*
%TO.N,IO2*%
X105801015Y-64750101D02*
X104951116Y-65600000D01*
X102797990Y-65600000D02*
X99427916Y-62229926D01*
X104951116Y-65600000D02*
X102797990Y-65600000D01*
X99427916Y-62229926D02*
X98157254Y-62229926D01*
D19*
%TO.N,D+*%
X103569842Y-62138692D02*
X103569842Y-57849806D01*
X103569842Y-57849806D02*
X102720036Y-57000000D01*
%TO.N,D-*%
X103949842Y-61505540D02*
X104232169Y-61787867D01*
X103620036Y-57000000D02*
X103949842Y-57329806D01*
X103949842Y-57329806D02*
X103949842Y-61505540D01*
D18*
%TO.N,IO8*%
X106607280Y-62061133D02*
X107061133Y-62061133D01*
X107061133Y-62061133D02*
X109770000Y-64770000D01*
X109770000Y-64770000D02*
X110330884Y-64770000D01*
%TO.N,IO5*%
X107735036Y-65880095D02*
X107433356Y-66181775D01*
X102385000Y-65985000D02*
X101585000Y-65185000D01*
X106809941Y-65985000D02*
X102385000Y-65985000D01*
X99013317Y-65185000D02*
X98158317Y-66040000D01*
X107433356Y-66181775D02*
X107006716Y-66181775D01*
X101585000Y-65185000D02*
X99013317Y-65185000D01*
X106694275Y-64312553D02*
X107735036Y-65353314D01*
X107735036Y-65353314D02*
X107735036Y-65880095D01*
X107006716Y-66181775D02*
X106809941Y-65985000D01*
%TO.N,BOOT*%
X106130692Y-61500000D02*
X109620036Y-61500000D01*
X105851172Y-61779520D02*
X106130692Y-61500000D01*
X109620036Y-61500000D02*
X110250459Y-62130423D01*
%TO.N,U0TXD*%
X102900000Y-62600000D02*
X102900000Y-58450000D01*
X102900000Y-58450000D02*
X101550000Y-57100000D01*
X103700000Y-63400000D02*
X102900000Y-62600000D01*
X101550000Y-57100000D02*
X98600000Y-57100000D01*
%TO.N,U0RXD*%
X101791211Y-60900000D02*
X99311211Y-58420000D01*
X99311211Y-58420000D02*
X98156191Y-58420000D01*
X102299500Y-60900000D02*
X101791211Y-60900000D01*
%TO.N,IO7*%
X109901491Y-66040000D02*
X110331587Y-66040000D01*
X106669536Y-62808045D02*
X109901491Y-66040000D01*
%TO.N,IO6*%
X110332291Y-67220303D02*
X110332291Y-67310148D01*
X106669536Y-63557548D02*
X110332291Y-67220303D01*
D16*
%TO.N,VCC*%
X106400000Y-58800000D02*
X107290000Y-59690000D01*
X106400000Y-58300000D02*
X106400000Y-58800000D01*
X107290000Y-59690000D02*
X110268069Y-59690000D01*
D20*
%TO.N,IO10*%
X109856152Y-63500000D02*
X110320180Y-63500000D01*
X110320180Y-63500000D02*
X110320180Y-63500155D01*
X108713916Y-62357764D02*
X109856152Y-63500000D01*
%TD*%
%TA.AperFunction,Conductor*%
%TO.N,GND*%
G36*
X101514482Y-65419245D02*
G01*
X102202308Y-66107071D01*
X102262929Y-66167692D01*
X102342134Y-66200500D01*
X102342135Y-66200500D01*
X102427866Y-66200500D01*
X106694168Y-66200500D01*
X106739423Y-66219245D01*
X106824024Y-66303846D01*
X106884645Y-66364467D01*
X106963850Y-66397275D01*
X106963851Y-66397275D01*
X106963853Y-66397275D01*
X107476219Y-66397275D01*
X107476222Y-66397275D01*
X107555427Y-66364467D01*
X107710623Y-66209270D01*
X107755876Y-66190526D01*
X107801131Y-66209271D01*
X107814092Y-66227939D01*
X107840948Y-66286744D01*
X107840950Y-66286747D01*
X107925783Y-66384651D01*
X108034763Y-66454688D01*
X108159060Y-66491184D01*
X108159061Y-66491184D01*
X108288603Y-66491184D01*
X108288604Y-66491184D01*
X108412901Y-66454688D01*
X108521881Y-66384651D01*
X108606714Y-66286747D01*
X108660529Y-66168910D01*
X108678965Y-66040684D01*
X108677961Y-66033704D01*
X108690072Y-65986243D01*
X108732197Y-65961246D01*
X108779660Y-65973357D01*
X108786564Y-65979339D01*
X109695065Y-66887840D01*
X109713810Y-66933095D01*
X109713022Y-66943107D01*
X109699500Y-67028483D01*
X109699500Y-67478622D01*
X109680755Y-67523877D01*
X109635500Y-67542622D01*
X109617470Y-67540030D01*
X109562455Y-67523877D01*
X109538397Y-67516813D01*
X109408853Y-67516813D01*
X109284556Y-67553309D01*
X109284554Y-67553309D01*
X109175576Y-67623345D01*
X109175574Y-67623347D01*
X109090743Y-67721249D01*
X109090741Y-67721252D01*
X109036928Y-67839084D01*
X109018492Y-67967313D01*
X109036928Y-68095541D01*
X109090741Y-68213373D01*
X109090743Y-68213376D01*
X109175576Y-68311280D01*
X109284556Y-68381317D01*
X109408853Y-68417813D01*
X109408854Y-68417813D01*
X109538396Y-68417813D01*
X109538397Y-68417813D01*
X109662694Y-68381317D01*
X109771674Y-68311280D01*
X109856507Y-68213376D01*
X109910322Y-68095539D01*
X109923587Y-68003272D01*
X109948582Y-67961147D01*
X109996044Y-67949033D01*
X109996896Y-67949162D01*
X110068481Y-67960500D01*
X110333186Y-67960499D01*
X110378441Y-67979244D01*
X110397186Y-68024464D01*
X110398194Y-69842881D01*
X110399019Y-71332632D01*
X110399354Y-71935465D01*
X110380634Y-71980730D01*
X110335389Y-71999500D01*
X101084036Y-71999500D01*
X101038781Y-71980755D01*
X101020036Y-71935500D01*
X101020036Y-70283696D01*
X105264666Y-70283696D01*
X105264722Y-70285178D01*
X105265065Y-70286614D01*
X105265890Y-70290076D01*
X105265974Y-70290426D01*
X105267514Y-70300140D01*
X105267582Y-70300985D01*
X105266427Y-70319247D01*
X105265730Y-70322572D01*
X105265729Y-70322576D01*
X105265735Y-70322603D01*
X105266799Y-70336701D01*
X105266758Y-70337835D01*
X105266760Y-70337844D01*
X105267964Y-70341070D01*
X105270930Y-70365071D01*
X105270984Y-70365067D01*
X105271104Y-70366485D01*
X105271607Y-70370549D01*
X105271518Y-70371341D01*
X105271519Y-70371347D01*
X105272102Y-70373365D01*
X105274411Y-70385998D01*
X105274693Y-70389504D01*
X105274694Y-70389510D01*
X105274979Y-70390066D01*
X105275484Y-70392294D01*
X105276414Y-70395570D01*
X105276239Y-70395619D01*
X105280115Y-70412702D01*
X105280971Y-70412556D01*
X105282034Y-70418765D01*
X105283519Y-70422641D01*
X105286650Y-70433694D01*
X105287736Y-70439461D01*
X105290087Y-70445305D01*
X105289188Y-70445666D01*
X105293586Y-70459236D01*
X105295222Y-70458829D01*
X105296745Y-70464945D01*
X105299299Y-70470365D01*
X105302888Y-70479875D01*
X105305097Y-70487519D01*
X105307997Y-70493121D01*
X105307438Y-70493410D01*
X105313590Y-70504896D01*
X105315266Y-70510142D01*
X105318885Y-70516679D01*
X105322653Y-70524770D01*
X105326123Y-70533824D01*
X105326125Y-70533826D01*
X105329485Y-70539158D01*
X105328686Y-70539661D01*
X105336090Y-70551402D01*
X105337356Y-70554702D01*
X105341923Y-70561941D01*
X105345685Y-70568802D01*
X105350355Y-70578712D01*
X105354106Y-70583784D01*
X105353909Y-70583929D01*
X105361261Y-70593221D01*
X105369239Y-70607632D01*
X105373511Y-70617083D01*
X105376249Y-70624743D01*
X105376250Y-70624744D01*
X105389956Y-70639874D01*
X105396654Y-70648695D01*
X105407549Y-70665966D01*
X105408590Y-70666702D01*
X105418048Y-70676137D01*
X105418149Y-70676031D01*
X105447858Y-70704087D01*
X105451351Y-70707654D01*
X105465582Y-70723366D01*
X105467499Y-70726040D01*
X105467544Y-70726003D01*
X105471618Y-70730802D01*
X105471620Y-70730804D01*
X105471621Y-70730805D01*
X105472282Y-70731583D01*
X105476402Y-70734640D01*
X105478041Y-70735897D01*
X105497747Y-70751528D01*
X105501902Y-70755126D01*
X105516804Y-70769199D01*
X105519494Y-70772342D01*
X105523836Y-70776573D01*
X105531500Y-70781386D01*
X105531458Y-70781452D01*
X105532509Y-70781985D01*
X105541505Y-70787831D01*
X105550096Y-70793414D01*
X105554994Y-70796936D01*
X105570849Y-70809512D01*
X105574307Y-70812859D01*
X105578015Y-70815802D01*
X105585121Y-70819447D01*
X105586588Y-70820026D01*
X105591149Y-70822369D01*
X105605000Y-70829486D01*
X105610608Y-70832738D01*
X105627532Y-70843736D01*
X105631399Y-70846789D01*
X105634749Y-70848905D01*
X105636657Y-70849666D01*
X105636659Y-70849668D01*
X105636661Y-70849668D01*
X105640703Y-70851282D01*
X105643117Y-70851964D01*
X105662280Y-70859335D01*
X105668548Y-70862141D01*
X105686155Y-70871188D01*
X105686169Y-70871195D01*
X105690339Y-70873820D01*
X105693710Y-70875458D01*
X105695411Y-70875944D01*
X105695414Y-70875946D01*
X105695417Y-70875946D01*
X105698675Y-70876878D01*
X105702148Y-70877471D01*
X105721522Y-70882547D01*
X105728276Y-70884724D01*
X105745738Y-70891441D01*
X105750509Y-70893758D01*
X105754234Y-70895077D01*
X105755969Y-70895376D01*
X105755973Y-70895378D01*
X105755977Y-70895377D01*
X105758521Y-70895817D01*
X105763421Y-70896107D01*
X105782005Y-70898806D01*
X105789007Y-70900228D01*
X105805036Y-70904428D01*
X105810969Y-70906537D01*
X105815431Y-70907585D01*
X105819274Y-70907815D01*
X105826292Y-70907455D01*
X105842746Y-70908020D01*
X105849722Y-70908644D01*
X105863091Y-70910587D01*
X105870765Y-70912409D01*
X105876213Y-70913094D01*
X105879252Y-70912935D01*
X105879257Y-70912936D01*
X105879261Y-70912934D01*
X105880084Y-70912892D01*
X105889461Y-70911381D01*
X105902741Y-70910435D01*
X105909452Y-70910312D01*
X105919343Y-70910651D01*
X105928890Y-70911886D01*
X105930054Y-70911916D01*
X105930059Y-70911918D01*
X105930063Y-70911917D01*
X105932390Y-70911979D01*
X105938845Y-70911540D01*
X105939942Y-70911359D01*
X105939945Y-70911360D01*
X105939947Y-70911359D01*
X105939991Y-70911352D01*
X105951512Y-70908235D01*
X105961085Y-70906592D01*
X105967338Y-70905835D01*
X105973494Y-70905397D01*
X105984594Y-70905733D01*
X105985546Y-70905671D01*
X105985549Y-70905672D01*
X105985551Y-70905671D01*
X105985664Y-70905664D01*
X105997424Y-70903693D01*
X106005027Y-70903153D01*
X106005116Y-70904419D01*
X106047290Y-70909723D01*
X106073729Y-70942125D01*
X106074014Y-70941966D01*
X106074932Y-70943599D01*
X106076447Y-70945456D01*
X106077468Y-70948580D01*
X106081809Y-70958592D01*
X106083733Y-70964678D01*
X106085309Y-70970655D01*
X106086649Y-70976958D01*
X106088039Y-70989184D01*
X106088052Y-70990002D01*
X106088053Y-70990006D01*
X106088182Y-70990302D01*
X106091612Y-71001027D01*
X106092027Y-71001994D01*
X106097710Y-71012256D01*
X106100323Y-71018277D01*
X106102630Y-71024446D01*
X106104723Y-71031065D01*
X106107192Y-71042306D01*
X106107363Y-71043658D01*
X106107652Y-71044521D01*
X106110972Y-71052110D01*
X106111923Y-71053840D01*
X106111924Y-71053842D01*
X106111925Y-71053843D01*
X106112116Y-71054070D01*
X106118694Y-71063504D01*
X106122192Y-71069629D01*
X106125327Y-71075890D01*
X106128350Y-71082856D01*
X106131793Y-71093070D01*
X106132196Y-71094711D01*
X106133218Y-71096899D01*
X106135331Y-71100577D01*
X106137231Y-71103319D01*
X106137781Y-71103851D01*
X106144876Y-71111976D01*
X106149436Y-71118185D01*
X106153429Y-71124330D01*
X106157522Y-71131497D01*
X106161850Y-71140708D01*
X106162505Y-71142450D01*
X106164617Y-71145849D01*
X106164756Y-71146037D01*
X106167874Y-71149627D01*
X106167875Y-71149628D01*
X106167876Y-71149629D01*
X106168748Y-71150305D01*
X106176261Y-71157148D01*
X106181987Y-71163265D01*
X106186837Y-71169106D01*
X106191994Y-71176127D01*
X106197141Y-71184384D01*
X106198025Y-71186078D01*
X106200464Y-71189108D01*
X106203708Y-71192075D01*
X106204902Y-71192798D01*
X106212828Y-71198464D01*
X106219570Y-71204106D01*
X106225212Y-71209442D01*
X106231182Y-71215819D01*
X106237121Y-71223190D01*
X106238245Y-71224819D01*
X106241059Y-71227549D01*
X106244413Y-71229954D01*
X106244414Y-71229955D01*
X106246022Y-71230684D01*
X106254335Y-71235225D01*
X106261685Y-71239977D01*
X106268007Y-71244638D01*
X106274334Y-71249932D01*
X106281099Y-71256498D01*
X106282498Y-71258072D01*
X106285824Y-71260590D01*
X106289425Y-71262559D01*
X106291494Y-71263208D01*
X106300260Y-71266686D01*
X106307666Y-71270277D01*
X106314480Y-71274112D01*
X106320569Y-71278049D01*
X106328183Y-71283824D01*
X106329923Y-71285362D01*
X106333954Y-71287709D01*
X106337969Y-71289301D01*
X106337971Y-71289301D01*
X106337974Y-71289303D01*
X106340584Y-71289781D01*
X106349835Y-71292203D01*
X106356646Y-71294544D01*
X106363766Y-71297481D01*
X106369060Y-71300048D01*
X106377596Y-71305035D01*
X106379696Y-71306491D01*
X106379698Y-71306491D01*
X106383578Y-71308177D01*
X106385588Y-71308871D01*
X106389189Y-71309809D01*
X106389193Y-71309811D01*
X106392241Y-71309990D01*
X106402026Y-71311329D01*
X106407754Y-71312570D01*
X106414975Y-71314586D01*
X106419141Y-71316017D01*
X106428597Y-71320147D01*
X106430973Y-71321422D01*
X106430975Y-71321423D01*
X106433599Y-71322223D01*
X106440031Y-71323630D01*
X106442109Y-71323911D01*
X106442110Y-71323910D01*
X106442114Y-71323912D01*
X106445455Y-71323705D01*
X106455750Y-71323899D01*
X106460101Y-71324334D01*
X106467264Y-71325466D01*
X106470147Y-71326090D01*
X106480504Y-71329275D01*
X106483036Y-71330295D01*
X106483037Y-71330294D01*
X106483040Y-71330296D01*
X106484247Y-71330524D01*
X106495327Y-71331657D01*
X106495874Y-71331665D01*
X106495879Y-71331667D01*
X106499246Y-71331056D01*
X106510017Y-71330033D01*
X106512951Y-71330004D01*
X106519943Y-71330320D01*
X106521583Y-71330484D01*
X106532775Y-71332626D01*
X106535271Y-71333340D01*
X106535349Y-71333330D01*
X106549034Y-71333231D01*
X106549695Y-71333297D01*
X106552857Y-71332343D01*
X106564017Y-71330034D01*
X106565665Y-71329845D01*
X106572326Y-71329430D01*
X106572955Y-71329424D01*
X106584916Y-71330433D01*
X106587195Y-71330844D01*
X106588232Y-71330617D01*
X106601248Y-71329151D01*
X106602939Y-71329135D01*
X106605706Y-71327957D01*
X106617060Y-71324332D01*
X106617221Y-71324296D01*
X106617605Y-71324212D01*
X106636564Y-71322946D01*
X106638431Y-71323100D01*
X106640292Y-71322502D01*
X106652547Y-71319858D01*
X106655128Y-71319562D01*
X106657117Y-71318456D01*
X106682501Y-71311749D01*
X106682487Y-71311680D01*
X106683803Y-71311404D01*
X106687603Y-71310401D01*
X106688660Y-71310391D01*
X106691166Y-71309324D01*
X106702598Y-71305681D01*
X106705913Y-71304959D01*
X106707084Y-71304144D01*
X106711557Y-71302499D01*
X106711694Y-71302440D01*
X106711697Y-71302448D01*
X106731694Y-71295092D01*
X106731607Y-71294803D01*
X106735616Y-71293589D01*
X106735781Y-71293588D01*
X106737383Y-71293000D01*
X106743926Y-71292360D01*
X106744045Y-71293586D01*
X106764352Y-71293581D01*
X106764469Y-71292384D01*
X106770751Y-71292995D01*
X106770753Y-71292996D01*
X106771049Y-71293024D01*
X106772557Y-71293579D01*
X106772681Y-71293579D01*
X106776787Y-71294820D01*
X106776701Y-71295101D01*
X106796775Y-71302475D01*
X106796776Y-71302474D01*
X106796797Y-71302483D01*
X106801359Y-71304159D01*
X106802557Y-71304991D01*
X106805864Y-71305710D01*
X106817285Y-71309346D01*
X106819786Y-71310409D01*
X106819851Y-71310409D01*
X106820866Y-71310419D01*
X106824757Y-71311445D01*
X106825962Y-71311697D01*
X106825948Y-71311760D01*
X106851356Y-71318464D01*
X106852513Y-71319106D01*
X106853361Y-71319577D01*
X106855950Y-71319873D01*
X106868194Y-71322512D01*
X106870057Y-71323110D01*
X106871914Y-71322956D01*
X106890881Y-71324217D01*
X106891443Y-71324340D01*
X106902819Y-71327969D01*
X106905560Y-71329136D01*
X106907262Y-71329152D01*
X106920269Y-71330614D01*
X106921328Y-71330845D01*
X106923590Y-71330437D01*
X106935562Y-71329424D01*
X106936200Y-71329431D01*
X106942861Y-71329846D01*
X106944479Y-71330032D01*
X106955665Y-71332344D01*
X106958804Y-71333292D01*
X106959494Y-71333223D01*
X106973165Y-71333323D01*
X106973270Y-71333336D01*
X106975741Y-71332629D01*
X106986977Y-71330479D01*
X106988614Y-71330316D01*
X106995568Y-71330004D01*
X106998448Y-71330032D01*
X107009268Y-71331062D01*
X107012608Y-71331669D01*
X107012609Y-71331668D01*
X107012610Y-71331669D01*
X107012610Y-71331668D01*
X107013077Y-71331661D01*
X107024382Y-71330508D01*
X107025515Y-71330294D01*
X107025515Y-71330293D01*
X107025520Y-71330294D01*
X107028038Y-71329278D01*
X107038431Y-71326087D01*
X107041273Y-71325473D01*
X107048427Y-71324348D01*
X107052701Y-71323922D01*
X107063049Y-71323731D01*
X107066366Y-71323939D01*
X107066369Y-71323937D01*
X107068356Y-71323671D01*
X107075061Y-71322208D01*
X107077583Y-71321440D01*
X107077585Y-71321438D01*
X107077590Y-71321438D01*
X107079957Y-71320168D01*
X107089457Y-71316026D01*
X107093563Y-71314619D01*
X107100762Y-71312614D01*
X107106409Y-71311394D01*
X107116226Y-71310059D01*
X107119279Y-71309884D01*
X107119285Y-71309880D01*
X107122784Y-71308973D01*
X107125092Y-71308178D01*
X107128862Y-71306543D01*
X107128864Y-71306541D01*
X107128870Y-71306540D01*
X107130971Y-71305084D01*
X107139537Y-71300089D01*
X107144772Y-71297559D01*
X107151867Y-71294641D01*
X107158601Y-71292333D01*
X107167899Y-71289911D01*
X107170511Y-71289437D01*
X107170515Y-71289433D01*
X107174583Y-71287828D01*
X107178648Y-71285466D01*
X107178648Y-71285465D01*
X107178650Y-71285465D01*
X107180384Y-71283934D01*
X107188054Y-71278131D01*
X107194063Y-71274259D01*
X107200863Y-71270444D01*
X107208208Y-71266893D01*
X107217003Y-71263419D01*
X107219090Y-71262769D01*
X107219092Y-71262766D01*
X107219095Y-71262766D01*
X107222733Y-71260785D01*
X107226094Y-71258248D01*
X107226094Y-71258247D01*
X107226096Y-71258247D01*
X107227503Y-71256666D01*
X107234297Y-71250090D01*
X107240585Y-71244849D01*
X107246880Y-71240226D01*
X107254195Y-71235512D01*
X107262553Y-71230966D01*
X107264171Y-71230238D01*
X107264173Y-71230236D01*
X107267543Y-71227830D01*
X107270383Y-71225081D01*
X107270389Y-71225078D01*
X107271499Y-71223473D01*
X107277478Y-71216078D01*
X107283434Y-71209742D01*
X107289071Y-71204432D01*
X107290527Y-71203217D01*
X107295810Y-71198813D01*
X107303763Y-71193154D01*
X107304953Y-71192438D01*
X107304954Y-71192436D01*
X107304955Y-71192436D01*
X107308220Y-71189462D01*
X107310675Y-71186424D01*
X107310675Y-71186423D01*
X107310677Y-71186422D01*
X107311560Y-71184736D01*
X107316744Y-71176459D01*
X107316990Y-71176127D01*
X107321897Y-71169476D01*
X107326743Y-71163665D01*
X107332477Y-71157564D01*
X107340024Y-71150720D01*
X107340902Y-71150044D01*
X107340905Y-71150039D01*
X107344011Y-71146480D01*
X107344175Y-71146259D01*
X107346290Y-71142871D01*
X107346290Y-71142869D01*
X107346294Y-71142866D01*
X107346946Y-71141141D01*
X107351295Y-71131940D01*
X107355413Y-71124766D01*
X107359404Y-71118653D01*
X107364023Y-71112395D01*
X107371136Y-71104289D01*
X107371673Y-71103774D01*
X107371675Y-71103770D01*
X107373603Y-71101001D01*
X107375662Y-71097436D01*
X107376714Y-71095200D01*
X107376713Y-71095200D01*
X107376715Y-71095199D01*
X107377115Y-71093583D01*
X107380585Y-71083367D01*
X107380809Y-71082856D01*
X107383647Y-71076357D01*
X107386784Y-71070124D01*
X107390334Y-71063942D01*
X107396939Y-71054519D01*
X107396943Y-71054513D01*
X107397118Y-71054307D01*
X107397119Y-71054300D01*
X107398089Y-71052547D01*
X107401372Y-71045093D01*
X107401677Y-71044186D01*
X107401680Y-71044182D01*
X107401851Y-71042852D01*
X107404343Y-71031629D01*
X107406471Y-71024948D01*
X107408793Y-71018781D01*
X107411457Y-71012684D01*
X107417133Y-71002492D01*
X107417256Y-71002206D01*
X107417258Y-71002204D01*
X107417258Y-71002201D01*
X107417587Y-71001441D01*
X107421018Y-70990795D01*
X107421129Y-70990542D01*
X107421144Y-70989743D01*
X107422559Y-70977524D01*
X107422682Y-70976953D01*
X107423929Y-70971146D01*
X107425515Y-70965181D01*
X107427483Y-70959004D01*
X107431837Y-70949024D01*
X107432204Y-70947906D01*
X107432208Y-70947901D01*
X107432208Y-70947894D01*
X107433094Y-70945205D01*
X107434948Y-70943049D01*
X107435310Y-70942409D01*
X107435437Y-70942480D01*
X107465038Y-70908071D01*
X107504906Y-70904067D01*
X107504971Y-70903153D01*
X107510268Y-70903529D01*
X107510809Y-70903475D01*
X107511265Y-70903600D01*
X107512572Y-70903693D01*
X107524330Y-70905664D01*
X107524446Y-70905671D01*
X107524448Y-70905672D01*
X107524450Y-70905671D01*
X107525401Y-70905733D01*
X107536502Y-70905397D01*
X107542657Y-70905835D01*
X107548914Y-70906593D01*
X107558485Y-70908236D01*
X107569997Y-70911350D01*
X107570047Y-70911358D01*
X107570052Y-70911360D01*
X107570056Y-70911359D01*
X107571162Y-70911541D01*
X107577612Y-70911979D01*
X107579933Y-70911917D01*
X107579936Y-70911918D01*
X107579938Y-70911917D01*
X107581091Y-70911887D01*
X107590643Y-70910652D01*
X107600544Y-70910312D01*
X107607253Y-70910435D01*
X107620534Y-70911381D01*
X107629913Y-70912893D01*
X107633775Y-70913094D01*
X107637676Y-70912602D01*
X107637683Y-70912603D01*
X107637689Y-70912600D01*
X107639244Y-70912405D01*
X107646906Y-70910586D01*
X107660265Y-70908645D01*
X107667256Y-70908020D01*
X107683698Y-70907455D01*
X107690719Y-70907815D01*
X107694560Y-70907585D01*
X107697063Y-70906997D01*
X107697068Y-70906997D01*
X107697071Y-70906995D01*
X107699032Y-70906535D01*
X107704956Y-70904428D01*
X107721004Y-70900224D01*
X107727993Y-70898805D01*
X107746564Y-70896108D01*
X107751491Y-70895815D01*
X107754022Y-70895377D01*
X107754026Y-70895378D01*
X107754029Y-70895376D01*
X107755754Y-70895079D01*
X107757217Y-70894560D01*
X107757220Y-70894560D01*
X107757222Y-70894558D01*
X107759498Y-70893752D01*
X107764248Y-70891445D01*
X107781722Y-70884722D01*
X107788466Y-70882549D01*
X107807831Y-70877475D01*
X107811294Y-70876886D01*
X107814576Y-70875947D01*
X107814579Y-70875947D01*
X107814580Y-70875946D01*
X107816284Y-70875459D01*
X107817162Y-70875032D01*
X107817166Y-70875031D01*
X107817169Y-70875028D01*
X107819667Y-70873814D01*
X107823832Y-70871191D01*
X107841441Y-70862144D01*
X107841443Y-70862143D01*
X107847698Y-70859341D01*
X107866865Y-70851967D01*
X107869296Y-70851281D01*
X107873338Y-70849667D01*
X107873341Y-70849667D01*
X107873343Y-70849665D01*
X107875246Y-70848906D01*
X107875898Y-70848493D01*
X107875900Y-70848493D01*
X107875900Y-70848492D01*
X107878610Y-70846780D01*
X107882472Y-70843732D01*
X107899382Y-70832741D01*
X107905002Y-70829483D01*
X107923384Y-70820038D01*
X107924859Y-70819456D01*
X107929815Y-70816911D01*
X107929819Y-70816911D01*
X107929821Y-70816908D01*
X107931984Y-70815799D01*
X107932623Y-70815291D01*
X107932626Y-70815290D01*
X107932627Y-70815287D01*
X107935695Y-70812853D01*
X107939150Y-70809508D01*
X107955005Y-70796933D01*
X107959898Y-70793414D01*
X107977450Y-70782006D01*
X107978517Y-70781467D01*
X107978473Y-70781396D01*
X107983842Y-70778027D01*
X107983845Y-70778026D01*
X107983847Y-70778023D01*
X107986158Y-70776574D01*
X107986850Y-70775898D01*
X107986853Y-70775897D01*
X107986854Y-70775894D01*
X107990537Y-70772304D01*
X107993209Y-70769181D01*
X108008086Y-70755132D01*
X108012239Y-70751534D01*
X108031968Y-70735885D01*
X108033562Y-70734664D01*
X108037716Y-70731581D01*
X108042458Y-70725996D01*
X108042503Y-70726034D01*
X108044412Y-70723366D01*
X108058671Y-70707623D01*
X108062122Y-70704101D01*
X108087266Y-70680358D01*
X108087266Y-70680357D01*
X108091851Y-70676028D01*
X108091951Y-70676134D01*
X108101410Y-70666698D01*
X108102447Y-70665966D01*
X108113344Y-70648692D01*
X108120034Y-70639880D01*
X108133746Y-70624743D01*
X108136484Y-70617083D01*
X108140753Y-70607637D01*
X108148734Y-70593221D01*
X108156089Y-70583927D01*
X108155893Y-70583782D01*
X108159642Y-70578711D01*
X108159642Y-70578710D01*
X108159644Y-70578709D01*
X108164321Y-70568779D01*
X108168085Y-70561918D01*
X108172640Y-70554699D01*
X108172641Y-70554690D01*
X108173901Y-70551410D01*
X108181311Y-70539662D01*
X108180511Y-70539158D01*
X108183868Y-70533829D01*
X108183873Y-70533824D01*
X108187337Y-70524782D01*
X108191101Y-70516696D01*
X108194729Y-70510146D01*
X108194730Y-70510141D01*
X108196406Y-70504898D01*
X108202558Y-70493411D01*
X108201998Y-70493121D01*
X108204892Y-70487528D01*
X108204898Y-70487521D01*
X108207112Y-70479858D01*
X108210695Y-70470365D01*
X108213253Y-70464938D01*
X108213253Y-70464934D01*
X108213254Y-70464933D01*
X108214776Y-70458821D01*
X108216424Y-70459231D01*
X108220812Y-70445684D01*
X108219904Y-70445319D01*
X108222256Y-70439472D01*
X108222257Y-70439469D01*
X108223342Y-70433702D01*
X108226478Y-70422636D01*
X108227496Y-70419979D01*
X108227962Y-70418764D01*
X108227962Y-70418763D01*
X108229026Y-70412552D01*
X108229885Y-70412699D01*
X108233761Y-70395606D01*
X108233587Y-70395557D01*
X108234511Y-70392299D01*
X108235020Y-70390055D01*
X108235307Y-70389495D01*
X108235588Y-70385994D01*
X108237899Y-70373343D01*
X108238477Y-70371345D01*
X108238389Y-70370557D01*
X108238887Y-70366520D01*
X108239012Y-70365064D01*
X108239067Y-70365068D01*
X108242032Y-70341066D01*
X108243237Y-70337840D01*
X108243227Y-70337554D01*
X108243198Y-70336726D01*
X108244264Y-70322599D01*
X108244264Y-70322598D01*
X108244267Y-70322583D01*
X108243567Y-70319247D01*
X108242410Y-70301012D01*
X108242477Y-70300174D01*
X108244017Y-70290450D01*
X108245273Y-70285191D01*
X108245272Y-70285188D01*
X108245273Y-70285186D01*
X108245329Y-70283704D01*
X108244995Y-70275191D01*
X108244692Y-70272599D01*
X108244691Y-70272598D01*
X108244692Y-70272596D01*
X108243377Y-70268529D01*
X108241075Y-70258931D01*
X108241059Y-70258832D01*
X108240868Y-70257638D01*
X108240110Y-70249838D01*
X108240009Y-70247008D01*
X108240335Y-70237883D01*
X108240899Y-70232650D01*
X108240897Y-70232645D01*
X108240525Y-70228472D01*
X108240234Y-70226674D01*
X108239119Y-70221951D01*
X108239119Y-70221949D01*
X108237200Y-70217747D01*
X108234019Y-70209217D01*
X108233209Y-70206459D01*
X108231423Y-70198544D01*
X108230967Y-70195690D01*
X108230177Y-70186829D01*
X108230078Y-70181707D01*
X108230076Y-70181703D01*
X108228954Y-70176583D01*
X108228919Y-70176464D01*
X108227119Y-70171603D01*
X108224398Y-70167177D01*
X108220285Y-70159310D01*
X108219124Y-70156656D01*
X108216358Y-70149059D01*
X108216013Y-70147883D01*
X108214066Y-70138913D01*
X108213315Y-70133650D01*
X108213314Y-70133648D01*
X108213314Y-70133647D01*
X108212018Y-70129964D01*
X108210160Y-70125688D01*
X108208651Y-70122804D01*
X108204912Y-70118163D01*
X108199672Y-70110608D01*
X108199569Y-70110434D01*
X108192735Y-70094064D01*
X108191544Y-70089521D01*
X108191088Y-70088584D01*
X108184308Y-70077029D01*
X108184286Y-70076980D01*
X108184285Y-70076977D01*
X108181848Y-70074633D01*
X108166341Y-70051118D01*
X108165833Y-70049774D01*
X108165831Y-70049767D01*
X108165830Y-70049766D01*
X108165830Y-70049765D01*
X108165829Y-70049764D01*
X108164733Y-70048596D01*
X108156329Y-70037407D01*
X108154994Y-70035153D01*
X108154993Y-70035151D01*
X108154990Y-70035149D01*
X108150786Y-70030460D01*
X108151016Y-70030253D01*
X108141661Y-70018943D01*
X108141004Y-70019445D01*
X108137179Y-70014427D01*
X108134019Y-70011637D01*
X108125396Y-70002350D01*
X108122065Y-69997960D01*
X108117351Y-69993782D01*
X108117591Y-69993511D01*
X108110401Y-69987662D01*
X108106390Y-69983217D01*
X108100852Y-69979092D01*
X108092425Y-69971571D01*
X108086670Y-69965440D01*
X108081541Y-69961774D01*
X108082016Y-69961108D01*
X108074059Y-69955728D01*
X108074017Y-69955688D01*
X108066054Y-69950610D01*
X108058112Y-69944630D01*
X108049774Y-69937270D01*
X108047049Y-69935685D01*
X108042607Y-69932556D01*
X108030163Y-69925691D01*
X108022844Y-69920977D01*
X108011954Y-69912864D01*
X108002427Y-69907252D01*
X108001090Y-69906296D01*
X107989719Y-69901160D01*
X107981659Y-69896800D01*
X107973822Y-69891803D01*
X107967948Y-69889516D01*
X107968055Y-69889241D01*
X107957031Y-69885347D01*
X107932073Y-69871579D01*
X107898403Y-69859668D01*
X107898391Y-69859663D01*
X107893419Y-69857665D01*
X107862757Y-69843816D01*
X107862756Y-69843815D01*
X107862754Y-69843815D01*
X107862020Y-69843645D01*
X107859056Y-69842883D01*
X107855779Y-69841955D01*
X107855778Y-69841955D01*
X107820549Y-69831987D01*
X107816660Y-69830750D01*
X107782155Y-69818543D01*
X107781244Y-69818412D01*
X107776052Y-69817440D01*
X107740399Y-69809229D01*
X107737345Y-69808446D01*
X107720888Y-69803790D01*
X107682447Y-69773434D01*
X107674362Y-69739676D01*
X107674536Y-69735246D01*
X107674538Y-69735242D01*
X107673334Y-69727630D01*
X107672561Y-69716429D01*
X107672702Y-69708976D01*
X107672701Y-69708975D01*
X107672702Y-69708970D01*
X107672700Y-69708964D01*
X107671890Y-69704450D01*
X107670965Y-69696365D01*
X107670652Y-69690182D01*
X107670654Y-69690174D01*
X107669960Y-69687420D01*
X107668801Y-69682814D01*
X107667011Y-69671541D01*
X107666506Y-69664135D01*
X107666505Y-69664132D01*
X107665267Y-69659559D01*
X107663672Y-69651793D01*
X107662869Y-69646119D01*
X107662869Y-69646116D01*
X107660361Y-69638956D01*
X107657549Y-69627802D01*
X107656370Y-69620340D01*
X107656368Y-69620337D01*
X107654729Y-69615889D01*
X107652474Y-69608382D01*
X107651304Y-69603400D01*
X107651304Y-69603398D01*
X107648089Y-69596332D01*
X107644284Y-69585463D01*
X107642385Y-69577921D01*
X107642384Y-69577919D01*
X107640458Y-69573860D01*
X107637522Y-69566538D01*
X107636146Y-69562383D01*
X107636145Y-69562381D01*
X107636145Y-69562380D01*
X107632177Y-69555389D01*
X107627441Y-69544967D01*
X107624752Y-69537287D01*
X107624750Y-69537285D01*
X107622659Y-69533742D01*
X107619020Y-69526586D01*
X107617621Y-69523349D01*
X107617620Y-69523344D01*
X107612831Y-69516405D01*
X107607251Y-69506559D01*
X107603694Y-69498740D01*
X107603692Y-69498738D01*
X107601627Y-69495865D01*
X107597248Y-69488860D01*
X107595995Y-69486534D01*
X107590329Y-69479676D01*
X107584005Y-69470497D01*
X107579514Y-69462583D01*
X107579513Y-69462581D01*
X107579510Y-69462579D01*
X107577648Y-69460423D01*
X107572493Y-69453578D01*
X107571555Y-69452141D01*
X107564951Y-69445398D01*
X107558013Y-69436984D01*
X107552515Y-69429019D01*
X107552514Y-69429018D01*
X107552511Y-69429014D01*
X107551039Y-69427586D01*
X107545095Y-69420956D01*
X107544575Y-69420288D01*
X107537026Y-69413757D01*
X107529561Y-69406120D01*
X107524505Y-69400000D01*
X108144867Y-69400000D01*
X108163303Y-69528228D01*
X108217116Y-69646060D01*
X108217118Y-69646063D01*
X108298254Y-69739701D01*
X108301951Y-69743967D01*
X108410931Y-69814004D01*
X108535228Y-69850500D01*
X108535229Y-69850500D01*
X108664771Y-69850500D01*
X108664772Y-69850500D01*
X108789069Y-69814004D01*
X108898049Y-69743967D01*
X108982882Y-69646063D01*
X109036697Y-69528226D01*
X109055133Y-69400000D01*
X109036697Y-69271774D01*
X109036160Y-69270599D01*
X108982883Y-69153939D01*
X108982881Y-69153936D01*
X108970501Y-69139649D01*
X108898049Y-69056033D01*
X108898048Y-69056032D01*
X108789069Y-68985996D01*
X108664772Y-68949500D01*
X108535228Y-68949500D01*
X108410931Y-68985996D01*
X108410929Y-68985996D01*
X108301951Y-69056032D01*
X108301949Y-69056034D01*
X108217118Y-69153936D01*
X108217116Y-69153939D01*
X108163303Y-69271771D01*
X108144867Y-69400000D01*
X107524505Y-69400000D01*
X107523039Y-69398226D01*
X107522070Y-69397436D01*
X107515331Y-69391077D01*
X107515316Y-69391060D01*
X107515314Y-69391057D01*
X107506819Y-69384829D01*
X107498940Y-69377999D01*
X107491398Y-69370299D01*
X107491022Y-69370042D01*
X107484395Y-69364740D01*
X107474644Y-69358712D01*
X107466427Y-69352677D01*
X107457766Y-69345184D01*
X107451714Y-69341088D01*
X107450740Y-69340585D01*
X107440704Y-69335404D01*
X107432235Y-69330157D01*
X107422270Y-69322852D01*
X107417452Y-69320114D01*
X107416214Y-69319589D01*
X107405273Y-69314949D01*
X107396608Y-69310467D01*
X107385397Y-69303536D01*
X107381687Y-69301788D01*
X107368499Y-69297319D01*
X107359685Y-69293575D01*
X107348656Y-69287881D01*
X107348654Y-69287880D01*
X107347386Y-69287226D01*
X107344595Y-69286158D01*
X107330613Y-69282536D01*
X107321683Y-69279504D01*
X107308523Y-69273924D01*
X107306331Y-69273267D01*
X107291762Y-69270599D01*
X107282755Y-69268261D01*
X107268897Y-69263565D01*
X107266998Y-69263144D01*
X107258431Y-69262203D01*
X107252068Y-69261504D01*
X107243013Y-69259843D01*
X107240960Y-69259311D01*
X107228705Y-69256136D01*
X107226754Y-69255850D01*
X107211712Y-69255276D01*
X107202630Y-69254277D01*
X107198198Y-69253465D01*
X107188115Y-69251619D01*
X107185733Y-69251442D01*
X107170814Y-69251932D01*
X107161732Y-69251584D01*
X107143407Y-69249572D01*
X107103964Y-69230005D01*
X107101585Y-69227497D01*
X107096060Y-69223451D01*
X107096607Y-69222703D01*
X107088477Y-69216997D01*
X107087132Y-69215651D01*
X107085682Y-69213946D01*
X107083283Y-69211714D01*
X107079646Y-69209467D01*
X107069990Y-69202156D01*
X107069145Y-69201380D01*
X107064519Y-69198566D01*
X107057462Y-69192545D01*
X107057121Y-69192976D01*
X107052181Y-69189062D01*
X107047466Y-69186644D01*
X107037568Y-69180361D01*
X107035577Y-69178824D01*
X107033273Y-69177680D01*
X107026161Y-69172530D01*
X107025706Y-69173203D01*
X107020488Y-69169668D01*
X107008401Y-69164571D01*
X106999639Y-69160052D01*
X106987981Y-69152852D01*
X106985360Y-69151874D01*
X106981149Y-69150819D01*
X106974835Y-69148657D01*
X106966371Y-69145060D01*
X106963527Y-69143602D01*
X106960698Y-69141803D01*
X106953822Y-69138369D01*
X106952694Y-69138047D01*
X106952693Y-69138047D01*
X106952691Y-69138046D01*
X106950923Y-69137543D01*
X106943047Y-69136159D01*
X106942074Y-69135893D01*
X106931989Y-69131209D01*
X106931792Y-69131667D01*
X106923571Y-69128128D01*
X106917794Y-69126312D01*
X106911375Y-69124993D01*
X106911502Y-69124373D01*
X106900112Y-69122285D01*
X106895414Y-69120539D01*
X106885412Y-69118043D01*
X106882960Y-69117203D01*
X106876717Y-69116365D01*
X106876848Y-69115383D01*
X106871941Y-69114720D01*
X106864025Y-69113803D01*
X106854527Y-69111966D01*
X106849242Y-69110522D01*
X106846813Y-69110351D01*
X106841614Y-69109449D01*
X106833084Y-69108793D01*
X106824660Y-69107577D01*
X106816572Y-69105854D01*
X106810267Y-69105768D01*
X106810276Y-69105079D01*
X106799692Y-69105199D01*
X106792472Y-69104038D01*
X106784022Y-69102084D01*
X106777157Y-69099997D01*
X106777150Y-69099996D01*
X106766334Y-69101055D01*
X106757110Y-69100974D01*
X106756410Y-69101031D01*
X106750946Y-69101075D01*
X106750868Y-69101086D01*
X106737581Y-69101449D01*
X106725676Y-69100533D01*
X106725673Y-69100534D01*
X106717094Y-69103338D01*
X106708178Y-69105558D01*
X106707635Y-69105652D01*
X106706744Y-69105806D01*
X106696463Y-69105796D01*
X106696482Y-69106610D01*
X106690182Y-69106749D01*
X106679794Y-69109057D01*
X106672157Y-69110274D01*
X106659956Y-69111469D01*
X106658573Y-69111590D01*
X106658524Y-69111593D01*
X106651230Y-69113629D01*
X106642434Y-69115430D01*
X106635798Y-69116308D01*
X106629550Y-69117785D01*
X106625682Y-69118315D01*
X106621474Y-69119768D01*
X106611549Y-69122326D01*
X106610397Y-69122526D01*
X106609052Y-69123045D01*
X106597832Y-69125177D01*
X106598007Y-69126025D01*
X106591831Y-69127295D01*
X106590639Y-69127799D01*
X106582385Y-69130434D01*
X106575415Y-69133506D01*
X106574656Y-69131784D01*
X106562967Y-69135983D01*
X106563311Y-69137197D01*
X106555447Y-69139424D01*
X106554993Y-69139601D01*
X106547703Y-69143290D01*
X106543798Y-69145785D01*
X106542898Y-69146245D01*
X106534669Y-69149748D01*
X106530361Y-69151236D01*
X106524482Y-69152707D01*
X106522327Y-69153504D01*
X106521360Y-69154083D01*
X106516738Y-69156773D01*
X106515397Y-69157763D01*
X106510190Y-69160960D01*
X106501576Y-69165389D01*
X106498155Y-69166832D01*
X106496093Y-69167492D01*
X106489384Y-69170450D01*
X106484346Y-69173866D01*
X106476708Y-69178307D01*
X106475033Y-69179131D01*
X106472634Y-69180969D01*
X106462853Y-69187143D01*
X106457816Y-69189717D01*
X106452876Y-69193619D01*
X106452498Y-69193140D01*
X106445557Y-69199028D01*
X106441512Y-69201467D01*
X106440426Y-69202458D01*
X106430811Y-69209689D01*
X106427014Y-69212020D01*
X106424703Y-69214159D01*
X106423033Y-69216110D01*
X106422230Y-69216909D01*
X106414033Y-69222623D01*
X106414579Y-69223374D01*
X106408960Y-69227458D01*
X106406429Y-69230107D01*
X106367144Y-69249505D01*
X106348210Y-69251583D01*
X106339132Y-69251931D01*
X106328350Y-69251577D01*
X106326410Y-69251514D01*
X106326409Y-69251514D01*
X106324209Y-69251442D01*
X106321825Y-69251619D01*
X106307302Y-69254277D01*
X106298224Y-69255276D01*
X106283195Y-69255849D01*
X106281221Y-69256139D01*
X106266926Y-69259843D01*
X106257868Y-69261505D01*
X106251685Y-69262184D01*
X106242933Y-69263145D01*
X106241049Y-69263563D01*
X106227185Y-69268260D01*
X106218183Y-69270596D01*
X106203623Y-69273263D01*
X106201416Y-69273924D01*
X106188242Y-69279509D01*
X106179320Y-69282538D01*
X106165342Y-69286160D01*
X106162535Y-69287233D01*
X106150247Y-69293576D01*
X106141441Y-69297317D01*
X106128258Y-69301786D01*
X106124550Y-69303533D01*
X106113333Y-69310466D01*
X106104675Y-69314944D01*
X106092495Y-69320109D01*
X106087655Y-69322859D01*
X106077689Y-69330165D01*
X106069221Y-69335410D01*
X106058230Y-69341085D01*
X106052190Y-69345172D01*
X106043524Y-69352669D01*
X106035313Y-69358699D01*
X106025548Y-69364736D01*
X106018933Y-69370029D01*
X106018538Y-69370298D01*
X106010985Y-69378010D01*
X106003108Y-69384839D01*
X105994620Y-69391062D01*
X105994604Y-69391080D01*
X105987884Y-69397422D01*
X105986901Y-69398223D01*
X105986896Y-69398228D01*
X105986896Y-69398229D01*
X105980372Y-69406124D01*
X105972914Y-69413754D01*
X105965362Y-69420287D01*
X105964836Y-69420964D01*
X105958907Y-69427579D01*
X105957421Y-69429020D01*
X105957418Y-69429025D01*
X105951923Y-69436985D01*
X105944982Y-69445403D01*
X105938380Y-69452143D01*
X105937424Y-69453608D01*
X105932284Y-69460431D01*
X105930435Y-69462571D01*
X105925938Y-69470495D01*
X105919623Y-69479660D01*
X105913940Y-69486539D01*
X105912691Y-69488860D01*
X105908313Y-69495865D01*
X105906246Y-69498740D01*
X105902683Y-69506570D01*
X105897107Y-69516412D01*
X105892315Y-69523355D01*
X105890917Y-69526592D01*
X105887286Y-69533733D01*
X105885187Y-69537288D01*
X105882501Y-69544958D01*
X105877764Y-69555382D01*
X105873795Y-69562375D01*
X105872417Y-69566538D01*
X105869490Y-69573838D01*
X105867549Y-69577929D01*
X105865649Y-69585475D01*
X105861846Y-69596338D01*
X105858636Y-69603396D01*
X105857465Y-69608385D01*
X105855210Y-69615892D01*
X105853570Y-69620340D01*
X105852392Y-69627792D01*
X105849582Y-69638946D01*
X105847070Y-69646119D01*
X105846265Y-69651807D01*
X105844673Y-69659560D01*
X105843432Y-69664140D01*
X105842926Y-69671564D01*
X105841139Y-69682824D01*
X105839286Y-69690182D01*
X105838975Y-69696367D01*
X105838052Y-69704438D01*
X105837241Y-69708961D01*
X105837381Y-69716431D01*
X105836608Y-69727620D01*
X105835402Y-69735249D01*
X105835578Y-69739701D01*
X105818632Y-69785660D01*
X105789051Y-69803807D01*
X105772644Y-69808448D01*
X105769596Y-69809230D01*
X105733948Y-69817440D01*
X105728752Y-69818413D01*
X105727836Y-69818545D01*
X105693331Y-69830751D01*
X105689414Y-69831996D01*
X105650944Y-69842881D01*
X105647985Y-69843643D01*
X105647243Y-69843815D01*
X105647240Y-69843815D01*
X105647239Y-69843816D01*
X105616571Y-69857666D01*
X105611590Y-69859668D01*
X105577917Y-69871581D01*
X105552961Y-69885348D01*
X105541941Y-69889241D01*
X105542049Y-69889517D01*
X105536177Y-69891803D01*
X105528342Y-69896798D01*
X105520288Y-69901155D01*
X105508903Y-69906298D01*
X105507553Y-69907263D01*
X105498034Y-69912869D01*
X105487135Y-69920988D01*
X105479820Y-69925700D01*
X105467383Y-69932561D01*
X105462949Y-69935684D01*
X105460219Y-69937271D01*
X105451873Y-69944638D01*
X105443938Y-69950612D01*
X105435983Y-69955685D01*
X105435928Y-69955738D01*
X105427975Y-69961112D01*
X105428450Y-69961776D01*
X105423322Y-69965441D01*
X105417563Y-69971576D01*
X105409150Y-69979085D01*
X105403606Y-69983216D01*
X105399596Y-69987660D01*
X105392417Y-69993500D01*
X105392658Y-69993772D01*
X105387938Y-69997955D01*
X105384607Y-70002345D01*
X105375991Y-70011624D01*
X105372815Y-70014427D01*
X105368992Y-70019444D01*
X105368334Y-70018943D01*
X105358980Y-70030250D01*
X105359211Y-70030457D01*
X105355004Y-70035148D01*
X105353660Y-70037419D01*
X105345257Y-70048607D01*
X105344165Y-70049770D01*
X105344162Y-70049774D01*
X105343652Y-70051126D01*
X105328149Y-70074633D01*
X105325711Y-70076977D01*
X105325710Y-70076978D01*
X105325687Y-70077033D01*
X105318908Y-70088582D01*
X105318453Y-70089517D01*
X105317259Y-70094071D01*
X105310518Y-70110278D01*
X105310408Y-70110465D01*
X105305084Y-70118165D01*
X105301341Y-70122811D01*
X105299842Y-70125677D01*
X105297970Y-70129983D01*
X105296680Y-70133651D01*
X105295929Y-70138906D01*
X105293992Y-70147837D01*
X105293649Y-70149008D01*
X105290865Y-70156668D01*
X105289711Y-70159306D01*
X105285601Y-70167167D01*
X105282883Y-70171588D01*
X105281103Y-70176391D01*
X105281020Y-70176676D01*
X105279918Y-70181704D01*
X105279817Y-70186863D01*
X105279025Y-70195714D01*
X105278573Y-70198544D01*
X105278572Y-70198552D01*
X105276790Y-70206446D01*
X105275990Y-70209174D01*
X105272801Y-70217732D01*
X105270877Y-70221946D01*
X105269775Y-70226616D01*
X105269467Y-70228518D01*
X105269096Y-70232665D01*
X105269659Y-70237897D01*
X105269986Y-70247002D01*
X105269887Y-70249800D01*
X105269121Y-70257665D01*
X105268908Y-70258994D01*
X105266617Y-70268533D01*
X105265302Y-70272602D01*
X105264999Y-70275205D01*
X105264666Y-70283696D01*
X101020036Y-70283696D01*
X101020036Y-68720000D01*
X105144867Y-68720000D01*
X105163303Y-68848228D01*
X105217116Y-68966060D01*
X105217118Y-68966063D01*
X105301951Y-69063967D01*
X105410931Y-69134004D01*
X105535228Y-69170500D01*
X105535229Y-69170500D01*
X105664771Y-69170500D01*
X105664772Y-69170500D01*
X105789069Y-69134004D01*
X105898049Y-69063967D01*
X105982882Y-68966063D01*
X106036697Y-68848226D01*
X106055133Y-68720000D01*
X106036697Y-68591774D01*
X105982882Y-68473937D01*
X105898049Y-68376033D01*
X105898048Y-68376032D01*
X105789069Y-68305996D01*
X105664772Y-68269500D01*
X105535228Y-68269500D01*
X105410931Y-68305996D01*
X105410929Y-68305996D01*
X105301951Y-68376032D01*
X105301949Y-68376034D01*
X105217118Y-68473936D01*
X105217116Y-68473939D01*
X105163303Y-68591771D01*
X105144867Y-68720000D01*
X101020036Y-68720000D01*
X101020036Y-67000000D01*
X98158067Y-67000000D01*
X98112812Y-66981255D01*
X98094067Y-66936018D01*
X98094061Y-66916433D01*
X98094048Y-66870000D01*
X101644867Y-66870000D01*
X101663303Y-66998228D01*
X101717116Y-67116060D01*
X101717118Y-67116063D01*
X101801951Y-67213967D01*
X101910931Y-67284004D01*
X102035228Y-67320500D01*
X102035229Y-67320500D01*
X102164771Y-67320500D01*
X102164772Y-67320500D01*
X102289069Y-67284004D01*
X102398049Y-67213967D01*
X102482882Y-67116063D01*
X102536697Y-66998226D01*
X102555133Y-66870000D01*
X102536697Y-66741774D01*
X102532210Y-66731950D01*
X102482883Y-66623939D01*
X102482881Y-66623936D01*
X102398050Y-66526034D01*
X102398048Y-66526032D01*
X102289069Y-66455996D01*
X102284611Y-66454687D01*
X102164772Y-66419500D01*
X102035228Y-66419500D01*
X101910931Y-66455996D01*
X101910929Y-66455996D01*
X101801951Y-66526032D01*
X101801949Y-66526034D01*
X101717118Y-66623936D01*
X101717116Y-66623939D01*
X101663303Y-66741771D01*
X101644867Y-66870000D01*
X98094048Y-66870000D01*
X98094016Y-66754517D01*
X98112748Y-66709257D01*
X98157998Y-66690499D01*
X98424035Y-66690499D01*
X98424036Y-66690499D01*
X98517822Y-66675646D01*
X98630856Y-66618052D01*
X98630857Y-66618052D01*
X98630857Y-66618051D01*
X98630860Y-66618050D01*
X98720568Y-66528342D01*
X98778164Y-66415304D01*
X98793018Y-66321519D01*
X98793017Y-65758482D01*
X98791497Y-65748889D01*
X98802930Y-65701263D01*
X98809447Y-65693631D01*
X99083835Y-65419245D01*
X99129090Y-65400500D01*
X101469227Y-65400500D01*
X101514482Y-65419245D01*
G37*
%TD.AperFunction*%
%TA.AperFunction,Conductor*%
G36*
X99357398Y-62464171D02*
G01*
X102553472Y-65660245D01*
X102572217Y-65705500D01*
X102553472Y-65750755D01*
X102508217Y-65769500D01*
X102500773Y-65769500D01*
X102455518Y-65750755D01*
X101707071Y-65002308D01*
X101627866Y-64969500D01*
X98970451Y-64969500D01*
X98970449Y-64969500D01*
X98950020Y-64977963D01*
X98950019Y-64977963D01*
X98885423Y-65004719D01*
X98884705Y-65002987D01*
X98844521Y-65010974D01*
X98803797Y-64983754D01*
X98793017Y-64948208D01*
X98793017Y-64488482D01*
X98778164Y-64394696D01*
X98720568Y-64281658D01*
X98630860Y-64191950D01*
X98630857Y-64191948D01*
X98626782Y-64188987D01*
X98627531Y-64187955D01*
X98599195Y-64154781D01*
X98603035Y-64105948D01*
X98627281Y-64081701D01*
X98626782Y-64081013D01*
X98630857Y-64078052D01*
X98630857Y-64078051D01*
X98630860Y-64078050D01*
X98720568Y-63988342D01*
X98778164Y-63875304D01*
X98793018Y-63781519D01*
X98793017Y-63218482D01*
X98778164Y-63124696D01*
X98720568Y-63011658D01*
X98630860Y-62921950D01*
X98630857Y-62921948D01*
X98626782Y-62918987D01*
X98627531Y-62917955D01*
X98599195Y-62884781D01*
X98603035Y-62835948D01*
X98627281Y-62811701D01*
X98626782Y-62811013D01*
X98630857Y-62808052D01*
X98630857Y-62808051D01*
X98630860Y-62808050D01*
X98720568Y-62718342D01*
X98778164Y-62605304D01*
X98793018Y-62511519D01*
X98793018Y-62509426D01*
X98811763Y-62464171D01*
X98857018Y-62445426D01*
X99312143Y-62445426D01*
X99357398Y-62464171D01*
G37*
%TD.AperFunction*%
%TA.AperFunction,Conductor*%
G36*
X99479255Y-55384743D02*
G01*
X99493137Y-55405527D01*
X99502755Y-55428770D01*
X99502880Y-55428957D01*
X99502883Y-55428960D01*
X99502884Y-55428961D01*
X99531055Y-55457086D01*
X99559132Y-55485184D01*
X99559329Y-55485315D01*
X99559330Y-55485315D01*
X99559332Y-55485317D01*
X99595988Y-55500465D01*
X99596045Y-55500522D01*
X99596057Y-55500494D01*
X99632811Y-55515733D01*
X99632812Y-55515733D01*
X99632814Y-55515734D01*
X99632816Y-55515734D01*
X99633039Y-55515778D01*
X99633043Y-55515778D01*
X99633049Y-55515781D01*
X99661550Y-55515757D01*
X99697158Y-55526542D01*
X99771873Y-55576465D01*
X99771874Y-55576465D01*
X99771875Y-55576466D01*
X99792186Y-55584878D01*
X99890256Y-55625501D01*
X99890259Y-55625501D01*
X99890260Y-55625502D01*
X100015928Y-55650500D01*
X100015931Y-55650500D01*
X100144072Y-55650500D01*
X100269739Y-55625502D01*
X100269739Y-55625501D01*
X100269744Y-55625501D01*
X100388127Y-55576465D01*
X100462416Y-55526826D01*
X100497989Y-55516041D01*
X101416239Y-55516369D01*
X101461487Y-55535130D01*
X101480216Y-55580392D01*
X101464585Y-55622279D01*
X101437154Y-55653936D01*
X101437152Y-55653939D01*
X101383339Y-55771771D01*
X101364903Y-55900000D01*
X101383339Y-56028228D01*
X101437152Y-56146060D01*
X101437154Y-56146063D01*
X101489908Y-56206946D01*
X101521987Y-56243967D01*
X101630967Y-56314004D01*
X101755264Y-56350500D01*
X101755265Y-56350500D01*
X101884807Y-56350500D01*
X101884808Y-56350500D01*
X102009105Y-56314004D01*
X102099310Y-56256033D01*
X102118084Y-56243968D01*
X102121355Y-56241134D01*
X102163268Y-56225500D01*
X106364445Y-56225500D01*
X106399046Y-56235660D01*
X106450931Y-56269004D01*
X106575228Y-56305500D01*
X106575230Y-56305500D01*
X106704771Y-56305500D01*
X106704772Y-56305500D01*
X106829069Y-56269004D01*
X106925632Y-56206947D01*
X106938048Y-56198968D01*
X106941319Y-56196134D01*
X106983232Y-56180500D01*
X108513699Y-56180500D01*
X108558954Y-56199245D01*
X108950712Y-56591003D01*
X108968805Y-56627149D01*
X108983338Y-56728224D01*
X108983339Y-56728227D01*
X109037152Y-56846060D01*
X109037154Y-56846063D01*
X109121987Y-56943967D01*
X109230967Y-57014004D01*
X109355264Y-57050500D01*
X109355265Y-57050500D01*
X109484807Y-57050500D01*
X109484808Y-57050500D01*
X109609105Y-57014004D01*
X109609105Y-57014003D01*
X109613498Y-57012714D01*
X109613851Y-57013918D01*
X109657853Y-57012337D01*
X109693711Y-57045708D01*
X109699500Y-57072307D01*
X109699500Y-57431516D01*
X109714353Y-57525300D01*
X109714354Y-57525304D01*
X109771950Y-57638342D01*
X109861658Y-57728050D01*
X109883124Y-57738987D01*
X109914936Y-57776234D01*
X109911094Y-57825067D01*
X109882179Y-57853509D01*
X109876137Y-57856462D01*
X109786462Y-57946137D01*
X109730762Y-58060073D01*
X109730760Y-58060078D01*
X109720000Y-58133938D01*
X109720000Y-58320000D01*
X110290331Y-58320000D01*
X110275000Y-58377213D01*
X110275000Y-58462787D01*
X110290331Y-58520000D01*
X109720001Y-58520000D01*
X109720001Y-58706054D01*
X109730762Y-58779927D01*
X109786462Y-58893862D01*
X109876137Y-58983537D01*
X109882174Y-58986488D01*
X109914600Y-59023203D01*
X109911568Y-59072092D01*
X109883126Y-59101011D01*
X109861659Y-59111949D01*
X109861658Y-59111949D01*
X109861658Y-59111950D01*
X109771950Y-59201658D01*
X109771948Y-59201660D01*
X109771948Y-59201661D01*
X109771947Y-59201662D01*
X109714356Y-59314690D01*
X109712798Y-59319486D01*
X109710057Y-59318595D01*
X109689441Y-59352264D01*
X109651805Y-59364500D01*
X107451337Y-59364500D01*
X107406082Y-59345755D01*
X106744245Y-58683918D01*
X106725500Y-58638663D01*
X106725500Y-58636156D01*
X106741130Y-58594246D01*
X106782882Y-58546063D01*
X106836697Y-58428226D01*
X106855133Y-58300000D01*
X106836697Y-58171774D01*
X106822414Y-58140500D01*
X106782883Y-58053939D01*
X106782881Y-58053936D01*
X106698050Y-57956034D01*
X106698048Y-57956032D01*
X106589069Y-57885996D01*
X106464772Y-57849500D01*
X106335228Y-57849500D01*
X106210931Y-57885996D01*
X106210929Y-57885996D01*
X106101951Y-57956032D01*
X106101949Y-57956034D01*
X106017118Y-58053936D01*
X106017116Y-58053939D01*
X105963303Y-58171771D01*
X105944867Y-58300000D01*
X105963303Y-58428228D01*
X106017117Y-58546062D01*
X106017118Y-58546063D01*
X106058869Y-58594246D01*
X106074500Y-58636156D01*
X106074500Y-58842854D01*
X106096680Y-58925634D01*
X106096680Y-58925635D01*
X106096681Y-58925637D01*
X106096682Y-58925639D01*
X106139535Y-58999862D01*
X107090138Y-59950465D01*
X107164361Y-59993318D01*
X107164363Y-59993318D01*
X107164364Y-59993319D01*
X107247146Y-60015500D01*
X107247147Y-60015500D01*
X109651805Y-60015500D01*
X109697060Y-60034245D01*
X109710774Y-60061171D01*
X109712798Y-60060514D01*
X109714356Y-60065309D01*
X109715012Y-60066596D01*
X109771950Y-60178342D01*
X109861658Y-60268050D01*
X109861660Y-60268051D01*
X109861661Y-60268052D01*
X109865736Y-60271013D01*
X109864986Y-60272043D01*
X109893324Y-60305225D01*
X109889480Y-60354057D01*
X109865236Y-60378300D01*
X109865736Y-60378987D01*
X109861661Y-60381948D01*
X109861660Y-60381948D01*
X109861658Y-60381950D01*
X109771950Y-60471658D01*
X109771948Y-60471660D01*
X109771947Y-60471662D01*
X109714356Y-60584690D01*
X109714353Y-60584697D01*
X109699500Y-60678483D01*
X109699501Y-61220500D01*
X109680756Y-61265755D01*
X109635501Y-61284500D01*
X108446356Y-61284500D01*
X108401101Y-61265755D01*
X108382356Y-61220500D01*
X108397988Y-61178589D01*
X108426172Y-61146062D01*
X108453484Y-61114542D01*
X108507299Y-60996705D01*
X108525735Y-60868479D01*
X108507299Y-60740253D01*
X108479088Y-60678481D01*
X108453485Y-60622418D01*
X108453483Y-60622415D01*
X108368652Y-60524513D01*
X108368650Y-60524511D01*
X108259671Y-60454475D01*
X108242727Y-60449500D01*
X108135374Y-60417979D01*
X108005830Y-60417979D01*
X107881533Y-60454475D01*
X107881531Y-60454475D01*
X107772553Y-60524511D01*
X107772551Y-60524513D01*
X107687720Y-60622415D01*
X107687718Y-60622418D01*
X107633905Y-60740250D01*
X107615469Y-60868479D01*
X107633905Y-60996707D01*
X107687718Y-61114539D01*
X107687720Y-61114542D01*
X107743216Y-61178589D01*
X107758685Y-61225066D01*
X107736759Y-61268868D01*
X107694848Y-61284500D01*
X106087825Y-61284500D01*
X106008621Y-61317307D01*
X106008618Y-61317309D01*
X106005379Y-61320549D01*
X105960123Y-61339291D01*
X105942097Y-61336699D01*
X105934090Y-61334348D01*
X105915944Y-61329020D01*
X105786400Y-61329020D01*
X105662103Y-61365516D01*
X105662101Y-61365516D01*
X105553123Y-61435552D01*
X105553121Y-61435554D01*
X105468290Y-61533456D01*
X105468288Y-61533459D01*
X105414475Y-61651291D01*
X105396039Y-61779520D01*
X105414475Y-61907748D01*
X105468288Y-62025580D01*
X105468290Y-62025583D01*
X105542923Y-62111716D01*
X105553123Y-62123487D01*
X105662103Y-62193524D01*
X105786400Y-62230020D01*
X105786401Y-62230020D01*
X105915943Y-62230020D01*
X105915944Y-62230020D01*
X106040241Y-62193524D01*
X106080344Y-62167750D01*
X106128549Y-62159053D01*
X106168785Y-62186990D01*
X106173161Y-62195004D01*
X106224396Y-62307193D01*
X106224398Y-62307196D01*
X106309229Y-62405098D01*
X106309233Y-62405102D01*
X106319908Y-62411962D01*
X106347845Y-62452198D01*
X106339149Y-62500403D01*
X106333677Y-62507713D01*
X106286654Y-62561981D01*
X106286652Y-62561984D01*
X106232839Y-62679816D01*
X106214403Y-62808045D01*
X106232839Y-62936273D01*
X106286652Y-63054105D01*
X106286654Y-63054108D01*
X106361845Y-63140885D01*
X106377314Y-63187362D01*
X106361846Y-63224706D01*
X106286654Y-63311484D01*
X106286652Y-63311487D01*
X106232839Y-63429319D01*
X106214403Y-63557548D01*
X106232839Y-63685776D01*
X106286652Y-63803608D01*
X106286654Y-63803611D01*
X106374484Y-63904974D01*
X106373190Y-63906095D01*
X106392368Y-63944418D01*
X106376900Y-63990888D01*
X106311393Y-64066489D01*
X106311391Y-64066492D01*
X106257578Y-64184324D01*
X106239142Y-64312553D01*
X106252121Y-64402825D01*
X106240006Y-64450287D01*
X106197880Y-64475282D01*
X106150418Y-64463167D01*
X106140403Y-64453843D01*
X106132443Y-64444657D01*
X106099064Y-64406134D01*
X106099063Y-64406133D01*
X105990084Y-64336097D01*
X105987410Y-64335312D01*
X105865787Y-64299601D01*
X105736243Y-64299601D01*
X105611946Y-64336097D01*
X105611944Y-64336097D01*
X105502970Y-64406130D01*
X105502964Y-64406135D01*
X105475180Y-64438200D01*
X105431377Y-64460126D01*
X105384901Y-64444657D01*
X105378444Y-64438199D01*
X105349983Y-64405353D01*
X105349978Y-64405348D01*
X105240999Y-64335312D01*
X105181684Y-64317896D01*
X105116702Y-64298816D01*
X104987158Y-64298816D01*
X104862861Y-64335312D01*
X104862859Y-64335312D01*
X104753881Y-64405348D01*
X104753879Y-64405350D01*
X104669048Y-64503252D01*
X104669046Y-64503255D01*
X104615233Y-64621087D01*
X104608636Y-64666974D01*
X104596797Y-64749316D01*
X104607236Y-64821924D01*
X104611140Y-64849072D01*
X104599026Y-64896534D01*
X104593046Y-64903435D01*
X104519703Y-64976779D01*
X104474448Y-64995524D01*
X104429193Y-64976779D01*
X104410448Y-64931524D01*
X104416232Y-64904937D01*
X104436696Y-64860128D01*
X104436695Y-64860128D01*
X104436697Y-64860126D01*
X104455133Y-64731900D01*
X104436697Y-64603674D01*
X104416119Y-64558616D01*
X104382883Y-64485839D01*
X104382881Y-64485836D01*
X104298050Y-64387934D01*
X104298048Y-64387932D01*
X104189069Y-64317896D01*
X104126760Y-64299601D01*
X104064772Y-64281400D01*
X103935228Y-64281400D01*
X103810931Y-64317896D01*
X103810929Y-64317896D01*
X103701951Y-64387932D01*
X103701949Y-64387934D01*
X103617116Y-64485837D01*
X103616369Y-64487001D01*
X103615715Y-64487454D01*
X103614120Y-64489296D01*
X103613650Y-64488888D01*
X103576133Y-64514938D01*
X103562529Y-64516400D01*
X103280983Y-64516400D01*
X103235728Y-64497655D01*
X98804669Y-60066596D01*
X98785924Y-60021341D01*
X98786711Y-60011335D01*
X98793018Y-59971519D01*
X98793017Y-59408482D01*
X98778164Y-59314696D01*
X98720568Y-59201658D01*
X98630860Y-59111950D01*
X98630857Y-59111948D01*
X98626782Y-59108987D01*
X98627531Y-59107955D01*
X98599195Y-59074781D01*
X98603035Y-59025948D01*
X98627281Y-59001701D01*
X98626782Y-59001013D01*
X98630857Y-58998052D01*
X98630857Y-58998051D01*
X98630860Y-58998050D01*
X98720568Y-58908342D01*
X98778164Y-58795304D01*
X98793018Y-58701519D01*
X98793018Y-58699500D01*
X98793214Y-58699025D01*
X98793216Y-58699007D01*
X98793222Y-58699007D01*
X98811763Y-58654245D01*
X98857018Y-58635500D01*
X99195438Y-58635500D01*
X99240693Y-58654245D01*
X101669141Y-61082693D01*
X101715534Y-61101908D01*
X101715536Y-61101910D01*
X101715537Y-61101910D01*
X101738736Y-61111519D01*
X101748345Y-61115500D01*
X101748346Y-61115500D01*
X101834077Y-61115500D01*
X101862029Y-61115500D01*
X101907284Y-61134245D01*
X101915869Y-61144899D01*
X101916616Y-61146062D01*
X102001449Y-61243965D01*
X102001451Y-61243967D01*
X102110431Y-61314004D01*
X102234728Y-61350500D01*
X102234729Y-61350500D01*
X102364271Y-61350500D01*
X102364272Y-61350500D01*
X102488569Y-61314004D01*
X102585901Y-61251452D01*
X102634104Y-61242756D01*
X102674340Y-61270692D01*
X102684500Y-61305293D01*
X102684500Y-62642866D01*
X102717308Y-62722071D01*
X103241116Y-63245879D01*
X103259861Y-63291134D01*
X103259210Y-63300242D01*
X103244867Y-63399999D01*
X103263303Y-63528228D01*
X103317116Y-63646060D01*
X103317118Y-63646063D01*
X103401951Y-63743967D01*
X103510931Y-63814004D01*
X103635228Y-63850500D01*
X103635229Y-63850500D01*
X103764771Y-63850500D01*
X103764772Y-63850500D01*
X103889069Y-63814004D01*
X103998049Y-63743967D01*
X104082882Y-63646063D01*
X104136697Y-63528226D01*
X104155133Y-63400000D01*
X104136697Y-63271774D01*
X104135534Y-63269228D01*
X104082883Y-63153939D01*
X104082881Y-63153936D01*
X104071572Y-63140885D01*
X103998049Y-63056033D01*
X103998048Y-63056032D01*
X103889069Y-62985996D01*
X103764772Y-62949500D01*
X103635228Y-62949500D01*
X103609073Y-62957179D01*
X103560371Y-62951942D01*
X103545789Y-62941026D01*
X103134245Y-62529482D01*
X103115500Y-62484227D01*
X103115500Y-62473877D01*
X103134245Y-62428622D01*
X103179500Y-62409877D01*
X103224755Y-62428622D01*
X103227868Y-62431966D01*
X103255693Y-62464079D01*
X103271793Y-62482659D01*
X103380773Y-62552696D01*
X103505070Y-62589192D01*
X103505071Y-62589192D01*
X103634613Y-62589192D01*
X103634614Y-62589192D01*
X103758911Y-62552696D01*
X103867891Y-62482659D01*
X103952724Y-62384755D01*
X104006539Y-62266918D01*
X104006539Y-62266913D01*
X104007828Y-62262528D01*
X104009102Y-62262902D01*
X104031468Y-62225192D01*
X104078928Y-62213071D01*
X104087851Y-62215011D01*
X104167397Y-62238367D01*
X104167399Y-62238367D01*
X104296940Y-62238367D01*
X104296941Y-62238367D01*
X104421238Y-62201871D01*
X104530218Y-62131834D01*
X104615051Y-62033930D01*
X104668866Y-61916093D01*
X104687302Y-61787867D01*
X104668866Y-61659641D01*
X104664000Y-61648987D01*
X104615052Y-61541806D01*
X104615050Y-61541803D01*
X104614365Y-61541013D01*
X104530218Y-61443900D01*
X104530217Y-61443899D01*
X104421238Y-61373863D01*
X104296941Y-61337367D01*
X104296940Y-61337367D01*
X104279342Y-61337367D01*
X104234087Y-61318622D01*
X104215342Y-61273367D01*
X104215342Y-57276997D01*
X104215342Y-57276995D01*
X104198304Y-57235863D01*
X104179794Y-57191173D01*
X104179793Y-57191173D01*
X104174922Y-57179413D01*
X104174922Y-57179412D01*
X104087808Y-57092298D01*
X104069063Y-57047043D01*
X104069715Y-57037934D01*
X104075169Y-57000003D01*
X104075169Y-57000000D01*
X104056733Y-56871774D01*
X104053984Y-56865755D01*
X104002919Y-56753939D01*
X104002917Y-56753936D01*
X103918086Y-56656034D01*
X103918084Y-56656032D01*
X103809105Y-56585996D01*
X103684808Y-56549500D01*
X103555264Y-56549500D01*
X103430967Y-56585996D01*
X103430965Y-56585996D01*
X103321987Y-56656032D01*
X103321985Y-56656034D01*
X103237154Y-56753936D01*
X103237154Y-56753937D01*
X103228252Y-56773429D01*
X103192400Y-56806806D01*
X103143448Y-56805057D01*
X103111820Y-56773429D01*
X103110366Y-56770246D01*
X103102918Y-56753937D01*
X103060501Y-56704985D01*
X103018086Y-56656034D01*
X103018084Y-56656032D01*
X102909105Y-56585996D01*
X102784808Y-56549500D01*
X102655264Y-56549500D01*
X102530967Y-56585996D01*
X102530965Y-56585996D01*
X102421987Y-56656032D01*
X102421985Y-56656034D01*
X102337154Y-56753936D01*
X102337152Y-56753939D01*
X102283339Y-56871771D01*
X102264903Y-57000000D01*
X102283339Y-57128228D01*
X102337152Y-57246060D01*
X102337154Y-57246063D01*
X102397320Y-57315500D01*
X102421987Y-57343967D01*
X102530967Y-57414004D01*
X102655264Y-57450500D01*
X102655265Y-57450500D01*
X102768552Y-57450500D01*
X102813807Y-57469245D01*
X103285597Y-57941035D01*
X103304342Y-57986290D01*
X103304342Y-61738860D01*
X103285597Y-61784115D01*
X103274947Y-61792698D01*
X103271792Y-61794725D01*
X103271791Y-61794726D01*
X103227868Y-61845417D01*
X103184066Y-61867343D01*
X103137589Y-61851874D01*
X103115663Y-61808072D01*
X103115500Y-61803506D01*
X103115500Y-58407136D01*
X103115500Y-58407134D01*
X103082692Y-58327929D01*
X103022071Y-58267308D01*
X101672071Y-56917308D01*
X101592866Y-56884500D01*
X98850215Y-56884500D01*
X98804960Y-56865755D01*
X98787003Y-56830511D01*
X98778164Y-56774699D01*
X98778164Y-56774696D01*
X98720568Y-56661658D01*
X98630860Y-56571950D01*
X98630857Y-56571948D01*
X98630855Y-56571947D01*
X98517827Y-56514356D01*
X98517820Y-56514353D01*
X98462503Y-56505592D01*
X98424037Y-56499500D01*
X98424034Y-56499500D01*
X98155137Y-56499500D01*
X98109882Y-56480755D01*
X98091137Y-56435518D01*
X98091099Y-56299365D01*
X98091053Y-56135920D01*
X98109785Y-56090662D01*
X98155035Y-56071904D01*
X98190610Y-56082690D01*
X98294214Y-56151916D01*
X98294217Y-56151917D01*
X98427069Y-56206946D01*
X98427071Y-56206947D01*
X98539999Y-56229410D01*
X98540000Y-56229410D01*
X98540000Y-55788788D01*
X98600504Y-55805000D01*
X98679496Y-55805000D01*
X98740000Y-55788788D01*
X98740000Y-56229410D01*
X98852928Y-56206947D01*
X98852930Y-56206946D01*
X98985782Y-56151917D01*
X98985790Y-56151913D01*
X99105347Y-56072028D01*
X99207028Y-55970347D01*
X99286913Y-55850790D01*
X99286917Y-55850782D01*
X99341946Y-55717930D01*
X99341947Y-55717928D01*
X99370000Y-55576901D01*
X99370000Y-55429998D01*
X99388745Y-55384743D01*
X99434000Y-55365998D01*
X99479255Y-55384743D01*
G37*
%TD.AperFunction*%
%TA.AperFunction,Conductor*%
G36*
X109940000Y-56229410D02*
G01*
X110052928Y-56206947D01*
X110052930Y-56206946D01*
X110185782Y-56151917D01*
X110185790Y-56151913D01*
X110291042Y-56081587D01*
X110339084Y-56072031D01*
X110379812Y-56099245D01*
X110390598Y-56134765D01*
X110390765Y-56435464D01*
X110372045Y-56480730D01*
X110326801Y-56499500D01*
X110068483Y-56499500D01*
X109974699Y-56514353D01*
X109974696Y-56514354D01*
X109950165Y-56526853D01*
X109901333Y-56530695D01*
X109864086Y-56498883D01*
X109857763Y-56478938D01*
X109856733Y-56471774D01*
X109840175Y-56435518D01*
X109802919Y-56353939D01*
X109802917Y-56353936D01*
X109755632Y-56299365D01*
X109740000Y-56257454D01*
X109740000Y-55788788D01*
X109800504Y-55805000D01*
X109879496Y-55805000D01*
X109940000Y-55788788D01*
X109940000Y-56229410D01*
G37*
%TD.AperFunction*%
%TD*%
M02*
