%TF.GenerationSoftware,KiCad,Pcbnew,8.0.4-8.0.4-0~ubuntu24.04.1*%
%TF.CreationDate,2024-08-16T16:11:13+02:00*%
%TF.ProjectId,epi_ESP32 (2023_01_16 13_30_41 UTC),6570695f-4553-4503-9332-202832303233,1_1*%
%TF.SameCoordinates,Original*%
%TF.FileFunction,Drillmap*%
%TF.FilePolarity,Positive*%
%FSLAX45Y45*%
G04 Gerber Fmt 4.5, Leading zero omitted, Abs format (unit mm)*
G04 Created by KiCad (PCBNEW 8.0.4-8.0.4-0~ubuntu24.04.1) date 2024-08-16 16:11:13*
%MOMM*%
%LPD*%
G01*
G04 APERTURE LIST*
%ADD10C,0.010000*%
%ADD11C,0.200000*%
%ADD12C,0.100000*%
G04 APERTURE END LIST*
D10*
X9789000Y-4991850D02*
X9789000Y-5215000D01*
X9789504Y-7220000D02*
X11060000Y-7220000D01*
X9967277Y-5531525D02*
X9966835Y-4991525D01*
X10879946Y-5531850D02*
X9967277Y-5531525D01*
X11059000Y-5415000D02*
G75*
G02*
X11059000Y-5215000I0J100000D01*
G01*
X9789000Y-5215000D02*
G75*
G02*
X9789000Y-5415000I0J-100000D01*
G01*
X10879504Y-4991850D02*
X11059000Y-4991850D01*
X11059000Y-5215000D02*
X11059000Y-4991850D01*
X9789000Y-4991850D02*
X9966835Y-4991525D01*
X10879946Y-5531850D02*
X10879504Y-4991850D01*
X11060000Y-7220000D02*
X11059000Y-5415000D01*
X9789000Y-5415000D02*
X9789504Y-7220000D01*
D11*
D12*
X9958000Y-5450000D02*
X10058000Y-5550000D01*
X10058000Y-5450000D02*
X9958000Y-5550000D01*
X10790000Y-5450000D02*
X10890000Y-5550000D01*
X10890000Y-5450000D02*
X10790000Y-5550000D01*
D11*
X10049277Y-7531984D02*
X10049277Y-7331984D01*
X10049277Y-7331984D02*
X10096896Y-7331984D01*
X10096896Y-7331984D02*
X10125467Y-7341508D01*
X10125467Y-7341508D02*
X10144515Y-7360555D01*
X10144515Y-7360555D02*
X10154039Y-7379603D01*
X10154039Y-7379603D02*
X10163563Y-7417698D01*
X10163563Y-7417698D02*
X10163563Y-7446269D01*
X10163563Y-7446269D02*
X10154039Y-7484365D01*
X10154039Y-7484365D02*
X10144515Y-7503412D01*
X10144515Y-7503412D02*
X10125467Y-7522460D01*
X10125467Y-7522460D02*
X10096896Y-7531984D01*
X10096896Y-7531984D02*
X10049277Y-7531984D01*
X10249277Y-7531984D02*
X10249277Y-7398650D01*
X10249277Y-7436746D02*
X10258801Y-7417698D01*
X10258801Y-7417698D02*
X10268324Y-7408174D01*
X10268324Y-7408174D02*
X10287372Y-7398650D01*
X10287372Y-7398650D02*
X10306420Y-7398650D01*
X10373086Y-7531984D02*
X10373086Y-7398650D01*
X10373086Y-7331984D02*
X10363563Y-7341508D01*
X10363563Y-7341508D02*
X10373086Y-7351031D01*
X10373086Y-7351031D02*
X10382610Y-7341508D01*
X10382610Y-7341508D02*
X10373086Y-7331984D01*
X10373086Y-7331984D02*
X10373086Y-7351031D01*
X10496896Y-7531984D02*
X10477848Y-7522460D01*
X10477848Y-7522460D02*
X10468324Y-7503412D01*
X10468324Y-7503412D02*
X10468324Y-7331984D01*
X10601658Y-7531984D02*
X10582610Y-7522460D01*
X10582610Y-7522460D02*
X10573086Y-7503412D01*
X10573086Y-7503412D02*
X10573086Y-7331984D01*
X10830229Y-7531984D02*
X10830229Y-7331984D01*
X10830229Y-7331984D02*
X10896896Y-7474841D01*
X10896896Y-7474841D02*
X10963563Y-7331984D01*
X10963563Y-7331984D02*
X10963563Y-7531984D01*
X11144515Y-7531984D02*
X11144515Y-7427222D01*
X11144515Y-7427222D02*
X11134991Y-7408174D01*
X11134991Y-7408174D02*
X11115944Y-7398650D01*
X11115944Y-7398650D02*
X11077848Y-7398650D01*
X11077848Y-7398650D02*
X11058801Y-7408174D01*
X11144515Y-7522460D02*
X11125467Y-7531984D01*
X11125467Y-7531984D02*
X11077848Y-7531984D01*
X11077848Y-7531984D02*
X11058801Y-7522460D01*
X11058801Y-7522460D02*
X11049277Y-7503412D01*
X11049277Y-7503412D02*
X11049277Y-7484365D01*
X11049277Y-7484365D02*
X11058801Y-7465317D01*
X11058801Y-7465317D02*
X11077848Y-7455793D01*
X11077848Y-7455793D02*
X11125467Y-7455793D01*
X11125467Y-7455793D02*
X11144515Y-7446269D01*
X11239753Y-7398650D02*
X11239753Y-7598650D01*
X11239753Y-7408174D02*
X11258801Y-7398650D01*
X11258801Y-7398650D02*
X11296896Y-7398650D01*
X11296896Y-7398650D02*
X11315943Y-7408174D01*
X11315943Y-7408174D02*
X11325467Y-7417698D01*
X11325467Y-7417698D02*
X11334991Y-7436746D01*
X11334991Y-7436746D02*
X11334991Y-7493888D01*
X11334991Y-7493888D02*
X11325467Y-7512936D01*
X11325467Y-7512936D02*
X11315943Y-7522460D01*
X11315943Y-7522460D02*
X11296896Y-7531984D01*
X11296896Y-7531984D02*
X11258801Y-7531984D01*
X11258801Y-7531984D02*
X11239753Y-7522460D01*
X11420705Y-7512936D02*
X11430229Y-7522460D01*
X11430229Y-7522460D02*
X11420705Y-7531984D01*
X11420705Y-7531984D02*
X11411182Y-7522460D01*
X11411182Y-7522460D02*
X11420705Y-7512936D01*
X11420705Y-7512936D02*
X11420705Y-7531984D01*
X11420705Y-7408174D02*
X11430229Y-7417698D01*
X11430229Y-7417698D02*
X11420705Y-7427222D01*
X11420705Y-7427222D02*
X11411182Y-7417698D01*
X11411182Y-7417698D02*
X11420705Y-7408174D01*
X11420705Y-7408174D02*
X11420705Y-7427222D01*
D12*
X9688500Y-7810500D02*
X9788500Y-7910500D01*
X9788500Y-7810500D02*
X9688500Y-7910500D01*
D11*
X10154039Y-7951984D02*
X10039753Y-7951984D01*
X10096896Y-7951984D02*
X10096896Y-7751984D01*
X10096896Y-7751984D02*
X10077848Y-7780555D01*
X10077848Y-7780555D02*
X10058801Y-7799603D01*
X10058801Y-7799603D02*
X10039753Y-7809127D01*
X10239753Y-7932936D02*
X10249277Y-7942460D01*
X10249277Y-7942460D02*
X10239753Y-7951984D01*
X10239753Y-7951984D02*
X10230229Y-7942460D01*
X10230229Y-7942460D02*
X10239753Y-7932936D01*
X10239753Y-7932936D02*
X10239753Y-7951984D01*
X10373086Y-7751984D02*
X10392134Y-7751984D01*
X10392134Y-7751984D02*
X10411182Y-7761508D01*
X10411182Y-7761508D02*
X10420705Y-7771031D01*
X10420705Y-7771031D02*
X10430229Y-7790079D01*
X10430229Y-7790079D02*
X10439753Y-7828174D01*
X10439753Y-7828174D02*
X10439753Y-7875793D01*
X10439753Y-7875793D02*
X10430229Y-7913888D01*
X10430229Y-7913888D02*
X10420705Y-7932936D01*
X10420705Y-7932936D02*
X10411182Y-7942460D01*
X10411182Y-7942460D02*
X10392134Y-7951984D01*
X10392134Y-7951984D02*
X10373086Y-7951984D01*
X10373086Y-7951984D02*
X10354039Y-7942460D01*
X10354039Y-7942460D02*
X10344515Y-7932936D01*
X10344515Y-7932936D02*
X10334991Y-7913888D01*
X10334991Y-7913888D02*
X10325467Y-7875793D01*
X10325467Y-7875793D02*
X10325467Y-7828174D01*
X10325467Y-7828174D02*
X10334991Y-7790079D01*
X10334991Y-7790079D02*
X10344515Y-7771031D01*
X10344515Y-7771031D02*
X10354039Y-7761508D01*
X10354039Y-7761508D02*
X10373086Y-7751984D01*
X10563563Y-7751984D02*
X10582610Y-7751984D01*
X10582610Y-7751984D02*
X10601658Y-7761508D01*
X10601658Y-7761508D02*
X10611182Y-7771031D01*
X10611182Y-7771031D02*
X10620705Y-7790079D01*
X10620705Y-7790079D02*
X10630229Y-7828174D01*
X10630229Y-7828174D02*
X10630229Y-7875793D01*
X10630229Y-7875793D02*
X10620705Y-7913888D01*
X10620705Y-7913888D02*
X10611182Y-7932936D01*
X10611182Y-7932936D02*
X10601658Y-7942460D01*
X10601658Y-7942460D02*
X10582610Y-7951984D01*
X10582610Y-7951984D02*
X10563563Y-7951984D01*
X10563563Y-7951984D02*
X10544515Y-7942460D01*
X10544515Y-7942460D02*
X10534991Y-7932936D01*
X10534991Y-7932936D02*
X10525467Y-7913888D01*
X10525467Y-7913888D02*
X10515944Y-7875793D01*
X10515944Y-7875793D02*
X10515944Y-7828174D01*
X10515944Y-7828174D02*
X10525467Y-7790079D01*
X10525467Y-7790079D02*
X10534991Y-7771031D01*
X10534991Y-7771031D02*
X10544515Y-7761508D01*
X10544515Y-7761508D02*
X10563563Y-7751984D01*
X10754039Y-7751984D02*
X10773086Y-7751984D01*
X10773086Y-7751984D02*
X10792134Y-7761508D01*
X10792134Y-7761508D02*
X10801658Y-7771031D01*
X10801658Y-7771031D02*
X10811182Y-7790079D01*
X10811182Y-7790079D02*
X10820705Y-7828174D01*
X10820705Y-7828174D02*
X10820705Y-7875793D01*
X10820705Y-7875793D02*
X10811182Y-7913888D01*
X10811182Y-7913888D02*
X10801658Y-7932936D01*
X10801658Y-7932936D02*
X10792134Y-7942460D01*
X10792134Y-7942460D02*
X10773086Y-7951984D01*
X10773086Y-7951984D02*
X10754039Y-7951984D01*
X10754039Y-7951984D02*
X10734991Y-7942460D01*
X10734991Y-7942460D02*
X10725467Y-7932936D01*
X10725467Y-7932936D02*
X10715944Y-7913888D01*
X10715944Y-7913888D02*
X10706420Y-7875793D01*
X10706420Y-7875793D02*
X10706420Y-7828174D01*
X10706420Y-7828174D02*
X10715944Y-7790079D01*
X10715944Y-7790079D02*
X10725467Y-7771031D01*
X10725467Y-7771031D02*
X10734991Y-7761508D01*
X10734991Y-7761508D02*
X10754039Y-7751984D01*
X10906420Y-7951984D02*
X10906420Y-7818650D01*
X10906420Y-7837698D02*
X10915944Y-7828174D01*
X10915944Y-7828174D02*
X10934991Y-7818650D01*
X10934991Y-7818650D02*
X10963563Y-7818650D01*
X10963563Y-7818650D02*
X10982610Y-7828174D01*
X10982610Y-7828174D02*
X10992134Y-7847222D01*
X10992134Y-7847222D02*
X10992134Y-7951984D01*
X10992134Y-7847222D02*
X11001658Y-7828174D01*
X11001658Y-7828174D02*
X11020705Y-7818650D01*
X11020705Y-7818650D02*
X11049277Y-7818650D01*
X11049277Y-7818650D02*
X11068325Y-7828174D01*
X11068325Y-7828174D02*
X11077848Y-7847222D01*
X11077848Y-7847222D02*
X11077848Y-7951984D01*
X11173086Y-7951984D02*
X11173086Y-7818650D01*
X11173086Y-7837698D02*
X11182610Y-7828174D01*
X11182610Y-7828174D02*
X11201658Y-7818650D01*
X11201658Y-7818650D02*
X11230229Y-7818650D01*
X11230229Y-7818650D02*
X11249277Y-7828174D01*
X11249277Y-7828174D02*
X11258801Y-7847222D01*
X11258801Y-7847222D02*
X11258801Y-7951984D01*
X11258801Y-7847222D02*
X11268324Y-7828174D01*
X11268324Y-7828174D02*
X11287372Y-7818650D01*
X11287372Y-7818650D02*
X11315943Y-7818650D01*
X11315943Y-7818650D02*
X11334991Y-7828174D01*
X11334991Y-7828174D02*
X11344515Y-7847222D01*
X11344515Y-7847222D02*
X11344515Y-7951984D01*
X11734991Y-7742460D02*
X11563563Y-7999603D01*
X11992134Y-7751984D02*
X12011182Y-7751984D01*
X12011182Y-7751984D02*
X12030229Y-7761508D01*
X12030229Y-7761508D02*
X12039753Y-7771031D01*
X12039753Y-7771031D02*
X12049277Y-7790079D01*
X12049277Y-7790079D02*
X12058801Y-7828174D01*
X12058801Y-7828174D02*
X12058801Y-7875793D01*
X12058801Y-7875793D02*
X12049277Y-7913888D01*
X12049277Y-7913888D02*
X12039753Y-7932936D01*
X12039753Y-7932936D02*
X12030229Y-7942460D01*
X12030229Y-7942460D02*
X12011182Y-7951984D01*
X12011182Y-7951984D02*
X11992134Y-7951984D01*
X11992134Y-7951984D02*
X11973086Y-7942460D01*
X11973086Y-7942460D02*
X11963563Y-7932936D01*
X11963563Y-7932936D02*
X11954039Y-7913888D01*
X11954039Y-7913888D02*
X11944515Y-7875793D01*
X11944515Y-7875793D02*
X11944515Y-7828174D01*
X11944515Y-7828174D02*
X11954039Y-7790079D01*
X11954039Y-7790079D02*
X11963563Y-7771031D01*
X11963563Y-7771031D02*
X11973086Y-7761508D01*
X11973086Y-7761508D02*
X11992134Y-7751984D01*
X12144515Y-7932936D02*
X12154039Y-7942460D01*
X12154039Y-7942460D02*
X12144515Y-7951984D01*
X12144515Y-7951984D02*
X12134991Y-7942460D01*
X12134991Y-7942460D02*
X12144515Y-7932936D01*
X12144515Y-7932936D02*
X12144515Y-7951984D01*
X12277848Y-7751984D02*
X12296896Y-7751984D01*
X12296896Y-7751984D02*
X12315944Y-7761508D01*
X12315944Y-7761508D02*
X12325467Y-7771031D01*
X12325467Y-7771031D02*
X12334991Y-7790079D01*
X12334991Y-7790079D02*
X12344515Y-7828174D01*
X12344515Y-7828174D02*
X12344515Y-7875793D01*
X12344515Y-7875793D02*
X12334991Y-7913888D01*
X12334991Y-7913888D02*
X12325467Y-7932936D01*
X12325467Y-7932936D02*
X12315944Y-7942460D01*
X12315944Y-7942460D02*
X12296896Y-7951984D01*
X12296896Y-7951984D02*
X12277848Y-7951984D01*
X12277848Y-7951984D02*
X12258801Y-7942460D01*
X12258801Y-7942460D02*
X12249277Y-7932936D01*
X12249277Y-7932936D02*
X12239753Y-7913888D01*
X12239753Y-7913888D02*
X12230229Y-7875793D01*
X12230229Y-7875793D02*
X12230229Y-7828174D01*
X12230229Y-7828174D02*
X12239753Y-7790079D01*
X12239753Y-7790079D02*
X12249277Y-7771031D01*
X12249277Y-7771031D02*
X12258801Y-7761508D01*
X12258801Y-7761508D02*
X12277848Y-7751984D01*
X12411182Y-7751984D02*
X12534991Y-7751984D01*
X12534991Y-7751984D02*
X12468325Y-7828174D01*
X12468325Y-7828174D02*
X12496896Y-7828174D01*
X12496896Y-7828174D02*
X12515944Y-7837698D01*
X12515944Y-7837698D02*
X12525467Y-7847222D01*
X12525467Y-7847222D02*
X12534991Y-7866269D01*
X12534991Y-7866269D02*
X12534991Y-7913888D01*
X12534991Y-7913888D02*
X12525467Y-7932936D01*
X12525467Y-7932936D02*
X12515944Y-7942460D01*
X12515944Y-7942460D02*
X12496896Y-7951984D01*
X12496896Y-7951984D02*
X12439753Y-7951984D01*
X12439753Y-7951984D02*
X12420706Y-7942460D01*
X12420706Y-7942460D02*
X12411182Y-7932936D01*
X12630229Y-7951984D02*
X12668325Y-7951984D01*
X12668325Y-7951984D02*
X12687372Y-7942460D01*
X12687372Y-7942460D02*
X12696896Y-7932936D01*
X12696896Y-7932936D02*
X12715944Y-7904365D01*
X12715944Y-7904365D02*
X12725467Y-7866269D01*
X12725467Y-7866269D02*
X12725467Y-7790079D01*
X12725467Y-7790079D02*
X12715944Y-7771031D01*
X12715944Y-7771031D02*
X12706420Y-7761508D01*
X12706420Y-7761508D02*
X12687372Y-7751984D01*
X12687372Y-7751984D02*
X12649277Y-7751984D01*
X12649277Y-7751984D02*
X12630229Y-7761508D01*
X12630229Y-7761508D02*
X12620706Y-7771031D01*
X12620706Y-7771031D02*
X12611182Y-7790079D01*
X12611182Y-7790079D02*
X12611182Y-7837698D01*
X12611182Y-7837698D02*
X12620706Y-7856746D01*
X12620706Y-7856746D02*
X12630229Y-7866269D01*
X12630229Y-7866269D02*
X12649277Y-7875793D01*
X12649277Y-7875793D02*
X12687372Y-7875793D01*
X12687372Y-7875793D02*
X12706420Y-7866269D01*
X12706420Y-7866269D02*
X12715944Y-7856746D01*
X12715944Y-7856746D02*
X12725467Y-7837698D01*
X12896896Y-7818650D02*
X12896896Y-7951984D01*
X12849277Y-7742460D02*
X12801658Y-7885317D01*
X12801658Y-7885317D02*
X12925467Y-7885317D01*
X12992134Y-7751984D02*
X12992134Y-7790079D01*
X13068325Y-7751984D02*
X13068325Y-7790079D01*
X13363563Y-8028174D02*
X13354039Y-8018650D01*
X13354039Y-8018650D02*
X13334991Y-7990079D01*
X13334991Y-7990079D02*
X13325468Y-7971031D01*
X13325468Y-7971031D02*
X13315944Y-7942460D01*
X13315944Y-7942460D02*
X13306420Y-7894841D01*
X13306420Y-7894841D02*
X13306420Y-7856746D01*
X13306420Y-7856746D02*
X13315944Y-7809127D01*
X13315944Y-7809127D02*
X13325468Y-7780555D01*
X13325468Y-7780555D02*
X13334991Y-7761508D01*
X13334991Y-7761508D02*
X13354039Y-7732936D01*
X13354039Y-7732936D02*
X13363563Y-7723412D01*
X13430229Y-7771031D02*
X13439753Y-7761508D01*
X13439753Y-7761508D02*
X13458801Y-7751984D01*
X13458801Y-7751984D02*
X13506420Y-7751984D01*
X13506420Y-7751984D02*
X13525468Y-7761508D01*
X13525468Y-7761508D02*
X13534991Y-7771031D01*
X13534991Y-7771031D02*
X13544515Y-7790079D01*
X13544515Y-7790079D02*
X13544515Y-7809127D01*
X13544515Y-7809127D02*
X13534991Y-7837698D01*
X13534991Y-7837698D02*
X13420706Y-7951984D01*
X13420706Y-7951984D02*
X13544515Y-7951984D01*
X13782610Y-7951984D02*
X13782610Y-7751984D01*
X13868325Y-7951984D02*
X13868325Y-7847222D01*
X13868325Y-7847222D02*
X13858801Y-7828174D01*
X13858801Y-7828174D02*
X13839753Y-7818650D01*
X13839753Y-7818650D02*
X13811182Y-7818650D01*
X13811182Y-7818650D02*
X13792134Y-7828174D01*
X13792134Y-7828174D02*
X13782610Y-7837698D01*
X13992134Y-7951984D02*
X13973087Y-7942460D01*
X13973087Y-7942460D02*
X13963563Y-7932936D01*
X13963563Y-7932936D02*
X13954039Y-7913888D01*
X13954039Y-7913888D02*
X13954039Y-7856746D01*
X13954039Y-7856746D02*
X13963563Y-7837698D01*
X13963563Y-7837698D02*
X13973087Y-7828174D01*
X13973087Y-7828174D02*
X13992134Y-7818650D01*
X13992134Y-7818650D02*
X14020706Y-7818650D01*
X14020706Y-7818650D02*
X14039753Y-7828174D01*
X14039753Y-7828174D02*
X14049277Y-7837698D01*
X14049277Y-7837698D02*
X14058801Y-7856746D01*
X14058801Y-7856746D02*
X14058801Y-7913888D01*
X14058801Y-7913888D02*
X14049277Y-7932936D01*
X14049277Y-7932936D02*
X14039753Y-7942460D01*
X14039753Y-7942460D02*
X14020706Y-7951984D01*
X14020706Y-7951984D02*
X13992134Y-7951984D01*
X14173087Y-7951984D02*
X14154039Y-7942460D01*
X14154039Y-7942460D02*
X14144515Y-7923412D01*
X14144515Y-7923412D02*
X14144515Y-7751984D01*
X14325468Y-7942460D02*
X14306420Y-7951984D01*
X14306420Y-7951984D02*
X14268325Y-7951984D01*
X14268325Y-7951984D02*
X14249277Y-7942460D01*
X14249277Y-7942460D02*
X14239753Y-7923412D01*
X14239753Y-7923412D02*
X14239753Y-7847222D01*
X14239753Y-7847222D02*
X14249277Y-7828174D01*
X14249277Y-7828174D02*
X14268325Y-7818650D01*
X14268325Y-7818650D02*
X14306420Y-7818650D01*
X14306420Y-7818650D02*
X14325468Y-7828174D01*
X14325468Y-7828174D02*
X14334991Y-7847222D01*
X14334991Y-7847222D02*
X14334991Y-7866269D01*
X14334991Y-7866269D02*
X14239753Y-7885317D01*
X14411182Y-7942460D02*
X14430230Y-7951984D01*
X14430230Y-7951984D02*
X14468325Y-7951984D01*
X14468325Y-7951984D02*
X14487372Y-7942460D01*
X14487372Y-7942460D02*
X14496896Y-7923412D01*
X14496896Y-7923412D02*
X14496896Y-7913888D01*
X14496896Y-7913888D02*
X14487372Y-7894841D01*
X14487372Y-7894841D02*
X14468325Y-7885317D01*
X14468325Y-7885317D02*
X14439753Y-7885317D01*
X14439753Y-7885317D02*
X14420706Y-7875793D01*
X14420706Y-7875793D02*
X14411182Y-7856746D01*
X14411182Y-7856746D02*
X14411182Y-7847222D01*
X14411182Y-7847222D02*
X14420706Y-7828174D01*
X14420706Y-7828174D02*
X14439753Y-7818650D01*
X14439753Y-7818650D02*
X14468325Y-7818650D01*
X14468325Y-7818650D02*
X14487372Y-7828174D01*
X14563563Y-8028174D02*
X14573087Y-8018650D01*
X14573087Y-8018650D02*
X14592134Y-7990079D01*
X14592134Y-7990079D02*
X14601658Y-7971031D01*
X14601658Y-7971031D02*
X14611182Y-7942460D01*
X14611182Y-7942460D02*
X14620706Y-7894841D01*
X14620706Y-7894841D02*
X14620706Y-7856746D01*
X14620706Y-7856746D02*
X14611182Y-7809127D01*
X14611182Y-7809127D02*
X14601658Y-7780555D01*
X14601658Y-7780555D02*
X14592134Y-7761508D01*
X14592134Y-7761508D02*
X14573087Y-7732936D01*
X14573087Y-7732936D02*
X14563563Y-7723412D01*
X14925468Y-8028174D02*
X14915944Y-8018650D01*
X14915944Y-8018650D02*
X14896896Y-7990079D01*
X14896896Y-7990079D02*
X14887372Y-7971031D01*
X14887372Y-7971031D02*
X14877849Y-7942460D01*
X14877849Y-7942460D02*
X14868325Y-7894841D01*
X14868325Y-7894841D02*
X14868325Y-7856746D01*
X14868325Y-7856746D02*
X14877849Y-7809127D01*
X14877849Y-7809127D02*
X14887372Y-7780555D01*
X14887372Y-7780555D02*
X14896896Y-7761508D01*
X14896896Y-7761508D02*
X14915944Y-7732936D01*
X14915944Y-7732936D02*
X14925468Y-7723412D01*
X15001658Y-7818650D02*
X15001658Y-7951984D01*
X15001658Y-7837698D02*
X15011182Y-7828174D01*
X15011182Y-7828174D02*
X15030230Y-7818650D01*
X15030230Y-7818650D02*
X15058801Y-7818650D01*
X15058801Y-7818650D02*
X15077849Y-7828174D01*
X15077849Y-7828174D02*
X15087372Y-7847222D01*
X15087372Y-7847222D02*
X15087372Y-7951984D01*
X15211182Y-7951984D02*
X15192134Y-7942460D01*
X15192134Y-7942460D02*
X15182611Y-7932936D01*
X15182611Y-7932936D02*
X15173087Y-7913888D01*
X15173087Y-7913888D02*
X15173087Y-7856746D01*
X15173087Y-7856746D02*
X15182611Y-7837698D01*
X15182611Y-7837698D02*
X15192134Y-7828174D01*
X15192134Y-7828174D02*
X15211182Y-7818650D01*
X15211182Y-7818650D02*
X15239753Y-7818650D01*
X15239753Y-7818650D02*
X15258801Y-7828174D01*
X15258801Y-7828174D02*
X15268325Y-7837698D01*
X15268325Y-7837698D02*
X15277849Y-7856746D01*
X15277849Y-7856746D02*
X15277849Y-7913888D01*
X15277849Y-7913888D02*
X15268325Y-7932936D01*
X15268325Y-7932936D02*
X15258801Y-7942460D01*
X15258801Y-7942460D02*
X15239753Y-7951984D01*
X15239753Y-7951984D02*
X15211182Y-7951984D01*
X15334992Y-7818650D02*
X15411182Y-7818650D01*
X15363563Y-7751984D02*
X15363563Y-7923412D01*
X15363563Y-7923412D02*
X15373087Y-7942460D01*
X15373087Y-7942460D02*
X15392134Y-7951984D01*
X15392134Y-7951984D02*
X15411182Y-7951984D01*
X15630230Y-7818650D02*
X15630230Y-8018650D01*
X15630230Y-7828174D02*
X15649277Y-7818650D01*
X15649277Y-7818650D02*
X15687373Y-7818650D01*
X15687373Y-7818650D02*
X15706420Y-7828174D01*
X15706420Y-7828174D02*
X15715944Y-7837698D01*
X15715944Y-7837698D02*
X15725468Y-7856746D01*
X15725468Y-7856746D02*
X15725468Y-7913888D01*
X15725468Y-7913888D02*
X15715944Y-7932936D01*
X15715944Y-7932936D02*
X15706420Y-7942460D01*
X15706420Y-7942460D02*
X15687373Y-7951984D01*
X15687373Y-7951984D02*
X15649277Y-7951984D01*
X15649277Y-7951984D02*
X15630230Y-7942460D01*
X15839753Y-7951984D02*
X15820706Y-7942460D01*
X15820706Y-7942460D02*
X15811182Y-7923412D01*
X15811182Y-7923412D02*
X15811182Y-7751984D01*
X16001658Y-7951984D02*
X16001658Y-7847222D01*
X16001658Y-7847222D02*
X15992134Y-7828174D01*
X15992134Y-7828174D02*
X15973087Y-7818650D01*
X15973087Y-7818650D02*
X15934992Y-7818650D01*
X15934992Y-7818650D02*
X15915944Y-7828174D01*
X16001658Y-7942460D02*
X15982611Y-7951984D01*
X15982611Y-7951984D02*
X15934992Y-7951984D01*
X15934992Y-7951984D02*
X15915944Y-7942460D01*
X15915944Y-7942460D02*
X15906420Y-7923412D01*
X15906420Y-7923412D02*
X15906420Y-7904365D01*
X15906420Y-7904365D02*
X15915944Y-7885317D01*
X15915944Y-7885317D02*
X15934992Y-7875793D01*
X15934992Y-7875793D02*
X15982611Y-7875793D01*
X15982611Y-7875793D02*
X16001658Y-7866269D01*
X16068325Y-7818650D02*
X16144515Y-7818650D01*
X16096896Y-7751984D02*
X16096896Y-7923412D01*
X16096896Y-7923412D02*
X16106420Y-7942460D01*
X16106420Y-7942460D02*
X16125468Y-7951984D01*
X16125468Y-7951984D02*
X16144515Y-7951984D01*
X16287373Y-7942460D02*
X16268325Y-7951984D01*
X16268325Y-7951984D02*
X16230230Y-7951984D01*
X16230230Y-7951984D02*
X16211182Y-7942460D01*
X16211182Y-7942460D02*
X16201658Y-7923412D01*
X16201658Y-7923412D02*
X16201658Y-7847222D01*
X16201658Y-7847222D02*
X16211182Y-7828174D01*
X16211182Y-7828174D02*
X16230230Y-7818650D01*
X16230230Y-7818650D02*
X16268325Y-7818650D01*
X16268325Y-7818650D02*
X16287373Y-7828174D01*
X16287373Y-7828174D02*
X16296896Y-7847222D01*
X16296896Y-7847222D02*
X16296896Y-7866269D01*
X16296896Y-7866269D02*
X16201658Y-7885317D01*
X16468325Y-7951984D02*
X16468325Y-7751984D01*
X16468325Y-7942460D02*
X16449277Y-7951984D01*
X16449277Y-7951984D02*
X16411182Y-7951984D01*
X16411182Y-7951984D02*
X16392134Y-7942460D01*
X16392134Y-7942460D02*
X16382611Y-7932936D01*
X16382611Y-7932936D02*
X16373087Y-7913888D01*
X16373087Y-7913888D02*
X16373087Y-7856746D01*
X16373087Y-7856746D02*
X16382611Y-7837698D01*
X16382611Y-7837698D02*
X16392134Y-7828174D01*
X16392134Y-7828174D02*
X16411182Y-7818650D01*
X16411182Y-7818650D02*
X16449277Y-7818650D01*
X16449277Y-7818650D02*
X16468325Y-7828174D01*
X16544515Y-8028174D02*
X16554039Y-8018650D01*
X16554039Y-8018650D02*
X16573087Y-7990079D01*
X16573087Y-7990079D02*
X16582611Y-7971031D01*
X16582611Y-7971031D02*
X16592134Y-7942460D01*
X16592134Y-7942460D02*
X16601658Y-7894841D01*
X16601658Y-7894841D02*
X16601658Y-7856746D01*
X16601658Y-7856746D02*
X16592134Y-7809127D01*
X16592134Y-7809127D02*
X16582611Y-7780555D01*
X16582611Y-7780555D02*
X16573087Y-7761508D01*
X16573087Y-7761508D02*
X16554039Y-7732936D01*
X16554039Y-7732936D02*
X16544515Y-7723412D01*
M02*
