%TF.GenerationSoftware,KiCad,Pcbnew,8.0.4-8.0.4-0~ubuntu24.04.1*%
%TF.CreationDate,2024-08-16T16:11:10+02:00*%
%TF.ProjectId,epi_ESP32 (2023_01_16 13_30_41 UTC),6570695f-4553-4503-9332-202832303233,1_1*%
%TF.SameCoordinates,Original*%
%TF.FileFunction,Soldermask,Top*%
%TF.FilePolarity,Negative*%
%FSLAX46Y46*%
G04 Gerber Fmt 4.6, Leading zero omitted, Abs format (unit mm)*
G04 Created by KiCad (PCBNEW 8.0.4-8.0.4-0~ubuntu24.04.1) date 2024-08-16 16:11:10*
%MOMM*%
%LPD*%
G01*
G04 APERTURE LIST*
G04 Aperture macros list*
%AMRoundRect*
0 Rectangle with rounded corners*
0 $1 Rounding radius*
0 $2 $3 $4 $5 $6 $7 $8 $9 X,Y pos of 4 corners*
0 Add a 4 corners polygon primitive as box body*
4,1,4,$2,$3,$4,$5,$6,$7,$8,$9,$2,$3,0*
0 Add four circle primitives for the rounded corners*
1,1,$1+$1,$2,$3*
1,1,$1+$1,$4,$5*
1,1,$1+$1,$6,$7*
1,1,$1+$1,$8,$9*
0 Add four rect primitives between the rounded corners*
20,1,$1+$1,$2,$3,$4,$5,0*
20,1,$1+$1,$4,$5,$6,$7,0*
20,1,$1+$1,$6,$7,$8,$9,0*
20,1,$1+$1,$8,$9,$2,$3,0*%
G04 Aperture macros list end*
%ADD10RoundRect,0.062500X0.062500X-0.375000X0.062500X0.375000X-0.062500X0.375000X-0.062500X-0.375000X0*%
%ADD11RoundRect,0.062500X0.375000X-0.062500X0.375000X0.062500X-0.375000X0.062500X-0.375000X-0.062500X0*%
%ADD12R,2.000000X2.000000*%
%ADD13RoundRect,0.140000X-0.170000X0.140000X-0.170000X-0.140000X0.170000X-0.140000X0.170000X0.140000X0*%
%ADD14C,1.000000*%
%ADD15RoundRect,0.250000X-0.500000X-0.250000X0.500000X-0.250000X0.500000X0.250000X-0.500000X0.250000X0*%
%ADD16RoundRect,0.135000X0.185000X-0.135000X0.185000X0.135000X-0.185000X0.135000X-0.185000X-0.135000X0*%
%ADD17RoundRect,0.135000X0.135000X0.185000X-0.135000X0.185000X-0.135000X-0.185000X0.135000X-0.185000X0*%
%ADD18R,0.800000X0.900000*%
%ADD19RoundRect,0.140000X0.140000X0.170000X-0.140000X0.170000X-0.140000X-0.170000X0.140000X-0.170000X0*%
%ADD20RoundRect,0.140000X0.170000X-0.140000X0.170000X0.140000X-0.170000X0.140000X-0.170000X-0.140000X0*%
%ADD21RoundRect,0.135000X-0.135000X-0.185000X0.135000X-0.185000X0.135000X0.185000X-0.135000X0.185000X0*%
%ADD22RoundRect,0.135000X-0.185000X0.135000X-0.185000X-0.135000X0.185000X-0.135000X0.185000X0.135000X0*%
%ADD23RoundRect,0.225000X0.225000X0.250000X-0.225000X0.250000X-0.225000X-0.250000X0.225000X-0.250000X0*%
%ADD24R,0.615500X1.000000*%
%ADD25R,0.307750X1.000000*%
%ADD26R,0.307750X0.500000*%
%ADD27R,0.307750X1.000860*%
%ADD28R,0.607750X0.300000*%
%ADD29O,1.200000X2.000000*%
%ADD30O,1.200000X2.300000*%
%ADD31RoundRect,0.147500X0.147500X0.172500X-0.147500X0.172500X-0.147500X-0.172500X0.147500X-0.172500X0*%
%ADD32RoundRect,0.147500X-0.172500X0.147500X-0.172500X-0.147500X0.172500X-0.147500X0.172500X0.147500X0*%
%ADD33RoundRect,0.150000X-0.150000X0.512500X-0.150000X-0.512500X0.150000X-0.512500X0.150000X0.512500X0*%
%ADD34R,0.600000X0.450000*%
G04 APERTURE END LIST*
%TO.C,SW2*%
G36*
X106900000Y-68400000D02*
G01*
X106350000Y-68400000D01*
X106350000Y-68950000D01*
X106900000Y-68950000D01*
X106900000Y-68400000D01*
G37*
G36*
X106900000Y-71050000D02*
G01*
X106350000Y-71050000D01*
X106350000Y-71600000D01*
X106900000Y-71600000D01*
X106900000Y-71050000D01*
G37*
G36*
X107650000Y-68400000D02*
G01*
X107100000Y-68400000D01*
X107100000Y-68950000D01*
X107650000Y-68950000D01*
X107650000Y-68400000D01*
G37*
G36*
X107650000Y-71050000D02*
G01*
X107100000Y-71050000D01*
X107100000Y-71600000D01*
X107650000Y-71600000D01*
X107650000Y-71050000D01*
G37*
%TO.C,SW1*%
G36*
X108600000Y-68400000D02*
G01*
X108050000Y-68400000D01*
X108050000Y-68950000D01*
X108600000Y-68950000D01*
X108600000Y-68400000D01*
G37*
G36*
X108600000Y-71050000D02*
G01*
X108050000Y-71050000D01*
X108050000Y-71600000D01*
X108600000Y-71600000D01*
X108600000Y-71050000D01*
G37*
G36*
X109350000Y-68400000D02*
G01*
X108800000Y-68400000D01*
X108800000Y-68950000D01*
X109350000Y-68950000D01*
X109350000Y-68400000D01*
G37*
G36*
X109350000Y-71050000D02*
G01*
X108800000Y-71050000D01*
X108800000Y-71600000D01*
X109350000Y-71600000D01*
X109350000Y-71050000D01*
G37*
%TO.C,AE1*%
G36*
X98770036Y-72000000D02*
G01*
X98220036Y-72000000D01*
X98220036Y-71200000D01*
X98770036Y-71200000D01*
X98770036Y-72000000D01*
G37*
G36*
X100420036Y-72000000D02*
G01*
X99870036Y-72000000D01*
X99870036Y-71200000D01*
X100420036Y-71200000D01*
X100420036Y-72000000D01*
G37*
%TD*%
D10*
%TO.C,U1*%
X103470036Y-65737500D03*
X103970036Y-65737500D03*
X104470036Y-65737500D03*
X104970036Y-65737500D03*
X105470036Y-65737500D03*
X105970036Y-65737500D03*
X106470036Y-65737500D03*
X106970036Y-65737500D03*
D11*
X107657536Y-65050000D03*
X107657536Y-64550000D03*
X107657536Y-64050000D03*
X107657536Y-63550000D03*
X107657536Y-63050000D03*
X107657536Y-62550000D03*
X107657536Y-62050000D03*
X107657536Y-61550000D03*
D10*
X106970036Y-60862500D03*
X106470036Y-60862500D03*
X105970036Y-60862500D03*
X105470036Y-60862500D03*
X104970036Y-60862500D03*
X104470036Y-60862500D03*
X103970036Y-60862500D03*
X103470036Y-60862500D03*
D11*
X102782536Y-61550000D03*
X102782536Y-62050000D03*
X102782536Y-62550000D03*
X102782536Y-63050000D03*
X102782536Y-63550000D03*
X102782536Y-64050000D03*
X102782536Y-64550000D03*
X102782536Y-65050000D03*
D12*
X105220036Y-63300000D03*
%TD*%
D13*
%TO.C,C13*%
X108850000Y-60620000D03*
X108850000Y-61580000D03*
%TD*%
D14*
%TO.C,DRILL1*%
X100080000Y-55000000D03*
%TD*%
D15*
%TO.C,J2*%
X110600000Y-57150000D03*
X110600000Y-58420000D03*
X110600000Y-59690000D03*
X110600000Y-60960000D03*
X110600000Y-62230000D03*
X110600000Y-63500000D03*
X110600000Y-64770000D03*
X110600000Y-66040000D03*
X110600000Y-67310000D03*
%TD*%
D16*
%TO.C,RV2*%
X102700000Y-58010000D03*
X102700000Y-56990000D03*
%TD*%
D17*
%TO.C,R5*%
X105780036Y-56900000D03*
X104760036Y-56900000D03*
%TD*%
D18*
%TO.C,Y1*%
X101400000Y-63700000D03*
X101400000Y-62300000D03*
X100300000Y-62300000D03*
X100300000Y-63700000D03*
%TD*%
D19*
%TO.C,C2*%
X108380000Y-59700000D03*
X107420000Y-59700000D03*
%TD*%
D20*
%TO.C,C7*%
X108850000Y-65380000D03*
X108850000Y-64420000D03*
%TD*%
D21*
%TO.C,R2*%
X100640000Y-64900000D03*
X101660000Y-64900000D03*
%TD*%
%TO.C,RV1*%
X106610036Y-56900000D03*
X107630036Y-56900000D03*
%TD*%
D19*
%TO.C,C4*%
X101605000Y-65900000D03*
X100645000Y-65900000D03*
%TD*%
D22*
%TO.C,L1*%
X103470036Y-67890000D03*
X103470036Y-68910000D03*
%TD*%
D20*
%TO.C,C1*%
X102100000Y-67830000D03*
X102100000Y-66870000D03*
%TD*%
D19*
%TO.C,C11*%
X108800036Y-66875000D03*
X107840036Y-66875000D03*
%TD*%
D23*
%TO.C,C10*%
X104375000Y-59400000D03*
X102825000Y-59400000D03*
%TD*%
D24*
%TO.C,J3*%
X107440000Y-55855000D03*
X101040000Y-55855000D03*
X106640000Y-55855000D03*
D25*
X105490923Y-55855000D03*
D26*
X104489970Y-56105000D03*
D27*
X103991169Y-55855430D03*
D24*
X101840000Y-55860000D03*
D25*
X102487811Y-55860000D03*
X103490692Y-55855860D03*
X104990447Y-55855000D03*
D28*
X107440000Y-56255000D03*
X101040000Y-56255000D03*
D29*
X109840000Y-55105000D03*
D30*
X109840000Y-51105000D03*
D29*
X98640000Y-55105000D03*
D30*
X98640000Y-51105000D03*
%TD*%
D17*
%TO.C,R4*%
X101830036Y-57000000D03*
X100810036Y-57000000D03*
%TD*%
D20*
%TO.C,C3*%
X99750000Y-65880000D03*
X99750000Y-64920000D03*
%TD*%
%TO.C,C8*%
X105600000Y-69680000D03*
X105600000Y-68720000D03*
%TD*%
D31*
%TO.C,FB2*%
X106485000Y-67800000D03*
X105515000Y-67800000D03*
%TD*%
D17*
%TO.C,R6*%
X108830036Y-67800000D03*
X107810036Y-67800000D03*
%TD*%
D19*
%TO.C,C6*%
X104430036Y-67000000D03*
X103470036Y-67000000D03*
%TD*%
D32*
%TO.C,F1*%
X108520036Y-57815000D03*
X108520036Y-58785000D03*
%TD*%
D33*
%TO.C,U2*%
X101550000Y-58362500D03*
X100600000Y-58362500D03*
X99650000Y-58362500D03*
X99650000Y-60637500D03*
X101550000Y-60637500D03*
%TD*%
D32*
%TO.C,FB1*%
X108520036Y-56003500D03*
X108520036Y-56973500D03*
%TD*%
D34*
%TO.C,D1*%
X105370036Y-58297500D03*
X107470036Y-58297500D03*
%TD*%
D16*
%TO.C,RV3*%
X103700000Y-58010000D03*
X103700000Y-56990000D03*
%TD*%
D19*
%TO.C,C5*%
X106480000Y-66875000D03*
X105520000Y-66875000D03*
%TD*%
D13*
%TO.C,C9*%
X99900000Y-56040000D03*
X99900000Y-57000000D03*
%TD*%
D19*
%TO.C,C12*%
X106500000Y-59700000D03*
X105540000Y-59700000D03*
%TD*%
D15*
%TO.C,J1*%
X97892518Y-57150000D03*
X97892518Y-58420000D03*
X97892518Y-59690000D03*
X97892518Y-60960000D03*
X97892518Y-62230000D03*
X97892518Y-63500000D03*
X97892518Y-64770000D03*
X97892518Y-66040000D03*
%TD*%
D14*
%TO.C,DRILL2*%
X108400000Y-55000000D03*
%TD*%
M02*
