%TF.GenerationSoftware,KiCad,Pcbnew,8.0.4-8.0.4-0~ubuntu24.04.1*%
%TF.CreationDate,2024-08-16T16:11:10+02:00*%
%TF.ProjectId,epi_ESP32 (2023_01_16 13_30_41 UTC),6570695f-4553-4503-9332-202832303233,1_1*%
%TF.SameCoordinates,Original*%
%TF.FileFunction,Copper,L2,Inr*%
%TF.FilePolarity,Positive*%
%FSLAX46Y46*%
G04 Gerber Fmt 4.6, Leading zero omitted, Abs format (unit mm)*
G04 Created by KiCad (PCBNEW 8.0.4-8.0.4-0~ubuntu24.04.1) date 2024-08-16 16:11:10*
%MOMM*%
%LPD*%
G01*
G04 APERTURE LIST*
G04 Aperture macros list*
%AMRoundRect*
0 Rectangle with rounded corners*
0 $1 Rounding radius*
0 $2 $3 $4 $5 $6 $7 $8 $9 X,Y pos of 4 corners*
0 Add a 4 corners polygon primitive as box body*
4,1,4,$2,$3,$4,$5,$6,$7,$8,$9,$2,$3,0*
0 Add four circle primitives for the rounded corners*
1,1,$1+$1,$2,$3*
1,1,$1+$1,$4,$5*
1,1,$1+$1,$6,$7*
1,1,$1+$1,$8,$9*
0 Add four rect primitives between the rounded corners*
20,1,$1+$1,$2,$3,$4,$5,0*
20,1,$1+$1,$4,$5,$6,$7,0*
20,1,$1+$1,$6,$7,$8,$9,0*
20,1,$1+$1,$8,$9,$2,$3,0*%
G04 Aperture macros list end*
%TA.AperFunction,ComponentPad*%
%ADD10RoundRect,0.250000X-0.500000X-0.250000X0.500000X-0.250000X0.500000X0.250000X-0.500000X0.250000X0*%
%TD*%
%TA.AperFunction,ComponentPad*%
%ADD11O,1.200000X2.000000*%
%TD*%
%TA.AperFunction,ComponentPad*%
%ADD12O,1.200000X2.300000*%
%TD*%
%TA.AperFunction,ViaPad*%
%ADD13C,0.600000*%
%TD*%
%TA.AperFunction,Conductor*%
%ADD14C,0.350000*%
%TD*%
G04 APERTURE END LIST*
D10*
%TO.N,+3.3V*%
%TO.C,J2*%
X110600000Y-57150000D03*
%TO.N,GND*%
X110600000Y-58420000D03*
%TO.N,VCC*%
X110600000Y-59690000D03*
%TO.N,EN*%
X110600000Y-60960000D03*
%TO.N,BOOT*%
X110600000Y-62230000D03*
%TO.N,IO10*%
X110600000Y-63500000D03*
%TO.N,IO8*%
X110600000Y-64770000D03*
%TO.N,IO7*%
X110600000Y-66040000D03*
%TO.N,IO6*%
X110600000Y-67310000D03*
%TD*%
D11*
%TO.N,GND*%
%TO.C,J3*%
X109840000Y-55105000D03*
D12*
X109840000Y-51105000D03*
D11*
X98640000Y-55105000D03*
D12*
X98640000Y-51105000D03*
%TD*%
D10*
%TO.N,U0TXD*%
%TO.C,J1*%
X97892518Y-57150000D03*
%TO.N,U0RXD*%
X97892518Y-58420000D03*
%TO.N,IO0*%
X97892518Y-59690000D03*
%TO.N,IO1*%
X97892518Y-60960000D03*
%TO.N,IO2*%
X97892518Y-62230000D03*
%TO.N,IO3*%
X97892518Y-63500000D03*
%TO.N,IO4*%
X97892518Y-64770000D03*
%TO.N,IO5*%
X97892518Y-66040000D03*
%TD*%
D13*
%TO.N,+5V*%
X109420036Y-56600000D03*
X106640000Y-55855000D03*
X101820036Y-55900000D03*
%TO.N,GND*%
X103440381Y-70363842D03*
X102606894Y-70731472D03*
X105500000Y-58999500D03*
X106099964Y-71700000D03*
X104520000Y-71700000D03*
X105920036Y-62600000D03*
X105220036Y-64000000D03*
X104520036Y-63300000D03*
X105220036Y-63300000D03*
X99514500Y-63585500D03*
X104234079Y-67300000D03*
X104520036Y-64000000D03*
X105220036Y-62600000D03*
X103720000Y-71700000D03*
X98975000Y-66700000D03*
X101320036Y-68300000D03*
X110100000Y-71700000D03*
X102758538Y-67339912D03*
X102120000Y-71700000D03*
X104520000Y-70600000D03*
X101700000Y-70741000D03*
X105320000Y-71700000D03*
X103957788Y-69623730D03*
X104234079Y-68104690D03*
X102776573Y-68313282D03*
X108499964Y-71700000D03*
X107420036Y-56500000D03*
X99756678Y-66700000D03*
X104239536Y-68900000D03*
X102000000Y-69599000D03*
X105920036Y-64000000D03*
X100700000Y-61400498D03*
X109299964Y-71700000D03*
X101320000Y-71700000D03*
X102820036Y-66500000D03*
X106899964Y-71700000D03*
X105920036Y-63300000D03*
X107699964Y-71700000D03*
X101320036Y-66710000D03*
X108748711Y-66823675D03*
X100538356Y-66700000D03*
X99100000Y-56500000D03*
X101320036Y-67500000D03*
X102700000Y-69100000D03*
X104520036Y-62600000D03*
X106920036Y-67000000D03*
X102920000Y-71700000D03*
X101320036Y-69100000D03*
%TO.N,+3.3V*%
X102209401Y-59390599D03*
X102100000Y-66870000D03*
X105600000Y-68720000D03*
X109473625Y-67967313D03*
X108070602Y-60868479D03*
%TO.N,IO0*%
X104000000Y-64731900D03*
%TO.N,IO1*%
X105051930Y-64749316D03*
%TO.N,IO2*%
X105801015Y-64750101D03*
%TO.N,IO3*%
X107220036Y-65666775D03*
%TO.N,D+*%
X102720036Y-57000000D03*
X103569842Y-62138692D03*
%TO.N,D-*%
X104232169Y-61787867D03*
X103620036Y-57000000D03*
%TO.N,IO4*%
X108223832Y-66040684D03*
%TO.N,IO8*%
X106607280Y-62061133D03*
%TO.N,IO5*%
X106694275Y-64312553D03*
%TO.N,EN*%
X106501815Y-65036924D03*
%TO.N,BOOT*%
X105851172Y-61779520D03*
X108600000Y-69400000D03*
%TO.N,U0TXD*%
X103700000Y-63400000D03*
%TO.N,U0RXD*%
X102299500Y-60900000D03*
%TO.N,IO7*%
X106669536Y-62808045D03*
%TO.N,IO6*%
X106669536Y-63557548D03*
%TO.N,VCC*%
X106400000Y-58300000D03*
X101083055Y-59373473D03*
%TO.N,IO10*%
X108713916Y-62357764D03*
%TD*%
D14*
%TO.N,GND*%
X109565036Y-58420000D02*
X110075036Y-58420000D01*
%TD*%
%TA.AperFunction,Conductor*%
%TO.N,GND*%
G36*
X109070519Y-55355354D02*
G01*
X109105140Y-55390006D01*
X109110000Y-55414471D01*
X109110000Y-55576901D01*
X109138052Y-55717928D01*
X109138053Y-55717930D01*
X109193082Y-55850782D01*
X109193086Y-55850790D01*
X109272971Y-55970347D01*
X109353865Y-56051241D01*
X109372610Y-56096496D01*
X109353865Y-56141751D01*
X109326641Y-56157904D01*
X109230965Y-56185996D01*
X109121987Y-56256032D01*
X109121985Y-56256034D01*
X109037154Y-56353936D01*
X109037152Y-56353939D01*
X108983339Y-56471771D01*
X108964903Y-56600000D01*
X108983339Y-56728228D01*
X109037152Y-56846060D01*
X109037154Y-56846063D01*
X109121987Y-56943967D01*
X109230967Y-57014004D01*
X109355264Y-57050500D01*
X109355265Y-57050500D01*
X109484807Y-57050500D01*
X109484808Y-57050500D01*
X109609105Y-57014004D01*
X109609105Y-57014003D01*
X109613498Y-57012714D01*
X109613851Y-57013918D01*
X109657853Y-57012337D01*
X109693711Y-57045708D01*
X109699500Y-57072307D01*
X109699500Y-57431516D01*
X109702507Y-57450500D01*
X109714354Y-57525304D01*
X109771950Y-57638342D01*
X109861658Y-57728050D01*
X109883124Y-57738987D01*
X109914936Y-57776234D01*
X109911094Y-57825067D01*
X109882179Y-57853509D01*
X109876137Y-57856462D01*
X109786462Y-57946137D01*
X109730762Y-58060073D01*
X109730760Y-58060078D01*
X109720000Y-58133938D01*
X109720000Y-58320000D01*
X110290331Y-58320000D01*
X110275000Y-58377213D01*
X110275000Y-58462787D01*
X110290331Y-58520000D01*
X109720001Y-58520000D01*
X109720001Y-58706054D01*
X109730762Y-58779927D01*
X109786462Y-58893862D01*
X109876137Y-58983537D01*
X109882174Y-58986488D01*
X109914600Y-59023203D01*
X109911568Y-59072092D01*
X109883126Y-59101011D01*
X109861659Y-59111949D01*
X109861658Y-59111949D01*
X109861658Y-59111950D01*
X109771950Y-59201658D01*
X109771948Y-59201660D01*
X109771948Y-59201661D01*
X109771947Y-59201662D01*
X109714356Y-59314690D01*
X109714353Y-59314697D01*
X109699500Y-59408483D01*
X109699500Y-59971516D01*
X109714353Y-60065300D01*
X109714354Y-60065304D01*
X109771950Y-60178342D01*
X109861658Y-60268050D01*
X109861660Y-60268051D01*
X109861661Y-60268052D01*
X109865736Y-60271013D01*
X109864986Y-60272043D01*
X109893324Y-60305225D01*
X109889480Y-60354057D01*
X109865236Y-60378300D01*
X109865736Y-60378987D01*
X109861661Y-60381948D01*
X109861660Y-60381948D01*
X109861658Y-60381950D01*
X109771950Y-60471658D01*
X109771948Y-60471660D01*
X109771947Y-60471662D01*
X109714356Y-60584690D01*
X109714353Y-60584697D01*
X109699500Y-60678483D01*
X109699500Y-61241516D01*
X109714353Y-61335300D01*
X109714356Y-61335308D01*
X109769686Y-61443900D01*
X109771950Y-61448342D01*
X109861658Y-61538050D01*
X109861660Y-61538051D01*
X109861661Y-61538052D01*
X109865736Y-61541013D01*
X109864986Y-61542043D01*
X109893324Y-61575225D01*
X109889480Y-61624057D01*
X109865236Y-61648300D01*
X109865736Y-61648987D01*
X109861661Y-61651948D01*
X109861660Y-61651948D01*
X109861658Y-61651950D01*
X109771950Y-61741658D01*
X109771948Y-61741660D01*
X109771947Y-61741662D01*
X109714356Y-61854690D01*
X109714353Y-61854697D01*
X109699500Y-61948483D01*
X109699500Y-62511516D01*
X109714120Y-62603827D01*
X109714354Y-62605304D01*
X109771950Y-62718342D01*
X109861658Y-62808050D01*
X109861660Y-62808051D01*
X109861661Y-62808052D01*
X109865736Y-62811013D01*
X109864986Y-62812043D01*
X109893324Y-62845225D01*
X109889480Y-62894057D01*
X109865236Y-62918300D01*
X109865736Y-62918987D01*
X109861661Y-62921948D01*
X109861660Y-62921948D01*
X109861658Y-62921950D01*
X109771950Y-63011658D01*
X109771948Y-63011660D01*
X109771947Y-63011662D01*
X109714356Y-63124690D01*
X109714353Y-63124697D01*
X109699500Y-63218483D01*
X109699500Y-63781516D01*
X109714353Y-63875300D01*
X109714356Y-63875308D01*
X109761883Y-63968586D01*
X109771950Y-63988342D01*
X109861658Y-64078050D01*
X109861660Y-64078051D01*
X109861661Y-64078052D01*
X109865736Y-64081013D01*
X109864986Y-64082043D01*
X109893324Y-64115225D01*
X109889480Y-64164057D01*
X109865236Y-64188300D01*
X109865736Y-64188987D01*
X109861661Y-64191948D01*
X109861660Y-64191948D01*
X109861658Y-64191950D01*
X109771950Y-64281658D01*
X109771948Y-64281660D01*
X109771947Y-64281662D01*
X109714356Y-64394690D01*
X109714353Y-64394697D01*
X109707055Y-64440779D01*
X109699919Y-64485839D01*
X109699500Y-64488483D01*
X109699500Y-65051516D01*
X109714353Y-65145300D01*
X109714356Y-65145308D01*
X109770467Y-65255433D01*
X109771950Y-65258342D01*
X109861658Y-65348050D01*
X109861660Y-65348051D01*
X109861661Y-65348052D01*
X109865736Y-65351013D01*
X109864986Y-65352043D01*
X109893324Y-65385225D01*
X109889480Y-65434057D01*
X109865236Y-65458300D01*
X109865736Y-65458987D01*
X109861661Y-65461948D01*
X109861660Y-65461948D01*
X109861658Y-65461950D01*
X109771950Y-65551658D01*
X109771948Y-65551660D01*
X109771947Y-65551662D01*
X109714356Y-65664690D01*
X109714353Y-65664697D01*
X109699500Y-65758483D01*
X109699500Y-66321516D01*
X109714353Y-66415300D01*
X109714356Y-66415308D01*
X109770773Y-66526033D01*
X109771950Y-66528342D01*
X109861658Y-66618050D01*
X109861660Y-66618051D01*
X109861661Y-66618052D01*
X109865736Y-66621013D01*
X109864986Y-66622043D01*
X109893324Y-66655225D01*
X109889480Y-66704057D01*
X109865236Y-66728300D01*
X109865736Y-66728987D01*
X109861661Y-66731948D01*
X109861660Y-66731948D01*
X109861658Y-66731950D01*
X109771950Y-66821658D01*
X109771948Y-66821660D01*
X109771947Y-66821662D01*
X109714356Y-66934690D01*
X109714353Y-66934697D01*
X109699500Y-67028483D01*
X109699500Y-67478622D01*
X109680755Y-67523877D01*
X109635500Y-67542622D01*
X109617470Y-67540030D01*
X109562455Y-67523877D01*
X109538397Y-67516813D01*
X109408853Y-67516813D01*
X109284556Y-67553309D01*
X109284554Y-67553309D01*
X109175576Y-67623345D01*
X109175574Y-67623347D01*
X109090743Y-67721249D01*
X109090741Y-67721252D01*
X109036928Y-67839084D01*
X109018492Y-67967313D01*
X109036928Y-68095541D01*
X109090741Y-68213373D01*
X109090743Y-68213376D01*
X109175576Y-68311280D01*
X109284556Y-68381317D01*
X109408853Y-68417813D01*
X109408854Y-68417813D01*
X109538396Y-68417813D01*
X109538397Y-68417813D01*
X109662694Y-68381317D01*
X109771674Y-68311280D01*
X109856507Y-68213376D01*
X109910322Y-68095539D01*
X109923587Y-68003272D01*
X109948582Y-67961147D01*
X109996044Y-67949033D01*
X109996896Y-67949162D01*
X110068481Y-67960500D01*
X110333186Y-67960499D01*
X110378441Y-67979244D01*
X110397186Y-68024464D01*
X110399354Y-71935465D01*
X110380634Y-71980730D01*
X110335389Y-71999500D01*
X101084036Y-71999500D01*
X101038781Y-71980755D01*
X101020036Y-71935500D01*
X101020036Y-69400000D01*
X108144867Y-69400000D01*
X108163303Y-69528228D01*
X108217116Y-69646060D01*
X108217118Y-69646063D01*
X108301951Y-69743967D01*
X108410931Y-69814004D01*
X108535228Y-69850500D01*
X108535229Y-69850500D01*
X108664771Y-69850500D01*
X108664772Y-69850500D01*
X108789069Y-69814004D01*
X108898049Y-69743967D01*
X108982882Y-69646063D01*
X109036697Y-69528226D01*
X109055133Y-69400000D01*
X109036697Y-69271774D01*
X108982882Y-69153937D01*
X108898049Y-69056033D01*
X108898048Y-69056032D01*
X108789069Y-68985996D01*
X108664772Y-68949500D01*
X108535228Y-68949500D01*
X108410931Y-68985996D01*
X108410929Y-68985996D01*
X108301951Y-69056032D01*
X108301949Y-69056034D01*
X108217118Y-69153936D01*
X108217116Y-69153939D01*
X108163303Y-69271771D01*
X108144867Y-69400000D01*
X101020036Y-69400000D01*
X101020036Y-68720000D01*
X105144867Y-68720000D01*
X105163303Y-68848228D01*
X105217116Y-68966060D01*
X105217118Y-68966063D01*
X105301951Y-69063967D01*
X105410931Y-69134004D01*
X105535228Y-69170500D01*
X105535229Y-69170500D01*
X105664771Y-69170500D01*
X105664772Y-69170500D01*
X105789069Y-69134004D01*
X105898049Y-69063967D01*
X105982882Y-68966063D01*
X106036697Y-68848226D01*
X106055133Y-68720000D01*
X106036697Y-68591774D01*
X105982882Y-68473937D01*
X105898049Y-68376033D01*
X105898048Y-68376032D01*
X105789069Y-68305996D01*
X105664772Y-68269500D01*
X105535228Y-68269500D01*
X105410931Y-68305996D01*
X105410929Y-68305996D01*
X105301951Y-68376032D01*
X105301949Y-68376034D01*
X105217118Y-68473936D01*
X105217116Y-68473939D01*
X105163303Y-68591771D01*
X105144867Y-68720000D01*
X101020036Y-68720000D01*
X101020036Y-67000000D01*
X98158067Y-67000000D01*
X98112812Y-66981255D01*
X98094067Y-66936018D01*
X98094048Y-66870000D01*
X101644867Y-66870000D01*
X101663303Y-66998228D01*
X101717116Y-67116060D01*
X101717118Y-67116063D01*
X101801951Y-67213967D01*
X101910931Y-67284004D01*
X102035228Y-67320500D01*
X102035229Y-67320500D01*
X102164771Y-67320500D01*
X102164772Y-67320500D01*
X102289069Y-67284004D01*
X102398049Y-67213967D01*
X102482882Y-67116063D01*
X102536697Y-66998226D01*
X102555133Y-66870000D01*
X102536697Y-66741774D01*
X102532210Y-66731950D01*
X102482883Y-66623939D01*
X102482881Y-66623936D01*
X102398050Y-66526034D01*
X102398048Y-66526032D01*
X102289069Y-66455996D01*
X102284611Y-66454687D01*
X102164772Y-66419500D01*
X102035228Y-66419500D01*
X101910931Y-66455996D01*
X101910929Y-66455996D01*
X101801951Y-66526032D01*
X101801949Y-66526034D01*
X101717118Y-66623936D01*
X101717116Y-66623939D01*
X101663303Y-66741771D01*
X101644867Y-66870000D01*
X98094048Y-66870000D01*
X98094016Y-66754517D01*
X98112748Y-66709257D01*
X98157998Y-66690499D01*
X98424035Y-66690499D01*
X98424036Y-66690499D01*
X98517822Y-66675646D01*
X98630856Y-66618052D01*
X98630857Y-66618052D01*
X98630857Y-66618051D01*
X98630860Y-66618050D01*
X98720568Y-66528342D01*
X98778164Y-66415304D01*
X98793018Y-66321519D01*
X98793017Y-65758482D01*
X98778164Y-65664696D01*
X98720568Y-65551658D01*
X98630860Y-65461950D01*
X98630857Y-65461948D01*
X98626782Y-65458987D01*
X98627531Y-65457955D01*
X98599195Y-65424781D01*
X98603035Y-65375948D01*
X98627281Y-65351701D01*
X98626782Y-65351013D01*
X98630857Y-65348052D01*
X98630857Y-65348051D01*
X98630860Y-65348050D01*
X98720568Y-65258342D01*
X98778164Y-65145304D01*
X98793018Y-65051519D01*
X98793017Y-64731900D01*
X103544867Y-64731900D01*
X103563303Y-64860128D01*
X103617116Y-64977960D01*
X103617118Y-64977963D01*
X103680853Y-65051519D01*
X103701951Y-65075867D01*
X103810931Y-65145904D01*
X103935228Y-65182400D01*
X103935229Y-65182400D01*
X104064771Y-65182400D01*
X104064772Y-65182400D01*
X104189069Y-65145904D01*
X104298049Y-65075867D01*
X104382882Y-64977963D01*
X104436697Y-64860126D01*
X104452629Y-64749316D01*
X104596797Y-64749316D01*
X104615233Y-64877544D01*
X104669046Y-64995376D01*
X104669048Y-64995379D01*
X104707096Y-65039290D01*
X104753881Y-65093283D01*
X104862861Y-65163320D01*
X104987158Y-65199816D01*
X104987159Y-65199816D01*
X105116701Y-65199816D01*
X105116702Y-65199816D01*
X105240999Y-65163320D01*
X105349979Y-65093283D01*
X105377763Y-65061216D01*
X105421565Y-65039290D01*
X105468042Y-65054758D01*
X105474500Y-65061216D01*
X105502966Y-65094068D01*
X105611946Y-65164105D01*
X105736243Y-65200601D01*
X105736244Y-65200601D01*
X105865786Y-65200601D01*
X105865787Y-65200601D01*
X105990084Y-65164105D01*
X105990086Y-65164103D01*
X105993556Y-65162519D01*
X106042508Y-65160769D01*
X106078360Y-65194147D01*
X106078360Y-65194148D01*
X106118931Y-65282984D01*
X106118933Y-65282987D01*
X106175309Y-65348050D01*
X106203766Y-65380891D01*
X106312746Y-65450928D01*
X106437043Y-65487424D01*
X106437044Y-65487424D01*
X106566586Y-65487424D01*
X106566587Y-65487424D01*
X106690884Y-65450928D01*
X106695020Y-65448269D01*
X106743224Y-65439571D01*
X106783461Y-65467506D01*
X106792160Y-65515711D01*
X106787839Y-65528694D01*
X106783339Y-65538546D01*
X106764903Y-65666775D01*
X106783339Y-65795003D01*
X106837152Y-65912835D01*
X106837154Y-65912838D01*
X106921987Y-66010742D01*
X107030967Y-66080779D01*
X107155264Y-66117275D01*
X107155265Y-66117275D01*
X107284807Y-66117275D01*
X107284808Y-66117275D01*
X107409105Y-66080779D01*
X107471494Y-66040684D01*
X107768699Y-66040684D01*
X107787135Y-66168912D01*
X107840948Y-66286744D01*
X107840950Y-66286747D01*
X107925783Y-66384651D01*
X108034763Y-66454688D01*
X108159060Y-66491184D01*
X108159061Y-66491184D01*
X108288603Y-66491184D01*
X108288604Y-66491184D01*
X108412901Y-66454688D01*
X108521881Y-66384651D01*
X108606714Y-66286747D01*
X108660529Y-66168910D01*
X108678965Y-66040684D01*
X108660529Y-65912458D01*
X108606888Y-65795003D01*
X108606715Y-65794623D01*
X108606713Y-65794620D01*
X108521882Y-65696718D01*
X108521880Y-65696716D01*
X108412901Y-65626680D01*
X108288604Y-65590184D01*
X108159060Y-65590184D01*
X108034763Y-65626680D01*
X108034761Y-65626680D01*
X107925783Y-65696716D01*
X107925781Y-65696718D01*
X107840950Y-65794620D01*
X107840948Y-65794623D01*
X107787135Y-65912455D01*
X107768699Y-66040684D01*
X107471494Y-66040684D01*
X107518085Y-66010742D01*
X107602918Y-65912838D01*
X107656733Y-65795001D01*
X107675169Y-65666775D01*
X107656733Y-65538549D01*
X107652232Y-65528694D01*
X107602919Y-65420714D01*
X107602917Y-65420711D01*
X107518086Y-65322809D01*
X107518084Y-65322807D01*
X107409105Y-65252771D01*
X107352613Y-65236184D01*
X107284808Y-65216275D01*
X107155264Y-65216275D01*
X107087459Y-65236184D01*
X107030967Y-65252771D01*
X107030963Y-65252773D01*
X107026823Y-65255433D01*
X106978617Y-65264125D01*
X106938384Y-65236184D01*
X106929692Y-65187978D01*
X106934010Y-65175007D01*
X106938512Y-65165150D01*
X106956948Y-65036924D01*
X106938512Y-64908698D01*
X106924284Y-64877544D01*
X106884724Y-64790920D01*
X106882975Y-64741968D01*
X106908337Y-64710494D01*
X106992324Y-64656520D01*
X107077157Y-64558616D01*
X107130972Y-64440779D01*
X107149408Y-64312553D01*
X107130972Y-64184327D01*
X107077157Y-64066490D01*
X107041425Y-64025253D01*
X106989327Y-63965127D01*
X106990622Y-63964004D01*
X106971441Y-63925693D01*
X106986906Y-63879216D01*
X107052418Y-63803611D01*
X107106233Y-63685774D01*
X107124669Y-63557548D01*
X107106233Y-63429322D01*
X107052418Y-63311485D01*
X106977226Y-63224707D01*
X106961757Y-63178230D01*
X106977226Y-63140885D01*
X106991259Y-63124690D01*
X107052418Y-63054108D01*
X107106233Y-62936271D01*
X107124669Y-62808045D01*
X107106233Y-62679819D01*
X107052418Y-62561982D01*
X106967585Y-62464078D01*
X106967582Y-62464075D01*
X106956904Y-62457213D01*
X106928968Y-62416977D01*
X106937667Y-62368772D01*
X106943126Y-62361478D01*
X106946344Y-62357764D01*
X108258783Y-62357764D01*
X108277219Y-62485992D01*
X108331032Y-62603824D01*
X108331034Y-62603827D01*
X108415867Y-62701731D01*
X108524847Y-62771768D01*
X108649144Y-62808264D01*
X108649145Y-62808264D01*
X108778687Y-62808264D01*
X108778688Y-62808264D01*
X108902985Y-62771768D01*
X109011965Y-62701731D01*
X109096798Y-62603827D01*
X109150613Y-62485990D01*
X109169049Y-62357764D01*
X109150613Y-62229538D01*
X109148628Y-62225192D01*
X109096799Y-62111703D01*
X109096797Y-62111700D01*
X109011966Y-62013798D01*
X109011964Y-62013796D01*
X108902985Y-61943760D01*
X108808764Y-61916095D01*
X108778688Y-61907264D01*
X108649144Y-61907264D01*
X108524847Y-61943760D01*
X108524845Y-61943760D01*
X108415867Y-62013796D01*
X108415865Y-62013798D01*
X108331034Y-62111700D01*
X108331032Y-62111703D01*
X108277219Y-62229535D01*
X108258783Y-62357764D01*
X106946344Y-62357764D01*
X106990162Y-62307196D01*
X107043977Y-62189359D01*
X107062413Y-62061133D01*
X107043977Y-61932907D01*
X107036298Y-61916093D01*
X106990163Y-61815072D01*
X106990161Y-61815069D01*
X106905330Y-61717167D01*
X106905328Y-61717165D01*
X106796349Y-61647129D01*
X106791305Y-61645648D01*
X106672052Y-61610633D01*
X106542508Y-61610633D01*
X106418211Y-61647129D01*
X106418210Y-61647129D01*
X106378106Y-61672902D01*
X106329901Y-61681598D01*
X106289665Y-61653661D01*
X106285293Y-61645653D01*
X106253129Y-61575225D01*
X106234055Y-61533458D01*
X106234053Y-61533456D01*
X106149222Y-61435554D01*
X106149220Y-61435552D01*
X106040241Y-61365516D01*
X105989100Y-61350500D01*
X105915944Y-61329020D01*
X105786400Y-61329020D01*
X105662103Y-61365516D01*
X105662101Y-61365516D01*
X105553123Y-61435552D01*
X105553121Y-61435554D01*
X105468290Y-61533456D01*
X105468288Y-61533459D01*
X105414475Y-61651291D01*
X105396039Y-61779520D01*
X105414475Y-61907748D01*
X105468288Y-62025580D01*
X105468290Y-62025583D01*
X105542923Y-62111716D01*
X105553123Y-62123487D01*
X105662103Y-62193524D01*
X105786400Y-62230020D01*
X105786401Y-62230020D01*
X105915943Y-62230020D01*
X105915944Y-62230020D01*
X106040241Y-62193524D01*
X106080344Y-62167750D01*
X106128549Y-62159053D01*
X106168785Y-62186990D01*
X106173161Y-62195004D01*
X106224396Y-62307193D01*
X106224398Y-62307196D01*
X106309229Y-62405098D01*
X106309233Y-62405102D01*
X106319908Y-62411962D01*
X106347845Y-62452198D01*
X106339149Y-62500403D01*
X106333677Y-62507713D01*
X106286654Y-62561981D01*
X106286652Y-62561984D01*
X106232839Y-62679816D01*
X106214403Y-62808045D01*
X106232839Y-62936273D01*
X106286652Y-63054105D01*
X106286654Y-63054108D01*
X106361845Y-63140885D01*
X106377314Y-63187362D01*
X106361846Y-63224706D01*
X106286654Y-63311484D01*
X106286652Y-63311487D01*
X106232839Y-63429319D01*
X106214403Y-63557548D01*
X106232839Y-63685776D01*
X106286652Y-63803608D01*
X106286654Y-63803611D01*
X106374484Y-63904974D01*
X106373190Y-63906095D01*
X106392368Y-63944418D01*
X106376900Y-63990888D01*
X106311393Y-64066489D01*
X106311391Y-64066492D01*
X106257578Y-64184324D01*
X106239142Y-64312553D01*
X106252121Y-64402825D01*
X106240006Y-64450287D01*
X106197880Y-64475282D01*
X106150418Y-64463167D01*
X106140403Y-64453843D01*
X106132443Y-64444657D01*
X106099064Y-64406134D01*
X106099063Y-64406133D01*
X105990084Y-64336097D01*
X105987410Y-64335312D01*
X105865787Y-64299601D01*
X105736243Y-64299601D01*
X105611946Y-64336097D01*
X105611944Y-64336097D01*
X105502970Y-64406130D01*
X105502964Y-64406135D01*
X105475180Y-64438200D01*
X105431377Y-64460126D01*
X105384901Y-64444657D01*
X105378444Y-64438199D01*
X105349983Y-64405353D01*
X105349978Y-64405348D01*
X105240999Y-64335312D01*
X105181684Y-64317896D01*
X105116702Y-64298816D01*
X104987158Y-64298816D01*
X104862861Y-64335312D01*
X104862859Y-64335312D01*
X104753881Y-64405348D01*
X104753879Y-64405350D01*
X104669048Y-64503252D01*
X104669046Y-64503255D01*
X104615233Y-64621087D01*
X104596797Y-64749316D01*
X104452629Y-64749316D01*
X104455133Y-64731900D01*
X104436697Y-64603674D01*
X104416119Y-64558616D01*
X104382883Y-64485839D01*
X104382881Y-64485836D01*
X104298050Y-64387934D01*
X104298048Y-64387932D01*
X104189069Y-64317896D01*
X104126760Y-64299601D01*
X104064772Y-64281400D01*
X103935228Y-64281400D01*
X103810931Y-64317896D01*
X103810929Y-64317896D01*
X103701951Y-64387932D01*
X103701949Y-64387934D01*
X103617118Y-64485836D01*
X103617116Y-64485839D01*
X103563303Y-64603671D01*
X103544867Y-64731900D01*
X98793017Y-64731900D01*
X98793017Y-64488482D01*
X98778164Y-64394696D01*
X98720568Y-64281658D01*
X98630860Y-64191950D01*
X98630857Y-64191948D01*
X98626782Y-64188987D01*
X98627531Y-64187955D01*
X98599195Y-64154781D01*
X98603035Y-64105948D01*
X98627281Y-64081701D01*
X98626782Y-64081013D01*
X98630857Y-64078052D01*
X98630857Y-64078051D01*
X98630860Y-64078050D01*
X98720568Y-63988342D01*
X98778164Y-63875304D01*
X98793018Y-63781519D01*
X98793017Y-63400000D01*
X103244867Y-63400000D01*
X103263303Y-63528228D01*
X103317116Y-63646060D01*
X103317118Y-63646063D01*
X103401951Y-63743967D01*
X103510931Y-63814004D01*
X103635228Y-63850500D01*
X103635229Y-63850500D01*
X103764771Y-63850500D01*
X103764772Y-63850500D01*
X103889069Y-63814004D01*
X103998049Y-63743967D01*
X104082882Y-63646063D01*
X104136697Y-63528226D01*
X104155133Y-63400000D01*
X104136697Y-63271774D01*
X104093976Y-63178230D01*
X104082883Y-63153939D01*
X104082881Y-63153936D01*
X104071572Y-63140885D01*
X103998049Y-63056033D01*
X103998048Y-63056032D01*
X103889069Y-62985996D01*
X103764772Y-62949500D01*
X103635228Y-62949500D01*
X103510931Y-62985996D01*
X103510929Y-62985996D01*
X103401951Y-63056032D01*
X103401949Y-63056034D01*
X103317118Y-63153936D01*
X103317116Y-63153939D01*
X103263303Y-63271771D01*
X103244867Y-63400000D01*
X98793017Y-63400000D01*
X98793017Y-63218482D01*
X98778164Y-63124696D01*
X98720568Y-63011658D01*
X98630860Y-62921950D01*
X98630857Y-62921948D01*
X98626782Y-62918987D01*
X98627531Y-62917955D01*
X98599195Y-62884781D01*
X98603035Y-62835948D01*
X98627281Y-62811701D01*
X98626782Y-62811013D01*
X98630857Y-62808052D01*
X98630857Y-62808051D01*
X98630860Y-62808050D01*
X98720568Y-62718342D01*
X98778164Y-62605304D01*
X98793018Y-62511519D01*
X98793017Y-62138692D01*
X103114709Y-62138692D01*
X103133145Y-62266920D01*
X103186958Y-62384752D01*
X103186960Y-62384755D01*
X103255693Y-62464079D01*
X103271793Y-62482659D01*
X103380773Y-62552696D01*
X103505070Y-62589192D01*
X103505071Y-62589192D01*
X103634613Y-62589192D01*
X103634614Y-62589192D01*
X103758911Y-62552696D01*
X103867891Y-62482659D01*
X103952724Y-62384755D01*
X104006539Y-62266918D01*
X104006539Y-62266913D01*
X104007828Y-62262528D01*
X104009102Y-62262902D01*
X104031468Y-62225192D01*
X104078928Y-62213071D01*
X104087851Y-62215011D01*
X104167397Y-62238367D01*
X104167399Y-62238367D01*
X104296940Y-62238367D01*
X104296941Y-62238367D01*
X104421238Y-62201871D01*
X104530218Y-62131834D01*
X104615051Y-62033930D01*
X104668866Y-61916093D01*
X104687302Y-61787867D01*
X104668866Y-61659641D01*
X104664000Y-61648987D01*
X104615052Y-61541806D01*
X104615050Y-61541803D01*
X104614365Y-61541013D01*
X104530218Y-61443900D01*
X104530217Y-61443899D01*
X104421238Y-61373863D01*
X104392810Y-61365516D01*
X104296941Y-61337367D01*
X104167397Y-61337367D01*
X104043100Y-61373863D01*
X104043098Y-61373863D01*
X103934120Y-61443899D01*
X103934118Y-61443901D01*
X103849287Y-61541803D01*
X103849285Y-61541806D01*
X103795472Y-61659639D01*
X103794183Y-61664031D01*
X103792913Y-61663658D01*
X103770528Y-61701376D01*
X103723065Y-61713485D01*
X103714150Y-61711545D01*
X103673570Y-61699630D01*
X103634614Y-61688192D01*
X103505070Y-61688192D01*
X103380773Y-61724688D01*
X103380771Y-61724688D01*
X103271793Y-61794724D01*
X103271791Y-61794726D01*
X103186960Y-61892628D01*
X103186958Y-61892631D01*
X103133145Y-62010463D01*
X103114709Y-62138692D01*
X98793017Y-62138692D01*
X98793017Y-61948482D01*
X98778164Y-61854696D01*
X98720568Y-61741658D01*
X98630860Y-61651950D01*
X98630857Y-61651948D01*
X98626782Y-61648987D01*
X98627531Y-61647955D01*
X98599195Y-61614781D01*
X98603035Y-61565948D01*
X98627281Y-61541701D01*
X98626782Y-61541013D01*
X98630857Y-61538052D01*
X98630857Y-61538051D01*
X98630860Y-61538050D01*
X98720568Y-61448342D01*
X98778164Y-61335304D01*
X98793018Y-61241519D01*
X98793017Y-60900000D01*
X101844367Y-60900000D01*
X101862803Y-61028228D01*
X101916616Y-61146060D01*
X101916618Y-61146063D01*
X101974136Y-61212444D01*
X102001451Y-61243967D01*
X102110431Y-61314004D01*
X102234728Y-61350500D01*
X102234729Y-61350500D01*
X102364271Y-61350500D01*
X102364272Y-61350500D01*
X102488569Y-61314004D01*
X102597549Y-61243967D01*
X102682382Y-61146063D01*
X102736197Y-61028226D01*
X102754633Y-60900000D01*
X102750101Y-60868479D01*
X107615469Y-60868479D01*
X107633905Y-60996707D01*
X107687718Y-61114539D01*
X107687720Y-61114542D01*
X107772553Y-61212446D01*
X107881533Y-61282483D01*
X108005830Y-61318979D01*
X108005831Y-61318979D01*
X108135373Y-61318979D01*
X108135374Y-61318979D01*
X108259671Y-61282483D01*
X108368651Y-61212446D01*
X108453484Y-61114542D01*
X108507299Y-60996705D01*
X108525735Y-60868479D01*
X108507299Y-60740253D01*
X108479088Y-60678481D01*
X108453485Y-60622418D01*
X108453483Y-60622415D01*
X108368652Y-60524513D01*
X108368650Y-60524511D01*
X108259671Y-60454475D01*
X108242727Y-60449500D01*
X108135374Y-60417979D01*
X108005830Y-60417979D01*
X107881533Y-60454475D01*
X107881531Y-60454475D01*
X107772553Y-60524511D01*
X107772551Y-60524513D01*
X107687720Y-60622415D01*
X107687718Y-60622418D01*
X107633905Y-60740250D01*
X107615469Y-60868479D01*
X102750101Y-60868479D01*
X102736197Y-60771774D01*
X102721800Y-60740250D01*
X102682383Y-60653939D01*
X102682381Y-60653936D01*
X102597550Y-60556034D01*
X102597548Y-60556032D01*
X102488569Y-60485996D01*
X102364272Y-60449500D01*
X102234728Y-60449500D01*
X102110431Y-60485996D01*
X102110429Y-60485996D01*
X102001451Y-60556032D01*
X102001449Y-60556034D01*
X101916618Y-60653936D01*
X101916616Y-60653939D01*
X101862803Y-60771771D01*
X101844367Y-60900000D01*
X98793017Y-60900000D01*
X98793017Y-60678482D01*
X98778164Y-60584696D01*
X98720568Y-60471658D01*
X98630860Y-60381950D01*
X98630857Y-60381948D01*
X98626782Y-60378987D01*
X98627531Y-60377955D01*
X98599195Y-60344781D01*
X98603035Y-60295948D01*
X98627281Y-60271701D01*
X98626782Y-60271013D01*
X98630857Y-60268052D01*
X98630857Y-60268051D01*
X98630860Y-60268050D01*
X98720568Y-60178342D01*
X98778164Y-60065304D01*
X98793018Y-59971519D01*
X98793017Y-59408482D01*
X98787473Y-59373473D01*
X100627922Y-59373473D01*
X100646358Y-59501701D01*
X100700171Y-59619533D01*
X100700173Y-59619536D01*
X100715012Y-59636662D01*
X100785006Y-59717440D01*
X100893986Y-59787477D01*
X101018283Y-59823973D01*
X101018284Y-59823973D01*
X101147826Y-59823973D01*
X101147827Y-59823973D01*
X101272124Y-59787477D01*
X101381104Y-59717440D01*
X101465937Y-59619536D01*
X101519752Y-59501699D01*
X101535726Y-59390599D01*
X101754268Y-59390599D01*
X101772704Y-59518827D01*
X101826517Y-59636659D01*
X101826519Y-59636662D01*
X101911352Y-59734566D01*
X102020332Y-59804603D01*
X102144629Y-59841099D01*
X102144630Y-59841099D01*
X102274172Y-59841099D01*
X102274173Y-59841099D01*
X102398470Y-59804603D01*
X102507450Y-59734566D01*
X102592283Y-59636662D01*
X102646098Y-59518825D01*
X102664534Y-59390599D01*
X102646098Y-59262373D01*
X102638275Y-59245244D01*
X102592284Y-59144538D01*
X102592282Y-59144535D01*
X102564047Y-59111950D01*
X102507450Y-59046632D01*
X102507449Y-59046631D01*
X102398470Y-58976595D01*
X102274173Y-58940099D01*
X102144629Y-58940099D01*
X102020332Y-58976595D01*
X102020330Y-58976595D01*
X101911352Y-59046631D01*
X101911350Y-59046633D01*
X101826519Y-59144535D01*
X101826517Y-59144538D01*
X101772704Y-59262370D01*
X101754268Y-59390599D01*
X101535726Y-59390599D01*
X101538188Y-59373473D01*
X101519752Y-59245247D01*
X101499845Y-59201658D01*
X101465938Y-59127412D01*
X101465936Y-59127409D01*
X101381105Y-59029507D01*
X101381103Y-59029505D01*
X101272124Y-58959469D01*
X101206154Y-58940099D01*
X101147827Y-58922973D01*
X101018283Y-58922973D01*
X100893986Y-58959469D01*
X100893984Y-58959469D01*
X100785006Y-59029505D01*
X100785004Y-59029507D01*
X100700173Y-59127409D01*
X100700171Y-59127412D01*
X100646358Y-59245244D01*
X100627922Y-59373473D01*
X98787473Y-59373473D01*
X98778164Y-59314696D01*
X98720568Y-59201658D01*
X98630860Y-59111950D01*
X98630857Y-59111948D01*
X98626782Y-59108987D01*
X98627531Y-59107955D01*
X98599195Y-59074781D01*
X98603035Y-59025948D01*
X98627281Y-59001701D01*
X98626782Y-59001013D01*
X98630857Y-58998052D01*
X98630857Y-58998051D01*
X98630860Y-58998050D01*
X98720568Y-58908342D01*
X98778164Y-58795304D01*
X98793018Y-58701519D01*
X98793017Y-58300000D01*
X105944867Y-58300000D01*
X105963303Y-58428228D01*
X106017116Y-58546060D01*
X106017118Y-58546063D01*
X106101951Y-58643967D01*
X106210931Y-58714004D01*
X106335228Y-58750500D01*
X106335229Y-58750500D01*
X106464771Y-58750500D01*
X106464772Y-58750500D01*
X106589069Y-58714004D01*
X106698049Y-58643967D01*
X106782882Y-58546063D01*
X106836697Y-58428226D01*
X106855133Y-58300000D01*
X106836697Y-58171774D01*
X106821493Y-58138483D01*
X106782883Y-58053939D01*
X106782881Y-58053936D01*
X106698050Y-57956034D01*
X106698048Y-57956032D01*
X106589069Y-57885996D01*
X106464772Y-57849500D01*
X106335228Y-57849500D01*
X106210931Y-57885996D01*
X106210929Y-57885996D01*
X106101951Y-57956032D01*
X106101949Y-57956034D01*
X106017118Y-58053936D01*
X106017116Y-58053939D01*
X105963303Y-58171771D01*
X105944867Y-58300000D01*
X98793017Y-58300000D01*
X98793017Y-58138482D01*
X98778164Y-58044696D01*
X98720568Y-57931658D01*
X98630860Y-57841950D01*
X98630857Y-57841948D01*
X98626782Y-57838987D01*
X98627531Y-57837955D01*
X98599195Y-57804781D01*
X98603035Y-57755948D01*
X98627281Y-57731701D01*
X98626782Y-57731013D01*
X98630857Y-57728052D01*
X98630857Y-57728051D01*
X98630860Y-57728050D01*
X98720568Y-57638342D01*
X98778164Y-57525304D01*
X98793018Y-57431519D01*
X98793017Y-57000000D01*
X102264903Y-57000000D01*
X102283339Y-57128228D01*
X102337152Y-57246060D01*
X102337154Y-57246063D01*
X102421987Y-57343967D01*
X102530967Y-57414004D01*
X102655264Y-57450500D01*
X102655265Y-57450500D01*
X102784807Y-57450500D01*
X102784808Y-57450500D01*
X102909105Y-57414004D01*
X103018085Y-57343967D01*
X103102918Y-57246063D01*
X103111820Y-57226571D01*
X103147671Y-57193193D01*
X103196623Y-57194942D01*
X103228252Y-57226571D01*
X103237152Y-57246060D01*
X103237154Y-57246063D01*
X103321987Y-57343967D01*
X103430967Y-57414004D01*
X103555264Y-57450500D01*
X103555265Y-57450500D01*
X103684807Y-57450500D01*
X103684808Y-57450500D01*
X103809105Y-57414004D01*
X103918085Y-57343967D01*
X104002918Y-57246063D01*
X104056733Y-57128226D01*
X104075169Y-57000000D01*
X104056733Y-56871774D01*
X104012398Y-56774696D01*
X104002919Y-56753939D01*
X104002917Y-56753936D01*
X103918086Y-56656034D01*
X103918084Y-56656032D01*
X103809105Y-56585996D01*
X103684808Y-56549500D01*
X103555264Y-56549500D01*
X103430967Y-56585996D01*
X103430965Y-56585996D01*
X103321987Y-56656032D01*
X103321985Y-56656034D01*
X103237154Y-56753936D01*
X103237154Y-56753937D01*
X103228252Y-56773429D01*
X103192400Y-56806806D01*
X103143448Y-56805057D01*
X103111820Y-56773429D01*
X103110366Y-56770246D01*
X103102918Y-56753937D01*
X103060501Y-56704985D01*
X103018086Y-56656034D01*
X103018084Y-56656032D01*
X102909105Y-56585996D01*
X102784808Y-56549500D01*
X102655264Y-56549500D01*
X102530967Y-56585996D01*
X102530965Y-56585996D01*
X102421987Y-56656032D01*
X102421985Y-56656034D01*
X102337154Y-56753936D01*
X102337152Y-56753939D01*
X102283339Y-56871771D01*
X102264903Y-57000000D01*
X98793017Y-57000000D01*
X98793017Y-56868482D01*
X98778164Y-56774696D01*
X98720568Y-56661658D01*
X98630860Y-56571950D01*
X98630857Y-56571948D01*
X98630855Y-56571947D01*
X98517827Y-56514356D01*
X98517820Y-56514353D01*
X98462503Y-56505592D01*
X98424037Y-56499500D01*
X98424034Y-56499500D01*
X98155137Y-56499500D01*
X98109882Y-56480755D01*
X98091137Y-56435518D01*
X98091099Y-56299365D01*
X98091053Y-56135920D01*
X98109785Y-56090662D01*
X98155035Y-56071904D01*
X98190610Y-56082690D01*
X98294214Y-56151916D01*
X98294217Y-56151917D01*
X98427069Y-56206946D01*
X98427071Y-56206947D01*
X98539999Y-56229410D01*
X98540000Y-56229410D01*
X98540000Y-55788788D01*
X98600504Y-55805000D01*
X98679496Y-55805000D01*
X98740000Y-55788788D01*
X98740000Y-56229410D01*
X98852928Y-56206947D01*
X98852930Y-56206946D01*
X98985782Y-56151917D01*
X98985790Y-56151913D01*
X99105347Y-56072028D01*
X99207028Y-55970347D01*
X99286913Y-55850790D01*
X99286917Y-55850782D01*
X99341946Y-55717930D01*
X99341947Y-55717928D01*
X99370000Y-55576901D01*
X99370000Y-55429998D01*
X99388745Y-55384743D01*
X99434000Y-55365998D01*
X99479255Y-55384743D01*
X99493137Y-55405527D01*
X99502755Y-55428770D01*
X99502880Y-55428957D01*
X99502883Y-55428960D01*
X99502884Y-55428961D01*
X99531055Y-55457086D01*
X99559132Y-55485184D01*
X99559329Y-55485315D01*
X99559330Y-55485315D01*
X99559332Y-55485317D01*
X99595988Y-55500465D01*
X99596045Y-55500522D01*
X99596057Y-55500494D01*
X99632811Y-55515733D01*
X99632812Y-55515733D01*
X99632814Y-55515734D01*
X99632816Y-55515734D01*
X99633039Y-55515778D01*
X99633043Y-55515778D01*
X99633049Y-55515781D01*
X99661550Y-55515757D01*
X99697158Y-55526542D01*
X99771873Y-55576465D01*
X99771874Y-55576465D01*
X99771875Y-55576466D01*
X99785467Y-55582096D01*
X99890256Y-55625501D01*
X99890259Y-55625501D01*
X99890260Y-55625502D01*
X100015928Y-55650500D01*
X100015931Y-55650500D01*
X100144072Y-55650500D01*
X100269739Y-55625502D01*
X100269739Y-55625501D01*
X100269744Y-55625501D01*
X100388127Y-55576465D01*
X100462416Y-55526826D01*
X100497989Y-55516041D01*
X101416239Y-55516369D01*
X101461487Y-55535130D01*
X101480216Y-55580392D01*
X101464585Y-55622279D01*
X101437154Y-55653936D01*
X101437152Y-55653939D01*
X101383339Y-55771771D01*
X101364903Y-55900000D01*
X101383339Y-56028228D01*
X101437152Y-56146060D01*
X101437154Y-56146063D01*
X101489908Y-56206946D01*
X101521987Y-56243967D01*
X101630967Y-56314004D01*
X101755264Y-56350500D01*
X101755265Y-56350500D01*
X101884807Y-56350500D01*
X101884808Y-56350500D01*
X102009105Y-56314004D01*
X102118085Y-56243967D01*
X102202918Y-56146063D01*
X102256733Y-56028226D01*
X102275169Y-55900000D01*
X102256733Y-55771774D01*
X102202918Y-55653937D01*
X102175735Y-55622566D01*
X102160267Y-55576090D01*
X102182193Y-55532288D01*
X102224125Y-55516656D01*
X106199051Y-55518073D01*
X106244299Y-55536834D01*
X106263028Y-55582096D01*
X106257244Y-55608660D01*
X106203303Y-55726771D01*
X106184867Y-55855000D01*
X106203303Y-55983228D01*
X106257116Y-56101060D01*
X106257118Y-56101063D01*
X106301182Y-56151917D01*
X106341951Y-56198967D01*
X106450931Y-56269004D01*
X106575228Y-56305500D01*
X106575229Y-56305500D01*
X106704771Y-56305500D01*
X106704772Y-56305500D01*
X106829069Y-56269004D01*
X106938049Y-56198967D01*
X107022882Y-56101063D01*
X107076697Y-55983226D01*
X107095133Y-55855000D01*
X107076697Y-55726774D01*
X107041863Y-55650500D01*
X107022899Y-55608974D01*
X107021150Y-55560022D01*
X107054528Y-55524171D01*
X107081134Y-55518387D01*
X107986045Y-55518710D01*
X108021578Y-55529496D01*
X108091872Y-55576465D01*
X108105467Y-55582096D01*
X108210256Y-55625501D01*
X108210259Y-55625501D01*
X108210260Y-55625502D01*
X108335928Y-55650500D01*
X108335931Y-55650500D01*
X108464072Y-55650500D01*
X108589739Y-55625502D01*
X108589739Y-55625501D01*
X108589744Y-55625501D01*
X108708127Y-55576465D01*
X108777979Y-55529790D01*
X108813558Y-55519005D01*
X108839269Y-55519015D01*
X108839271Y-55519013D01*
X108839273Y-55519014D01*
X108839500Y-55518969D01*
X108839502Y-55518968D01*
X108839504Y-55518968D01*
X108876114Y-55503768D01*
X108876185Y-55503739D01*
X108893556Y-55496550D01*
X108912972Y-55488517D01*
X108912976Y-55488512D01*
X108913146Y-55488400D01*
X108913167Y-55488385D01*
X108913171Y-55488384D01*
X108916366Y-55485184D01*
X108941086Y-55460423D01*
X108941100Y-55460437D01*
X108941120Y-55460387D01*
X108969394Y-55432136D01*
X108969397Y-55432128D01*
X108969474Y-55432014D01*
X108969520Y-55431942D01*
X108969527Y-55431936D01*
X108984704Y-55395209D01*
X108984704Y-55395208D01*
X108984718Y-55395213D01*
X108984733Y-55395137D01*
X108986884Y-55389950D01*
X109021535Y-55355331D01*
X109070519Y-55355354D01*
G37*
%TD.AperFunction*%
%TA.AperFunction,Conductor*%
G36*
X109940000Y-56229410D02*
G01*
X110052928Y-56206947D01*
X110052930Y-56206946D01*
X110185782Y-56151917D01*
X110185790Y-56151913D01*
X110291042Y-56081587D01*
X110339084Y-56072031D01*
X110379812Y-56099245D01*
X110390598Y-56134765D01*
X110390765Y-56435464D01*
X110372045Y-56480730D01*
X110326801Y-56499500D01*
X110068483Y-56499500D01*
X109974699Y-56514353D01*
X109974696Y-56514354D01*
X109950165Y-56526853D01*
X109901333Y-56530695D01*
X109864086Y-56498883D01*
X109857763Y-56478938D01*
X109856733Y-56471774D01*
X109840175Y-56435518D01*
X109802919Y-56353939D01*
X109802917Y-56353936D01*
X109755632Y-56299365D01*
X109740000Y-56257454D01*
X109740000Y-55788788D01*
X109800504Y-55805000D01*
X109879496Y-55805000D01*
X109940000Y-55788788D01*
X109940000Y-56229410D01*
G37*
%TD.AperFunction*%
%TD*%
M02*
